<svg version="1.1" xmlns="http://www.w3.org/2000/svg" xmlns:xlink="http://www.w3.org/1999/xlink" stroke-linecap="round" stroke-linejoin="round" stroke-width="0" fill-rule="evenodd" clip-rule="evenodd" id="RdI9p4F3STvOeV-hvi1R_top" viewBox="0 -76200 276225 79756" width="276.225mm" height="79.756mm" class="w-100 h-100"><defs><style>.RdI9p4F3STvOeV-hvi1R_fr4 {color: #666666;}
.RdI9p4F3STvOeV-hvi1R_cu {color: #cccccc;}
.RdI9p4F3STvOeV-hvi1R_cf {color: #cc9933;}
.RdI9p4F3STvOeV-hvi1R_sm {color: #ffffff; opacity: 0.75;}
.RdI9p4F3STvOeV-hvi1R_ss {color: #000000;}
.RdI9p4F3STvOeV-hvi1R_sp {color: #999999;}
.RdI9p4F3STvOeV-hvi1R_out {color: #000000;}</style><circle cx="0" cy="0" r="325" id="biufP6uAt76syfbBaaGp_pad-13"/><rect x="-500" y="-1050" width="1000" height="2100" rx="500" ry="500" id="biufP6uAt76syfbBaaGp_pad-14"/><rect x="-500" y="-800" width="1000" height="1600" rx="500" ry="500" id="biufP6uAt76syfbBaaGp_pad-15"/><circle cx="0" cy="0" r="875" id="biufP6uAt76syfbBaaGp_pad-16"/><circle cx="0" cy="0" r="1993.9" id="biufP6uAt76syfbBaaGp_pad-17"/><circle cx="0" cy="0" r="1524" id="biufP6uAt76syfbBaaGp_pad-18"/><mask id="biufP6uAt76syfbBaaGp_clear-1" fill="#000" stroke="#000"><g><rect x="107584.714" y="-72765.653" width="60169.765" height="12671.024" fill="#fff"/><use xlink:href="#biufP6uAt76syfbBaaGp_pad-13" x="141066" y="-1170"/><use xlink:href="#biufP6uAt76syfbBaaGp_pad-13" x="135286" y="-1170"/><use xlink:href="#biufP6uAt76syfbBaaGp_pad-14" x="133856" y="-1700"/><use xlink:href="#biufP6uAt76syfbBaaGp_pad-14" x="142496" y="-1700"/><use xlink:href="#biufP6uAt76syfbBaaGp_pad-15" x="133856" y="2480"/><use xlink:href="#biufP6uAt76syfbBaaGp_pad-15" x="142496" y="2480"/><use xlink:href="#biufP6uAt76syfbBaaGp_pad-16" x="38417.5" y="-9525"/><use xlink:href="#biufP6uAt76syfbBaaGp_pad-16" x="28257.5" y="-9525"/><use xlink:href="#biufP6uAt76syfbBaaGp_pad-17" x="33337.5" y="-9525"/><use xlink:href="#biufP6uAt76syfbBaaGp_pad-16" x="269398.75" y="-9525"/><use xlink:href="#biufP6uAt76syfbBaaGp_pad-16" x="259238.75" y="-9525"/><use xlink:href="#biufP6uAt76syfbBaaGp_pad-17" x="264318.75" y="-9525"/><use xlink:href="#biufP6uAt76syfbBaaGp_pad-16" x="21748.75" y="-28575"/><use xlink:href="#biufP6uAt76syfbBaaGp_pad-16" x="11588.75" y="-28575"/><use xlink:href="#biufP6uAt76syfbBaaGp_pad-17" x="16668.75" y="-28575"/><use xlink:href="#biufP6uAt76syfbBaaGp_pad-16" x="47942.5" y="-28575"/><use xlink:href="#biufP6uAt76syfbBaaGp_pad-16" x="37782.5" y="-28575"/><use xlink:href="#biufP6uAt76syfbBaaGp_pad-17" x="42862.5" y="-28575"/><use xlink:href="#biufP6uAt76syfbBaaGp_pad-16" x="264636.25" y="-28575"/><use xlink:href="#biufP6uAt76syfbBaaGp_pad-16" x="254476.25" y="-28575"/><use xlink:href="#biufP6uAt76syfbBaaGp_pad-17" x="259556.25" y="-28575"/><use xlink:href="#biufP6uAt76syfbBaaGp_pad-17" x="33337.5" y="-39370"/><use xlink:href="#biufP6uAt76syfbBaaGp_pad-17" x="9525" y="-39370"/><use xlink:href="#biufP6uAt76syfbBaaGp_pad-18" x="33337.5" y="-54610"/><use xlink:href="#biufP6uAt76syfbBaaGp_pad-18" x="9525" y="-54610"/><use xlink:href="#biufP6uAt76syfbBaaGp_pad-16" x="26511.25" y="-47625"/><use xlink:href="#biufP6uAt76syfbBaaGp_pad-16" x="16351.25" y="-47625"/><use xlink:href="#biufP6uAt76syfbBaaGp_pad-17" x="21431.25" y="-47625"/><use xlink:href="#biufP6uAt76syfbBaaGp_pad-16" x="57467.5" y="-47625"/><use xlink:href="#biufP6uAt76syfbBaaGp_pad-16" x="47307.5" y="-47625"/><use xlink:href="#biufP6uAt76syfbBaaGp_pad-17" x="52387.5" y="-47625"/><use xlink:href="#biufP6uAt76syfbBaaGp_pad-17" x="266700" y="-39370"/><use xlink:href="#biufP6uAt76syfbBaaGp_pad-17" x="242887.5" y="-39370"/><use xlink:href="#biufP6uAt76syfbBaaGp_pad-18" x="266700" y="-54610"/><use xlink:href="#biufP6uAt76syfbBaaGp_pad-18" x="242887.5" y="-54610"/><use xlink:href="#biufP6uAt76syfbBaaGp_pad-16" x="259873.75" y="-47625"/><use xlink:href="#biufP6uAt76syfbBaaGp_pad-16" x="249713.75" y="-47625"/><use xlink:href="#biufP6uAt76syfbBaaGp_pad-17" x="254793.75" y="-47625"/><use xlink:href="#biufP6uAt76syfbBaaGp_pad-16" x="43180" y="-66675"/><use xlink:href="#biufP6uAt76syfbBaaGp_pad-16" x="33020" y="-66675"/><use xlink:href="#biufP6uAt76syfbBaaGp_pad-17" x="38100" y="-66675"/><use xlink:href="#biufP6uAt76syfbBaaGp_pad-16" x="64611.25" y="-66675"/><use xlink:href="#biufP6uAt76syfbBaaGp_pad-16" x="54451.25" y="-66675"/><use xlink:href="#biufP6uAt76syfbBaaGp_pad-17" x="59531.25" y="-66675"/><use xlink:href="#biufP6uAt76syfbBaaGp_pad-17" x="102393.75" y="-58420"/><use xlink:href="#biufP6uAt76syfbBaaGp_pad-17" x="78581.25" y="-58420"/><use xlink:href="#biufP6uAt76syfbBaaGp_pad-18" x="102393.75" y="-73660"/><use xlink:href="#biufP6uAt76syfbBaaGp_pad-18" x="78581.25" y="-73660"/><use xlink:href="#biufP6uAt76syfbBaaGp_pad-16" x="95567.5" y="-66675"/><use xlink:href="#biufP6uAt76syfbBaaGp_pad-16" x="85407.5" y="-66675"/><use xlink:href="#biufP6uAt76syfbBaaGp_pad-17" x="90487.5" y="-66675"/><use xlink:href="#biufP6uAt76syfbBaaGp_pad-17" x="157162.5" y="-58420"/><use xlink:href="#biufP6uAt76syfbBaaGp_pad-17" x="119062.5" y="-58420"/><use xlink:href="#biufP6uAt76syfbBaaGp_pad-18" x="157162.5" y="-73660"/><use xlink:href="#biufP6uAt76syfbBaaGp_pad-18" x="119062.5" y="-73660"/><use xlink:href="#biufP6uAt76syfbBaaGp_pad-17" x="195262.5" y="-58420"/><use xlink:href="#biufP6uAt76syfbBaaGp_pad-17" x="80962.5" y="-58420"/><use xlink:href="#biufP6uAt76syfbBaaGp_pad-18" x="195262.5" y="-73660"/><use xlink:href="#biufP6uAt76syfbBaaGp_pad-18" x="80962.5" y="-73660"/><use xlink:href="#biufP6uAt76syfbBaaGp_pad-16" x="143192.5" y="-66675"/><use xlink:href="#biufP6uAt76syfbBaaGp_pad-16" x="133032.5" y="-66675"/><use xlink:href="#biufP6uAt76syfbBaaGp_pad-17" x="138112.5" y="-66675"/><use xlink:href="#biufP6uAt76syfbBaaGp_pad-17" x="197643.75" y="-58420"/><use xlink:href="#biufP6uAt76syfbBaaGp_pad-17" x="173831.25" y="-58420"/><use xlink:href="#biufP6uAt76syfbBaaGp_pad-18" x="197643.75" y="-73660"/><use xlink:href="#biufP6uAt76syfbBaaGp_pad-18" x="173831.25" y="-73660"/><use xlink:href="#biufP6uAt76syfbBaaGp_pad-16" x="190817.5" y="-66675"/><use xlink:href="#biufP6uAt76syfbBaaGp_pad-16" x="180657.5" y="-66675"/><use xlink:href="#biufP6uAt76syfbBaaGp_pad-17" x="185737.5" y="-66675"/><use xlink:href="#biufP6uAt76syfbBaaGp_pad-16" x="221773.75" y="-66675"/><use xlink:href="#biufP6uAt76syfbBaaGp_pad-16" x="211613.75" y="-66675"/><use xlink:href="#biufP6uAt76syfbBaaGp_pad-17" x="216693.75" y="-66675"/><use xlink:href="#biufP6uAt76syfbBaaGp_pad-16" x="243205" y="-66675"/><use xlink:href="#biufP6uAt76syfbBaaGp_pad-16" x="233045" y="-66675"/><use xlink:href="#biufP6uAt76syfbBaaGp_pad-17" x="238125" y="-66675"/><use xlink:href="#biufP6uAt76syfbBaaGp_pad-16" x="16986.25" y="-9525"/><use xlink:href="#biufP6uAt76syfbBaaGp_pad-16" x="6826.25" y="-9525"/><use xlink:href="#biufP6uAt76syfbBaaGp_pad-17" x="11906.25" y="-9525"/><use xlink:href="#biufP6uAt76syfbBaaGp_pad-16" x="95567.5" y="-47625"/><use xlink:href="#biufP6uAt76syfbBaaGp_pad-16" x="85407.5" y="-47625"/><use xlink:href="#biufP6uAt76syfbBaaGp_pad-17" x="90487.5" y="-47625"/><use xlink:href="#biufP6uAt76syfbBaaGp_pad-16" x="95567.5" y="-9525"/><use xlink:href="#biufP6uAt76syfbBaaGp_pad-16" x="85407.5" y="-9525"/><use xlink:href="#biufP6uAt76syfbBaaGp_pad-17" x="90487.5" y="-9525"/><use xlink:href="#biufP6uAt76syfbBaaGp_pad-16" x="228917.5" y="-47625"/><use xlink:href="#biufP6uAt76syfbBaaGp_pad-16" x="218757.5" y="-47625"/><use xlink:href="#biufP6uAt76syfbBaaGp_pad-17" x="223837.5" y="-47625"/><use xlink:href="#biufP6uAt76syfbBaaGp_pad-16" x="209867.5" y="-47625"/><use xlink:href="#biufP6uAt76syfbBaaGp_pad-16" x="199707.5" y="-47625"/><use xlink:href="#biufP6uAt76syfbBaaGp_pad-17" x="204787.5" y="-47625"/><use xlink:href="#biufP6uAt76syfbBaaGp_pad-16" x="190817.5" y="-47625"/><use xlink:href="#biufP6uAt76syfbBaaGp_pad-16" x="180657.5" y="-47625"/><use xlink:href="#biufP6uAt76syfbBaaGp_pad-17" x="185737.5" y="-47625"/><use xlink:href="#biufP6uAt76syfbBaaGp_pad-16" x="171767.5" y="-47625"/><use xlink:href="#biufP6uAt76syfbBaaGp_pad-16" x="161607.5" y="-47625"/><use xlink:href="#biufP6uAt76syfbBaaGp_pad-17" x="166687.5" y="-47625"/><use xlink:href="#biufP6uAt76syfbBaaGp_pad-16" x="152717.5" y="-47625"/><use xlink:href="#biufP6uAt76syfbBaaGp_pad-16" x="142557.5" y="-47625"/><use xlink:href="#biufP6uAt76syfbBaaGp_pad-17" x="147637.5" y="-47625"/><use xlink:href="#biufP6uAt76syfbBaaGp_pad-16" x="133667.5" y="-47625"/><use xlink:href="#biufP6uAt76syfbBaaGp_pad-16" x="123507.5" y="-47625"/><use xlink:href="#biufP6uAt76syfbBaaGp_pad-17" x="128587.5" y="-47625"/><use xlink:href="#biufP6uAt76syfbBaaGp_pad-16" x="114617.5" y="-47625"/><use xlink:href="#biufP6uAt76syfbBaaGp_pad-16" x="104457.5" y="-47625"/><use xlink:href="#biufP6uAt76syfbBaaGp_pad-17" x="109537.5" y="-47625"/><use xlink:href="#biufP6uAt76syfbBaaGp_pad-16" x="76517.5" y="-47625"/><use xlink:href="#biufP6uAt76syfbBaaGp_pad-16" x="66357.5" y="-47625"/><use xlink:href="#biufP6uAt76syfbBaaGp_pad-17" x="71437.5" y="-47625"/><use xlink:href="#biufP6uAt76syfbBaaGp_pad-16" x="238442.5" y="-28575"/><use xlink:href="#biufP6uAt76syfbBaaGp_pad-16" x="228282.5" y="-28575"/><use xlink:href="#biufP6uAt76syfbBaaGp_pad-17" x="233362.5" y="-28575"/><use xlink:href="#biufP6uAt76syfbBaaGp_pad-16" x="219392.5" y="-28575"/><use xlink:href="#biufP6uAt76syfbBaaGp_pad-16" x="209232.5" y="-28575"/><use xlink:href="#biufP6uAt76syfbBaaGp_pad-17" x="214312.5" y="-28575"/><use xlink:href="#biufP6uAt76syfbBaaGp_pad-16" x="200342.5" y="-28575"/><use xlink:href="#biufP6uAt76syfbBaaGp_pad-16" x="190182.5" y="-28575"/><use xlink:href="#biufP6uAt76syfbBaaGp_pad-17" x="195262.5" y="-28575"/><use xlink:href="#biufP6uAt76syfbBaaGp_pad-16" x="181292.5" y="-28575"/><use xlink:href="#biufP6uAt76syfbBaaGp_pad-16" x="171132.5" y="-28575"/><use xlink:href="#biufP6uAt76syfbBaaGp_pad-17" x="176212.5" y="-28575"/><use xlink:href="#biufP6uAt76syfbBaaGp_pad-16" x="162242.5" y="-28575"/><use xlink:href="#biufP6uAt76syfbBaaGp_pad-16" x="152082.5" y="-28575"/><use xlink:href="#biufP6uAt76syfbBaaGp_pad-17" x="157162.5" y="-28575"/><use xlink:href="#biufP6uAt76syfbBaaGp_pad-16" x="143192.5" y="-28575"/><use xlink:href="#biufP6uAt76syfbBaaGp_pad-16" x="133032.5" y="-28575"/><use xlink:href="#biufP6uAt76syfbBaaGp_pad-17" x="138112.5" y="-28575"/><use xlink:href="#biufP6uAt76syfbBaaGp_pad-16" x="124142.5" y="-28575"/><use xlink:href="#biufP6uAt76syfbBaaGp_pad-16" x="113982.5" y="-28575"/><use xlink:href="#biufP6uAt76syfbBaaGp_pad-17" x="119062.5" y="-28575"/><use xlink:href="#biufP6uAt76syfbBaaGp_pad-16" x="105092.5" y="-28575"/><use xlink:href="#biufP6uAt76syfbBaaGp_pad-16" x="94932.5" y="-28575"/><use xlink:href="#biufP6uAt76syfbBaaGp_pad-17" x="100012.5" y="-28575"/><use xlink:href="#biufP6uAt76syfbBaaGp_pad-16" x="86042.5" y="-28575"/><use xlink:href="#biufP6uAt76syfbBaaGp_pad-16" x="75882.5" y="-28575"/><use xlink:href="#biufP6uAt76syfbBaaGp_pad-17" x="80962.5" y="-28575"/><use xlink:href="#biufP6uAt76syfbBaaGp_pad-16" x="66992.5" y="-28575"/><use xlink:href="#biufP6uAt76syfbBaaGp_pad-16" x="56832.5" y="-28575"/><use xlink:href="#biufP6uAt76syfbBaaGp_pad-17" x="61912.5" y="-28575"/><use xlink:href="#biufP6uAt76syfbBaaGp_pad-16" x="247967.5" y="-9525"/><use xlink:href="#biufP6uAt76syfbBaaGp_pad-16" x="237807.5" y="-9525"/><use xlink:href="#biufP6uAt76syfbBaaGp_pad-17" x="242887.5" y="-9525"/><use xlink:href="#biufP6uAt76syfbBaaGp_pad-16" x="228917.5" y="-9525"/><use xlink:href="#biufP6uAt76syfbBaaGp_pad-16" x="218757.5" y="-9525"/><use xlink:href="#biufP6uAt76syfbBaaGp_pad-17" x="223837.5" y="-9525"/><use xlink:href="#biufP6uAt76syfbBaaGp_pad-16" x="209867.5" y="-9525"/><use xlink:href="#biufP6uAt76syfbBaaGp_pad-16" x="199707.5" y="-9525"/><use xlink:href="#biufP6uAt76syfbBaaGp_pad-17" x="204787.5" y="-9525"/><use xlink:href="#biufP6uAt76syfbBaaGp_pad-16" x="190817.5" y="-9525"/><use xlink:href="#biufP6uAt76syfbBaaGp_pad-16" x="180657.5" y="-9525"/><use xlink:href="#biufP6uAt76syfbBaaGp_pad-17" x="185737.5" y="-9525"/><use xlink:href="#biufP6uAt76syfbBaaGp_pad-16" x="171767.5" y="-9525"/><use xlink:href="#biufP6uAt76syfbBaaGp_pad-16" x="161607.5" y="-9525"/><use xlink:href="#biufP6uAt76syfbBaaGp_pad-17" x="166687.5" y="-9525"/><use xlink:href="#biufP6uAt76syfbBaaGp_pad-16" x="152717.5" y="-9525"/><use xlink:href="#biufP6uAt76syfbBaaGp_pad-16" x="142557.5" y="-9525"/><use xlink:href="#biufP6uAt76syfbBaaGp_pad-17" x="147637.5" y="-9525"/><use xlink:href="#biufP6uAt76syfbBaaGp_pad-16" x="133667.5" y="-9525"/><use xlink:href="#biufP6uAt76syfbBaaGp_pad-16" x="123507.5" y="-9525"/><use xlink:href="#biufP6uAt76syfbBaaGp_pad-17" x="128587.5" y="-9525"/><use xlink:href="#biufP6uAt76syfbBaaGp_pad-16" x="114617.5" y="-9525"/><use xlink:href="#biufP6uAt76syfbBaaGp_pad-16" x="104457.5" y="-9525"/><use xlink:href="#biufP6uAt76syfbBaaGp_pad-17" x="109537.5" y="-9525"/><use xlink:href="#biufP6uAt76syfbBaaGp_pad-16" x="76517.5" y="-9525"/><use xlink:href="#biufP6uAt76syfbBaaGp_pad-16" x="66357.5" y="-9525"/><use xlink:href="#biufP6uAt76syfbBaaGp_pad-17" x="71437.5" y="-9525"/><use xlink:href="#biufP6uAt76syfbBaaGp_pad-16" x="57467.5" y="-9525"/><use xlink:href="#biufP6uAt76syfbBaaGp_pad-16" x="47307.5" y="-9525"/><use xlink:href="#biufP6uAt76syfbBaaGp_pad-17" x="52387.5" y="-9525"/></g></mask><circle cx="0" cy="0" r="325" id="fa9j4qRq2Sfn_MA5Xgw2_pad-10"/><rect x="-500" y="-1050" width="1000" height="2100" rx="500" ry="500" id="fa9j4qRq2Sfn_MA5Xgw2_pad-11"/><rect x="-500" y="-800" width="1000" height="1600" rx="500" ry="500" id="fa9j4qRq2Sfn_MA5Xgw2_pad-12"/><circle cx="0" cy="0" r="875" id="fa9j4qRq2Sfn_MA5Xgw2_pad-13"/><circle cx="0" cy="0" r="1993.9" id="fa9j4qRq2Sfn_MA5Xgw2_pad-14"/><circle cx="0" cy="0" r="1524" id="fa9j4qRq2Sfn_MA5Xgw2_pad-15"/><rect x="-500" y="-1050" width="1000" height="2100" rx="500" ry="500" id="mcbSKrfXYG1Vr6nfBZ5V_pad-10"/><rect x="-500" y="-800" width="1000" height="1600" rx="500" ry="500" id="mcbSKrfXYG1Vr6nfBZ5V_pad-11"/><circle cx="0" cy="0" r="1125" id="mcbSKrfXYG1Vr6nfBZ5V_pad-12"/><circle cx="0" cy="0" r="400" id="mcbSKrfXYG1Vr6nfBZ5V_pad-13"/><circle cx="0" cy="0" r="12.8" id="gA6tmxtSCanVV9nyS0-c_pad-1"/><circle cx="0" cy="0" r="34.45" id="gA6tmxtSCanVV9nyS0-c_pad-2"/><circle cx="0" cy="0" r="60" id="gA6tmxtSCanVV9nyS0-c_pad-3"/><circle cx="0" cy="0" r="78.5" id="gA6tmxtSCanVV9nyS0-c_pad-4"/><circle cx="0" cy="0" r="7.85" id="yJxobkWF2OZZW7gmeLAF_pad-1"/><circle cx="0" cy="0" r="28.95" id="yJxobkWF2OZZW7gmeLAF_pad-3"/><g id="RdI9p4F3STvOeV-hvi1R_top_silkscreen"><g mask="url(#biufP6uAt76syfbBaaGp_clear-1)"><path d="M 108506.38 -67539.809 108506.38 -67201.142 M 108506.38 -67249.523 108530.571 -67225.333 108578.952 -67201.142 108651.523 -67201.142 108699.904 -67225.333 108724.095 -67273.714 108724.095 -67539.809 M 108724.095 -67273.714 108748.285 -67225.333 108796.666 -67201.142 108869.238 -67201.142 108917.619 -67225.333 108941.809 -67273.714 108941.809 -67539.809 M 109401.428 -67539.809 109401.428 -67273.714 109377.238 -67225.333 109328.857 -67201.142 109232.095 -67201.142 109183.714 -67225.333 M 109401.428 -67515.619 109353.047 -67539.809 109232.095 -67539.809 109183.714 -67515.619 109159.523 -67467.238 109159.523 -67418.857 109183.714 -67370.476 109232.095 -67346.285 109353.047 -67346.285 109401.428 -67322.095 M 109570.761 -67201.142 109764.285 -67201.142 M 109643.333 -67031.809 109643.333 -67467.238 109667.523 -67515.619 109715.904 -67539.809 109764.285 -67539.809 M 109861.047 -67201.142 110054.571 -67201.142 M 109933.619 -67031.809 109933.619 -67467.238 109957.809 -67515.619 110006.19 -67539.809 110054.571 -67539.809 M 110223.904 -67539.809 110223.904 -67031.809 M 110441.619 -67539.809 110441.619 -67273.714 110417.428 -67225.333 110369.047 -67201.142 110296.476 -67201.142 110248.095 -67225.333 110223.904 -67249.523 M 110877.047 -67515.619 110828.666 -67539.809 110731.904 -67539.809 110683.523 -67515.619 110659.333 -67467.238 110659.333 -67273.714 110683.523 -67225.333 110731.904 -67201.142 110828.666 -67201.142 110877.047 -67225.333 110901.238 -67273.714 110901.238 -67322.095 110659.333 -67370.476 M 111070.571 -67201.142 111167.333 -67539.809 111264.095 -67297.904 111360.857 -67539.809 111457.619 -67201.142 M 111868.857 -67539.809 111868.857 -67031.809 M 111868.857 -67515.619 111820.476 -67539.809 111723.714 -67539.809 111675.333 -67515.619 111651.142 -67491.428 111626.952 -67443.047 111626.952 -67297.904 111651.142 -67249.523 111675.333 -67225.333 111723.714 -67201.142 111820.476 -67201.142 111868.857 -67225.333 M 112110.761 -67539.809 112110.761 -67201.142 M 112110.761 -67031.809 112086.571 -67056 112110.761 -67080.19 112134.952 -67056 112110.761 -67031.809 112110.761 -67080.19 M 112570.38 -67539.809 112570.38 -67273.714 112546.19 -67225.333 112497.809 -67201.142 112401.047 -67201.142 112352.666 -67225.333 M 112570.38 -67515.619 112522 -67539.809 112401.047 -67539.809 112352.666 -67515.619 112328.476 -67467.238 112328.476 -67418.857 112352.666 -67370.476 112401.047 -67346.285 112522 -67346.285 112570.38 -67322.095 M 112788.095 -67515.619 112836.476 -67539.809 112933.238 -67539.809 112981.619 -67515.619 113005.809 -67467.238 113005.809 -67443.047 112981.619 -67394.666 112933.238 -67370.476 112860.666 -67370.476 112812.285 -67346.285 112788.095 -67297.904 112788.095 -67273.714 112812.285 -67225.333 112860.666 -67201.142 112933.238 -67201.142 112981.619 -67225.333" fill="none" stroke-width="76.2"/><path d="M 107659.714 -66856.428 107659.714 -65840.428 M 107659.714 -65985.571 107732.285 -65913 107877.428 -65840.428 108095.142 -65840.428 108240.285 -65913 108312.857 -66058.142 108312.857 -66856.428 M 108312.857 -66058.142 108385.428 -65913 108530.571 -65840.428 108748.285 -65840.428 108893.428 -65913 108966 -66058.142 108966 -66856.428 M 109691.714 -66856.428 109691.714 -65840.428 M 109691.714 -65332.428 109619.142 -65405 109691.714 -65477.571 109764.285 -65405 109691.714 -65332.428 109691.714 -65477.571 M 110417.428 -65840.428 110417.428 -66856.428 M 110417.428 -65985.571 110490 -65913 110635.142 -65840.428 110852.857 -65840.428 110998 -65913 111070.571 -66058.142 111070.571 -66856.428 M 111796.285 -66856.428 111796.285 -65840.428 M 111796.285 -65332.428 111723.714 -65405 111796.285 -65477.571 111868.857 -65405 111796.285 -65332.428 111796.285 -65477.571 M 112522 -66856.428 112522 -65840.428 M 112522 -65985.571 112594.571 -65913 112739.714 -65840.428 112957.428 -65840.428 113102.571 -65913 113175.142 -66058.142 113175.142 -66856.428 M 113175.142 -66058.142 113247.714 -65913 113392.857 -65840.428 113610.571 -65840.428 113755.714 -65913 113828.285 -66058.142 113828.285 -66856.428" fill="none" stroke-width="150"/><path d="M 167749.479 -65435.32 167749.459 -65899.187 167749.399 -66340.418 167749.299 -66759.281 167749.158 -67156.043 167748.976 -67530.972 167748.751 -67884.336 167748.483 -68216.402 167748.171 -68527.438 167747.816 -68817.712 167747.416 -69087.49 167746.97 -69337.042 167746.479 -69566.633 167745.941 -69776.533 167745.356 -69967.009 167744.723 -70138.327 167744.042 -70290.757 167743.312 -70424.565 167742.532 -70540.02 167741.702 -70637.388 167740.821 -70716.937 167739.889 -70778.935 167738.905 -70823.65 167737.868 -70851.35 167737.134 -70860.59 167728.918 -70907.075 167715.954 -70965.357 167699.736 -71030.054 167681.759 -71095.784 167663.516 -71157.162 167646.5 -71208.808 167632.205 -71245.337 167628.073 -71253.642 167613.575 -71281.699 167595.708 -71318.722 167588.731 -71333.804 167526.106 -71453.81 167446.354 -71578.629 167353.147 -71703.475 167250.155 -71823.566 167141.047 -71934.117 167098.408 -71972.928 167034.181 -72028.371 166969.96 -72081.732 166909.859 -72129.734 166857.992 -72169.096 166818.473 -72196.54 166815.505 -72198.412 166782.361 -72219.558 166743.998 -72244.702 166732.331 -72252.492 166700.122 -72272.912 166656.025 -72299.306 166608.296 -72326.759 166596.442 -72333.39 166553.339 -72357.367 166515.669 -72378.369 166489.581 -72392.965 166484.059 -72396.075 166423.46 -72427.305 166344.417 -72463.133 166250.534 -72501.961 166203.491 -72520.338 166146.048 -72542.406 166090.388 -72563.804 166043.326 -72581.913 166014.537 -72593.007 165957.468 -72612.36 165882.597 -72633.737 165794.808 -72655.998 165698.981 -72678.004 165600.001 -72698.614 165502.749 -72716.688 165441.949 -72726.665 165351.161 -72739.548 165267.657 -72748.702 165183.213 -72754.768 165089.601 -72758.388 165018.234 -72759.758 164945.331 -72760.482 164877.826 -72760.653 164819.995 -72760.3 164776.111 -72759.451 164750.448 -72758.134 164749.118 -72757.987 164553.948 -72728.572 164378.183 -72689.951 164219.945 -72641.383 164077.358 -72582.127 163948.544 -72511.443 163831.625 -72428.589 163761.444 -72368.157 163724.095 -72329.981 163683.595 -72282.92 163645.462 -72233.91 163615.213 -72189.887 163603.663 -72169.782 163589.792 -72146.578 163579.739 -72135.008 163570.011 -72120.06 163556.145 -72087.911 163539.768 -72043.525 163522.508 -71991.864 163505.993 -71937.895 163491.848 -71886.58 163481.703 -71842.885 163478.959 -71827.571 163478.832 -71826.23 163749.088 -71826.23 163753.535 -71928.947 163768.857 -72015.586 163796.7 -72091.029 163838.71 -72160.16 163877.671 -72207.681 163952.931 -72274.233 164045.399 -72326.821 164153.981 -72365.257 164277.585 -72389.35 164415.118 -72398.909 164565.489 -72393.743 164727.603 -72373.664 164778.899 -72364.603 165020.328 -72309.837 165253.902 -72237.404 165430.498 -72169.324 165477.962 -72150.002 165524.714 -72131.751 165559.916 -72118.779 165598.23 -72104.046 165632.791 -72088.492 165640.078 -72084.695 165662.166 -72073.239 165699.728 -72054.451 165747.584 -72030.9 165800.554 -72005.152 165802.68 -72004.125 165922.67 -71944.757 166027.211 -71889.745 166122.429 -71835.761 166203.491 -71786.39 166232.832 -71767.95 166273.483 -71742.393 166317.366 -71714.799 166323.735 -71710.793 166376.422 -71676.43 166443.691 -71630.602 166521.966 -71575.802 166607.667 -71514.522 166659.424 -71476.951 166689.996 -71453.712 166733.167 -71419.652 166784.016 -71378.697 166837.619 -71334.778 166838.797 -71333.804 166895.291 -71284.206 166958.454 -71223.918 167025.054 -71156.485 167091.861 -71085.451 167155.642 -71014.362 167213.167 -70946.762 167261.203 -70886.196 167296.519 -70836.21 167304.941 -70822.451 167322.154 -70794.396 167335.346 -70775.786 167338.374 -70772.668 167349.859 -70756.778 167366.61 -70724.314 167386.512 -70680.381 167407.45 -70630.087 167427.309 -70578.539 167443.975 -70530.844 167455.332 -70492.107 167456.368 -70487.735 167471.399 -70386.653 167472.651 -70282.125 167460.753 -70180.332 167436.334 -70087.45 167409.314 -70025.742 167355.081 -69948.691 167282.487 -69881.394 167194.812 -69826.108 167095.336 -69785.089 167036.561 -69769.378 166975.327 -69759.886 166897.53 -69753.633 166809.28 -69750.625 166716.688 -69750.872 166625.864 -69754.381 166542.919 -69761.159 166487.929 -69768.669 166419.254 -69782.441 166336.004 -69802.374 166243.704 -69826.85 166147.88 -69854.253 166054.059 -69882.962 165967.764 -69911.361 165894.523 -69937.831 165854.213 -69954.244 165830.61 -69964.355 165791.212 -69981.024 165741.363 -70001.996 165686.41 -70025.017 165682.436 -70026.678 165610.82 -70058.164 165526.018 -70097.956 165433.133 -70143.438 165337.266 -70191.999 165243.52 -70241.025 165156.998 -70287.904 165082.799 -70330.021 165041.138 -70355.139 165002.696 -70378.583 164958.6 -70404.678 164940.699 -70415.028 164890.001 -70445.887 164827.274 -70486.838 164758.451 -70533.757 164689.465 -70582.523 164626.248 -70629.014 164574.732 -70669.11 164573.231 -70670.332 164538.491 -70697.313 164501.207 -70724.388 164497.179 -70727.17 164469.277 -70747.341 164448.953 -70763.871 164445.646 -70767.107 164430.821 -70780.692 164404.442 -70802.819 164381.015 -70821.694 164345.827 -70851.915 164299.324 -70895.206 164245.457 -70947.565 164188.177 -71004.987 164131.432 -71063.47 164079.175 -71119.008 164035.354 -71167.6 164009.383 -71198.338 163982.547 -71232.956 163952.323 -71273.942 163921.755 -71316.901 163893.884 -71357.438 163871.755 -71391.157 163858.409 -71413.663 163855.881 -71420.065 163851.325 -71431.775 163839.22 -71458.923 163821.909 -71496.291 163816.386 -71508.006 163786.809 -71576.316 163767.009 -71638.542 163755.286 -71702.733 163749.936 -71776.938 163749.088 -71826.23 163478.832 -71826.23 163468.373 -71716.313 163468.427 -71593.015 163478.503 -71470.925 163486.468 -71419.844 163498.489 -71359.159 163513.262 -71293.982 163529.484 -71229.427 163545.853 -71170.605 163561.065 -71122.63 163573.818 -71090.615 163576.817 -71085.131 163588.83 -71060.717 163592.49 -71045.93 163597.558 -71028.643 163611.286 -70995.74 163631.464 -70951.763 163655.88 -70901.252 163682.323 -70848.75 163708.582 -70798.799 163732.445 -70755.941 163739.471 -70744.038 163811.568 -70633.263 163896.657 -70517.52 163990.8 -70401.312 164090.062 -70289.139 164190.507 -70185.504 164288.199 -70094.907 164355.3 -70039.755 164376.724 -70022.954 164407.645 -69998.368 164428.802 -69981.415 164467.626 -69951.522 164508.336 -69922.144 164525.809 -69910.313 164559.619 -69887.84 164602.359 -69858.93 164640.326 -69832.904 164682.411 -69805.043 164724.499 -69779.131 164754.844 -69762.184 164783.831 -69746.474 164803.071 -69734.197 164806.377 -69731.202 164818.37 -69723.509 164846.85 -69708.218 164887.601 -69687.518 164936.404 -69663.601 164938.072 -69662.797 164990.168 -69637.59 165037.464 -69614.498 165074.574 -69596.165 165095.409 -69585.604 165123.742 -69572.719 165163.529 -69557.008 165192.749 -69546.522 165241.241 -69529.465 165291.906 -69510.93 165315.98 -69501.8 165476.207 -69449.678 165652.469 -69410.662 165841.675 -69385.258 166040.735 -69373.971 166101.858 -69373.413 166291.488 -69377.762 166462.781 -69390.488 166618.914 -69412.116 166763.065 -69443.17 166898.411 -69484.176 166993.663 -69520.773 167119.001 -69579.955 167235.469 -69648.001 167338.369 -69721.877 167422.102 -69797.607 167448.012 -69821.939 167468.294 -69836.357 167476.497 -69838.199 167477.153 -69826.463 167477.797 -69792.569 167478.428 -69737.261 167479.045 -69661.284 167479.645 -69565.383 167480.229 -69450.304 167480.793 -69316.791 167481.338 -69165.589 167481.86 -68997.444 167482.359 -68813.099 167482.834 -68613.301 167483.282 -68398.793 167483.703 -68170.322 167484.095 -67928.631 167484.456 -67674.467 167484.785 -67408.573 167485.08 -67131.695 167485.341 -66844.578 167485.565 -66547.966 167485.751 -66242.605 167485.898 -65929.24 167486.004 -65608.615 167486.068 -65281.476 167486.088 -64965.95 167486.088 -60099.629 167749.479 -60099.629 167749.479 -65435.32 167749.479 -65435.32"/><path d="M 167749.479 -65435.32 167749.459 -65899.187 167749.399 -66340.418 167749.299 -66759.281 167749.158 -67156.043 167748.976 -67530.972 167748.751 -67884.336 167748.483 -68216.402 167748.171 -68527.438 167747.816 -68817.712 167747.416 -69087.49 167746.97 -69337.042 167746.479 -69566.633 167745.941 -69776.533 167745.356 -69967.009 167744.723 -70138.327 167744.042 -70290.757 167743.312 -70424.565 167742.532 -70540.02 167741.702 -70637.388 167740.821 -70716.937 167739.889 -70778.935 167738.905 -70823.65 167737.868 -70851.35 167737.134 -70860.59 167728.918 -70907.075 167715.954 -70965.357 167699.736 -71030.054 167681.759 -71095.784 167663.516 -71157.162 167646.5 -71208.808 167632.205 -71245.337 167628.073 -71253.642 167613.575 -71281.699 167595.708 -71318.722 167588.731 -71333.804 167526.106 -71453.81 167446.354 -71578.629 167353.147 -71703.475 167250.155 -71823.566 167141.047 -71934.117 167098.408 -71972.928 167034.181 -72028.371 166969.96 -72081.732 166909.859 -72129.734 166857.992 -72169.096 166818.473 -72196.54 166815.505 -72198.412 166782.361 -72219.558 166743.998 -72244.702 166732.331 -72252.492 166700.122 -72272.912 166656.025 -72299.306 166608.296 -72326.759 166596.442 -72333.39 166553.339 -72357.367 166515.669 -72378.369 166489.581 -72392.965 166484.059 -72396.075 166423.46 -72427.305 166344.417 -72463.133 166250.534 -72501.961 166203.491 -72520.338 166146.048 -72542.406 166090.388 -72563.804 166043.326 -72581.913 166014.537 -72593.007 165957.468 -72612.36 165882.597 -72633.737 165794.808 -72655.998 165698.981 -72678.004 165600.001 -72698.614 165502.749 -72716.688 165441.949 -72726.665 165351.161 -72739.548 165267.657 -72748.702 165183.213 -72754.768 165089.601 -72758.388 165018.234 -72759.758 164945.331 -72760.482 164877.826 -72760.653 164819.995 -72760.3 164776.111 -72759.451 164750.448 -72758.134 164749.118 -72757.987 164553.948 -72728.572 164378.183 -72689.951 164219.945 -72641.383 164077.358 -72582.127 163948.544 -72511.443 163831.625 -72428.589 163761.444 -72368.157 163724.095 -72329.981 163683.595 -72282.92 163645.462 -72233.91 163615.213 -72189.887 163603.663 -72169.782 163589.792 -72146.578 163579.739 -72135.008 163570.011 -72120.06 163556.145 -72087.911 163539.768 -72043.525 163522.508 -71991.864 163505.993 -71937.895 163491.848 -71886.58 163481.703 -71842.885 163478.959 -71827.571 163478.832 -71826.23 163749.088 -71826.23 163753.535 -71928.947 163768.857 -72015.586 163796.7 -72091.029 163838.71 -72160.16 163877.671 -72207.681 163952.931 -72274.233 164045.399 -72326.821 164153.981 -72365.257 164277.585 -72389.35 164415.118 -72398.909 164565.489 -72393.743 164727.603 -72373.664 164778.899 -72364.603 165020.328 -72309.837 165253.902 -72237.404 165430.498 -72169.324 165477.962 -72150.002 165524.714 -72131.751 165559.916 -72118.779 165598.23 -72104.046 165632.791 -72088.492 165640.078 -72084.695 165662.166 -72073.239 165699.728 -72054.451 165747.584 -72030.9 165800.554 -72005.152 165802.68 -72004.125 165922.67 -71944.757 166027.211 -71889.745 166122.429 -71835.761 166203.491 -71786.39 166232.832 -71767.95 166273.483 -71742.393 166317.366 -71714.799 166323.735 -71710.793 166376.422 -71676.43 166443.691 -71630.602 166521.966 -71575.802 166607.667 -71514.522 166659.424 -71476.951 166689.996 -71453.712 166733.167 -71419.652 166784.016 -71378.697 166837.619 -71334.778 166838.797 -71333.804 166895.291 -71284.206 166958.454 -71223.918 167025.054 -71156.485 167091.861 -71085.451 167155.642 -71014.362 167213.167 -70946.762 167261.203 -70886.196 167296.519 -70836.21 167304.941 -70822.451 167322.154 -70794.396 167335.346 -70775.786 167338.374 -70772.668 167349.859 -70756.778 167366.61 -70724.314 167386.512 -70680.381 167407.45 -70630.087 167427.309 -70578.539 167443.975 -70530.844 167455.332 -70492.107 167456.368 -70487.735 167471.399 -70386.653 167472.651 -70282.125 167460.753 -70180.332 167436.334 -70087.45 167409.314 -70025.742 167355.081 -69948.691 167282.487 -69881.394 167194.812 -69826.108 167095.336 -69785.089 167036.561 -69769.378 166975.327 -69759.886 166897.53 -69753.633 166809.28 -69750.625 166716.688 -69750.872 166625.864 -69754.381 166542.919 -69761.159 166487.929 -69768.669 166419.254 -69782.441 166336.004 -69802.374 166243.704 -69826.85 166147.88 -69854.253 166054.059 -69882.962 165967.764 -69911.361 165894.523 -69937.831 165854.213 -69954.244 165830.61 -69964.355 165791.212 -69981.024 165741.363 -70001.996 165686.41 -70025.017 165682.436 -70026.678 165610.82 -70058.164 165526.018 -70097.956 165433.133 -70143.438 165337.266 -70191.999 165243.52 -70241.025 165156.998 -70287.904 165082.799 -70330.021 165041.138 -70355.139 165002.696 -70378.583 164958.6 -70404.678 164940.699 -70415.028 164890.001 -70445.887 164827.274 -70486.838 164758.451 -70533.757 164689.465 -70582.523 164626.248 -70629.014 164574.732 -70669.11 164573.231 -70670.332 164538.491 -70697.313 164501.207 -70724.388 164497.179 -70727.17 164469.277 -70747.341 164448.953 -70763.871 164445.646 -70767.107 164430.821 -70780.692 164404.442 -70802.819 164381.015 -70821.694 164345.827 -70851.915 164299.324 -70895.206 164245.457 -70947.565 164188.177 -71004.987 164131.432 -71063.47 164079.175 -71119.008 164035.354 -71167.6 164009.383 -71198.338 163982.547 -71232.956 163952.323 -71273.942 163921.755 -71316.901 163893.884 -71357.438 163871.755 -71391.157 163858.409 -71413.663 163855.881 -71420.065 163851.325 -71431.775 163839.22 -71458.923 163821.909 -71496.291 163816.386 -71508.006 163786.809 -71576.316 163767.009 -71638.542 163755.286 -71702.733 163749.936 -71776.938 163749.088 -71826.23 163478.832 -71826.23 163468.373 -71716.313 163468.427 -71593.015 163478.503 -71470.925 163486.468 -71419.844 163498.489 -71359.159 163513.262 -71293.982 163529.484 -71229.427 163545.853 -71170.605 163561.065 -71122.63 163573.818 -71090.615 163576.817 -71085.131 163588.83 -71060.717 163592.49 -71045.93 163597.558 -71028.643 163611.286 -70995.74 163631.464 -70951.763 163655.88 -70901.252 163682.323 -70848.75 163708.582 -70798.799 163732.445 -70755.941 163739.471 -70744.038 163811.568 -70633.263 163896.657 -70517.52 163990.8 -70401.312 164090.062 -70289.139 164190.507 -70185.504 164288.199 -70094.907 164355.3 -70039.755 164376.724 -70022.954 164407.645 -69998.368 164428.802 -69981.415 164467.626 -69951.522 164508.336 -69922.144 164525.809 -69910.313 164559.619 -69887.84 164602.359 -69858.93 164640.326 -69832.904 164682.411 -69805.043 164724.499 -69779.131 164754.844 -69762.184 164783.831 -69746.474 164803.071 -69734.197 164806.377 -69731.202 164818.37 -69723.509 164846.85 -69708.218 164887.601 -69687.518 164936.404 -69663.601 164938.072 -69662.797 164990.168 -69637.59 165037.464 -69614.498 165074.574 -69596.165 165095.409 -69585.604 165123.742 -69572.719 165163.529 -69557.008 165192.749 -69546.522 165241.241 -69529.465 165291.906 -69510.93 165315.98 -69501.8 165476.207 -69449.678 165652.469 -69410.662 165841.675 -69385.258 166040.735 -69373.971 166101.858 -69373.413 166291.488 -69377.762 166462.781 -69390.488 166618.914 -69412.116 166763.065 -69443.17 166898.411 -69484.176 166993.663 -69520.773 167119.001 -69579.955 167235.469 -69648.001 167338.369 -69721.877 167422.102 -69797.607 167448.012 -69821.939 167468.294 -69836.357 167476.497 -69838.199 167477.153 -69826.463 167477.797 -69792.569 167478.428 -69737.261 167479.045 -69661.284 167479.645 -69565.383 167480.229 -69450.304 167480.793 -69316.791 167481.338 -69165.589 167481.86 -68997.444 167482.359 -68813.099 167482.834 -68613.301 167483.282 -68398.793 167483.703 -68170.322 167484.095 -67928.631 167484.456 -67674.467 167484.785 -67408.573 167485.08 -67131.695 167485.341 -66844.578 167485.565 -66547.966 167485.751 -66242.605 167485.898 -65929.24 167486.004 -65608.615 167486.068 -65281.476 167486.088 -64965.95 167486.088 -60099.629 167749.479 -60099.629 167749.479 -65435.32" fill="none" stroke-width="10"/></g></g><g id="RdI9p4F3STvOeV-hvi1R_top_soldermask"><use xlink:href="#fa9j4qRq2Sfn_MA5Xgw2_pad-10" x="141066" y="-1170"/><use xlink:href="#fa9j4qRq2Sfn_MA5Xgw2_pad-10" x="135286" y="-1170"/><use xlink:href="#fa9j4qRq2Sfn_MA5Xgw2_pad-11" x="133856" y="-1700"/><use xlink:href="#fa9j4qRq2Sfn_MA5Xgw2_pad-11" x="142496" y="-1700"/><use xlink:href="#fa9j4qRq2Sfn_MA5Xgw2_pad-12" x="133856" y="2480"/><use xlink:href="#fa9j4qRq2Sfn_MA5Xgw2_pad-12" x="142496" y="2480"/><use xlink:href="#fa9j4qRq2Sfn_MA5Xgw2_pad-13" x="38417.5" y="-9525"/><use xlink:href="#fa9j4qRq2Sfn_MA5Xgw2_pad-13" x="28257.5" y="-9525"/><use xlink:href="#fa9j4qRq2Sfn_MA5Xgw2_pad-14" x="33337.5" y="-9525"/><use xlink:href="#fa9j4qRq2Sfn_MA5Xgw2_pad-13" x="269398.75" y="-9525"/><use xlink:href="#fa9j4qRq2Sfn_MA5Xgw2_pad-13" x="259238.75" y="-9525"/><use xlink:href="#fa9j4qRq2Sfn_MA5Xgw2_pad-14" x="264318.75" y="-9525"/><use xlink:href="#fa9j4qRq2Sfn_MA5Xgw2_pad-13" x="21748.75" y="-28575"/><use xlink:href="#fa9j4qRq2Sfn_MA5Xgw2_pad-13" x="11588.75" y="-28575"/><use xlink:href="#fa9j4qRq2Sfn_MA5Xgw2_pad-14" x="16668.75" y="-28575"/><use xlink:href="#fa9j4qRq2Sfn_MA5Xgw2_pad-13" x="47942.5" y="-28575"/><use xlink:href="#fa9j4qRq2Sfn_MA5Xgw2_pad-13" x="37782.5" y="-28575"/><use xlink:href="#fa9j4qRq2Sfn_MA5Xgw2_pad-14" x="42862.5" y="-28575"/><use xlink:href="#fa9j4qRq2Sfn_MA5Xgw2_pad-13" x="264636.25" y="-28575"/><use xlink:href="#fa9j4qRq2Sfn_MA5Xgw2_pad-13" x="254476.25" y="-28575"/><use xlink:href="#fa9j4qRq2Sfn_MA5Xgw2_pad-14" x="259556.25" y="-28575"/><use xlink:href="#fa9j4qRq2Sfn_MA5Xgw2_pad-14" x="33337.5" y="-39370"/><use xlink:href="#fa9j4qRq2Sfn_MA5Xgw2_pad-14" x="9525" y="-39370"/><use xlink:href="#fa9j4qRq2Sfn_MA5Xgw2_pad-15" x="33337.5" y="-54610"/><use xlink:href="#fa9j4qRq2Sfn_MA5Xgw2_pad-15" x="9525" y="-54610"/><use xlink:href="#fa9j4qRq2Sfn_MA5Xgw2_pad-13" x="26511.25" y="-47625"/><use xlink:href="#fa9j4qRq2Sfn_MA5Xgw2_pad-13" x="16351.25" y="-47625"/><use xlink:href="#fa9j4qRq2Sfn_MA5Xgw2_pad-14" x="21431.25" y="-47625"/><use xlink:href="#fa9j4qRq2Sfn_MA5Xgw2_pad-13" x="57467.5" y="-47625"/><use xlink:href="#fa9j4qRq2Sfn_MA5Xgw2_pad-13" x="47307.5" y="-47625"/><use xlink:href="#fa9j4qRq2Sfn_MA5Xgw2_pad-14" x="52387.5" y="-47625"/><use xlink:href="#fa9j4qRq2Sfn_MA5Xgw2_pad-14" x="266700" y="-39370"/><use xlink:href="#fa9j4qRq2Sfn_MA5Xgw2_pad-14" x="242887.5" y="-39370"/><use xlink:href="#fa9j4qRq2Sfn_MA5Xgw2_pad-15" x="266700" y="-54610"/><use xlink:href="#fa9j4qRq2Sfn_MA5Xgw2_pad-15" x="242887.5" y="-54610"/><use xlink:href="#fa9j4qRq2Sfn_MA5Xgw2_pad-13" x="259873.75" y="-47625"/><use xlink:href="#fa9j4qRq2Sfn_MA5Xgw2_pad-13" x="249713.75" y="-47625"/><use xlink:href="#fa9j4qRq2Sfn_MA5Xgw2_pad-14" x="254793.75" y="-47625"/><use xlink:href="#fa9j4qRq2Sfn_MA5Xgw2_pad-13" x="43180" y="-66675"/><use xlink:href="#fa9j4qRq2Sfn_MA5Xgw2_pad-13" x="33020" y="-66675"/><use xlink:href="#fa9j4qRq2Sfn_MA5Xgw2_pad-14" x="38100" y="-66675"/><use xlink:href="#fa9j4qRq2Sfn_MA5Xgw2_pad-13" x="64611.25" y="-66675"/><use xlink:href="#fa9j4qRq2Sfn_MA5Xgw2_pad-13" x="54451.25" y="-66675"/><use xlink:href="#fa9j4qRq2Sfn_MA5Xgw2_pad-14" x="59531.25" y="-66675"/><use xlink:href="#fa9j4qRq2Sfn_MA5Xgw2_pad-14" x="102393.75" y="-58420"/><use xlink:href="#fa9j4qRq2Sfn_MA5Xgw2_pad-14" x="78581.25" y="-58420"/><use xlink:href="#fa9j4qRq2Sfn_MA5Xgw2_pad-15" x="102393.75" y="-73660"/><use xlink:href="#fa9j4qRq2Sfn_MA5Xgw2_pad-15" x="78581.25" y="-73660"/><use xlink:href="#fa9j4qRq2Sfn_MA5Xgw2_pad-13" x="95567.5" y="-66675"/><use xlink:href="#fa9j4qRq2Sfn_MA5Xgw2_pad-13" x="85407.5" y="-66675"/><use xlink:href="#fa9j4qRq2Sfn_MA5Xgw2_pad-14" x="90487.5" y="-66675"/><use xlink:href="#fa9j4qRq2Sfn_MA5Xgw2_pad-14" x="157162.5" y="-58420"/><use xlink:href="#fa9j4qRq2Sfn_MA5Xgw2_pad-14" x="119062.5" y="-58420"/><use xlink:href="#fa9j4qRq2Sfn_MA5Xgw2_pad-15" x="157162.5" y="-73660"/><use xlink:href="#fa9j4qRq2Sfn_MA5Xgw2_pad-15" x="119062.5" y="-73660"/><use xlink:href="#fa9j4qRq2Sfn_MA5Xgw2_pad-14" x="195262.5" y="-58420"/><use xlink:href="#fa9j4qRq2Sfn_MA5Xgw2_pad-14" x="80962.5" y="-58420"/><use xlink:href="#fa9j4qRq2Sfn_MA5Xgw2_pad-15" x="195262.5" y="-73660"/><use xlink:href="#fa9j4qRq2Sfn_MA5Xgw2_pad-15" x="80962.5" y="-73660"/><use xlink:href="#fa9j4qRq2Sfn_MA5Xgw2_pad-13" x="143192.5" y="-66675"/><use xlink:href="#fa9j4qRq2Sfn_MA5Xgw2_pad-13" x="133032.5" y="-66675"/><use xlink:href="#fa9j4qRq2Sfn_MA5Xgw2_pad-14" x="138112.5" y="-66675"/><use xlink:href="#fa9j4qRq2Sfn_MA5Xgw2_pad-14" x="197643.75" y="-58420"/><use xlink:href="#fa9j4qRq2Sfn_MA5Xgw2_pad-14" x="173831.25" y="-58420"/><use xlink:href="#fa9j4qRq2Sfn_MA5Xgw2_pad-15" x="197643.75" y="-73660"/><use xlink:href="#fa9j4qRq2Sfn_MA5Xgw2_pad-15" x="173831.25" y="-73660"/><use xlink:href="#fa9j4qRq2Sfn_MA5Xgw2_pad-13" x="190817.5" y="-66675"/><use xlink:href="#fa9j4qRq2Sfn_MA5Xgw2_pad-13" x="180657.5" y="-66675"/><use xlink:href="#fa9j4qRq2Sfn_MA5Xgw2_pad-14" x="185737.5" y="-66675"/><use xlink:href="#fa9j4qRq2Sfn_MA5Xgw2_pad-13" x="221773.75" y="-66675"/><use xlink:href="#fa9j4qRq2Sfn_MA5Xgw2_pad-13" x="211613.75" y="-66675"/><use xlink:href="#fa9j4qRq2Sfn_MA5Xgw2_pad-14" x="216693.75" y="-66675"/><use xlink:href="#fa9j4qRq2Sfn_MA5Xgw2_pad-13" x="243205" y="-66675"/><use xlink:href="#fa9j4qRq2Sfn_MA5Xgw2_pad-13" x="233045" y="-66675"/><use xlink:href="#fa9j4qRq2Sfn_MA5Xgw2_pad-14" x="238125" y="-66675"/><use xlink:href="#fa9j4qRq2Sfn_MA5Xgw2_pad-13" x="16986.25" y="-9525"/><use xlink:href="#fa9j4qRq2Sfn_MA5Xgw2_pad-13" x="6826.25" y="-9525"/><use xlink:href="#fa9j4qRq2Sfn_MA5Xgw2_pad-14" x="11906.25" y="-9525"/><use xlink:href="#fa9j4qRq2Sfn_MA5Xgw2_pad-13" x="95567.5" y="-47625"/><use xlink:href="#fa9j4qRq2Sfn_MA5Xgw2_pad-13" x="85407.5" y="-47625"/><use xlink:href="#fa9j4qRq2Sfn_MA5Xgw2_pad-14" x="90487.5" y="-47625"/><use xlink:href="#fa9j4qRq2Sfn_MA5Xgw2_pad-13" x="95567.5" y="-9525"/><use xlink:href="#fa9j4qRq2Sfn_MA5Xgw2_pad-13" x="85407.5" y="-9525"/><use xlink:href="#fa9j4qRq2Sfn_MA5Xgw2_pad-14" x="90487.5" y="-9525"/><use xlink:href="#fa9j4qRq2Sfn_MA5Xgw2_pad-13" x="228917.5" y="-47625"/><use xlink:href="#fa9j4qRq2Sfn_MA5Xgw2_pad-13" x="218757.5" y="-47625"/><use xlink:href="#fa9j4qRq2Sfn_MA5Xgw2_pad-14" x="223837.5" y="-47625"/><use xlink:href="#fa9j4qRq2Sfn_MA5Xgw2_pad-13" x="209867.5" y="-47625"/><use xlink:href="#fa9j4qRq2Sfn_MA5Xgw2_pad-13" x="199707.5" y="-47625"/><use xlink:href="#fa9j4qRq2Sfn_MA5Xgw2_pad-14" x="204787.5" y="-47625"/><use xlink:href="#fa9j4qRq2Sfn_MA5Xgw2_pad-13" x="190817.5" y="-47625"/><use xlink:href="#fa9j4qRq2Sfn_MA5Xgw2_pad-13" x="180657.5" y="-47625"/><use xlink:href="#fa9j4qRq2Sfn_MA5Xgw2_pad-14" x="185737.5" y="-47625"/><use xlink:href="#fa9j4qRq2Sfn_MA5Xgw2_pad-13" x="171767.5" y="-47625"/><use xlink:href="#fa9j4qRq2Sfn_MA5Xgw2_pad-13" x="161607.5" y="-47625"/><use xlink:href="#fa9j4qRq2Sfn_MA5Xgw2_pad-14" x="166687.5" y="-47625"/><use xlink:href="#fa9j4qRq2Sfn_MA5Xgw2_pad-13" x="152717.5" y="-47625"/><use xlink:href="#fa9j4qRq2Sfn_MA5Xgw2_pad-13" x="142557.5" y="-47625"/><use xlink:href="#fa9j4qRq2Sfn_MA5Xgw2_pad-14" x="147637.5" y="-47625"/><use xlink:href="#fa9j4qRq2Sfn_MA5Xgw2_pad-13" x="133667.5" y="-47625"/><use xlink:href="#fa9j4qRq2Sfn_MA5Xgw2_pad-13" x="123507.5" y="-47625"/><use xlink:href="#fa9j4qRq2Sfn_MA5Xgw2_pad-14" x="128587.5" y="-47625"/><use xlink:href="#fa9j4qRq2Sfn_MA5Xgw2_pad-13" x="114617.5" y="-47625"/><use xlink:href="#fa9j4qRq2Sfn_MA5Xgw2_pad-13" x="104457.5" y="-47625"/><use xlink:href="#fa9j4qRq2Sfn_MA5Xgw2_pad-14" x="109537.5" y="-47625"/><use xlink:href="#fa9j4qRq2Sfn_MA5Xgw2_pad-13" x="76517.5" y="-47625"/><use xlink:href="#fa9j4qRq2Sfn_MA5Xgw2_pad-13" x="66357.5" y="-47625"/><use xlink:href="#fa9j4qRq2Sfn_MA5Xgw2_pad-14" x="71437.5" y="-47625"/><use xlink:href="#fa9j4qRq2Sfn_MA5Xgw2_pad-13" x="238442.5" y="-28575"/><use xlink:href="#fa9j4qRq2Sfn_MA5Xgw2_pad-13" x="228282.5" y="-28575"/><use xlink:href="#fa9j4qRq2Sfn_MA5Xgw2_pad-14" x="233362.5" y="-28575"/><use xlink:href="#fa9j4qRq2Sfn_MA5Xgw2_pad-13" x="219392.5" y="-28575"/><use xlink:href="#fa9j4qRq2Sfn_MA5Xgw2_pad-13" x="209232.5" y="-28575"/><use xlink:href="#fa9j4qRq2Sfn_MA5Xgw2_pad-14" x="214312.5" y="-28575"/><use xlink:href="#fa9j4qRq2Sfn_MA5Xgw2_pad-13" x="200342.5" y="-28575"/><use xlink:href="#fa9j4qRq2Sfn_MA5Xgw2_pad-13" x="190182.5" y="-28575"/><use xlink:href="#fa9j4qRq2Sfn_MA5Xgw2_pad-14" x="195262.5" y="-28575"/><use xlink:href="#fa9j4qRq2Sfn_MA5Xgw2_pad-13" x="181292.5" y="-28575"/><use xlink:href="#fa9j4qRq2Sfn_MA5Xgw2_pad-13" x="171132.5" y="-28575"/><use xlink:href="#fa9j4qRq2Sfn_MA5Xgw2_pad-14" x="176212.5" y="-28575"/><use xlink:href="#fa9j4qRq2Sfn_MA5Xgw2_pad-13" x="162242.5" y="-28575"/><use xlink:href="#fa9j4qRq2Sfn_MA5Xgw2_pad-13" x="152082.5" y="-28575"/><use xlink:href="#fa9j4qRq2Sfn_MA5Xgw2_pad-14" x="157162.5" y="-28575"/><use xlink:href="#fa9j4qRq2Sfn_MA5Xgw2_pad-13" x="143192.5" y="-28575"/><use xlink:href="#fa9j4qRq2Sfn_MA5Xgw2_pad-13" x="133032.5" y="-28575"/><use xlink:href="#fa9j4qRq2Sfn_MA5Xgw2_pad-14" x="138112.5" y="-28575"/><use xlink:href="#fa9j4qRq2Sfn_MA5Xgw2_pad-13" x="124142.5" y="-28575"/><use xlink:href="#fa9j4qRq2Sfn_MA5Xgw2_pad-13" x="113982.5" y="-28575"/><use xlink:href="#fa9j4qRq2Sfn_MA5Xgw2_pad-14" x="119062.5" y="-28575"/><use xlink:href="#fa9j4qRq2Sfn_MA5Xgw2_pad-13" x="105092.5" y="-28575"/><use xlink:href="#fa9j4qRq2Sfn_MA5Xgw2_pad-13" x="94932.5" y="-28575"/><use xlink:href="#fa9j4qRq2Sfn_MA5Xgw2_pad-14" x="100012.5" y="-28575"/><use xlink:href="#fa9j4qRq2Sfn_MA5Xgw2_pad-13" x="86042.5" y="-28575"/><use xlink:href="#fa9j4qRq2Sfn_MA5Xgw2_pad-13" x="75882.5" y="-28575"/><use xlink:href="#fa9j4qRq2Sfn_MA5Xgw2_pad-14" x="80962.5" y="-28575"/><use xlink:href="#fa9j4qRq2Sfn_MA5Xgw2_pad-13" x="66992.5" y="-28575"/><use xlink:href="#fa9j4qRq2Sfn_MA5Xgw2_pad-13" x="56832.5" y="-28575"/><use xlink:href="#fa9j4qRq2Sfn_MA5Xgw2_pad-14" x="61912.5" y="-28575"/><use xlink:href="#fa9j4qRq2Sfn_MA5Xgw2_pad-13" x="247967.5" y="-9525"/><use xlink:href="#fa9j4qRq2Sfn_MA5Xgw2_pad-13" x="237807.5" y="-9525"/><use xlink:href="#fa9j4qRq2Sfn_MA5Xgw2_pad-14" x="242887.5" y="-9525"/><use xlink:href="#fa9j4qRq2Sfn_MA5Xgw2_pad-13" x="228917.5" y="-9525"/><use xlink:href="#fa9j4qRq2Sfn_MA5Xgw2_pad-13" x="218757.5" y="-9525"/><use xlink:href="#fa9j4qRq2Sfn_MA5Xgw2_pad-14" x="223837.5" y="-9525"/><use xlink:href="#fa9j4qRq2Sfn_MA5Xgw2_pad-13" x="209867.5" y="-9525"/><use xlink:href="#fa9j4qRq2Sfn_MA5Xgw2_pad-13" x="199707.5" y="-9525"/><use xlink:href="#fa9j4qRq2Sfn_MA5Xgw2_pad-14" x="204787.5" y="-9525"/><use xlink:href="#fa9j4qRq2Sfn_MA5Xgw2_pad-13" x="190817.5" y="-9525"/><use xlink:href="#fa9j4qRq2Sfn_MA5Xgw2_pad-13" x="180657.5" y="-9525"/><use xlink:href="#fa9j4qRq2Sfn_MA5Xgw2_pad-14" x="185737.5" y="-9525"/><use xlink:href="#fa9j4qRq2Sfn_MA5Xgw2_pad-13" x="171767.5" y="-9525"/><use xlink:href="#fa9j4qRq2Sfn_MA5Xgw2_pad-13" x="161607.5" y="-9525"/><use xlink:href="#fa9j4qRq2Sfn_MA5Xgw2_pad-14" x="166687.5" y="-9525"/><use xlink:href="#fa9j4qRq2Sfn_MA5Xgw2_pad-13" x="152717.5" y="-9525"/><use xlink:href="#fa9j4qRq2Sfn_MA5Xgw2_pad-13" x="142557.5" y="-9525"/><use xlink:href="#fa9j4qRq2Sfn_MA5Xgw2_pad-14" x="147637.5" y="-9525"/><use xlink:href="#fa9j4qRq2Sfn_MA5Xgw2_pad-13" x="133667.5" y="-9525"/><use xlink:href="#fa9j4qRq2Sfn_MA5Xgw2_pad-13" x="123507.5" y="-9525"/><use xlink:href="#fa9j4qRq2Sfn_MA5Xgw2_pad-14" x="128587.5" y="-9525"/><use xlink:href="#fa9j4qRq2Sfn_MA5Xgw2_pad-13" x="114617.5" y="-9525"/><use xlink:href="#fa9j4qRq2Sfn_MA5Xgw2_pad-13" x="104457.5" y="-9525"/><use xlink:href="#fa9j4qRq2Sfn_MA5Xgw2_pad-14" x="109537.5" y="-9525"/><use xlink:href="#fa9j4qRq2Sfn_MA5Xgw2_pad-13" x="76517.5" y="-9525"/><use xlink:href="#fa9j4qRq2Sfn_MA5Xgw2_pad-13" x="66357.5" y="-9525"/><use xlink:href="#fa9j4qRq2Sfn_MA5Xgw2_pad-14" x="71437.5" y="-9525"/><use xlink:href="#fa9j4qRq2Sfn_MA5Xgw2_pad-13" x="57467.5" y="-9525"/><use xlink:href="#fa9j4qRq2Sfn_MA5Xgw2_pad-13" x="47307.5" y="-9525"/><use xlink:href="#fa9j4qRq2Sfn_MA5Xgw2_pad-14" x="52387.5" y="-9525"/></g><g id="RdI9p4F3STvOeV-hvi1R_top_copper"><use xlink:href="#mcbSKrfXYG1Vr6nfBZ5V_pad-10" x="133856" y="-1700"/><use xlink:href="#mcbSKrfXYG1Vr6nfBZ5V_pad-10" x="142496" y="-1700"/><use xlink:href="#mcbSKrfXYG1Vr6nfBZ5V_pad-11" x="133856" y="2480"/><use xlink:href="#mcbSKrfXYG1Vr6nfBZ5V_pad-11" x="142496" y="2480"/><use xlink:href="#mcbSKrfXYG1Vr6nfBZ5V_pad-12" x="29527.5" y="-6985"/><use xlink:href="#mcbSKrfXYG1Vr6nfBZ5V_pad-12" x="35877.5" y="-4445"/><use xlink:href="#mcbSKrfXYG1Vr6nfBZ5V_pad-12" x="260508.75" y="-6985"/><use xlink:href="#mcbSKrfXYG1Vr6nfBZ5V_pad-12" x="266858.75" y="-4445"/><use xlink:href="#mcbSKrfXYG1Vr6nfBZ5V_pad-12" x="12858.75" y="-26035"/><use xlink:href="#mcbSKrfXYG1Vr6nfBZ5V_pad-12" x="19208.75" y="-23495"/><use xlink:href="#mcbSKrfXYG1Vr6nfBZ5V_pad-12" x="39052.5" y="-26035"/><use xlink:href="#mcbSKrfXYG1Vr6nfBZ5V_pad-12" x="45402.5" y="-23495"/><use xlink:href="#mcbSKrfXYG1Vr6nfBZ5V_pad-12" x="255746.25" y="-26035"/><use xlink:href="#mcbSKrfXYG1Vr6nfBZ5V_pad-12" x="262096.25" y="-23495"/><use xlink:href="#mcbSKrfXYG1Vr6nfBZ5V_pad-12" x="17621.25" y="-45085"/><use xlink:href="#mcbSKrfXYG1Vr6nfBZ5V_pad-12" x="23971.25" y="-42545"/><use xlink:href="#mcbSKrfXYG1Vr6nfBZ5V_pad-12" x="48577.5" y="-45085"/><use xlink:href="#mcbSKrfXYG1Vr6nfBZ5V_pad-12" x="54927.5" y="-42545"/><use xlink:href="#mcbSKrfXYG1Vr6nfBZ5V_pad-12" x="250983.75" y="-45085"/><use xlink:href="#mcbSKrfXYG1Vr6nfBZ5V_pad-12" x="257333.75" y="-42545"/><use xlink:href="#mcbSKrfXYG1Vr6nfBZ5V_pad-12" x="34290" y="-64135"/><use xlink:href="#mcbSKrfXYG1Vr6nfBZ5V_pad-12" x="40640" y="-61595"/><use xlink:href="#mcbSKrfXYG1Vr6nfBZ5V_pad-12" x="55721.25" y="-64135"/><use xlink:href="#mcbSKrfXYG1Vr6nfBZ5V_pad-12" x="62071.25" y="-61595"/><use xlink:href="#mcbSKrfXYG1Vr6nfBZ5V_pad-12" x="86677.5" y="-64135"/><use xlink:href="#mcbSKrfXYG1Vr6nfBZ5V_pad-12" x="93027.5" y="-61595"/><use xlink:href="#mcbSKrfXYG1Vr6nfBZ5V_pad-12" x="134302.5" y="-64135"/><use xlink:href="#mcbSKrfXYG1Vr6nfBZ5V_pad-12" x="140652.5" y="-61595"/><use xlink:href="#mcbSKrfXYG1Vr6nfBZ5V_pad-12" x="181927.5" y="-64135"/><use xlink:href="#mcbSKrfXYG1Vr6nfBZ5V_pad-12" x="188277.5" y="-61595"/><use xlink:href="#mcbSKrfXYG1Vr6nfBZ5V_pad-12" x="212883.75" y="-64135"/><use xlink:href="#mcbSKrfXYG1Vr6nfBZ5V_pad-12" x="219233.75" y="-61595"/><use xlink:href="#mcbSKrfXYG1Vr6nfBZ5V_pad-12" x="234315" y="-64135"/><use xlink:href="#mcbSKrfXYG1Vr6nfBZ5V_pad-12" x="240665" y="-61595"/><use xlink:href="#mcbSKrfXYG1Vr6nfBZ5V_pad-12" x="8096.25" y="-6985"/><use xlink:href="#mcbSKrfXYG1Vr6nfBZ5V_pad-12" x="14446.25" y="-4445"/><use xlink:href="#mcbSKrfXYG1Vr6nfBZ5V_pad-12" x="86677.5" y="-45085"/><use xlink:href="#mcbSKrfXYG1Vr6nfBZ5V_pad-12" x="93027.5" y="-42545"/><use xlink:href="#mcbSKrfXYG1Vr6nfBZ5V_pad-12" x="86677.5" y="-6985"/><use xlink:href="#mcbSKrfXYG1Vr6nfBZ5V_pad-12" x="93027.5" y="-4445"/><use xlink:href="#mcbSKrfXYG1Vr6nfBZ5V_pad-12" x="220027.5" y="-45085"/><use xlink:href="#mcbSKrfXYG1Vr6nfBZ5V_pad-12" x="226377.5" y="-42545"/><use xlink:href="#mcbSKrfXYG1Vr6nfBZ5V_pad-12" x="200977.5" y="-45085"/><use xlink:href="#mcbSKrfXYG1Vr6nfBZ5V_pad-12" x="207327.5" y="-42545"/><use xlink:href="#mcbSKrfXYG1Vr6nfBZ5V_pad-12" x="181927.5" y="-45085"/><use xlink:href="#mcbSKrfXYG1Vr6nfBZ5V_pad-12" x="188277.5" y="-42545"/><use xlink:href="#mcbSKrfXYG1Vr6nfBZ5V_pad-12" x="162877.5" y="-45085"/><use xlink:href="#mcbSKrfXYG1Vr6nfBZ5V_pad-12" x="169227.5" y="-42545"/><use xlink:href="#mcbSKrfXYG1Vr6nfBZ5V_pad-12" x="143827.5" y="-45085"/><use xlink:href="#mcbSKrfXYG1Vr6nfBZ5V_pad-12" x="150177.5" y="-42545"/><use xlink:href="#mcbSKrfXYG1Vr6nfBZ5V_pad-12" x="124777.5" y="-45085"/><use xlink:href="#mcbSKrfXYG1Vr6nfBZ5V_pad-12" x="131127.5" y="-42545"/><use xlink:href="#mcbSKrfXYG1Vr6nfBZ5V_pad-12" x="105727.5" y="-45085"/><use xlink:href="#mcbSKrfXYG1Vr6nfBZ5V_pad-12" x="112077.5" y="-42545"/><use xlink:href="#mcbSKrfXYG1Vr6nfBZ5V_pad-12" x="67627.5" y="-45085"/><use xlink:href="#mcbSKrfXYG1Vr6nfBZ5V_pad-12" x="73977.5" y="-42545"/><use xlink:href="#mcbSKrfXYG1Vr6nfBZ5V_pad-12" x="229552.5" y="-26035"/><use xlink:href="#mcbSKrfXYG1Vr6nfBZ5V_pad-12" x="235902.5" y="-23495"/><use xlink:href="#mcbSKrfXYG1Vr6nfBZ5V_pad-12" x="210502.5" y="-26035"/><use xlink:href="#mcbSKrfXYG1Vr6nfBZ5V_pad-12" x="216852.5" y="-23495"/><use xlink:href="#mcbSKrfXYG1Vr6nfBZ5V_pad-12" x="191452.5" y="-26035"/><use xlink:href="#mcbSKrfXYG1Vr6nfBZ5V_pad-12" x="197802.5" y="-23495"/><use xlink:href="#mcbSKrfXYG1Vr6nfBZ5V_pad-12" x="172402.5" y="-26035"/><use xlink:href="#mcbSKrfXYG1Vr6nfBZ5V_pad-12" x="178752.5" y="-23495"/><use xlink:href="#mcbSKrfXYG1Vr6nfBZ5V_pad-12" x="153352.5" y="-26035"/><use xlink:href="#mcbSKrfXYG1Vr6nfBZ5V_pad-12" x="159702.5" y="-23495"/><use xlink:href="#mcbSKrfXYG1Vr6nfBZ5V_pad-12" x="134302.5" y="-26035"/><use xlink:href="#mcbSKrfXYG1Vr6nfBZ5V_pad-12" x="140652.5" y="-23495"/><use xlink:href="#mcbSKrfXYG1Vr6nfBZ5V_pad-12" x="115252.5" y="-26035"/><use xlink:href="#mcbSKrfXYG1Vr6nfBZ5V_pad-12" x="121602.5" y="-23495"/><use xlink:href="#mcbSKrfXYG1Vr6nfBZ5V_pad-12" x="96202.5" y="-26035"/><use xlink:href="#mcbSKrfXYG1Vr6nfBZ5V_pad-12" x="102552.5" y="-23495"/><use xlink:href="#mcbSKrfXYG1Vr6nfBZ5V_pad-12" x="77152.5" y="-26035"/><use xlink:href="#mcbSKrfXYG1Vr6nfBZ5V_pad-12" x="83502.5" y="-23495"/><use xlink:href="#mcbSKrfXYG1Vr6nfBZ5V_pad-12" x="58102.5" y="-26035"/><use xlink:href="#mcbSKrfXYG1Vr6nfBZ5V_pad-12" x="64452.5" y="-23495"/><use xlink:href="#mcbSKrfXYG1Vr6nfBZ5V_pad-12" x="239077.5" y="-6985"/><use xlink:href="#mcbSKrfXYG1Vr6nfBZ5V_pad-12" x="245427.5" y="-4445"/><use xlink:href="#mcbSKrfXYG1Vr6nfBZ5V_pad-12" x="220027.5" y="-6985"/><use xlink:href="#mcbSKrfXYG1Vr6nfBZ5V_pad-12" x="226377.5" y="-4445"/><use xlink:href="#mcbSKrfXYG1Vr6nfBZ5V_pad-12" x="200977.5" y="-6985"/><use xlink:href="#mcbSKrfXYG1Vr6nfBZ5V_pad-12" x="207327.5" y="-4445"/><use xlink:href="#mcbSKrfXYG1Vr6nfBZ5V_pad-12" x="181927.5" y="-6985"/><use xlink:href="#mcbSKrfXYG1Vr6nfBZ5V_pad-12" x="188277.5" y="-4445"/><use xlink:href="#mcbSKrfXYG1Vr6nfBZ5V_pad-12" x="162877.5" y="-6985"/><use xlink:href="#mcbSKrfXYG1Vr6nfBZ5V_pad-12" x="169227.5" y="-4445"/><use xlink:href="#mcbSKrfXYG1Vr6nfBZ5V_pad-12" x="143827.5" y="-6985"/><use xlink:href="#mcbSKrfXYG1Vr6nfBZ5V_pad-12" x="150177.5" y="-4445"/><use xlink:href="#mcbSKrfXYG1Vr6nfBZ5V_pad-12" x="124777.5" y="-6985"/><use xlink:href="#mcbSKrfXYG1Vr6nfBZ5V_pad-12" x="131127.5" y="-4445"/><use xlink:href="#mcbSKrfXYG1Vr6nfBZ5V_pad-12" x="105727.5" y="-6985"/><use xlink:href="#mcbSKrfXYG1Vr6nfBZ5V_pad-12" x="112077.5" y="-4445"/><use xlink:href="#mcbSKrfXYG1Vr6nfBZ5V_pad-12" x="67627.5" y="-6985"/><use xlink:href="#mcbSKrfXYG1Vr6nfBZ5V_pad-12" x="73977.5" y="-4445"/><use xlink:href="#mcbSKrfXYG1Vr6nfBZ5V_pad-12" x="48577.5" y="-6985"/><use xlink:href="#mcbSKrfXYG1Vr6nfBZ5V_pad-12" x="54927.5" y="-4445"/><use xlink:href="#mcbSKrfXYG1Vr6nfBZ5V_pad-13" x="38325.499" y="-51587.336"/><use xlink:href="#mcbSKrfXYG1Vr6nfBZ5V_pad-13" x="35963.479" y="-51587.336"/><use xlink:href="#mcbSKrfXYG1Vr6nfBZ5V_pad-13" x="67564" y="-50883"/><use xlink:href="#mcbSKrfXYG1Vr6nfBZ5V_pad-13" x="105287.737" y="-50910.913"/><use xlink:href="#mcbSKrfXYG1Vr6nfBZ5V_pad-13" x="124714" y="-50883"/><use xlink:href="#mcbSKrfXYG1Vr6nfBZ5V_pad-13" x="134239" y="-70068"/><use xlink:href="#mcbSKrfXYG1Vr6nfBZ5V_pad-13" x="162814" y="-50883"/><use xlink:href="#mcbSKrfXYG1Vr6nfBZ5V_pad-13" x="181991" y="-70060"/><use xlink:href="#mcbSKrfXYG1Vr6nfBZ5V_pad-13" x="200914" y="-50883"/><use xlink:href="#mcbSKrfXYG1Vr6nfBZ5V_pad-13" x="212852" y="-70060"/><use xlink:href="#mcbSKrfXYG1Vr6nfBZ5V_pad-13" x="234315" y="-70060"/><use xlink:href="#mcbSKrfXYG1Vr6nfBZ5V_pad-13" x="250952" y="-50927"/><use xlink:href="#mcbSKrfXYG1Vr6nfBZ5V_pad-13" x="99626.298" y="-72066"/><use xlink:href="#mcbSKrfXYG1Vr6nfBZ5V_pad-13" x="112151.089" y="-73919.233"/><use xlink:href="#mcbSKrfXYG1Vr6nfBZ5V_pad-13" x="129257.933" y="-31086.933"/><use xlink:href="#mcbSKrfXYG1Vr6nfBZ5V_pad-13" x="132557.499" y="-31115"/><use xlink:href="#mcbSKrfXYG1Vr6nfBZ5V_pad-13" x="111137.134" y="-73926.134"/><use xlink:href="#mcbSKrfXYG1Vr6nfBZ5V_pad-13" x="100402.108" y="-71339"/><use xlink:href="#mcbSKrfXYG1Vr6nfBZ5V_pad-13" x="119253" y="-50165"/><use xlink:href="#mcbSKrfXYG1Vr6nfBZ5V_pad-13" x="122555" y="-50165"/><use xlink:href="#mcbSKrfXYG1Vr6nfBZ5V_pad-13" x="99695" y="-70612"/><use xlink:href="#mcbSKrfXYG1Vr6nfBZ5V_pad-13" x="110115.067" y="-73920.067"/><use xlink:href="#mcbSKrfXYG1Vr6nfBZ5V_pad-13" x="125417.819" y="-69341"/><use xlink:href="#mcbSKrfXYG1Vr6nfBZ5V_pad-13" x="109093" y="-73914"/><use xlink:href="#mcbSKrfXYG1Vr6nfBZ5V_pad-13" x="100457" y="-69342"/><use xlink:href="#mcbSKrfXYG1Vr6nfBZ5V_pad-13" x="141097" y="-11303"/><use xlink:href="#mcbSKrfXYG1Vr6nfBZ5V_pad-13" x="141097" y="-12783"/><use xlink:href="#mcbSKrfXYG1Vr6nfBZ5V_pad-13" x="125941.614" y="-53043.616"/><use xlink:href="#mcbSKrfXYG1Vr6nfBZ5V_pad-13" x="115560.228" y="-53076.228"/><use xlink:href="#mcbSKrfXYG1Vr6nfBZ5V_pad-13" x="142972.77" y="-4859.441"/><use xlink:href="#mcbSKrfXYG1Vr6nfBZ5V_pad-13" x="132969" y="-4826"/><use xlink:href="#mcbSKrfXYG1Vr6nfBZ5V_pad-13" x="107442" y="-53086"/><use xlink:href="#mcbSKrfXYG1Vr6nfBZ5V_pad-13" x="111887" y="-58166"/><use xlink:href="#mcbSKrfXYG1Vr6nfBZ5V_pad-13" x="109982" y="-58166"/><use xlink:href="#mcbSKrfXYG1Vr6nfBZ5V_pad-13" x="126821.279" y="-52568.021"/><use xlink:href="#mcbSKrfXYG1Vr6nfBZ5V_pad-13" x="120880.083" y="-51310.084"/><use xlink:href="#mcbSKrfXYG1Vr6nfBZ5V_pad-13" x="101092" y="-61468"/><use xlink:href="#mcbSKrfXYG1Vr6nfBZ5V_pad-13" x="101346" y="-68453"/><use xlink:href="#mcbSKrfXYG1Vr6nfBZ5V_pad-13" x="108077" y="-51308"/><use xlink:href="#mcbSKrfXYG1Vr6nfBZ5V_pad-13" x="106426" y="-56007"/><use xlink:href="#mcbSKrfXYG1Vr6nfBZ5V_pad-13" x="114681" y="-56007"/><use xlink:href="#mcbSKrfXYG1Vr6nfBZ5V_pad-13" x="121031" y="-63881"/><use xlink:href="#mcbSKrfXYG1Vr6nfBZ5V_pad-13" x="136465.808" y="-8206.857"/><use xlink:href="#mcbSKrfXYG1Vr6nfBZ5V_pad-13" x="139886.192" y="-8206.857"/><use xlink:href="#mcbSKrfXYG1Vr6nfBZ5V_pad-13" x="136699" y="-3928.411"/><use xlink:href="#mcbSKrfXYG1Vr6nfBZ5V_pad-13" x="134874" y="-4064"/><use xlink:href="#mcbSKrfXYG1Vr6nfBZ5V_pad-13" x="140105.894" y="-3898.17"/><use xlink:href="#mcbSKrfXYG1Vr6nfBZ5V_pad-13" x="142142.566" y="-3994.809"/><use xlink:href="#mcbSKrfXYG1Vr6nfBZ5V_pad-13" x="137670.833" y="-8372.083"/><use xlink:href="#mcbSKrfXYG1Vr6nfBZ5V_pad-13" x="137668" y="-13843"/><use xlink:href="#mcbSKrfXYG1Vr6nfBZ5V_pad-13" x="138811" y="-8382"/><use xlink:href="#mcbSKrfXYG1Vr6nfBZ5V_pad-13" x="138811" y="-13843"/><path d="M 38325.499 -51587.336 36065.143 -51587.336 35963.479 -51587.336 M 8096.25 -21272.5 12858.75 -26035 M 8096.25 -6985 8096.25 -21272.5 M 12858.75 -40322.5 17621.25 -45085 M 12858.75 -26035 12858.75 -40322.5 M 29527.5 -16510 39052.5 -26035 M 29527.5 -6985 29527.5 -16510 M 39052.5 -59372.5 34290 -64135 M 39052.5 -26035 39052.5 -59372.5 M 58102.5 -26035 58034.501 -26102.999 M 48577.5 -16510 58102.5 -26035 M 48577.5 -6985 48577.5 -16510 M 58102.5 -35560 48577.5 -45085 M 58102.5 -26035 58102.5 -35560 M 48577.5 -56991.25 55721.25 -64135 M 48577.5 -45085 48577.5 -56991.25 M 67627.5 -45085 67627.5 -50819.5 67564 -50883 M 67627.5 -16510 77152.5 -26035 M 67627.5 -6985 67627.5 -16510 M 67627.5 -43494.01 67627.5 -45085 M 67627.5 -35051.038 67627.5 -43494.01 M 75518.539 -27159.999 67627.5 -35051.038 M 76027.501 -27159.999 75518.539 -27159.999 M 77152.5 -26035 76027.501 -27159.999 M 86677.5 -16510 96202.5 -26035 M 86677.5 -6985 86677.5 -16510 M 96202.5 -35560 86677.5 -45085 M 96202.5 -26035 96202.5 -35560 M 86677.5 -46675.99 86677.5 -64135 M 86677.5 -45085 86677.5 -46675.99 M 105727.5 -50471.15 105287.737 -50910.913 M 105727.5 -49974.5 105727.5 -50471.15 M 105727.5 -45085 105727.5 -49974.5 M 105727.5 -16510 115252.5 -26035 M 105727.5 -6985 105727.5 -16510 M 115252.5 -35560 105727.5 -45085 M 115252.5 -26035 115252.5 -35560 M 124777.5 -45085 124777.5 -50819.5 124714 -50883 M 124777.5 -16510 134302.5 -26035 M 124777.5 -6985 124777.5 -16510 M 134302.5 -35560 124777.5 -45085 M 134302.5 -26035 134302.5 -35560 M 143827.5 -45085 143759.501 -45152.999 M 134302.5 -64135 134302.5 -70004.5 134239 -70068 M 144952.499 -43960.001 143827.5 -45085 M 144952.499 -28556.037 144952.499 -43960.001 M 143827.5 -27431.038 144952.499 -28556.037 M 143827.5 -6985 143827.5 -27431.038 M 143827.5 -54610 134302.5 -64135 M 143827.5 -45085 143827.5 -54610 M 162877.5 -45085 162877.5 -50819.5 162814 -50883 M 162877.5 -16510 153352.5 -26035 M 162877.5 -6985 162877.5 -16510 M 153352.5 -35560 162877.5 -45085 M 153352.5 -26035 153352.5 -35560 M 181927.5 -64135 181927.5 -69996.5 181991 -70060 M 181927.5 -16510 172402.5 -26035 M 181927.5 -6985 181927.5 -16510 M 172402.5 -35560 181927.5 -45085 M 172402.5 -26035 172402.5 -35560 M 181927.5 -46675.99 181927.5 -64135 M 181927.5 -45085 181927.5 -46675.99 M 200977.5 -45085 200977.5 -50819.5 200914 -50883 M 200977.5 -16510 191452.5 -26035 M 200977.5 -6985 200977.5 -16510 M 191452.5 -35560 200977.5 -45085 M 191452.5 -26035 191452.5 -35560 M 212883.75 -64135 212883.75 -70028.25 212852 -70060 M 220027.5 -16510 210502.5 -26035 M 220027.5 -6985 220027.5 -16510 M 210502.5 -35560 220027.5 -45085 M 210502.5 -26035 210502.5 -35560 M 220027.5 -56991.25 212883.75 -64135 M 220027.5 -45085 220027.5 -56991.25 M 234315 -64135 234315 -70060 M 239077.5 -16510 229552.5 -26035 M 239077.5 -6985 239077.5 -16510 M 229552.5 -27625.99 229552.5 -26035 M 229552.5 -46481.038 229552.5 -27625.99 M 234315 -51243.538 229552.5 -46481.038 M 234315 -64135 234315 -51243.538 M 250983.75 -45085 250983.75 -50851.25 250983.75 -50895.25 250952 -50927 M 260508.75 -21272.5 255746.25 -26035 M 260508.75 -6985 260508.75 -21272.5 M 255746.25 -40322.5 250983.75 -45085 M 255746.25 -26035 255746.25 -40322.5 M 101280.018 -72066 99626.298 -72066 M 111864.135 -74206.187 111864.135 -74275.095 M 101537.019 -71808.999 101280.018 -72066 M 111864.135 -74275.095 110590.209 -75549.021 M 112151.089 -73919.233 111864.135 -74206.187 M 110590.209 -75549.021 108367.925 -75549.021 104627.903 -71808.999 101537.019 -71808.999 M 129257.933 -31086.933 132529.432 -31086.933 132557.499 -31115 M 109968.257 -75095.011 111137.134 -73926.134 M 108555.982 -75095.011 109968.257 -75095.011 M 105072.975 -71612.003 105312.985 -71852.015 108555.982 -75095.011 M 104526.98 -71066.01 105312.985 -71852.015 M 100637.99 -71066.01 104526.98 -71066.01 M 100402.108 -71301.892 100637.99 -71066.01 M 100402.108 -71339 100402.108 -71301.892 M 119253 -50165 122555 -50165 M 109394.133 -74641.001 110115.067 -73920.067 M 108744.039 -74641.001 109394.133 -74641.001 M 99695 -70612 104715.038 -70612 108744.039 -74641.001 M 107949 -69341 108457 -69341 M 125417.819 -69341 107949 -69341 M 106681 -69341 107187 -69341 M 107949 -69341 106681 -69341 M 104520 -69341 103250 -69341 M 109093 -73914 104520 -69341 M 106681 -69341 103250 -69341 100458 -69341 100457 -69342" fill="none" stroke-width="254"/><path d="M 141097 -11303 141097 -12783 M 125909.002 -53076.228 125941.614 -53043.616 M 115560.228 -53076.228 125909.002 -53076.228 M 133002.441 -4859.441 132969 -4826 M 142972.77 -4859.441 133002.441 -4859.441 M 115560.228 -53076.228 112204.208 -53076.228 107451.772 -53076.228 107442 -53086 M 111887 -58166 109982 -58166 M 126821.279 -52568.021 125926.759 -51673.501 121243.5 -51673.501 120880.083 -51310.084 M 101092 -61468 101092 -68199 101346 -68453 M 115692.832 -51308 115694.916 -51310.084 M 112903 -51308 115692.832 -51308 M 120880.083 -51310.084 115694.916 -51310.084 114683.084 -51310.084 M 112903 -51308 108839 -51308 108077 -51308 M 106426 -56007 114681 -56007 M 120994.586 -63881 121031 -63881 M 114681 -56007 114681 -57567.414 120994.586 -63881 M 139260.917 -7581.582 139886.192 -8206.857 M 136465.808 -8206.857 137091.083 -7581.582 139260.917 -7581.582" fill="none" stroke-width="381"/><path d="M 136699 -3928.411 135009.589 -3928.411 134874 -4064 M 140105.894 -3898.17 142045.927 -3898.17 142142.566 -3994.809 M 137670.833 -8372.083 137670.833 -13840.167 137668 -13843 M 138811 -8382 138811 -13843" fill="none" stroke-width="254"/></g><g id="RdI9p4F3STvOeV-hvi1R_top_drill1" transform="scale(25.4,25.4)"><use xlink:href="#gA6tmxtSCanVV9nyS0-c_pad-1" x="5326.2" y="-46.1"/><use xlink:href="#gA6tmxtSCanVV9nyS0-c_pad-1" x="5553.8" y="-46.1"/><use xlink:href="#gA6tmxtSCanVV9nyS0-c_pad-2" x="10018.7" y="-1125"/><use xlink:href="#gA6tmxtSCanVV9nyS0-c_pad-2" x="10418.7" y="-1125"/><use xlink:href="#gA6tmxtSCanVV9nyS0-c_pad-2" x="1862.5" y="-375"/><use xlink:href="#gA6tmxtSCanVV9nyS0-c_pad-2" x="2262.5" y="-375"/><use xlink:href="#gA6tmxtSCanVV9nyS0-c_pad-2" x="8237.5" y="-1125"/><use xlink:href="#gA6tmxtSCanVV9nyS0-c_pad-2" x="8637.5" y="-1125"/><use xlink:href="#gA6tmxtSCanVV9nyS0-c_pad-2" x="3737.5" y="-1125"/><use xlink:href="#gA6tmxtSCanVV9nyS0-c_pad-2" x="4137.5" y="-1125"/><use xlink:href="#gA6tmxtSCanVV9nyS0-c_pad-2" x="268.7" y="-375"/><use xlink:href="#gA6tmxtSCanVV9nyS0-c_pad-2" x="668.7" y="-375"/><use xlink:href="#gA6tmxtSCanVV9nyS0-c_pad-2" x="1487.5" y="-1125"/><use xlink:href="#gA6tmxtSCanVV9nyS0-c_pad-2" x="1887.5" y="-1125"/><use xlink:href="#gA6tmxtSCanVV9nyS0-c_pad-2" x="9362.5" y="-375"/><use xlink:href="#gA6tmxtSCanVV9nyS0-c_pad-2" x="9762.5" y="-375"/><use xlink:href="#gA6tmxtSCanVV9nyS0-c_pad-2" x="4487.5" y="-1125"/><use xlink:href="#gA6tmxtSCanVV9nyS0-c_pad-2" x="4887.5" y="-1125"/><use xlink:href="#gA6tmxtSCanVV9nyS0-c_pad-2" x="5237.5" y="-2625"/><use xlink:href="#gA6tmxtSCanVV9nyS0-c_pad-2" x="5637.5" y="-2625"/><use xlink:href="#gA6tmxtSCanVV9nyS0-c_pad-2" x="4112.5" y="-375"/><use xlink:href="#gA6tmxtSCanVV9nyS0-c_pad-2" x="4512.5" y="-375"/><use xlink:href="#gA6tmxtSCanVV9nyS0-c_pad-2" x="1300" y="-2625"/><use xlink:href="#gA6tmxtSCanVV9nyS0-c_pad-2" x="1700" y="-2625"/><use xlink:href="#gA6tmxtSCanVV9nyS0-c_pad-2" x="10206.2" y="-375"/><use xlink:href="#gA6tmxtSCanVV9nyS0-c_pad-2" x="10606.2" y="-375"/><use xlink:href="#gA6tmxtSCanVV9nyS0-c_pad-2" x="7112.5" y="-1875"/><use xlink:href="#gA6tmxtSCanVV9nyS0-c_pad-2" x="7512.5" y="-1875"/><use xlink:href="#gA6tmxtSCanVV9nyS0-c_pad-2" x="7862.5" y="-375"/><use xlink:href="#gA6tmxtSCanVV9nyS0-c_pad-2" x="8262.5" y="-375"/><use xlink:href="#gA6tmxtSCanVV9nyS0-c_pad-2" x="5612.5" y="-1875"/><use xlink:href="#gA6tmxtSCanVV9nyS0-c_pad-2" x="6012.5" y="-1875"/><use xlink:href="#gA6tmxtSCanVV9nyS0-c_pad-2" x="1862.5" y="-1875"/><use xlink:href="#gA6tmxtSCanVV9nyS0-c_pad-2" x="2262.5" y="-1875"/><use xlink:href="#gA6tmxtSCanVV9nyS0-c_pad-2" x="8987.5" y="-1125"/><use xlink:href="#gA6tmxtSCanVV9nyS0-c_pad-2" x="9387.5" y="-1125"/><use xlink:href="#gA6tmxtSCanVV9nyS0-c_pad-2" x="3362.5" y="-375"/><use xlink:href="#gA6tmxtSCanVV9nyS0-c_pad-2" x="3762.5" y="-375"/><use xlink:href="#gA6tmxtSCanVV9nyS0-c_pad-2" x="8331.2" y="-2625"/><use xlink:href="#gA6tmxtSCanVV9nyS0-c_pad-2" x="8731.2" y="-2625"/><use xlink:href="#gA6tmxtSCanVV9nyS0-c_pad-2" x="6737.5" y="-1125"/><use xlink:href="#gA6tmxtSCanVV9nyS0-c_pad-2" x="7137.5" y="-1125"/><use xlink:href="#gA6tmxtSCanVV9nyS0-c_pad-2" x="2237.5" y="-1125"/><use xlink:href="#gA6tmxtSCanVV9nyS0-c_pad-2" x="2637.5" y="-1125"/><use xlink:href="#gA6tmxtSCanVV9nyS0-c_pad-2" x="456.2" y="-1125"/><use xlink:href="#gA6tmxtSCanVV9nyS0-c_pad-2" x="856.2" y="-1125"/><use xlink:href="#gA6tmxtSCanVV9nyS0-c_pad-2" x="9175" y="-2625"/><use xlink:href="#gA6tmxtSCanVV9nyS0-c_pad-2" x="9575" y="-2625"/><use xlink:href="#gA6tmxtSCanVV9nyS0-c_pad-2" x="2612.5" y="-375"/><use xlink:href="#gA6tmxtSCanVV9nyS0-c_pad-2" x="3012.5" y="-375"/><use xlink:href="#gA6tmxtSCanVV9nyS0-c_pad-2" x="7112.5" y="-375"/><use xlink:href="#gA6tmxtSCanVV9nyS0-c_pad-2" x="7512.5" y="-375"/><use xlink:href="#gA6tmxtSCanVV9nyS0-c_pad-2" x="3362.5" y="-2625"/><use xlink:href="#gA6tmxtSCanVV9nyS0-c_pad-2" x="3762.5" y="-2625"/><use xlink:href="#gA6tmxtSCanVV9nyS0-c_pad-2" x="4112.5" y="-1875"/><use xlink:href="#gA6tmxtSCanVV9nyS0-c_pad-2" x="4512.5" y="-1875"/><use xlink:href="#gA6tmxtSCanVV9nyS0-c_pad-2" x="9831.2" y="-1875"/><use xlink:href="#gA6tmxtSCanVV9nyS0-c_pad-2" x="10231.2" y="-1875"/><use xlink:href="#gA6tmxtSCanVV9nyS0-c_pad-2" x="7862.5" y="-1875"/><use xlink:href="#gA6tmxtSCanVV9nyS0-c_pad-2" x="8262.5" y="-1875"/><use xlink:href="#gA6tmxtSCanVV9nyS0-c_pad-2" x="3362.5" y="-1875"/><use xlink:href="#gA6tmxtSCanVV9nyS0-c_pad-2" x="3762.5" y="-1875"/><use xlink:href="#gA6tmxtSCanVV9nyS0-c_pad-2" x="4862.5" y="-1875"/><use xlink:href="#gA6tmxtSCanVV9nyS0-c_pad-2" x="5262.5" y="-1875"/><use xlink:href="#gA6tmxtSCanVV9nyS0-c_pad-2" x="1112.5" y="-375"/><use xlink:href="#gA6tmxtSCanVV9nyS0-c_pad-2" x="1512.5" y="-375"/><use xlink:href="#gA6tmxtSCanVV9nyS0-c_pad-2" x="643.7" y="-1875"/><use xlink:href="#gA6tmxtSCanVV9nyS0-c_pad-2" x="1043.7" y="-1875"/><use xlink:href="#gA6tmxtSCanVV9nyS0-c_pad-2" x="8612.5" y="-375"/><use xlink:href="#gA6tmxtSCanVV9nyS0-c_pad-2" x="9012.5" y="-375"/><use xlink:href="#gA6tmxtSCanVV9nyS0-c_pad-2" x="7487.5" y="-1125"/><use xlink:href="#gA6tmxtSCanVV9nyS0-c_pad-2" x="7887.5" y="-1125"/><use xlink:href="#gA6tmxtSCanVV9nyS0-c_pad-2" x="5237.5" y="-1125"/><use xlink:href="#gA6tmxtSCanVV9nyS0-c_pad-2" x="5637.5" y="-1125"/><use xlink:href="#gA6tmxtSCanVV9nyS0-c_pad-2" x="6362.5" y="-375"/><use xlink:href="#gA6tmxtSCanVV9nyS0-c_pad-2" x="6762.5" y="-375"/><use xlink:href="#gA6tmxtSCanVV9nyS0-c_pad-2" x="2987.5" y="-1125"/><use xlink:href="#gA6tmxtSCanVV9nyS0-c_pad-2" x="3387.5" y="-1125"/><use xlink:href="#gA6tmxtSCanVV9nyS0-c_pad-2" x="4862.5" y="-375"/><use xlink:href="#gA6tmxtSCanVV9nyS0-c_pad-2" x="5262.5" y="-375"/><use xlink:href="#gA6tmxtSCanVV9nyS0-c_pad-2" x="5987.5" y="-1125"/><use xlink:href="#gA6tmxtSCanVV9nyS0-c_pad-2" x="6387.5" y="-1125"/><use xlink:href="#gA6tmxtSCanVV9nyS0-c_pad-2" x="7112.5" y="-2625"/><use xlink:href="#gA6tmxtSCanVV9nyS0-c_pad-2" x="7512.5" y="-2625"/><use xlink:href="#gA6tmxtSCanVV9nyS0-c_pad-2" x="5612.5" y="-375"/><use xlink:href="#gA6tmxtSCanVV9nyS0-c_pad-2" x="6012.5" y="-375"/><use xlink:href="#gA6tmxtSCanVV9nyS0-c_pad-2" x="2143.7" y="-2625"/><use xlink:href="#gA6tmxtSCanVV9nyS0-c_pad-2" x="2543.7" y="-2625"/><use xlink:href="#gA6tmxtSCanVV9nyS0-c_pad-2" x="8612.5" y="-1875"/><use xlink:href="#gA6tmxtSCanVV9nyS0-c_pad-2" x="9012.5" y="-1875"/><use xlink:href="#gA6tmxtSCanVV9nyS0-c_pad-2" x="6362.5" y="-1875"/><use xlink:href="#gA6tmxtSCanVV9nyS0-c_pad-2" x="6762.5" y="-1875"/><use xlink:href="#gA6tmxtSCanVV9nyS0-c_pad-2" x="2612.5" y="-1875"/><use xlink:href="#gA6tmxtSCanVV9nyS0-c_pad-2" x="3012.5" y="-1875"/><use xlink:href="#gA6tmxtSCanVV9nyS0-c_pad-3" x="6843.8" y="-2900"/><use xlink:href="#gA6tmxtSCanVV9nyS0-c_pad-3" x="7781.2" y="-2900"/><use xlink:href="#gA6tmxtSCanVV9nyS0-c_pad-3" x="3187.5" y="-2900"/><use xlink:href="#gA6tmxtSCanVV9nyS0-c_pad-3" x="4687.5" y="-2900"/><use xlink:href="#gA6tmxtSCanVV9nyS0-c_pad-3" x="6187.5" y="-2900"/><use xlink:href="#gA6tmxtSCanVV9nyS0-c_pad-3" x="7687.5" y="-2900"/><use xlink:href="#gA6tmxtSCanVV9nyS0-c_pad-3" x="3093.8" y="-2900"/><use xlink:href="#gA6tmxtSCanVV9nyS0-c_pad-3" x="4031.2" y="-2900"/><use xlink:href="#gA6tmxtSCanVV9nyS0-c_pad-3" x="9562.5" y="-2150"/><use xlink:href="#gA6tmxtSCanVV9nyS0-c_pad-3" x="10500" y="-2150"/><use xlink:href="#gA6tmxtSCanVV9nyS0-c_pad-3" x="375" y="-2150"/><use xlink:href="#gA6tmxtSCanVV9nyS0-c_pad-3" x="1312.5" y="-2150"/><use xlink:href="#gA6tmxtSCanVV9nyS0-c_pad-4" x="2437.5" y="-1125"/><use xlink:href="#gA6tmxtSCanVV9nyS0-c_pad-4" x="656.2" y="-1125"/><use xlink:href="#gA6tmxtSCanVV9nyS0-c_pad-4" x="9375" y="-2625"/><use xlink:href="#gA6tmxtSCanVV9nyS0-c_pad-4" x="2812.5" y="-375"/><use xlink:href="#gA6tmxtSCanVV9nyS0-c_pad-4" x="7312.5" y="-375"/><use xlink:href="#gA6tmxtSCanVV9nyS0-c_pad-4" x="3093.8" y="-2300"/><use xlink:href="#gA6tmxtSCanVV9nyS0-c_pad-4" x="3562.5" y="-2625"/><use xlink:href="#gA6tmxtSCanVV9nyS0-c_pad-4" x="4031.2" y="-2300"/><use xlink:href="#gA6tmxtSCanVV9nyS0-c_pad-4" x="4312.5" y="-1875"/><use xlink:href="#gA6tmxtSCanVV9nyS0-c_pad-4" x="9562.5" y="-1550"/><use xlink:href="#gA6tmxtSCanVV9nyS0-c_pad-4" x="10031.2" y="-1875"/><use xlink:href="#gA6tmxtSCanVV9nyS0-c_pad-4" x="10500" y="-1550"/><use xlink:href="#gA6tmxtSCanVV9nyS0-c_pad-4" x="8062.5" y="-1875"/><use xlink:href="#gA6tmxtSCanVV9nyS0-c_pad-4" x="3562.5" y="-1875"/><use xlink:href="#gA6tmxtSCanVV9nyS0-c_pad-4" x="5062.5" y="-1875"/><use xlink:href="#gA6tmxtSCanVV9nyS0-c_pad-4" x="1312.5" y="-375"/><use xlink:href="#gA6tmxtSCanVV9nyS0-c_pad-4" x="375" y="-1550"/><use xlink:href="#gA6tmxtSCanVV9nyS0-c_pad-4" x="843.8" y="-1875"/><use xlink:href="#gA6tmxtSCanVV9nyS0-c_pad-4" x="1312.5" y="-1550"/><use xlink:href="#gA6tmxtSCanVV9nyS0-c_pad-4" x="8812.5" y="-375"/><use xlink:href="#gA6tmxtSCanVV9nyS0-c_pad-4" x="7687.5" y="-1125"/><use xlink:href="#gA6tmxtSCanVV9nyS0-c_pad-4" x="5437.5" y="-1125"/><use xlink:href="#gA6tmxtSCanVV9nyS0-c_pad-4" x="6562.5" y="-375"/><use xlink:href="#gA6tmxtSCanVV9nyS0-c_pad-4" x="3187.5" y="-1125"/><use xlink:href="#gA6tmxtSCanVV9nyS0-c_pad-4" x="5062.5" y="-375"/><use xlink:href="#gA6tmxtSCanVV9nyS0-c_pad-4" x="6187.5" y="-1125"/><use xlink:href="#gA6tmxtSCanVV9nyS0-c_pad-4" x="6843.8" y="-2300"/><use xlink:href="#gA6tmxtSCanVV9nyS0-c_pad-4" x="7312.5" y="-2625"/><use xlink:href="#gA6tmxtSCanVV9nyS0-c_pad-4" x="7781.2" y="-2300"/><use xlink:href="#gA6tmxtSCanVV9nyS0-c_pad-4" x="5812.5" y="-375"/><use xlink:href="#gA6tmxtSCanVV9nyS0-c_pad-4" x="2343.8" y="-2625"/><use xlink:href="#gA6tmxtSCanVV9nyS0-c_pad-4" x="8812.5" y="-1875"/><use xlink:href="#gA6tmxtSCanVV9nyS0-c_pad-4" x="6562.5" y="-1875"/><use xlink:href="#gA6tmxtSCanVV9nyS0-c_pad-4" x="2812.5" y="-1875"/><use xlink:href="#gA6tmxtSCanVV9nyS0-c_pad-4" x="10218.8" y="-1125"/><use xlink:href="#gA6tmxtSCanVV9nyS0-c_pad-4" x="2062.5" y="-375"/><use xlink:href="#gA6tmxtSCanVV9nyS0-c_pad-4" x="8437.5" y="-1125"/><use xlink:href="#gA6tmxtSCanVV9nyS0-c_pad-4" x="3937.5" y="-1125"/><use xlink:href="#gA6tmxtSCanVV9nyS0-c_pad-4" x="468.8" y="-375"/><use xlink:href="#gA6tmxtSCanVV9nyS0-c_pad-4" x="1687.5" y="-1125"/><use xlink:href="#gA6tmxtSCanVV9nyS0-c_pad-4" x="9562.5" y="-375"/><use xlink:href="#gA6tmxtSCanVV9nyS0-c_pad-4" x="4687.5" y="-1125"/><use xlink:href="#gA6tmxtSCanVV9nyS0-c_pad-4" x="3187.5" y="-2300"/><use xlink:href="#gA6tmxtSCanVV9nyS0-c_pad-4" x="4687.5" y="-2300"/><use xlink:href="#gA6tmxtSCanVV9nyS0-c_pad-4" x="5437.5" y="-2625"/><use xlink:href="#gA6tmxtSCanVV9nyS0-c_pad-4" x="6187.5" y="-2300"/><use xlink:href="#gA6tmxtSCanVV9nyS0-c_pad-4" x="7687.5" y="-2300"/><use xlink:href="#gA6tmxtSCanVV9nyS0-c_pad-4" x="4312.5" y="-375"/><use xlink:href="#gA6tmxtSCanVV9nyS0-c_pad-4" x="1500" y="-2625"/><use xlink:href="#gA6tmxtSCanVV9nyS0-c_pad-4" x="10406.2" y="-375"/><use xlink:href="#gA6tmxtSCanVV9nyS0-c_pad-4" x="7312.5" y="-1875"/><use xlink:href="#gA6tmxtSCanVV9nyS0-c_pad-4" x="8062.5" y="-375"/><use xlink:href="#gA6tmxtSCanVV9nyS0-c_pad-4" x="5812.5" y="-1875"/><use xlink:href="#gA6tmxtSCanVV9nyS0-c_pad-4" x="2062.5" y="-1875"/><use xlink:href="#gA6tmxtSCanVV9nyS0-c_pad-4" x="9187.5" y="-1125"/><use xlink:href="#gA6tmxtSCanVV9nyS0-c_pad-4" x="3562.5" y="-375"/><use xlink:href="#gA6tmxtSCanVV9nyS0-c_pad-4" x="8531.2" y="-2625"/><use xlink:href="#gA6tmxtSCanVV9nyS0-c_pad-4" x="6937.5" y="-1125"/></g><g id="RdI9p4F3STvOeV-hvi1R_top_drill2" transform="scale(25.4,25.4)"><use xlink:href="#yJxobkWF2OZZW7gmeLAF_pad-1" x="1415.9" y="-2031"/><use xlink:href="#yJxobkWF2OZZW7gmeLAF_pad-1" x="1508.9" y="-2031"/><use xlink:href="#yJxobkWF2OZZW7gmeLAF_pad-1" x="2660" y="-2003.3"/><use xlink:href="#yJxobkWF2OZZW7gmeLAF_pad-1" x="3922.3" y="-2837.2"/><use xlink:href="#yJxobkWF2OZZW7gmeLAF_pad-1" x="3925" y="-2780"/><use xlink:href="#yJxobkWF2OZZW7gmeLAF_pad-1" x="3952.8" y="-2808.6"/><use xlink:href="#yJxobkWF2OZZW7gmeLAF_pad-1" x="3955" y="-2730"/><use xlink:href="#yJxobkWF2OZZW7gmeLAF_pad-1" x="3980" y="-2420"/><use xlink:href="#yJxobkWF2OZZW7gmeLAF_pad-1" x="3990" y="-2695"/><use xlink:href="#yJxobkWF2OZZW7gmeLAF_pad-1" x="4145.2" y="-2004.4"/><use xlink:href="#yJxobkWF2OZZW7gmeLAF_pad-1" x="4190" y="-2205"/><use xlink:href="#yJxobkWF2OZZW7gmeLAF_pad-1" x="4230" y="-2090"/><use xlink:href="#yJxobkWF2OZZW7gmeLAF_pad-1" x="4255" y="-2020"/><use xlink:href="#yJxobkWF2OZZW7gmeLAF_pad-1" x="4295" y="-2910"/><use xlink:href="#yJxobkWF2OZZW7gmeLAF_pad-1" x="4330" y="-2290"/><use xlink:href="#yJxobkWF2OZZW7gmeLAF_pad-1" x="4335.2" y="-2910.2"/><use xlink:href="#yJxobkWF2OZZW7gmeLAF_pad-1" x="4375.5" y="-2910.5"/><use xlink:href="#yJxobkWF2OZZW7gmeLAF_pad-1" x="4405" y="-2290"/><use xlink:href="#yJxobkWF2OZZW7gmeLAF_pad-1" x="4415.4" y="-2910.2"/><use xlink:href="#yJxobkWF2OZZW7gmeLAF_pad-1" x="4515" y="-2205"/><use xlink:href="#yJxobkWF2OZZW7gmeLAF_pad-1" x="4549.6" y="-2089.6"/><use xlink:href="#yJxobkWF2OZZW7gmeLAF_pad-1" x="4695" y="-1975"/><use xlink:href="#yJxobkWF2OZZW7gmeLAF_pad-1" x="4759.1" y="-2020.1"/><use xlink:href="#yJxobkWF2OZZW7gmeLAF_pad-1" x="4765" y="-2515"/><use xlink:href="#yJxobkWF2OZZW7gmeLAF_pad-1" x="4825" y="-1975"/><use xlink:href="#yJxobkWF2OZZW7gmeLAF_pad-1" x="4910" y="-2003.3"/><use xlink:href="#yJxobkWF2OZZW7gmeLAF_pad-1" x="4937.7" y="-2730"/><use xlink:href="#yJxobkWF2OZZW7gmeLAF_pad-1" x="4958.3" y="-2088.3"/><use xlink:href="#yJxobkWF2OZZW7gmeLAF_pad-1" x="4993" y="-2069.6"/><use xlink:href="#yJxobkWF2OZZW7gmeLAF_pad-1" x="5088.9" y="-1223.9"/><use xlink:href="#yJxobkWF2OZZW7gmeLAF_pad-1" x="5218.8" y="-1225"/><use xlink:href="#yJxobkWF2OZZW7gmeLAF_pad-1" x="5235" y="-190"/><use xlink:href="#yJxobkWF2OZZW7gmeLAF_pad-1" x="5285" y="-2758.6"/><use xlink:href="#yJxobkWF2OZZW7gmeLAF_pad-1" x="5310" y="-160"/><use xlink:href="#yJxobkWF2OZZW7gmeLAF_pad-1" x="5372.7" y="-323.1"/><use xlink:href="#yJxobkWF2OZZW7gmeLAF_pad-1" x="5381.9" y="-154.7"/><use xlink:href="#yJxobkWF2OZZW7gmeLAF_pad-1" x="5420" y="-545"/><use xlink:href="#yJxobkWF2OZZW7gmeLAF_pad-1" x="5420.1" y="-329.6"/><use xlink:href="#yJxobkWF2OZZW7gmeLAF_pad-1" x="5465" y="-330"/><use xlink:href="#yJxobkWF2OZZW7gmeLAF_pad-1" x="5465" y="-545"/><use xlink:href="#yJxobkWF2OZZW7gmeLAF_pad-1" x="5507.3" y="-323.1"/><use xlink:href="#yJxobkWF2OZZW7gmeLAF_pad-1" x="5516" y="-153.5"/><use xlink:href="#yJxobkWF2OZZW7gmeLAF_pad-1" x="5555" y="-445"/><use xlink:href="#yJxobkWF2OZZW7gmeLAF_pad-1" x="5555" y="-503.3"/><use xlink:href="#yJxobkWF2OZZW7gmeLAF_pad-1" x="5596.2" y="-157.3"/><use xlink:href="#yJxobkWF2OZZW7gmeLAF_pad-1" x="5628.8" y="-191.3"/><use xlink:href="#yJxobkWF2OZZW7gmeLAF_pad-1" x="6410" y="-2003.3"/><use xlink:href="#yJxobkWF2OZZW7gmeLAF_pad-1" x="7165" y="-2758.3"/><use xlink:href="#yJxobkWF2OZZW7gmeLAF_pad-1" x="7910" y="-2003.3"/><use xlink:href="#yJxobkWF2OZZW7gmeLAF_pad-1" x="8380" y="-2758.3"/><use xlink:href="#yJxobkWF2OZZW7gmeLAF_pad-1" x="9225" y="-2758.3"/><use xlink:href="#yJxobkWF2OZZW7gmeLAF_pad-1" x="9880" y="-2005"/><use xlink:href="#yJxobkWF2OZZW7gmeLAF_pad-3" x="3412.5" y="-275"/><use xlink:href="#yJxobkWF2OZZW7gmeLAF_pad-3" x="3662.5" y="-175"/><use xlink:href="#yJxobkWF2OZZW7gmeLAF_pad-3" x="8381.2" y="-2525"/><use xlink:href="#yJxobkWF2OZZW7gmeLAF_pad-3" x="8631.2" y="-2425"/><use xlink:href="#yJxobkWF2OZZW7gmeLAF_pad-3" x="6787.5" y="-1025"/><use xlink:href="#yJxobkWF2OZZW7gmeLAF_pad-3" x="7037.5" y="-925"/><use xlink:href="#yJxobkWF2OZZW7gmeLAF_pad-3" x="2287.5" y="-1025"/><use xlink:href="#yJxobkWF2OZZW7gmeLAF_pad-3" x="2537.5" y="-925"/><use xlink:href="#yJxobkWF2OZZW7gmeLAF_pad-3" x="506.2" y="-1025"/><use xlink:href="#yJxobkWF2OZZW7gmeLAF_pad-3" x="756.2" y="-925"/><use xlink:href="#yJxobkWF2OZZW7gmeLAF_pad-3" x="9225" y="-2525"/><use xlink:href="#yJxobkWF2OZZW7gmeLAF_pad-3" x="9475" y="-2425"/><use xlink:href="#yJxobkWF2OZZW7gmeLAF_pad-3" x="2662.5" y="-275"/><use xlink:href="#yJxobkWF2OZZW7gmeLAF_pad-3" x="2912.5" y="-175"/><use xlink:href="#yJxobkWF2OZZW7gmeLAF_pad-3" x="7162.5" y="-275"/><use xlink:href="#yJxobkWF2OZZW7gmeLAF_pad-3" x="7412.5" y="-175"/><use xlink:href="#yJxobkWF2OZZW7gmeLAF_pad-3" x="3412.5" y="-2525"/><use xlink:href="#yJxobkWF2OZZW7gmeLAF_pad-3" x="3662.5" y="-2425"/><use xlink:href="#yJxobkWF2OZZW7gmeLAF_pad-3" x="4162.5" y="-1775"/><use xlink:href="#yJxobkWF2OZZW7gmeLAF_pad-3" x="4412.5" y="-1675"/><use xlink:href="#yJxobkWF2OZZW7gmeLAF_pad-3" x="9881.2" y="-1775"/><use xlink:href="#yJxobkWF2OZZW7gmeLAF_pad-3" x="10131.2" y="-1675"/><use xlink:href="#yJxobkWF2OZZW7gmeLAF_pad-3" x="7912.5" y="-1775"/><use xlink:href="#yJxobkWF2OZZW7gmeLAF_pad-3" x="8162.5" y="-1675"/><use xlink:href="#yJxobkWF2OZZW7gmeLAF_pad-3" x="3412.5" y="-1775"/><use xlink:href="#yJxobkWF2OZZW7gmeLAF_pad-3" x="3662.5" y="-1675"/><use xlink:href="#yJxobkWF2OZZW7gmeLAF_pad-3" x="4912.5" y="-1775"/><use xlink:href="#yJxobkWF2OZZW7gmeLAF_pad-3" x="5162.5" y="-1675"/><use xlink:href="#yJxobkWF2OZZW7gmeLAF_pad-3" x="1162.5" y="-275"/><use xlink:href="#yJxobkWF2OZZW7gmeLAF_pad-3" x="1412.5" y="-175"/><use xlink:href="#yJxobkWF2OZZW7gmeLAF_pad-3" x="693.7" y="-1775"/><use xlink:href="#yJxobkWF2OZZW7gmeLAF_pad-3" x="943.7" y="-1675"/><use xlink:href="#yJxobkWF2OZZW7gmeLAF_pad-3" x="8662.5" y="-275"/><use xlink:href="#yJxobkWF2OZZW7gmeLAF_pad-3" x="8912.5" y="-175"/><use xlink:href="#yJxobkWF2OZZW7gmeLAF_pad-3" x="7537.5" y="-1025"/><use xlink:href="#yJxobkWF2OZZW7gmeLAF_pad-3" x="7787.5" y="-925"/><use xlink:href="#yJxobkWF2OZZW7gmeLAF_pad-3" x="5287.5" y="-1025"/><use xlink:href="#yJxobkWF2OZZW7gmeLAF_pad-3" x="5537.5" y="-925"/><use xlink:href="#yJxobkWF2OZZW7gmeLAF_pad-3" x="6412.5" y="-275"/><use xlink:href="#yJxobkWF2OZZW7gmeLAF_pad-3" x="6662.5" y="-175"/><use xlink:href="#yJxobkWF2OZZW7gmeLAF_pad-3" x="3037.5" y="-1025"/><use xlink:href="#yJxobkWF2OZZW7gmeLAF_pad-3" x="3287.5" y="-925"/><use xlink:href="#yJxobkWF2OZZW7gmeLAF_pad-3" x="4912.5" y="-275"/><use xlink:href="#yJxobkWF2OZZW7gmeLAF_pad-3" x="5162.5" y="-175"/><use xlink:href="#yJxobkWF2OZZW7gmeLAF_pad-3" x="6037.5" y="-1025"/><use xlink:href="#yJxobkWF2OZZW7gmeLAF_pad-3" x="6287.5" y="-925"/><use xlink:href="#yJxobkWF2OZZW7gmeLAF_pad-3" x="7162.5" y="-2525"/><use xlink:href="#yJxobkWF2OZZW7gmeLAF_pad-3" x="7412.5" y="-2425"/><use xlink:href="#yJxobkWF2OZZW7gmeLAF_pad-3" x="5662.5" y="-275"/><use xlink:href="#yJxobkWF2OZZW7gmeLAF_pad-3" x="5912.5" y="-175"/><use xlink:href="#yJxobkWF2OZZW7gmeLAF_pad-3" x="2193.8" y="-2525"/><use xlink:href="#yJxobkWF2OZZW7gmeLAF_pad-3" x="2443.8" y="-2425"/><use xlink:href="#yJxobkWF2OZZW7gmeLAF_pad-3" x="8662.5" y="-1775"/><use xlink:href="#yJxobkWF2OZZW7gmeLAF_pad-3" x="8912.5" y="-1675"/><use xlink:href="#yJxobkWF2OZZW7gmeLAF_pad-3" x="6412.5" y="-1775"/><use xlink:href="#yJxobkWF2OZZW7gmeLAF_pad-3" x="6662.5" y="-1675"/><use xlink:href="#yJxobkWF2OZZW7gmeLAF_pad-3" x="2662.5" y="-1775"/><use xlink:href="#yJxobkWF2OZZW7gmeLAF_pad-3" x="2912.5" y="-1675"/><use xlink:href="#yJxobkWF2OZZW7gmeLAF_pad-3" x="10068.7" y="-1025"/><use xlink:href="#yJxobkWF2OZZW7gmeLAF_pad-3" x="10318.7" y="-925"/><use xlink:href="#yJxobkWF2OZZW7gmeLAF_pad-3" x="1912.5" y="-275"/><use xlink:href="#yJxobkWF2OZZW7gmeLAF_pad-3" x="2162.5" y="-175"/><use xlink:href="#yJxobkWF2OZZW7gmeLAF_pad-3" x="8287.5" y="-1025"/><use xlink:href="#yJxobkWF2OZZW7gmeLAF_pad-3" x="8537.5" y="-925"/><use xlink:href="#yJxobkWF2OZZW7gmeLAF_pad-3" x="3787.5" y="-1025"/><use xlink:href="#yJxobkWF2OZZW7gmeLAF_pad-3" x="4037.5" y="-925"/><use xlink:href="#yJxobkWF2OZZW7gmeLAF_pad-3" x="318.7" y="-275"/><use xlink:href="#yJxobkWF2OZZW7gmeLAF_pad-3" x="568.7" y="-175"/><use xlink:href="#yJxobkWF2OZZW7gmeLAF_pad-3" x="1537.5" y="-1025"/><use xlink:href="#yJxobkWF2OZZW7gmeLAF_pad-3" x="1787.5" y="-925"/><use xlink:href="#yJxobkWF2OZZW7gmeLAF_pad-3" x="9412.5" y="-275"/><use xlink:href="#yJxobkWF2OZZW7gmeLAF_pad-3" x="9662.5" y="-175"/><use xlink:href="#yJxobkWF2OZZW7gmeLAF_pad-3" x="4537.5" y="-1025"/><use xlink:href="#yJxobkWF2OZZW7gmeLAF_pad-3" x="4787.5" y="-925"/><use xlink:href="#yJxobkWF2OZZW7gmeLAF_pad-3" x="5287.5" y="-2525"/><use xlink:href="#yJxobkWF2OZZW7gmeLAF_pad-3" x="5537.5" y="-2425"/><use xlink:href="#yJxobkWF2OZZW7gmeLAF_pad-3" x="4162.5" y="-275"/><use xlink:href="#yJxobkWF2OZZW7gmeLAF_pad-3" x="4412.5" y="-175"/><use xlink:href="#yJxobkWF2OZZW7gmeLAF_pad-3" x="1350" y="-2525"/><use xlink:href="#yJxobkWF2OZZW7gmeLAF_pad-3" x="1600" y="-2425"/><use xlink:href="#yJxobkWF2OZZW7gmeLAF_pad-3" x="10256.2" y="-275"/><use xlink:href="#yJxobkWF2OZZW7gmeLAF_pad-3" x="10506.2" y="-175"/><use xlink:href="#yJxobkWF2OZZW7gmeLAF_pad-3" x="7162.5" y="-1775"/><use xlink:href="#yJxobkWF2OZZW7gmeLAF_pad-3" x="7412.5" y="-1675"/><use xlink:href="#yJxobkWF2OZZW7gmeLAF_pad-3" x="7912.5" y="-275"/><use xlink:href="#yJxobkWF2OZZW7gmeLAF_pad-3" x="8162.5" y="-175"/><use xlink:href="#yJxobkWF2OZZW7gmeLAF_pad-3" x="5662.5" y="-1775"/><use xlink:href="#yJxobkWF2OZZW7gmeLAF_pad-3" x="5912.5" y="-1675"/><use xlink:href="#yJxobkWF2OZZW7gmeLAF_pad-3" x="1912.5" y="-1775"/><use xlink:href="#yJxobkWF2OZZW7gmeLAF_pad-3" x="2162.5" y="-1675"/><use xlink:href="#yJxobkWF2OZZW7gmeLAF_pad-3" x="9037.5" y="-1025"/><use xlink:href="#yJxobkWF2OZZW7gmeLAF_pad-3" x="9287.5" y="-925"/><path d="M 5269.9 109.4 5269.9 85.8 M 5269.9 -45.3 5269.9 -88.6 M 5610.1 109.4 5610.1 85.8 M 5610.1 -45.3 5610.1 -88.6" fill="none" stroke-width="23.6"/></g><clipPath id="RdI9p4F3STvOeV-hvi1R_top_outline"><path d="M 144526 0 275431.25 0 A 793.75 793.75 0 0 0 276225 -793.75 L 276225 -56356.25 A 793.75 793.75 0 0 0 275431.25 -57150 L 248443.75 -57150 A 793.75 793.75 0 0 1 247650 -57943.75 L 247650 -75406.25 A 793.75 793.75 0 0 0 246856.25 -76200 L 29368.75 -76200 A 793.75 793.75 0 0 0 28575 -75406.25 L 28575 -57943.75 A 793.75 793.75 0 0 1 27781.25 -57150 L 793.75 -57150 A 793.75 793.75 0 0 0 0 -56356.25 L 0 -793.75 A 793.75 793.75 0 0 0 793.75 0 L 131826 0 A 1270 1270 0 0 1 133096 1270 L 133096 2286 A 1270 1270 0 0 0 134366 3556 L 141986 3556 A 1270 1270 0 0 0 143256 2286 L 143256 1270 A 1270 1270 0 0 1 144526 0" fill="none" stroke-width="100"/></clipPath><mask id="RdI9p4F3STvOeV-hvi1R_top_mech-mask"><g fill="#000" stroke="#000"><rect x="0" y="-76200" width="276225" height="79756" fill="#fff"/><use xlink:href="#RdI9p4F3STvOeV-hvi1R_top_drill1"/><use xlink:href="#RdI9p4F3STvOeV-hvi1R_top_drill2"/></g></mask><mask id="RdI9p4F3STvOeV-hvi1R_top_cf-mask"><g fill="#fff" stroke="#fff"><use xlink:href="#RdI9p4F3STvOeV-hvi1R_top_soldermask"/></g></mask><mask id="RdI9p4F3STvOeV-hvi1R_top_sm-mask"><g fill="#000" stroke="#000"><rect x="0" y="-76200" width="276225" height="79756" fill="#fff"/><use xlink:href="#RdI9p4F3STvOeV-hvi1R_top_soldermask"/></g></mask></defs><g transform="translate(0,-72644) scale(1,-1)"><g mask="url(#RdI9p4F3STvOeV-hvi1R_top_mech-mask)" clip-path="url(#RdI9p4F3STvOeV-hvi1R_top_outline)"><rect x="0" y="-76200" width="276225" height="79756" fill="currentColor" class="RdI9p4F3STvOeV-hvi1R_fr4"/><use xlink:href="#RdI9p4F3STvOeV-hvi1R_top_copper" fill="currentColor" stroke="currentColor" class="RdI9p4F3STvOeV-hvi1R_cu"/><use xlink:href="#RdI9p4F3STvOeV-hvi1R_top_copper" fill="currentColor" stroke="currentColor" class="RdI9p4F3STvOeV-hvi1R_cf" mask="url(#RdI9p4F3STvOeV-hvi1R_top_cf-mask)"/><g mask="url(#RdI9p4F3STvOeV-hvi1R_top_sm-mask)"><rect x="0" y="-76200" width="276225" height="79756" fill="currentColor" class="RdI9p4F3STvOeV-hvi1R_sm"/><use xlink:href="#RdI9p4F3STvOeV-hvi1R_top_silkscreen" fill="currentColor" stroke="currentColor" class="RdI9p4F3STvOeV-hvi1R_ss"/></g></g></g></svg>