M48
; DRILL file {KiCad (5.1.4)-1} date 11/15/2020 13:42:58
; FORMAT={-:-/ absolute / inch / decimal}
; #@! TF.CreationDate,2020-11-15T13:42:58-06:00
; #@! TF.GenerationSoftware,Kicad,Pcbnew,(5.1.4)-1
; #@! TF.FileFunction,Plated,1,2,PTH
FMAT,2
INCH
T1C0.0157
T2C0.0236
T3C0.0579
%
G90
G05
T1
X1.4159Y-2.031
X1.5089Y-2.031
X2.66Y-2.0033
X3.9223Y-2.8372
X3.925Y-2.78
X3.9528Y-2.8086
X3.955Y-2.73
X3.98Y-2.42
X3.99Y-2.695
X4.1452Y-2.0044
X4.19Y-2.205
X4.23Y-2.09
X4.255Y-2.02
X4.295Y-2.91
X4.33Y-2.29
X4.3352Y-2.9102
X4.3755Y-2.9105
X4.405Y-2.29
X4.4154Y-2.9102
X4.515Y-2.205
X4.5496Y-2.0896
X4.695Y-1.975
X4.7591Y-2.0201
X4.765Y-2.515
X4.825Y-1.975
X4.91Y-2.0033
X4.9377Y-2.73
X4.9583Y-2.0883
X4.993Y-2.0696
X5.0889Y-1.2239
X5.2188Y-1.225
X5.235Y-0.19
X5.285Y-2.7586
X5.31Y-0.16
X5.3727Y-0.3231
X5.3819Y-0.1547
X5.42Y-0.545
X5.4201Y-0.3296
X5.465Y-0.33
X5.465Y-0.545
X5.5073Y-0.3231
X5.516Y-0.1535
X5.555Y-0.445
X5.555Y-0.5033
X5.5962Y-0.1573
X5.6288Y-0.1913
X6.41Y-2.0033
X7.165Y-2.7583
X7.91Y-2.0033
X8.38Y-2.7583
X9.225Y-2.7583
X9.88Y-2.005
T3
X3.4125Y-0.275
X3.6625Y-0.175
X8.3812Y-2.525
X8.6312Y-2.425
X6.7875Y-1.025
X7.0375Y-0.925
X2.2875Y-1.025
X2.5375Y-0.925
X0.5062Y-1.025
X0.7562Y-0.925
X9.225Y-2.525
X9.475Y-2.425
X2.6625Y-0.275
X2.9125Y-0.175
X7.1625Y-0.275
X7.4125Y-0.175
X3.4125Y-2.525
X3.6625Y-2.425
X4.1625Y-1.775
X4.4125Y-1.675
X9.8812Y-1.775
X10.1312Y-1.675
X7.9125Y-1.775
X8.1625Y-1.675
X3.4125Y-1.775
X3.6625Y-1.675
X4.9125Y-1.775
X5.1625Y-1.675
X1.1625Y-0.275
X1.4125Y-0.175
X0.6937Y-1.775
X0.9437Y-1.675
X8.6625Y-0.275
X8.9125Y-0.175
X7.5375Y-1.025
X7.7875Y-0.925
X5.2875Y-1.025
X5.5375Y-0.925
X6.4125Y-0.275
X6.6625Y-0.175
X3.0375Y-1.025
X3.2875Y-0.925
X4.9125Y-0.275
X5.1625Y-0.175
X6.0375Y-1.025
X6.2875Y-0.925
X7.1625Y-2.525
X7.4125Y-2.425
X5.6625Y-0.275
X5.9125Y-0.175
X2.1938Y-2.525
X2.4438Y-2.425
X8.6625Y-1.775
X8.9125Y-1.675
X6.4125Y-1.775
X6.6625Y-1.675
X2.6625Y-1.775
X2.9125Y-1.675
X10.0687Y-1.025
X10.3187Y-0.925
X1.9125Y-0.275
X2.1625Y-0.175
X8.2875Y-1.025
X8.5375Y-0.925
X3.7875Y-1.025
X4.0375Y-0.925
X0.3187Y-0.275
X0.5687Y-0.175
X1.5375Y-1.025
X1.7875Y-0.925
X9.4125Y-0.275
X9.6625Y-0.175
X4.5375Y-1.025
X4.7875Y-0.925
X5.2875Y-2.525
X5.5375Y-2.425
X4.1625Y-0.275
X4.4125Y-0.175
X1.35Y-2.525
X1.6Y-2.425
X10.2562Y-0.275
X10.5062Y-0.175
X7.1625Y-1.775
X7.4125Y-1.675
X7.9125Y-0.275
X8.1625Y-0.175
X5.6625Y-1.775
X5.9125Y-1.675
X1.9125Y-1.775
X2.1625Y-1.675
X9.0375Y-1.025
X9.2875Y-0.925
T2
G00X5.2699Y0.1094
M15
G01X5.2699Y0.0858
M16
G05
G00X5.2699Y-0.0453
M15
G01X5.2699Y-0.0886
M16
G05
G00X5.6101Y0.1094
M15
G01X5.6101Y0.0858
M16
G05
G00X5.6101Y-0.0453
M15
G01X5.6101Y-0.0886
M16
G05
T0
M30
