G04 #@! TF.GenerationSoftware,KiCad,Pcbnew,(5.1.4)-1*
G04 #@! TF.CreationDate,2020-11-15T13:42:54-06:00*
G04 #@! TF.ProjectId,minim,6d696e69-6d2e-46b6-9963-61645f706362,rev?*
G04 #@! TF.SameCoordinates,Original*
G04 #@! TF.FileFunction,Copper,L2,Bot*
G04 #@! TF.FilePolarity,Positive*
%FSLAX46Y46*%
G04 Gerber Fmt 4.6, Leading zero omitted, Abs format (unit mm)*
G04 Created by KiCad (PCBNEW (5.1.4)-1) date 2020-11-15 13:42:54*
%MOMM*%
%LPD*%
G04 APERTURE LIST*
%ADD10R,1.200000X0.900000*%
%ADD11C,0.100000*%
%ADD12C,0.975000*%
%ADD13R,0.600000X1.450000*%
%ADD14R,0.300000X1.450000*%
%ADD15O,1.000000X2.100000*%
%ADD16O,1.000000X1.600000*%
%ADD17R,0.700000X1.000000*%
%ADD18R,0.700000X0.600000*%
%ADD19C,1.250000*%
%ADD20R,1.200000X1.400000*%
%ADD21R,1.500000X0.550000*%
%ADD22R,0.550000X1.500000*%
%ADD23R,1.800000X1.100000*%
%ADD24C,2.250000*%
%ADD25C,0.800000*%
%ADD26C,0.254000*%
%ADD27C,0.381000*%
%ADD28C,0.025400*%
G04 APERTURE END LIST*
D10*
X22733000Y-8764000D03*
X22733000Y-12064000D03*
D11*
G36*
X113891142Y-56331174D02*
G01*
X113914803Y-56334684D01*
X113938007Y-56340496D01*
X113960529Y-56348554D01*
X113982153Y-56358782D01*
X114002670Y-56371079D01*
X114021883Y-56385329D01*
X114039607Y-56401393D01*
X114055671Y-56419117D01*
X114069921Y-56438330D01*
X114082218Y-56458847D01*
X114092446Y-56480471D01*
X114100504Y-56502993D01*
X114106316Y-56526197D01*
X114109826Y-56549858D01*
X114111000Y-56573750D01*
X114111000Y-57061250D01*
X114109826Y-57085142D01*
X114106316Y-57108803D01*
X114100504Y-57132007D01*
X114092446Y-57154529D01*
X114082218Y-57176153D01*
X114069921Y-57196670D01*
X114055671Y-57215883D01*
X114039607Y-57233607D01*
X114021883Y-57249671D01*
X114002670Y-57263921D01*
X113982153Y-57276218D01*
X113960529Y-57286446D01*
X113938007Y-57294504D01*
X113914803Y-57300316D01*
X113891142Y-57303826D01*
X113867250Y-57305000D01*
X112954750Y-57305000D01*
X112930858Y-57303826D01*
X112907197Y-57300316D01*
X112883993Y-57294504D01*
X112861471Y-57286446D01*
X112839847Y-57276218D01*
X112819330Y-57263921D01*
X112800117Y-57249671D01*
X112782393Y-57233607D01*
X112766329Y-57215883D01*
X112752079Y-57196670D01*
X112739782Y-57176153D01*
X112729554Y-57154529D01*
X112721496Y-57132007D01*
X112715684Y-57108803D01*
X112712174Y-57085142D01*
X112711000Y-57061250D01*
X112711000Y-56573750D01*
X112712174Y-56549858D01*
X112715684Y-56526197D01*
X112721496Y-56502993D01*
X112729554Y-56480471D01*
X112739782Y-56458847D01*
X112752079Y-56438330D01*
X112766329Y-56419117D01*
X112782393Y-56401393D01*
X112800117Y-56385329D01*
X112819330Y-56371079D01*
X112839847Y-56358782D01*
X112861471Y-56348554D01*
X112883993Y-56340496D01*
X112907197Y-56334684D01*
X112930858Y-56331174D01*
X112954750Y-56330000D01*
X113867250Y-56330000D01*
X113891142Y-56331174D01*
X113891142Y-56331174D01*
G37*
D12*
X113411000Y-56817500D03*
D11*
G36*
X113891142Y-54456174D02*
G01*
X113914803Y-54459684D01*
X113938007Y-54465496D01*
X113960529Y-54473554D01*
X113982153Y-54483782D01*
X114002670Y-54496079D01*
X114021883Y-54510329D01*
X114039607Y-54526393D01*
X114055671Y-54544117D01*
X114069921Y-54563330D01*
X114082218Y-54583847D01*
X114092446Y-54605471D01*
X114100504Y-54627993D01*
X114106316Y-54651197D01*
X114109826Y-54674858D01*
X114111000Y-54698750D01*
X114111000Y-55186250D01*
X114109826Y-55210142D01*
X114106316Y-55233803D01*
X114100504Y-55257007D01*
X114092446Y-55279529D01*
X114082218Y-55301153D01*
X114069921Y-55321670D01*
X114055671Y-55340883D01*
X114039607Y-55358607D01*
X114021883Y-55374671D01*
X114002670Y-55388921D01*
X113982153Y-55401218D01*
X113960529Y-55411446D01*
X113938007Y-55419504D01*
X113914803Y-55425316D01*
X113891142Y-55428826D01*
X113867250Y-55430000D01*
X112954750Y-55430000D01*
X112930858Y-55428826D01*
X112907197Y-55425316D01*
X112883993Y-55419504D01*
X112861471Y-55411446D01*
X112839847Y-55401218D01*
X112819330Y-55388921D01*
X112800117Y-55374671D01*
X112782393Y-55358607D01*
X112766329Y-55340883D01*
X112752079Y-55321670D01*
X112739782Y-55301153D01*
X112729554Y-55279529D01*
X112721496Y-55257007D01*
X112715684Y-55233803D01*
X112712174Y-55210142D01*
X112711000Y-55186250D01*
X112711000Y-54698750D01*
X112712174Y-54674858D01*
X112715684Y-54651197D01*
X112721496Y-54627993D01*
X112729554Y-54605471D01*
X112739782Y-54583847D01*
X112752079Y-54563330D01*
X112766329Y-54544117D01*
X112782393Y-54526393D01*
X112800117Y-54510329D01*
X112819330Y-54496079D01*
X112839847Y-54483782D01*
X112861471Y-54473554D01*
X112883993Y-54465496D01*
X112907197Y-54459684D01*
X112930858Y-54456174D01*
X112954750Y-54455000D01*
X113867250Y-54455000D01*
X113891142Y-54456174D01*
X113891142Y-54456174D01*
G37*
D12*
X113411000Y-54942500D03*
D11*
G36*
X119987142Y-63316174D02*
G01*
X120010803Y-63319684D01*
X120034007Y-63325496D01*
X120056529Y-63333554D01*
X120078153Y-63343782D01*
X120098670Y-63356079D01*
X120117883Y-63370329D01*
X120135607Y-63386393D01*
X120151671Y-63404117D01*
X120165921Y-63423330D01*
X120178218Y-63443847D01*
X120188446Y-63465471D01*
X120196504Y-63487993D01*
X120202316Y-63511197D01*
X120205826Y-63534858D01*
X120207000Y-63558750D01*
X120207000Y-64046250D01*
X120205826Y-64070142D01*
X120202316Y-64093803D01*
X120196504Y-64117007D01*
X120188446Y-64139529D01*
X120178218Y-64161153D01*
X120165921Y-64181670D01*
X120151671Y-64200883D01*
X120135607Y-64218607D01*
X120117883Y-64234671D01*
X120098670Y-64248921D01*
X120078153Y-64261218D01*
X120056529Y-64271446D01*
X120034007Y-64279504D01*
X120010803Y-64285316D01*
X119987142Y-64288826D01*
X119963250Y-64290000D01*
X119050750Y-64290000D01*
X119026858Y-64288826D01*
X119003197Y-64285316D01*
X118979993Y-64279504D01*
X118957471Y-64271446D01*
X118935847Y-64261218D01*
X118915330Y-64248921D01*
X118896117Y-64234671D01*
X118878393Y-64218607D01*
X118862329Y-64200883D01*
X118848079Y-64181670D01*
X118835782Y-64161153D01*
X118825554Y-64139529D01*
X118817496Y-64117007D01*
X118811684Y-64093803D01*
X118808174Y-64070142D01*
X118807000Y-64046250D01*
X118807000Y-63558750D01*
X118808174Y-63534858D01*
X118811684Y-63511197D01*
X118817496Y-63487993D01*
X118825554Y-63465471D01*
X118835782Y-63443847D01*
X118848079Y-63423330D01*
X118862329Y-63404117D01*
X118878393Y-63386393D01*
X118896117Y-63370329D01*
X118915330Y-63356079D01*
X118935847Y-63343782D01*
X118957471Y-63333554D01*
X118979993Y-63325496D01*
X119003197Y-63319684D01*
X119026858Y-63316174D01*
X119050750Y-63315000D01*
X119963250Y-63315000D01*
X119987142Y-63316174D01*
X119987142Y-63316174D01*
G37*
D12*
X119507000Y-63802500D03*
D11*
G36*
X119987142Y-61441174D02*
G01*
X120010803Y-61444684D01*
X120034007Y-61450496D01*
X120056529Y-61458554D01*
X120078153Y-61468782D01*
X120098670Y-61481079D01*
X120117883Y-61495329D01*
X120135607Y-61511393D01*
X120151671Y-61529117D01*
X120165921Y-61548330D01*
X120178218Y-61568847D01*
X120188446Y-61590471D01*
X120196504Y-61612993D01*
X120202316Y-61636197D01*
X120205826Y-61659858D01*
X120207000Y-61683750D01*
X120207000Y-62171250D01*
X120205826Y-62195142D01*
X120202316Y-62218803D01*
X120196504Y-62242007D01*
X120188446Y-62264529D01*
X120178218Y-62286153D01*
X120165921Y-62306670D01*
X120151671Y-62325883D01*
X120135607Y-62343607D01*
X120117883Y-62359671D01*
X120098670Y-62373921D01*
X120078153Y-62386218D01*
X120056529Y-62396446D01*
X120034007Y-62404504D01*
X120010803Y-62410316D01*
X119987142Y-62413826D01*
X119963250Y-62415000D01*
X119050750Y-62415000D01*
X119026858Y-62413826D01*
X119003197Y-62410316D01*
X118979993Y-62404504D01*
X118957471Y-62396446D01*
X118935847Y-62386218D01*
X118915330Y-62373921D01*
X118896117Y-62359671D01*
X118878393Y-62343607D01*
X118862329Y-62325883D01*
X118848079Y-62306670D01*
X118835782Y-62286153D01*
X118825554Y-62264529D01*
X118817496Y-62242007D01*
X118811684Y-62218803D01*
X118808174Y-62195142D01*
X118807000Y-62171250D01*
X118807000Y-61683750D01*
X118808174Y-61659858D01*
X118811684Y-61636197D01*
X118817496Y-61612993D01*
X118825554Y-61590471D01*
X118835782Y-61568847D01*
X118848079Y-61548330D01*
X118862329Y-61529117D01*
X118878393Y-61511393D01*
X118896117Y-61495329D01*
X118915330Y-61481079D01*
X118935847Y-61468782D01*
X118957471Y-61458554D01*
X118979993Y-61450496D01*
X119003197Y-61444684D01*
X119026858Y-61441174D01*
X119050750Y-61440000D01*
X119963250Y-61440000D01*
X119987142Y-61441174D01*
X119987142Y-61441174D01*
G37*
D12*
X119507000Y-61927500D03*
D13*
X141401000Y-2615000D03*
X134951000Y-2615000D03*
X140626000Y-2615000D03*
X135726000Y-2615000D03*
D14*
X136426000Y-2615000D03*
X139926000Y-2615000D03*
X136926000Y-2615000D03*
X139426000Y-2615000D03*
X137426000Y-2615000D03*
X138926000Y-2615000D03*
X138426000Y-2615000D03*
X137926000Y-2615000D03*
D15*
X133856000Y-1700000D03*
X142496000Y-1700000D03*
D16*
X133856000Y2480000D03*
X142496000Y2480000D03*
D17*
X139176000Y-5727000D03*
D18*
X137176000Y-5527000D03*
X139176000Y-7427000D03*
X137176000Y-7427000D03*
D11*
G36*
X139672142Y-14705174D02*
G01*
X139695803Y-14708684D01*
X139719007Y-14714496D01*
X139741529Y-14722554D01*
X139763153Y-14732782D01*
X139783670Y-14745079D01*
X139802883Y-14759329D01*
X139820607Y-14775393D01*
X139836671Y-14793117D01*
X139850921Y-14812330D01*
X139863218Y-14832847D01*
X139873446Y-14854471D01*
X139881504Y-14876993D01*
X139887316Y-14900197D01*
X139890826Y-14923858D01*
X139892000Y-14947750D01*
X139892000Y-15435250D01*
X139890826Y-15459142D01*
X139887316Y-15482803D01*
X139881504Y-15506007D01*
X139873446Y-15528529D01*
X139863218Y-15550153D01*
X139850921Y-15570670D01*
X139836671Y-15589883D01*
X139820607Y-15607607D01*
X139802883Y-15623671D01*
X139783670Y-15637921D01*
X139763153Y-15650218D01*
X139741529Y-15660446D01*
X139719007Y-15668504D01*
X139695803Y-15674316D01*
X139672142Y-15677826D01*
X139648250Y-15679000D01*
X138735750Y-15679000D01*
X138711858Y-15677826D01*
X138688197Y-15674316D01*
X138664993Y-15668504D01*
X138642471Y-15660446D01*
X138620847Y-15650218D01*
X138600330Y-15637921D01*
X138581117Y-15623671D01*
X138563393Y-15607607D01*
X138547329Y-15589883D01*
X138533079Y-15570670D01*
X138520782Y-15550153D01*
X138510554Y-15528529D01*
X138502496Y-15506007D01*
X138496684Y-15482803D01*
X138493174Y-15459142D01*
X138492000Y-15435250D01*
X138492000Y-14947750D01*
X138493174Y-14923858D01*
X138496684Y-14900197D01*
X138502496Y-14876993D01*
X138510554Y-14854471D01*
X138520782Y-14832847D01*
X138533079Y-14812330D01*
X138547329Y-14793117D01*
X138563393Y-14775393D01*
X138581117Y-14759329D01*
X138600330Y-14745079D01*
X138620847Y-14732782D01*
X138642471Y-14722554D01*
X138664993Y-14714496D01*
X138688197Y-14708684D01*
X138711858Y-14705174D01*
X138735750Y-14704000D01*
X139648250Y-14704000D01*
X139672142Y-14705174D01*
X139672142Y-14705174D01*
G37*
D12*
X139192000Y-15191500D03*
D11*
G36*
X139672142Y-16580174D02*
G01*
X139695803Y-16583684D01*
X139719007Y-16589496D01*
X139741529Y-16597554D01*
X139763153Y-16607782D01*
X139783670Y-16620079D01*
X139802883Y-16634329D01*
X139820607Y-16650393D01*
X139836671Y-16668117D01*
X139850921Y-16687330D01*
X139863218Y-16707847D01*
X139873446Y-16729471D01*
X139881504Y-16751993D01*
X139887316Y-16775197D01*
X139890826Y-16798858D01*
X139892000Y-16822750D01*
X139892000Y-17310250D01*
X139890826Y-17334142D01*
X139887316Y-17357803D01*
X139881504Y-17381007D01*
X139873446Y-17403529D01*
X139863218Y-17425153D01*
X139850921Y-17445670D01*
X139836671Y-17464883D01*
X139820607Y-17482607D01*
X139802883Y-17498671D01*
X139783670Y-17512921D01*
X139763153Y-17525218D01*
X139741529Y-17535446D01*
X139719007Y-17543504D01*
X139695803Y-17549316D01*
X139672142Y-17552826D01*
X139648250Y-17554000D01*
X138735750Y-17554000D01*
X138711858Y-17552826D01*
X138688197Y-17549316D01*
X138664993Y-17543504D01*
X138642471Y-17535446D01*
X138620847Y-17525218D01*
X138600330Y-17512921D01*
X138581117Y-17498671D01*
X138563393Y-17482607D01*
X138547329Y-17464883D01*
X138533079Y-17445670D01*
X138520782Y-17425153D01*
X138510554Y-17403529D01*
X138502496Y-17381007D01*
X138496684Y-17357803D01*
X138493174Y-17334142D01*
X138492000Y-17310250D01*
X138492000Y-16822750D01*
X138493174Y-16798858D01*
X138496684Y-16775197D01*
X138502496Y-16751993D01*
X138510554Y-16729471D01*
X138520782Y-16707847D01*
X138533079Y-16687330D01*
X138547329Y-16668117D01*
X138563393Y-16650393D01*
X138581117Y-16634329D01*
X138600330Y-16620079D01*
X138620847Y-16607782D01*
X138642471Y-16597554D01*
X138664993Y-16589496D01*
X138688197Y-16583684D01*
X138711858Y-16580174D01*
X138735750Y-16579000D01*
X139648250Y-16579000D01*
X139672142Y-16580174D01*
X139672142Y-16580174D01*
G37*
D12*
X139192000Y-17066500D03*
D11*
G36*
X137640142Y-14705174D02*
G01*
X137663803Y-14708684D01*
X137687007Y-14714496D01*
X137709529Y-14722554D01*
X137731153Y-14732782D01*
X137751670Y-14745079D01*
X137770883Y-14759329D01*
X137788607Y-14775393D01*
X137804671Y-14793117D01*
X137818921Y-14812330D01*
X137831218Y-14832847D01*
X137841446Y-14854471D01*
X137849504Y-14876993D01*
X137855316Y-14900197D01*
X137858826Y-14923858D01*
X137860000Y-14947750D01*
X137860000Y-15435250D01*
X137858826Y-15459142D01*
X137855316Y-15482803D01*
X137849504Y-15506007D01*
X137841446Y-15528529D01*
X137831218Y-15550153D01*
X137818921Y-15570670D01*
X137804671Y-15589883D01*
X137788607Y-15607607D01*
X137770883Y-15623671D01*
X137751670Y-15637921D01*
X137731153Y-15650218D01*
X137709529Y-15660446D01*
X137687007Y-15668504D01*
X137663803Y-15674316D01*
X137640142Y-15677826D01*
X137616250Y-15679000D01*
X136703750Y-15679000D01*
X136679858Y-15677826D01*
X136656197Y-15674316D01*
X136632993Y-15668504D01*
X136610471Y-15660446D01*
X136588847Y-15650218D01*
X136568330Y-15637921D01*
X136549117Y-15623671D01*
X136531393Y-15607607D01*
X136515329Y-15589883D01*
X136501079Y-15570670D01*
X136488782Y-15550153D01*
X136478554Y-15528529D01*
X136470496Y-15506007D01*
X136464684Y-15482803D01*
X136461174Y-15459142D01*
X136460000Y-15435250D01*
X136460000Y-14947750D01*
X136461174Y-14923858D01*
X136464684Y-14900197D01*
X136470496Y-14876993D01*
X136478554Y-14854471D01*
X136488782Y-14832847D01*
X136501079Y-14812330D01*
X136515329Y-14793117D01*
X136531393Y-14775393D01*
X136549117Y-14759329D01*
X136568330Y-14745079D01*
X136588847Y-14732782D01*
X136610471Y-14722554D01*
X136632993Y-14714496D01*
X136656197Y-14708684D01*
X136679858Y-14705174D01*
X136703750Y-14704000D01*
X137616250Y-14704000D01*
X137640142Y-14705174D01*
X137640142Y-14705174D01*
G37*
D12*
X137160000Y-15191500D03*
D11*
G36*
X137640142Y-16580174D02*
G01*
X137663803Y-16583684D01*
X137687007Y-16589496D01*
X137709529Y-16597554D01*
X137731153Y-16607782D01*
X137751670Y-16620079D01*
X137770883Y-16634329D01*
X137788607Y-16650393D01*
X137804671Y-16668117D01*
X137818921Y-16687330D01*
X137831218Y-16707847D01*
X137841446Y-16729471D01*
X137849504Y-16751993D01*
X137855316Y-16775197D01*
X137858826Y-16798858D01*
X137860000Y-16822750D01*
X137860000Y-17310250D01*
X137858826Y-17334142D01*
X137855316Y-17357803D01*
X137849504Y-17381007D01*
X137841446Y-17403529D01*
X137831218Y-17425153D01*
X137818921Y-17445670D01*
X137804671Y-17464883D01*
X137788607Y-17482607D01*
X137770883Y-17498671D01*
X137751670Y-17512921D01*
X137731153Y-17525218D01*
X137709529Y-17535446D01*
X137687007Y-17543504D01*
X137663803Y-17549316D01*
X137640142Y-17552826D01*
X137616250Y-17554000D01*
X136703750Y-17554000D01*
X136679858Y-17552826D01*
X136656197Y-17549316D01*
X136632993Y-17543504D01*
X136610471Y-17535446D01*
X136588847Y-17525218D01*
X136568330Y-17512921D01*
X136549117Y-17498671D01*
X136531393Y-17482607D01*
X136515329Y-17464883D01*
X136501079Y-17445670D01*
X136488782Y-17425153D01*
X136478554Y-17403529D01*
X136470496Y-17381007D01*
X136464684Y-17357803D01*
X136461174Y-17334142D01*
X136460000Y-17310250D01*
X136460000Y-16822750D01*
X136461174Y-16798858D01*
X136464684Y-16775197D01*
X136470496Y-16751993D01*
X136478554Y-16729471D01*
X136488782Y-16707847D01*
X136501079Y-16687330D01*
X136515329Y-16668117D01*
X136531393Y-16650393D01*
X136549117Y-16634329D01*
X136568330Y-16620079D01*
X136588847Y-16607782D01*
X136610471Y-16597554D01*
X136632993Y-16589496D01*
X136656197Y-16583684D01*
X136679858Y-16580174D01*
X136703750Y-16579000D01*
X137616250Y-16579000D01*
X137640142Y-16580174D01*
X137640142Y-16580174D01*
G37*
D12*
X137160000Y-17066500D03*
D11*
G36*
X141958142Y-6674174D02*
G01*
X141981803Y-6677684D01*
X142005007Y-6683496D01*
X142027529Y-6691554D01*
X142049153Y-6701782D01*
X142069670Y-6714079D01*
X142088883Y-6728329D01*
X142106607Y-6744393D01*
X142122671Y-6762117D01*
X142136921Y-6781330D01*
X142149218Y-6801847D01*
X142159446Y-6823471D01*
X142167504Y-6845993D01*
X142173316Y-6869197D01*
X142176826Y-6892858D01*
X142178000Y-6916750D01*
X142178000Y-7404250D01*
X142176826Y-7428142D01*
X142173316Y-7451803D01*
X142167504Y-7475007D01*
X142159446Y-7497529D01*
X142149218Y-7519153D01*
X142136921Y-7539670D01*
X142122671Y-7558883D01*
X142106607Y-7576607D01*
X142088883Y-7592671D01*
X142069670Y-7606921D01*
X142049153Y-7619218D01*
X142027529Y-7629446D01*
X142005007Y-7637504D01*
X141981803Y-7643316D01*
X141958142Y-7646826D01*
X141934250Y-7648000D01*
X141021750Y-7648000D01*
X140997858Y-7646826D01*
X140974197Y-7643316D01*
X140950993Y-7637504D01*
X140928471Y-7629446D01*
X140906847Y-7619218D01*
X140886330Y-7606921D01*
X140867117Y-7592671D01*
X140849393Y-7576607D01*
X140833329Y-7558883D01*
X140819079Y-7539670D01*
X140806782Y-7519153D01*
X140796554Y-7497529D01*
X140788496Y-7475007D01*
X140782684Y-7451803D01*
X140779174Y-7428142D01*
X140778000Y-7404250D01*
X140778000Y-6916750D01*
X140779174Y-6892858D01*
X140782684Y-6869197D01*
X140788496Y-6845993D01*
X140796554Y-6823471D01*
X140806782Y-6801847D01*
X140819079Y-6781330D01*
X140833329Y-6762117D01*
X140849393Y-6744393D01*
X140867117Y-6728329D01*
X140886330Y-6714079D01*
X140906847Y-6701782D01*
X140928471Y-6691554D01*
X140950993Y-6683496D01*
X140974197Y-6677684D01*
X140997858Y-6674174D01*
X141021750Y-6673000D01*
X141934250Y-6673000D01*
X141958142Y-6674174D01*
X141958142Y-6674174D01*
G37*
D12*
X141478000Y-7160500D03*
D11*
G36*
X141958142Y-4799174D02*
G01*
X141981803Y-4802684D01*
X142005007Y-4808496D01*
X142027529Y-4816554D01*
X142049153Y-4826782D01*
X142069670Y-4839079D01*
X142088883Y-4853329D01*
X142106607Y-4869393D01*
X142122671Y-4887117D01*
X142136921Y-4906330D01*
X142149218Y-4926847D01*
X142159446Y-4948471D01*
X142167504Y-4970993D01*
X142173316Y-4994197D01*
X142176826Y-5017858D01*
X142178000Y-5041750D01*
X142178000Y-5529250D01*
X142176826Y-5553142D01*
X142173316Y-5576803D01*
X142167504Y-5600007D01*
X142159446Y-5622529D01*
X142149218Y-5644153D01*
X142136921Y-5664670D01*
X142122671Y-5683883D01*
X142106607Y-5701607D01*
X142088883Y-5717671D01*
X142069670Y-5731921D01*
X142049153Y-5744218D01*
X142027529Y-5754446D01*
X142005007Y-5762504D01*
X141981803Y-5768316D01*
X141958142Y-5771826D01*
X141934250Y-5773000D01*
X141021750Y-5773000D01*
X140997858Y-5771826D01*
X140974197Y-5768316D01*
X140950993Y-5762504D01*
X140928471Y-5754446D01*
X140906847Y-5744218D01*
X140886330Y-5731921D01*
X140867117Y-5717671D01*
X140849393Y-5701607D01*
X140833329Y-5683883D01*
X140819079Y-5664670D01*
X140806782Y-5644153D01*
X140796554Y-5622529D01*
X140788496Y-5600007D01*
X140782684Y-5576803D01*
X140779174Y-5553142D01*
X140778000Y-5529250D01*
X140778000Y-5041750D01*
X140779174Y-5017858D01*
X140782684Y-4994197D01*
X140788496Y-4970993D01*
X140796554Y-4948471D01*
X140806782Y-4926847D01*
X140819079Y-4906330D01*
X140833329Y-4887117D01*
X140849393Y-4869393D01*
X140867117Y-4853329D01*
X140886330Y-4839079D01*
X140906847Y-4826782D01*
X140928471Y-4816554D01*
X140950993Y-4808496D01*
X140974197Y-4802684D01*
X140997858Y-4799174D01*
X141021750Y-4798000D01*
X141934250Y-4798000D01*
X141958142Y-4799174D01*
X141958142Y-4799174D01*
G37*
D12*
X141478000Y-5285500D03*
D11*
G36*
X135735142Y-6595674D02*
G01*
X135758803Y-6599184D01*
X135782007Y-6604996D01*
X135804529Y-6613054D01*
X135826153Y-6623282D01*
X135846670Y-6635579D01*
X135865883Y-6649829D01*
X135883607Y-6665893D01*
X135899671Y-6683617D01*
X135913921Y-6702830D01*
X135926218Y-6723347D01*
X135936446Y-6744971D01*
X135944504Y-6767493D01*
X135950316Y-6790697D01*
X135953826Y-6814358D01*
X135955000Y-6838250D01*
X135955000Y-7325750D01*
X135953826Y-7349642D01*
X135950316Y-7373303D01*
X135944504Y-7396507D01*
X135936446Y-7419029D01*
X135926218Y-7440653D01*
X135913921Y-7461170D01*
X135899671Y-7480383D01*
X135883607Y-7498107D01*
X135865883Y-7514171D01*
X135846670Y-7528421D01*
X135826153Y-7540718D01*
X135804529Y-7550946D01*
X135782007Y-7559004D01*
X135758803Y-7564816D01*
X135735142Y-7568326D01*
X135711250Y-7569500D01*
X134798750Y-7569500D01*
X134774858Y-7568326D01*
X134751197Y-7564816D01*
X134727993Y-7559004D01*
X134705471Y-7550946D01*
X134683847Y-7540718D01*
X134663330Y-7528421D01*
X134644117Y-7514171D01*
X134626393Y-7498107D01*
X134610329Y-7480383D01*
X134596079Y-7461170D01*
X134583782Y-7440653D01*
X134573554Y-7419029D01*
X134565496Y-7396507D01*
X134559684Y-7373303D01*
X134556174Y-7349642D01*
X134555000Y-7325750D01*
X134555000Y-6838250D01*
X134556174Y-6814358D01*
X134559684Y-6790697D01*
X134565496Y-6767493D01*
X134573554Y-6744971D01*
X134583782Y-6723347D01*
X134596079Y-6702830D01*
X134610329Y-6683617D01*
X134626393Y-6665893D01*
X134644117Y-6649829D01*
X134663330Y-6635579D01*
X134683847Y-6623282D01*
X134705471Y-6613054D01*
X134727993Y-6604996D01*
X134751197Y-6599184D01*
X134774858Y-6595674D01*
X134798750Y-6594500D01*
X135711250Y-6594500D01*
X135735142Y-6595674D01*
X135735142Y-6595674D01*
G37*
D12*
X135255000Y-7082000D03*
D11*
G36*
X135735142Y-4720674D02*
G01*
X135758803Y-4724184D01*
X135782007Y-4729996D01*
X135804529Y-4738054D01*
X135826153Y-4748282D01*
X135846670Y-4760579D01*
X135865883Y-4774829D01*
X135883607Y-4790893D01*
X135899671Y-4808617D01*
X135913921Y-4827830D01*
X135926218Y-4848347D01*
X135936446Y-4869971D01*
X135944504Y-4892493D01*
X135950316Y-4915697D01*
X135953826Y-4939358D01*
X135955000Y-4963250D01*
X135955000Y-5450750D01*
X135953826Y-5474642D01*
X135950316Y-5498303D01*
X135944504Y-5521507D01*
X135936446Y-5544029D01*
X135926218Y-5565653D01*
X135913921Y-5586170D01*
X135899671Y-5605383D01*
X135883607Y-5623107D01*
X135865883Y-5639171D01*
X135846670Y-5653421D01*
X135826153Y-5665718D01*
X135804529Y-5675946D01*
X135782007Y-5684004D01*
X135758803Y-5689816D01*
X135735142Y-5693326D01*
X135711250Y-5694500D01*
X134798750Y-5694500D01*
X134774858Y-5693326D01*
X134751197Y-5689816D01*
X134727993Y-5684004D01*
X134705471Y-5675946D01*
X134683847Y-5665718D01*
X134663330Y-5653421D01*
X134644117Y-5639171D01*
X134626393Y-5623107D01*
X134610329Y-5605383D01*
X134596079Y-5586170D01*
X134583782Y-5565653D01*
X134573554Y-5544029D01*
X134565496Y-5521507D01*
X134559684Y-5498303D01*
X134556174Y-5474642D01*
X134555000Y-5450750D01*
X134555000Y-4963250D01*
X134556174Y-4939358D01*
X134559684Y-4915697D01*
X134565496Y-4892493D01*
X134573554Y-4869971D01*
X134583782Y-4848347D01*
X134596079Y-4827830D01*
X134610329Y-4808617D01*
X134626393Y-4790893D01*
X134644117Y-4774829D01*
X134663330Y-4760579D01*
X134683847Y-4748282D01*
X134705471Y-4738054D01*
X134727993Y-4729996D01*
X134751197Y-4724184D01*
X134774858Y-4720674D01*
X134798750Y-4719500D01*
X135711250Y-4719500D01*
X135735142Y-4720674D01*
X135735142Y-4720674D01*
G37*
D12*
X135255000Y-5207000D03*
D11*
G36*
X139968504Y-11825204D02*
G01*
X139992773Y-11828804D01*
X140016571Y-11834765D01*
X140039671Y-11843030D01*
X140061849Y-11853520D01*
X140082893Y-11866133D01*
X140102598Y-11880747D01*
X140120777Y-11897223D01*
X140137253Y-11915402D01*
X140151867Y-11935107D01*
X140164480Y-11956151D01*
X140174970Y-11978329D01*
X140183235Y-12001429D01*
X140189196Y-12025227D01*
X140192796Y-12049496D01*
X140194000Y-12074000D01*
X140194000Y-12824000D01*
X140192796Y-12848504D01*
X140189196Y-12872773D01*
X140183235Y-12896571D01*
X140174970Y-12919671D01*
X140164480Y-12941849D01*
X140151867Y-12962893D01*
X140137253Y-12982598D01*
X140120777Y-13000777D01*
X140102598Y-13017253D01*
X140082893Y-13031867D01*
X140061849Y-13044480D01*
X140039671Y-13054970D01*
X140016571Y-13063235D01*
X139992773Y-13069196D01*
X139968504Y-13072796D01*
X139944000Y-13074000D01*
X138694000Y-13074000D01*
X138669496Y-13072796D01*
X138645227Y-13069196D01*
X138621429Y-13063235D01*
X138598329Y-13054970D01*
X138576151Y-13044480D01*
X138555107Y-13031867D01*
X138535402Y-13017253D01*
X138517223Y-13000777D01*
X138500747Y-12982598D01*
X138486133Y-12962893D01*
X138473520Y-12941849D01*
X138463030Y-12919671D01*
X138454765Y-12896571D01*
X138448804Y-12872773D01*
X138445204Y-12848504D01*
X138444000Y-12824000D01*
X138444000Y-12074000D01*
X138445204Y-12049496D01*
X138448804Y-12025227D01*
X138454765Y-12001429D01*
X138463030Y-11978329D01*
X138473520Y-11956151D01*
X138486133Y-11935107D01*
X138500747Y-11915402D01*
X138517223Y-11897223D01*
X138535402Y-11880747D01*
X138555107Y-11866133D01*
X138576151Y-11853520D01*
X138598329Y-11843030D01*
X138621429Y-11834765D01*
X138645227Y-11828804D01*
X138669496Y-11825204D01*
X138694000Y-11824000D01*
X139944000Y-11824000D01*
X139968504Y-11825204D01*
X139968504Y-11825204D01*
G37*
D19*
X139319000Y-12449000D03*
D11*
G36*
X139968504Y-9025204D02*
G01*
X139992773Y-9028804D01*
X140016571Y-9034765D01*
X140039671Y-9043030D01*
X140061849Y-9053520D01*
X140082893Y-9066133D01*
X140102598Y-9080747D01*
X140120777Y-9097223D01*
X140137253Y-9115402D01*
X140151867Y-9135107D01*
X140164480Y-9156151D01*
X140174970Y-9178329D01*
X140183235Y-9201429D01*
X140189196Y-9225227D01*
X140192796Y-9249496D01*
X140194000Y-9274000D01*
X140194000Y-10024000D01*
X140192796Y-10048504D01*
X140189196Y-10072773D01*
X140183235Y-10096571D01*
X140174970Y-10119671D01*
X140164480Y-10141849D01*
X140151867Y-10162893D01*
X140137253Y-10182598D01*
X140120777Y-10200777D01*
X140102598Y-10217253D01*
X140082893Y-10231867D01*
X140061849Y-10244480D01*
X140039671Y-10254970D01*
X140016571Y-10263235D01*
X139992773Y-10269196D01*
X139968504Y-10272796D01*
X139944000Y-10274000D01*
X138694000Y-10274000D01*
X138669496Y-10272796D01*
X138645227Y-10269196D01*
X138621429Y-10263235D01*
X138598329Y-10254970D01*
X138576151Y-10244480D01*
X138555107Y-10231867D01*
X138535402Y-10217253D01*
X138517223Y-10200777D01*
X138500747Y-10182598D01*
X138486133Y-10162893D01*
X138473520Y-10141849D01*
X138463030Y-10119671D01*
X138454765Y-10096571D01*
X138448804Y-10072773D01*
X138445204Y-10048504D01*
X138444000Y-10024000D01*
X138444000Y-9274000D01*
X138445204Y-9249496D01*
X138448804Y-9225227D01*
X138454765Y-9201429D01*
X138463030Y-9178329D01*
X138473520Y-9156151D01*
X138486133Y-9135107D01*
X138500747Y-9115402D01*
X138517223Y-9097223D01*
X138535402Y-9080747D01*
X138555107Y-9066133D01*
X138576151Y-9053520D01*
X138598329Y-9043030D01*
X138621429Y-9034765D01*
X138645227Y-9028804D01*
X138669496Y-9025204D01*
X138694000Y-9024000D01*
X139944000Y-9024000D01*
X139968504Y-9025204D01*
X139968504Y-9025204D01*
G37*
D19*
X139319000Y-9649000D03*
D20*
X127469000Y-65108000D03*
X127469000Y-62908000D03*
X125769000Y-62908000D03*
X125769000Y-65108000D03*
D21*
X105044000Y-62675000D03*
X105044000Y-63475000D03*
X105044000Y-64275000D03*
X105044000Y-65075000D03*
X105044000Y-65875000D03*
X105044000Y-66675000D03*
X105044000Y-67475000D03*
X105044000Y-68275000D03*
X105044000Y-69075000D03*
X105044000Y-69875000D03*
X105044000Y-70675000D03*
D22*
X106744000Y-72375000D03*
X107544000Y-72375000D03*
X108344000Y-72375000D03*
X109144000Y-72375000D03*
X109944000Y-72375000D03*
X110744000Y-72375000D03*
X111544000Y-72375000D03*
X112344000Y-72375000D03*
X113144000Y-72375000D03*
X113944000Y-72375000D03*
X114744000Y-72375000D03*
D21*
X116444000Y-70675000D03*
X116444000Y-69875000D03*
X116444000Y-69075000D03*
X116444000Y-68275000D03*
X116444000Y-67475000D03*
X116444000Y-66675000D03*
X116444000Y-65875000D03*
X116444000Y-65075000D03*
X116444000Y-64275000D03*
X116444000Y-63475000D03*
X116444000Y-62675000D03*
D22*
X114744000Y-60975000D03*
X113944000Y-60975000D03*
X113144000Y-60975000D03*
X112344000Y-60975000D03*
X111544000Y-60975000D03*
X110744000Y-60975000D03*
X109944000Y-60975000D03*
X109144000Y-60975000D03*
X108344000Y-60975000D03*
X107544000Y-60975000D03*
X106744000Y-60975000D03*
D23*
X152579000Y-64190000D03*
X146379000Y-67890000D03*
X152579000Y-67890000D03*
X146379000Y-64190000D03*
D11*
G36*
X105375142Y-73850174D02*
G01*
X105398803Y-73853684D01*
X105422007Y-73859496D01*
X105444529Y-73867554D01*
X105466153Y-73877782D01*
X105486670Y-73890079D01*
X105505883Y-73904329D01*
X105523607Y-73920393D01*
X105539671Y-73938117D01*
X105553921Y-73957330D01*
X105566218Y-73977847D01*
X105576446Y-73999471D01*
X105584504Y-74021993D01*
X105590316Y-74045197D01*
X105593826Y-74068858D01*
X105595000Y-74092750D01*
X105595000Y-75005250D01*
X105593826Y-75029142D01*
X105590316Y-75052803D01*
X105584504Y-75076007D01*
X105576446Y-75098529D01*
X105566218Y-75120153D01*
X105553921Y-75140670D01*
X105539671Y-75159883D01*
X105523607Y-75177607D01*
X105505883Y-75193671D01*
X105486670Y-75207921D01*
X105466153Y-75220218D01*
X105444529Y-75230446D01*
X105422007Y-75238504D01*
X105398803Y-75244316D01*
X105375142Y-75247826D01*
X105351250Y-75249000D01*
X104863750Y-75249000D01*
X104839858Y-75247826D01*
X104816197Y-75244316D01*
X104792993Y-75238504D01*
X104770471Y-75230446D01*
X104748847Y-75220218D01*
X104728330Y-75207921D01*
X104709117Y-75193671D01*
X104691393Y-75177607D01*
X104675329Y-75159883D01*
X104661079Y-75140670D01*
X104648782Y-75120153D01*
X104638554Y-75098529D01*
X104630496Y-75076007D01*
X104624684Y-75052803D01*
X104621174Y-75029142D01*
X104620000Y-75005250D01*
X104620000Y-74092750D01*
X104621174Y-74068858D01*
X104624684Y-74045197D01*
X104630496Y-74021993D01*
X104638554Y-73999471D01*
X104648782Y-73977847D01*
X104661079Y-73957330D01*
X104675329Y-73938117D01*
X104691393Y-73920393D01*
X104709117Y-73904329D01*
X104728330Y-73890079D01*
X104748847Y-73877782D01*
X104770471Y-73867554D01*
X104792993Y-73859496D01*
X104816197Y-73853684D01*
X104839858Y-73850174D01*
X104863750Y-73849000D01*
X105351250Y-73849000D01*
X105375142Y-73850174D01*
X105375142Y-73850174D01*
G37*
D12*
X105107500Y-74549000D03*
D11*
G36*
X107250142Y-73850174D02*
G01*
X107273803Y-73853684D01*
X107297007Y-73859496D01*
X107319529Y-73867554D01*
X107341153Y-73877782D01*
X107361670Y-73890079D01*
X107380883Y-73904329D01*
X107398607Y-73920393D01*
X107414671Y-73938117D01*
X107428921Y-73957330D01*
X107441218Y-73977847D01*
X107451446Y-73999471D01*
X107459504Y-74021993D01*
X107465316Y-74045197D01*
X107468826Y-74068858D01*
X107470000Y-74092750D01*
X107470000Y-75005250D01*
X107468826Y-75029142D01*
X107465316Y-75052803D01*
X107459504Y-75076007D01*
X107451446Y-75098529D01*
X107441218Y-75120153D01*
X107428921Y-75140670D01*
X107414671Y-75159883D01*
X107398607Y-75177607D01*
X107380883Y-75193671D01*
X107361670Y-75207921D01*
X107341153Y-75220218D01*
X107319529Y-75230446D01*
X107297007Y-75238504D01*
X107273803Y-75244316D01*
X107250142Y-75247826D01*
X107226250Y-75249000D01*
X106738750Y-75249000D01*
X106714858Y-75247826D01*
X106691197Y-75244316D01*
X106667993Y-75238504D01*
X106645471Y-75230446D01*
X106623847Y-75220218D01*
X106603330Y-75207921D01*
X106584117Y-75193671D01*
X106566393Y-75177607D01*
X106550329Y-75159883D01*
X106536079Y-75140670D01*
X106523782Y-75120153D01*
X106513554Y-75098529D01*
X106505496Y-75076007D01*
X106499684Y-75052803D01*
X106496174Y-75029142D01*
X106495000Y-75005250D01*
X106495000Y-74092750D01*
X106496174Y-74068858D01*
X106499684Y-74045197D01*
X106505496Y-74021993D01*
X106513554Y-73999471D01*
X106523782Y-73977847D01*
X106536079Y-73957330D01*
X106550329Y-73938117D01*
X106566393Y-73920393D01*
X106584117Y-73904329D01*
X106603330Y-73890079D01*
X106623847Y-73877782D01*
X106645471Y-73867554D01*
X106667993Y-73859496D01*
X106691197Y-73853684D01*
X106714858Y-73850174D01*
X106738750Y-73849000D01*
X107226250Y-73849000D01*
X107250142Y-73850174D01*
X107250142Y-73850174D01*
G37*
D12*
X106982500Y-74549000D03*
D11*
G36*
X155293142Y-66491174D02*
G01*
X155316803Y-66494684D01*
X155340007Y-66500496D01*
X155362529Y-66508554D01*
X155384153Y-66518782D01*
X155404670Y-66531079D01*
X155423883Y-66545329D01*
X155441607Y-66561393D01*
X155457671Y-66579117D01*
X155471921Y-66598330D01*
X155484218Y-66618847D01*
X155494446Y-66640471D01*
X155502504Y-66662993D01*
X155508316Y-66686197D01*
X155511826Y-66709858D01*
X155513000Y-66733750D01*
X155513000Y-67221250D01*
X155511826Y-67245142D01*
X155508316Y-67268803D01*
X155502504Y-67292007D01*
X155494446Y-67314529D01*
X155484218Y-67336153D01*
X155471921Y-67356670D01*
X155457671Y-67375883D01*
X155441607Y-67393607D01*
X155423883Y-67409671D01*
X155404670Y-67423921D01*
X155384153Y-67436218D01*
X155362529Y-67446446D01*
X155340007Y-67454504D01*
X155316803Y-67460316D01*
X155293142Y-67463826D01*
X155269250Y-67465000D01*
X154356750Y-67465000D01*
X154332858Y-67463826D01*
X154309197Y-67460316D01*
X154285993Y-67454504D01*
X154263471Y-67446446D01*
X154241847Y-67436218D01*
X154221330Y-67423921D01*
X154202117Y-67409671D01*
X154184393Y-67393607D01*
X154168329Y-67375883D01*
X154154079Y-67356670D01*
X154141782Y-67336153D01*
X154131554Y-67314529D01*
X154123496Y-67292007D01*
X154117684Y-67268803D01*
X154114174Y-67245142D01*
X154113000Y-67221250D01*
X154113000Y-66733750D01*
X154114174Y-66709858D01*
X154117684Y-66686197D01*
X154123496Y-66662993D01*
X154131554Y-66640471D01*
X154141782Y-66618847D01*
X154154079Y-66598330D01*
X154168329Y-66579117D01*
X154184393Y-66561393D01*
X154202117Y-66545329D01*
X154221330Y-66531079D01*
X154241847Y-66518782D01*
X154263471Y-66508554D01*
X154285993Y-66500496D01*
X154309197Y-66494684D01*
X154332858Y-66491174D01*
X154356750Y-66490000D01*
X155269250Y-66490000D01*
X155293142Y-66491174D01*
X155293142Y-66491174D01*
G37*
D12*
X154813000Y-66977500D03*
D11*
G36*
X155293142Y-64616174D02*
G01*
X155316803Y-64619684D01*
X155340007Y-64625496D01*
X155362529Y-64633554D01*
X155384153Y-64643782D01*
X155404670Y-64656079D01*
X155423883Y-64670329D01*
X155441607Y-64686393D01*
X155457671Y-64704117D01*
X155471921Y-64723330D01*
X155484218Y-64743847D01*
X155494446Y-64765471D01*
X155502504Y-64787993D01*
X155508316Y-64811197D01*
X155511826Y-64834858D01*
X155513000Y-64858750D01*
X155513000Y-65346250D01*
X155511826Y-65370142D01*
X155508316Y-65393803D01*
X155502504Y-65417007D01*
X155494446Y-65439529D01*
X155484218Y-65461153D01*
X155471921Y-65481670D01*
X155457671Y-65500883D01*
X155441607Y-65518607D01*
X155423883Y-65534671D01*
X155404670Y-65548921D01*
X155384153Y-65561218D01*
X155362529Y-65571446D01*
X155340007Y-65579504D01*
X155316803Y-65585316D01*
X155293142Y-65588826D01*
X155269250Y-65590000D01*
X154356750Y-65590000D01*
X154332858Y-65588826D01*
X154309197Y-65585316D01*
X154285993Y-65579504D01*
X154263471Y-65571446D01*
X154241847Y-65561218D01*
X154221330Y-65548921D01*
X154202117Y-65534671D01*
X154184393Y-65518607D01*
X154168329Y-65500883D01*
X154154079Y-65481670D01*
X154141782Y-65461153D01*
X154131554Y-65439529D01*
X154123496Y-65417007D01*
X154117684Y-65393803D01*
X154114174Y-65370142D01*
X154113000Y-65346250D01*
X154113000Y-64858750D01*
X154114174Y-64834858D01*
X154117684Y-64811197D01*
X154123496Y-64787993D01*
X154131554Y-64765471D01*
X154141782Y-64743847D01*
X154154079Y-64723330D01*
X154168329Y-64704117D01*
X154184393Y-64686393D01*
X154202117Y-64670329D01*
X154221330Y-64656079D01*
X154241847Y-64643782D01*
X154263471Y-64633554D01*
X154285993Y-64625496D01*
X154309197Y-64619684D01*
X154332858Y-64616174D01*
X154356750Y-64615000D01*
X155269250Y-64615000D01*
X155293142Y-64616174D01*
X155293142Y-64616174D01*
G37*
D12*
X154813000Y-65102500D03*
D11*
G36*
X105756142Y-56705174D02*
G01*
X105779803Y-56708684D01*
X105803007Y-56714496D01*
X105825529Y-56722554D01*
X105847153Y-56732782D01*
X105867670Y-56745079D01*
X105886883Y-56759329D01*
X105904607Y-56775393D01*
X105920671Y-56793117D01*
X105934921Y-56812330D01*
X105947218Y-56832847D01*
X105957446Y-56854471D01*
X105965504Y-56876993D01*
X105971316Y-56900197D01*
X105974826Y-56923858D01*
X105976000Y-56947750D01*
X105976000Y-57860250D01*
X105974826Y-57884142D01*
X105971316Y-57907803D01*
X105965504Y-57931007D01*
X105957446Y-57953529D01*
X105947218Y-57975153D01*
X105934921Y-57995670D01*
X105920671Y-58014883D01*
X105904607Y-58032607D01*
X105886883Y-58048671D01*
X105867670Y-58062921D01*
X105847153Y-58075218D01*
X105825529Y-58085446D01*
X105803007Y-58093504D01*
X105779803Y-58099316D01*
X105756142Y-58102826D01*
X105732250Y-58104000D01*
X105244750Y-58104000D01*
X105220858Y-58102826D01*
X105197197Y-58099316D01*
X105173993Y-58093504D01*
X105151471Y-58085446D01*
X105129847Y-58075218D01*
X105109330Y-58062921D01*
X105090117Y-58048671D01*
X105072393Y-58032607D01*
X105056329Y-58014883D01*
X105042079Y-57995670D01*
X105029782Y-57975153D01*
X105019554Y-57953529D01*
X105011496Y-57931007D01*
X105005684Y-57907803D01*
X105002174Y-57884142D01*
X105001000Y-57860250D01*
X105001000Y-56947750D01*
X105002174Y-56923858D01*
X105005684Y-56900197D01*
X105011496Y-56876993D01*
X105019554Y-56854471D01*
X105029782Y-56832847D01*
X105042079Y-56812330D01*
X105056329Y-56793117D01*
X105072393Y-56775393D01*
X105090117Y-56759329D01*
X105109330Y-56745079D01*
X105129847Y-56732782D01*
X105151471Y-56722554D01*
X105173993Y-56714496D01*
X105197197Y-56708684D01*
X105220858Y-56705174D01*
X105244750Y-56704000D01*
X105732250Y-56704000D01*
X105756142Y-56705174D01*
X105756142Y-56705174D01*
G37*
D12*
X105488500Y-57404000D03*
D11*
G36*
X107631142Y-56705174D02*
G01*
X107654803Y-56708684D01*
X107678007Y-56714496D01*
X107700529Y-56722554D01*
X107722153Y-56732782D01*
X107742670Y-56745079D01*
X107761883Y-56759329D01*
X107779607Y-56775393D01*
X107795671Y-56793117D01*
X107809921Y-56812330D01*
X107822218Y-56832847D01*
X107832446Y-56854471D01*
X107840504Y-56876993D01*
X107846316Y-56900197D01*
X107849826Y-56923858D01*
X107851000Y-56947750D01*
X107851000Y-57860250D01*
X107849826Y-57884142D01*
X107846316Y-57907803D01*
X107840504Y-57931007D01*
X107832446Y-57953529D01*
X107822218Y-57975153D01*
X107809921Y-57995670D01*
X107795671Y-58014883D01*
X107779607Y-58032607D01*
X107761883Y-58048671D01*
X107742670Y-58062921D01*
X107722153Y-58075218D01*
X107700529Y-58085446D01*
X107678007Y-58093504D01*
X107654803Y-58099316D01*
X107631142Y-58102826D01*
X107607250Y-58104000D01*
X107119750Y-58104000D01*
X107095858Y-58102826D01*
X107072197Y-58099316D01*
X107048993Y-58093504D01*
X107026471Y-58085446D01*
X107004847Y-58075218D01*
X106984330Y-58062921D01*
X106965117Y-58048671D01*
X106947393Y-58032607D01*
X106931329Y-58014883D01*
X106917079Y-57995670D01*
X106904782Y-57975153D01*
X106894554Y-57953529D01*
X106886496Y-57931007D01*
X106880684Y-57907803D01*
X106877174Y-57884142D01*
X106876000Y-57860250D01*
X106876000Y-56947750D01*
X106877174Y-56923858D01*
X106880684Y-56900197D01*
X106886496Y-56876993D01*
X106894554Y-56854471D01*
X106904782Y-56832847D01*
X106917079Y-56812330D01*
X106931329Y-56793117D01*
X106947393Y-56775393D01*
X106965117Y-56759329D01*
X106984330Y-56745079D01*
X107004847Y-56732782D01*
X107026471Y-56722554D01*
X107048993Y-56714496D01*
X107072197Y-56708684D01*
X107095858Y-56705174D01*
X107119750Y-56704000D01*
X107607250Y-56704000D01*
X107631142Y-56705174D01*
X107631142Y-56705174D01*
G37*
D12*
X107363500Y-57404000D03*
D11*
G36*
X110843142Y-56331174D02*
G01*
X110866803Y-56334684D01*
X110890007Y-56340496D01*
X110912529Y-56348554D01*
X110934153Y-56358782D01*
X110954670Y-56371079D01*
X110973883Y-56385329D01*
X110991607Y-56401393D01*
X111007671Y-56419117D01*
X111021921Y-56438330D01*
X111034218Y-56458847D01*
X111044446Y-56480471D01*
X111052504Y-56502993D01*
X111058316Y-56526197D01*
X111061826Y-56549858D01*
X111063000Y-56573750D01*
X111063000Y-57061250D01*
X111061826Y-57085142D01*
X111058316Y-57108803D01*
X111052504Y-57132007D01*
X111044446Y-57154529D01*
X111034218Y-57176153D01*
X111021921Y-57196670D01*
X111007671Y-57215883D01*
X110991607Y-57233607D01*
X110973883Y-57249671D01*
X110954670Y-57263921D01*
X110934153Y-57276218D01*
X110912529Y-57286446D01*
X110890007Y-57294504D01*
X110866803Y-57300316D01*
X110843142Y-57303826D01*
X110819250Y-57305000D01*
X109906750Y-57305000D01*
X109882858Y-57303826D01*
X109859197Y-57300316D01*
X109835993Y-57294504D01*
X109813471Y-57286446D01*
X109791847Y-57276218D01*
X109771330Y-57263921D01*
X109752117Y-57249671D01*
X109734393Y-57233607D01*
X109718329Y-57215883D01*
X109704079Y-57196670D01*
X109691782Y-57176153D01*
X109681554Y-57154529D01*
X109673496Y-57132007D01*
X109667684Y-57108803D01*
X109664174Y-57085142D01*
X109663000Y-57061250D01*
X109663000Y-56573750D01*
X109664174Y-56549858D01*
X109667684Y-56526197D01*
X109673496Y-56502993D01*
X109681554Y-56480471D01*
X109691782Y-56458847D01*
X109704079Y-56438330D01*
X109718329Y-56419117D01*
X109734393Y-56401393D01*
X109752117Y-56385329D01*
X109771330Y-56371079D01*
X109791847Y-56358782D01*
X109813471Y-56348554D01*
X109835993Y-56340496D01*
X109859197Y-56334684D01*
X109882858Y-56331174D01*
X109906750Y-56330000D01*
X110819250Y-56330000D01*
X110843142Y-56331174D01*
X110843142Y-56331174D01*
G37*
D12*
X110363000Y-56817500D03*
D11*
G36*
X110843142Y-54456174D02*
G01*
X110866803Y-54459684D01*
X110890007Y-54465496D01*
X110912529Y-54473554D01*
X110934153Y-54483782D01*
X110954670Y-54496079D01*
X110973883Y-54510329D01*
X110991607Y-54526393D01*
X111007671Y-54544117D01*
X111021921Y-54563330D01*
X111034218Y-54583847D01*
X111044446Y-54605471D01*
X111052504Y-54627993D01*
X111058316Y-54651197D01*
X111061826Y-54674858D01*
X111063000Y-54698750D01*
X111063000Y-55186250D01*
X111061826Y-55210142D01*
X111058316Y-55233803D01*
X111052504Y-55257007D01*
X111044446Y-55279529D01*
X111034218Y-55301153D01*
X111021921Y-55321670D01*
X111007671Y-55340883D01*
X110991607Y-55358607D01*
X110973883Y-55374671D01*
X110954670Y-55388921D01*
X110934153Y-55401218D01*
X110912529Y-55411446D01*
X110890007Y-55419504D01*
X110866803Y-55425316D01*
X110843142Y-55428826D01*
X110819250Y-55430000D01*
X109906750Y-55430000D01*
X109882858Y-55428826D01*
X109859197Y-55425316D01*
X109835993Y-55419504D01*
X109813471Y-55411446D01*
X109791847Y-55401218D01*
X109771330Y-55388921D01*
X109752117Y-55374671D01*
X109734393Y-55358607D01*
X109718329Y-55340883D01*
X109704079Y-55321670D01*
X109691782Y-55301153D01*
X109681554Y-55279529D01*
X109673496Y-55257007D01*
X109667684Y-55233803D01*
X109664174Y-55210142D01*
X109663000Y-55186250D01*
X109663000Y-54698750D01*
X109664174Y-54674858D01*
X109667684Y-54651197D01*
X109673496Y-54627993D01*
X109681554Y-54605471D01*
X109691782Y-54583847D01*
X109704079Y-54563330D01*
X109718329Y-54544117D01*
X109734393Y-54526393D01*
X109752117Y-54510329D01*
X109771330Y-54496079D01*
X109791847Y-54483782D01*
X109813471Y-54473554D01*
X109835993Y-54465496D01*
X109859197Y-54459684D01*
X109882858Y-54456174D01*
X109906750Y-54455000D01*
X110819250Y-54455000D01*
X110843142Y-54456174D01*
X110843142Y-54456174D01*
G37*
D12*
X110363000Y-54942500D03*
D11*
G36*
X127824142Y-60134174D02*
G01*
X127847803Y-60137684D01*
X127871007Y-60143496D01*
X127893529Y-60151554D01*
X127915153Y-60161782D01*
X127935670Y-60174079D01*
X127954883Y-60188329D01*
X127972607Y-60204393D01*
X127988671Y-60222117D01*
X128002921Y-60241330D01*
X128015218Y-60261847D01*
X128025446Y-60283471D01*
X128033504Y-60305993D01*
X128039316Y-60329197D01*
X128042826Y-60352858D01*
X128044000Y-60376750D01*
X128044000Y-61289250D01*
X128042826Y-61313142D01*
X128039316Y-61336803D01*
X128033504Y-61360007D01*
X128025446Y-61382529D01*
X128015218Y-61404153D01*
X128002921Y-61424670D01*
X127988671Y-61443883D01*
X127972607Y-61461607D01*
X127954883Y-61477671D01*
X127935670Y-61491921D01*
X127915153Y-61504218D01*
X127893529Y-61514446D01*
X127871007Y-61522504D01*
X127847803Y-61528316D01*
X127824142Y-61531826D01*
X127800250Y-61533000D01*
X127312750Y-61533000D01*
X127288858Y-61531826D01*
X127265197Y-61528316D01*
X127241993Y-61522504D01*
X127219471Y-61514446D01*
X127197847Y-61504218D01*
X127177330Y-61491921D01*
X127158117Y-61477671D01*
X127140393Y-61461607D01*
X127124329Y-61443883D01*
X127110079Y-61424670D01*
X127097782Y-61404153D01*
X127087554Y-61382529D01*
X127079496Y-61360007D01*
X127073684Y-61336803D01*
X127070174Y-61313142D01*
X127069000Y-61289250D01*
X127069000Y-60376750D01*
X127070174Y-60352858D01*
X127073684Y-60329197D01*
X127079496Y-60305993D01*
X127087554Y-60283471D01*
X127097782Y-60261847D01*
X127110079Y-60241330D01*
X127124329Y-60222117D01*
X127140393Y-60204393D01*
X127158117Y-60188329D01*
X127177330Y-60174079D01*
X127197847Y-60161782D01*
X127219471Y-60151554D01*
X127241993Y-60143496D01*
X127265197Y-60137684D01*
X127288858Y-60134174D01*
X127312750Y-60133000D01*
X127800250Y-60133000D01*
X127824142Y-60134174D01*
X127824142Y-60134174D01*
G37*
D12*
X127556500Y-60833000D03*
D11*
G36*
X125949142Y-60134174D02*
G01*
X125972803Y-60137684D01*
X125996007Y-60143496D01*
X126018529Y-60151554D01*
X126040153Y-60161782D01*
X126060670Y-60174079D01*
X126079883Y-60188329D01*
X126097607Y-60204393D01*
X126113671Y-60222117D01*
X126127921Y-60241330D01*
X126140218Y-60261847D01*
X126150446Y-60283471D01*
X126158504Y-60305993D01*
X126164316Y-60329197D01*
X126167826Y-60352858D01*
X126169000Y-60376750D01*
X126169000Y-61289250D01*
X126167826Y-61313142D01*
X126164316Y-61336803D01*
X126158504Y-61360007D01*
X126150446Y-61382529D01*
X126140218Y-61404153D01*
X126127921Y-61424670D01*
X126113671Y-61443883D01*
X126097607Y-61461607D01*
X126079883Y-61477671D01*
X126060670Y-61491921D01*
X126040153Y-61504218D01*
X126018529Y-61514446D01*
X125996007Y-61522504D01*
X125972803Y-61528316D01*
X125949142Y-61531826D01*
X125925250Y-61533000D01*
X125437750Y-61533000D01*
X125413858Y-61531826D01*
X125390197Y-61528316D01*
X125366993Y-61522504D01*
X125344471Y-61514446D01*
X125322847Y-61504218D01*
X125302330Y-61491921D01*
X125283117Y-61477671D01*
X125265393Y-61461607D01*
X125249329Y-61443883D01*
X125235079Y-61424670D01*
X125222782Y-61404153D01*
X125212554Y-61382529D01*
X125204496Y-61360007D01*
X125198684Y-61336803D01*
X125195174Y-61313142D01*
X125194000Y-61289250D01*
X125194000Y-60376750D01*
X125195174Y-60352858D01*
X125198684Y-60329197D01*
X125204496Y-60305993D01*
X125212554Y-60283471D01*
X125222782Y-60261847D01*
X125235079Y-60241330D01*
X125249329Y-60222117D01*
X125265393Y-60204393D01*
X125283117Y-60188329D01*
X125302330Y-60174079D01*
X125322847Y-60161782D01*
X125344471Y-60151554D01*
X125366993Y-60143496D01*
X125390197Y-60137684D01*
X125413858Y-60134174D01*
X125437750Y-60133000D01*
X125925250Y-60133000D01*
X125949142Y-60134174D01*
X125949142Y-60134174D01*
G37*
D12*
X125681500Y-60833000D03*
D11*
G36*
X127824142Y-66484174D02*
G01*
X127847803Y-66487684D01*
X127871007Y-66493496D01*
X127893529Y-66501554D01*
X127915153Y-66511782D01*
X127935670Y-66524079D01*
X127954883Y-66538329D01*
X127972607Y-66554393D01*
X127988671Y-66572117D01*
X128002921Y-66591330D01*
X128015218Y-66611847D01*
X128025446Y-66633471D01*
X128033504Y-66655993D01*
X128039316Y-66679197D01*
X128042826Y-66702858D01*
X128044000Y-66726750D01*
X128044000Y-67639250D01*
X128042826Y-67663142D01*
X128039316Y-67686803D01*
X128033504Y-67710007D01*
X128025446Y-67732529D01*
X128015218Y-67754153D01*
X128002921Y-67774670D01*
X127988671Y-67793883D01*
X127972607Y-67811607D01*
X127954883Y-67827671D01*
X127935670Y-67841921D01*
X127915153Y-67854218D01*
X127893529Y-67864446D01*
X127871007Y-67872504D01*
X127847803Y-67878316D01*
X127824142Y-67881826D01*
X127800250Y-67883000D01*
X127312750Y-67883000D01*
X127288858Y-67881826D01*
X127265197Y-67878316D01*
X127241993Y-67872504D01*
X127219471Y-67864446D01*
X127197847Y-67854218D01*
X127177330Y-67841921D01*
X127158117Y-67827671D01*
X127140393Y-67811607D01*
X127124329Y-67793883D01*
X127110079Y-67774670D01*
X127097782Y-67754153D01*
X127087554Y-67732529D01*
X127079496Y-67710007D01*
X127073684Y-67686803D01*
X127070174Y-67663142D01*
X127069000Y-67639250D01*
X127069000Y-66726750D01*
X127070174Y-66702858D01*
X127073684Y-66679197D01*
X127079496Y-66655993D01*
X127087554Y-66633471D01*
X127097782Y-66611847D01*
X127110079Y-66591330D01*
X127124329Y-66572117D01*
X127140393Y-66554393D01*
X127158117Y-66538329D01*
X127177330Y-66524079D01*
X127197847Y-66511782D01*
X127219471Y-66501554D01*
X127241993Y-66493496D01*
X127265197Y-66487684D01*
X127288858Y-66484174D01*
X127312750Y-66483000D01*
X127800250Y-66483000D01*
X127824142Y-66484174D01*
X127824142Y-66484174D01*
G37*
D12*
X127556500Y-67183000D03*
D11*
G36*
X125949142Y-66484174D02*
G01*
X125972803Y-66487684D01*
X125996007Y-66493496D01*
X126018529Y-66501554D01*
X126040153Y-66511782D01*
X126060670Y-66524079D01*
X126079883Y-66538329D01*
X126097607Y-66554393D01*
X126113671Y-66572117D01*
X126127921Y-66591330D01*
X126140218Y-66611847D01*
X126150446Y-66633471D01*
X126158504Y-66655993D01*
X126164316Y-66679197D01*
X126167826Y-66702858D01*
X126169000Y-66726750D01*
X126169000Y-67639250D01*
X126167826Y-67663142D01*
X126164316Y-67686803D01*
X126158504Y-67710007D01*
X126150446Y-67732529D01*
X126140218Y-67754153D01*
X126127921Y-67774670D01*
X126113671Y-67793883D01*
X126097607Y-67811607D01*
X126079883Y-67827671D01*
X126060670Y-67841921D01*
X126040153Y-67854218D01*
X126018529Y-67864446D01*
X125996007Y-67872504D01*
X125972803Y-67878316D01*
X125949142Y-67881826D01*
X125925250Y-67883000D01*
X125437750Y-67883000D01*
X125413858Y-67881826D01*
X125390197Y-67878316D01*
X125366993Y-67872504D01*
X125344471Y-67864446D01*
X125322847Y-67854218D01*
X125302330Y-67841921D01*
X125283117Y-67827671D01*
X125265393Y-67811607D01*
X125249329Y-67793883D01*
X125235079Y-67774670D01*
X125222782Y-67754153D01*
X125212554Y-67732529D01*
X125204496Y-67710007D01*
X125198684Y-67686803D01*
X125195174Y-67663142D01*
X125194000Y-67639250D01*
X125194000Y-66726750D01*
X125195174Y-66702858D01*
X125198684Y-66679197D01*
X125204496Y-66655993D01*
X125212554Y-66633471D01*
X125222782Y-66611847D01*
X125235079Y-66591330D01*
X125249329Y-66572117D01*
X125265393Y-66554393D01*
X125283117Y-66538329D01*
X125302330Y-66524079D01*
X125322847Y-66511782D01*
X125344471Y-66501554D01*
X125366993Y-66493496D01*
X125390197Y-66487684D01*
X125413858Y-66484174D01*
X125437750Y-66483000D01*
X125925250Y-66483000D01*
X125949142Y-66484174D01*
X125949142Y-66484174D01*
G37*
D12*
X125681500Y-67183000D03*
D11*
G36*
X103223142Y-62808174D02*
G01*
X103246803Y-62811684D01*
X103270007Y-62817496D01*
X103292529Y-62825554D01*
X103314153Y-62835782D01*
X103334670Y-62848079D01*
X103353883Y-62862329D01*
X103371607Y-62878393D01*
X103387671Y-62896117D01*
X103401921Y-62915330D01*
X103414218Y-62935847D01*
X103424446Y-62957471D01*
X103432504Y-62979993D01*
X103438316Y-63003197D01*
X103441826Y-63026858D01*
X103443000Y-63050750D01*
X103443000Y-63538250D01*
X103441826Y-63562142D01*
X103438316Y-63585803D01*
X103432504Y-63609007D01*
X103424446Y-63631529D01*
X103414218Y-63653153D01*
X103401921Y-63673670D01*
X103387671Y-63692883D01*
X103371607Y-63710607D01*
X103353883Y-63726671D01*
X103334670Y-63740921D01*
X103314153Y-63753218D01*
X103292529Y-63763446D01*
X103270007Y-63771504D01*
X103246803Y-63777316D01*
X103223142Y-63780826D01*
X103199250Y-63782000D01*
X102286750Y-63782000D01*
X102262858Y-63780826D01*
X102239197Y-63777316D01*
X102215993Y-63771504D01*
X102193471Y-63763446D01*
X102171847Y-63753218D01*
X102151330Y-63740921D01*
X102132117Y-63726671D01*
X102114393Y-63710607D01*
X102098329Y-63692883D01*
X102084079Y-63673670D01*
X102071782Y-63653153D01*
X102061554Y-63631529D01*
X102053496Y-63609007D01*
X102047684Y-63585803D01*
X102044174Y-63562142D01*
X102043000Y-63538250D01*
X102043000Y-63050750D01*
X102044174Y-63026858D01*
X102047684Y-63003197D01*
X102053496Y-62979993D01*
X102061554Y-62957471D01*
X102071782Y-62935847D01*
X102084079Y-62915330D01*
X102098329Y-62896117D01*
X102114393Y-62878393D01*
X102132117Y-62862329D01*
X102151330Y-62848079D01*
X102171847Y-62835782D01*
X102193471Y-62825554D01*
X102215993Y-62817496D01*
X102239197Y-62811684D01*
X102262858Y-62808174D01*
X102286750Y-62807000D01*
X103199250Y-62807000D01*
X103223142Y-62808174D01*
X103223142Y-62808174D01*
G37*
D12*
X102743000Y-63294500D03*
D11*
G36*
X103223142Y-60933174D02*
G01*
X103246803Y-60936684D01*
X103270007Y-60942496D01*
X103292529Y-60950554D01*
X103314153Y-60960782D01*
X103334670Y-60973079D01*
X103353883Y-60987329D01*
X103371607Y-61003393D01*
X103387671Y-61021117D01*
X103401921Y-61040330D01*
X103414218Y-61060847D01*
X103424446Y-61082471D01*
X103432504Y-61104993D01*
X103438316Y-61128197D01*
X103441826Y-61151858D01*
X103443000Y-61175750D01*
X103443000Y-61663250D01*
X103441826Y-61687142D01*
X103438316Y-61710803D01*
X103432504Y-61734007D01*
X103424446Y-61756529D01*
X103414218Y-61778153D01*
X103401921Y-61798670D01*
X103387671Y-61817883D01*
X103371607Y-61835607D01*
X103353883Y-61851671D01*
X103334670Y-61865921D01*
X103314153Y-61878218D01*
X103292529Y-61888446D01*
X103270007Y-61896504D01*
X103246803Y-61902316D01*
X103223142Y-61905826D01*
X103199250Y-61907000D01*
X102286750Y-61907000D01*
X102262858Y-61905826D01*
X102239197Y-61902316D01*
X102215993Y-61896504D01*
X102193471Y-61888446D01*
X102171847Y-61878218D01*
X102151330Y-61865921D01*
X102132117Y-61851671D01*
X102114393Y-61835607D01*
X102098329Y-61817883D01*
X102084079Y-61798670D01*
X102071782Y-61778153D01*
X102061554Y-61756529D01*
X102053496Y-61734007D01*
X102047684Y-61710803D01*
X102044174Y-61687142D01*
X102043000Y-61663250D01*
X102043000Y-61175750D01*
X102044174Y-61151858D01*
X102047684Y-61128197D01*
X102053496Y-61104993D01*
X102061554Y-61082471D01*
X102071782Y-61060847D01*
X102084079Y-61040330D01*
X102098329Y-61021117D01*
X102114393Y-61003393D01*
X102132117Y-60987329D01*
X102151330Y-60973079D01*
X102171847Y-60960782D01*
X102193471Y-60950554D01*
X102215993Y-60942496D01*
X102239197Y-60936684D01*
X102262858Y-60933174D01*
X102286750Y-60932000D01*
X103199250Y-60932000D01*
X103223142Y-60933174D01*
X103223142Y-60933174D01*
G37*
D12*
X102743000Y-61419500D03*
D11*
G36*
X103223142Y-68680174D02*
G01*
X103246803Y-68683684D01*
X103270007Y-68689496D01*
X103292529Y-68697554D01*
X103314153Y-68707782D01*
X103334670Y-68720079D01*
X103353883Y-68734329D01*
X103371607Y-68750393D01*
X103387671Y-68768117D01*
X103401921Y-68787330D01*
X103414218Y-68807847D01*
X103424446Y-68829471D01*
X103432504Y-68851993D01*
X103438316Y-68875197D01*
X103441826Y-68898858D01*
X103443000Y-68922750D01*
X103443000Y-69410250D01*
X103441826Y-69434142D01*
X103438316Y-69457803D01*
X103432504Y-69481007D01*
X103424446Y-69503529D01*
X103414218Y-69525153D01*
X103401921Y-69545670D01*
X103387671Y-69564883D01*
X103371607Y-69582607D01*
X103353883Y-69598671D01*
X103334670Y-69612921D01*
X103314153Y-69625218D01*
X103292529Y-69635446D01*
X103270007Y-69643504D01*
X103246803Y-69649316D01*
X103223142Y-69652826D01*
X103199250Y-69654000D01*
X102286750Y-69654000D01*
X102262858Y-69652826D01*
X102239197Y-69649316D01*
X102215993Y-69643504D01*
X102193471Y-69635446D01*
X102171847Y-69625218D01*
X102151330Y-69612921D01*
X102132117Y-69598671D01*
X102114393Y-69582607D01*
X102098329Y-69564883D01*
X102084079Y-69545670D01*
X102071782Y-69525153D01*
X102061554Y-69503529D01*
X102053496Y-69481007D01*
X102047684Y-69457803D01*
X102044174Y-69434142D01*
X102043000Y-69410250D01*
X102043000Y-68922750D01*
X102044174Y-68898858D01*
X102047684Y-68875197D01*
X102053496Y-68851993D01*
X102061554Y-68829471D01*
X102071782Y-68807847D01*
X102084079Y-68787330D01*
X102098329Y-68768117D01*
X102114393Y-68750393D01*
X102132117Y-68734329D01*
X102151330Y-68720079D01*
X102171847Y-68707782D01*
X102193471Y-68697554D01*
X102215993Y-68689496D01*
X102239197Y-68683684D01*
X102262858Y-68680174D01*
X102286750Y-68679000D01*
X103199250Y-68679000D01*
X103223142Y-68680174D01*
X103223142Y-68680174D01*
G37*
D12*
X102743000Y-69166500D03*
D11*
G36*
X103223142Y-70555174D02*
G01*
X103246803Y-70558684D01*
X103270007Y-70564496D01*
X103292529Y-70572554D01*
X103314153Y-70582782D01*
X103334670Y-70595079D01*
X103353883Y-70609329D01*
X103371607Y-70625393D01*
X103387671Y-70643117D01*
X103401921Y-70662330D01*
X103414218Y-70682847D01*
X103424446Y-70704471D01*
X103432504Y-70726993D01*
X103438316Y-70750197D01*
X103441826Y-70773858D01*
X103443000Y-70797750D01*
X103443000Y-71285250D01*
X103441826Y-71309142D01*
X103438316Y-71332803D01*
X103432504Y-71356007D01*
X103424446Y-71378529D01*
X103414218Y-71400153D01*
X103401921Y-71420670D01*
X103387671Y-71439883D01*
X103371607Y-71457607D01*
X103353883Y-71473671D01*
X103334670Y-71487921D01*
X103314153Y-71500218D01*
X103292529Y-71510446D01*
X103270007Y-71518504D01*
X103246803Y-71524316D01*
X103223142Y-71527826D01*
X103199250Y-71529000D01*
X102286750Y-71529000D01*
X102262858Y-71527826D01*
X102239197Y-71524316D01*
X102215993Y-71518504D01*
X102193471Y-71510446D01*
X102171847Y-71500218D01*
X102151330Y-71487921D01*
X102132117Y-71473671D01*
X102114393Y-71457607D01*
X102098329Y-71439883D01*
X102084079Y-71420670D01*
X102071782Y-71400153D01*
X102061554Y-71378529D01*
X102053496Y-71356007D01*
X102047684Y-71332803D01*
X102044174Y-71309142D01*
X102043000Y-71285250D01*
X102043000Y-70797750D01*
X102044174Y-70773858D01*
X102047684Y-70750197D01*
X102053496Y-70726993D01*
X102061554Y-70704471D01*
X102071782Y-70682847D01*
X102084079Y-70662330D01*
X102098329Y-70643117D01*
X102114393Y-70625393D01*
X102132117Y-70609329D01*
X102151330Y-70595079D01*
X102171847Y-70582782D01*
X102193471Y-70572554D01*
X102215993Y-70564496D01*
X102239197Y-70558684D01*
X102262858Y-70555174D01*
X102286750Y-70554000D01*
X103199250Y-70554000D01*
X103223142Y-70555174D01*
X103223142Y-70555174D01*
G37*
D12*
X102743000Y-71041500D03*
D11*
G36*
X116648142Y-73850174D02*
G01*
X116671803Y-73853684D01*
X116695007Y-73859496D01*
X116717529Y-73867554D01*
X116739153Y-73877782D01*
X116759670Y-73890079D01*
X116778883Y-73904329D01*
X116796607Y-73920393D01*
X116812671Y-73938117D01*
X116826921Y-73957330D01*
X116839218Y-73977847D01*
X116849446Y-73999471D01*
X116857504Y-74021993D01*
X116863316Y-74045197D01*
X116866826Y-74068858D01*
X116868000Y-74092750D01*
X116868000Y-75005250D01*
X116866826Y-75029142D01*
X116863316Y-75052803D01*
X116857504Y-75076007D01*
X116849446Y-75098529D01*
X116839218Y-75120153D01*
X116826921Y-75140670D01*
X116812671Y-75159883D01*
X116796607Y-75177607D01*
X116778883Y-75193671D01*
X116759670Y-75207921D01*
X116739153Y-75220218D01*
X116717529Y-75230446D01*
X116695007Y-75238504D01*
X116671803Y-75244316D01*
X116648142Y-75247826D01*
X116624250Y-75249000D01*
X116136750Y-75249000D01*
X116112858Y-75247826D01*
X116089197Y-75244316D01*
X116065993Y-75238504D01*
X116043471Y-75230446D01*
X116021847Y-75220218D01*
X116001330Y-75207921D01*
X115982117Y-75193671D01*
X115964393Y-75177607D01*
X115948329Y-75159883D01*
X115934079Y-75140670D01*
X115921782Y-75120153D01*
X115911554Y-75098529D01*
X115903496Y-75076007D01*
X115897684Y-75052803D01*
X115894174Y-75029142D01*
X115893000Y-75005250D01*
X115893000Y-74092750D01*
X115894174Y-74068858D01*
X115897684Y-74045197D01*
X115903496Y-74021993D01*
X115911554Y-73999471D01*
X115921782Y-73977847D01*
X115934079Y-73957330D01*
X115948329Y-73938117D01*
X115964393Y-73920393D01*
X115982117Y-73904329D01*
X116001330Y-73890079D01*
X116021847Y-73877782D01*
X116043471Y-73867554D01*
X116065993Y-73859496D01*
X116089197Y-73853684D01*
X116112858Y-73850174D01*
X116136750Y-73849000D01*
X116624250Y-73849000D01*
X116648142Y-73850174D01*
X116648142Y-73850174D01*
G37*
D12*
X116380500Y-74549000D03*
D11*
G36*
X114773142Y-73850174D02*
G01*
X114796803Y-73853684D01*
X114820007Y-73859496D01*
X114842529Y-73867554D01*
X114864153Y-73877782D01*
X114884670Y-73890079D01*
X114903883Y-73904329D01*
X114921607Y-73920393D01*
X114937671Y-73938117D01*
X114951921Y-73957330D01*
X114964218Y-73977847D01*
X114974446Y-73999471D01*
X114982504Y-74021993D01*
X114988316Y-74045197D01*
X114991826Y-74068858D01*
X114993000Y-74092750D01*
X114993000Y-75005250D01*
X114991826Y-75029142D01*
X114988316Y-75052803D01*
X114982504Y-75076007D01*
X114974446Y-75098529D01*
X114964218Y-75120153D01*
X114951921Y-75140670D01*
X114937671Y-75159883D01*
X114921607Y-75177607D01*
X114903883Y-75193671D01*
X114884670Y-75207921D01*
X114864153Y-75220218D01*
X114842529Y-75230446D01*
X114820007Y-75238504D01*
X114796803Y-75244316D01*
X114773142Y-75247826D01*
X114749250Y-75249000D01*
X114261750Y-75249000D01*
X114237858Y-75247826D01*
X114214197Y-75244316D01*
X114190993Y-75238504D01*
X114168471Y-75230446D01*
X114146847Y-75220218D01*
X114126330Y-75207921D01*
X114107117Y-75193671D01*
X114089393Y-75177607D01*
X114073329Y-75159883D01*
X114059079Y-75140670D01*
X114046782Y-75120153D01*
X114036554Y-75098529D01*
X114028496Y-75076007D01*
X114022684Y-75052803D01*
X114019174Y-75029142D01*
X114018000Y-75005250D01*
X114018000Y-74092750D01*
X114019174Y-74068858D01*
X114022684Y-74045197D01*
X114028496Y-74021993D01*
X114036554Y-73999471D01*
X114046782Y-73977847D01*
X114059079Y-73957330D01*
X114073329Y-73938117D01*
X114089393Y-73920393D01*
X114107117Y-73904329D01*
X114126330Y-73890079D01*
X114146847Y-73877782D01*
X114168471Y-73867554D01*
X114190993Y-73859496D01*
X114214197Y-73853684D01*
X114237858Y-73850174D01*
X114261750Y-73849000D01*
X114749250Y-73849000D01*
X114773142Y-73850174D01*
X114773142Y-73850174D01*
G37*
D12*
X114505500Y-74549000D03*
D24*
X29527500Y-6985000D03*
X35877500Y-4445000D03*
X260508750Y-6985000D03*
X266858750Y-4445000D03*
X12858750Y-26035000D03*
X19208750Y-23495000D03*
X39052500Y-26035000D03*
X45402500Y-23495000D03*
X255746250Y-26035000D03*
X262096250Y-23495000D03*
X17621250Y-45085000D03*
X23971250Y-42545000D03*
X48577500Y-45085000D03*
X54927500Y-42545000D03*
X250983750Y-45085000D03*
X257333750Y-42545000D03*
X34290000Y-64135000D03*
X40640000Y-61595000D03*
X55721250Y-64135000D03*
X62071250Y-61595000D03*
X86677500Y-64135000D03*
X93027500Y-61595000D03*
X134302500Y-64135000D03*
X140652500Y-61595000D03*
X181927500Y-64135000D03*
X188277500Y-61595000D03*
X212883750Y-64135000D03*
X219233750Y-61595000D03*
X234315000Y-64135000D03*
X240665000Y-61595000D03*
X8096250Y-6985000D03*
X14446250Y-4445000D03*
X86677500Y-45085000D03*
X93027500Y-42545000D03*
X86677500Y-6985000D03*
X93027500Y-4445000D03*
X220027500Y-45085000D03*
X226377500Y-42545000D03*
X200977500Y-45085000D03*
X207327500Y-42545000D03*
X181927500Y-45085000D03*
X188277500Y-42545000D03*
X162877500Y-45085000D03*
X169227500Y-42545000D03*
X143827500Y-45085000D03*
X150177500Y-42545000D03*
X124777500Y-45085000D03*
X131127500Y-42545000D03*
X105727500Y-45085000D03*
X112077500Y-42545000D03*
X67627500Y-45085000D03*
X73977500Y-42545000D03*
X229552500Y-26035000D03*
X235902500Y-23495000D03*
X210502500Y-26035000D03*
X216852500Y-23495000D03*
X191452500Y-26035000D03*
X197802500Y-23495000D03*
X172402500Y-26035000D03*
X178752500Y-23495000D03*
X153352500Y-26035000D03*
X159702500Y-23495000D03*
X134302500Y-26035000D03*
X140652500Y-23495000D03*
X115252500Y-26035000D03*
X121602500Y-23495000D03*
X96202500Y-26035000D03*
X102552500Y-23495000D03*
X77152500Y-26035000D03*
X83502500Y-23495000D03*
X58102500Y-26035000D03*
X64452500Y-23495000D03*
X239077500Y-6985000D03*
X245427500Y-4445000D03*
X220027500Y-6985000D03*
X226377500Y-4445000D03*
X200977500Y-6985000D03*
X207327500Y-4445000D03*
X181927500Y-6985000D03*
X188277500Y-4445000D03*
X162877500Y-6985000D03*
X169227500Y-4445000D03*
X143827500Y-6985000D03*
X150177500Y-4445000D03*
X124777500Y-6985000D03*
X131127500Y-4445000D03*
X105727500Y-6985000D03*
X112077500Y-4445000D03*
X67627500Y-6985000D03*
X73977500Y-4445000D03*
X48577500Y-6985000D03*
X54927500Y-4445000D03*
D10*
X41862500Y-8756000D03*
X41862500Y-12056000D03*
X60912500Y-8756000D03*
X60912500Y-12056000D03*
X79962500Y-8756000D03*
X79962500Y-12056000D03*
X99012500Y-8756000D03*
X99012500Y-12056000D03*
X118062500Y-8756000D03*
X118062500Y-12056000D03*
X136906000Y-9399000D03*
X136906000Y-12699000D03*
X156162500Y-8756000D03*
X156162500Y-12056000D03*
X175212500Y-8756000D03*
X175212500Y-12056000D03*
X194262500Y-8756000D03*
X194262500Y-12056000D03*
X213312500Y-8756000D03*
X213312500Y-12056000D03*
X232362500Y-8756000D03*
X232362500Y-12056000D03*
X251412500Y-8756000D03*
X251412500Y-12056000D03*
X273050000Y-8756000D03*
X273050000Y-12056000D03*
X32337500Y-27806000D03*
X32337500Y-31106000D03*
X51387500Y-27806000D03*
X51387500Y-31106000D03*
X70437500Y-27806000D03*
X70437500Y-31106000D03*
X89487500Y-27806000D03*
X89487500Y-31106000D03*
X108537500Y-27806000D03*
X108537500Y-31106000D03*
X127587500Y-27806000D03*
X127587500Y-31106000D03*
X146637500Y-27806000D03*
X146637500Y-31106000D03*
X165687500Y-27806000D03*
X165687500Y-31106000D03*
X184737500Y-27806000D03*
X184737500Y-31106000D03*
X203787500Y-27806000D03*
X203787500Y-31106000D03*
X222837500Y-27806000D03*
X222837500Y-31106000D03*
X241887500Y-27806000D03*
X241887500Y-31106000D03*
X273050000Y-27806000D03*
X273050000Y-31106000D03*
X41862500Y-46856000D03*
X41862500Y-50156000D03*
X60912500Y-46856000D03*
X60912500Y-50156000D03*
X79962500Y-46856000D03*
X79962500Y-50156000D03*
X99012500Y-46856000D03*
X99012500Y-50156000D03*
X118062500Y-46856000D03*
X118062500Y-50156000D03*
X137112500Y-46856000D03*
X137112500Y-50156000D03*
X156162500Y-46856000D03*
X156162500Y-50156000D03*
X175212500Y-46856000D03*
X175212500Y-50156000D03*
X194262500Y-46856000D03*
X194262500Y-50156000D03*
X213312500Y-46856000D03*
X213312500Y-50156000D03*
X232362500Y-46856000D03*
X232362500Y-50156000D03*
X273050000Y-46864000D03*
X273050000Y-50164000D03*
X46625000Y-69333000D03*
X46625000Y-66033000D03*
X70437500Y-69333000D03*
X70437500Y-66033000D03*
X99060000Y-69341000D03*
X99060000Y-66041000D03*
X165354000Y-66041000D03*
X165354000Y-69341000D03*
X203660500Y-66033000D03*
X203660500Y-69333000D03*
X227473000Y-69333000D03*
X227473000Y-66033000D03*
X245745000Y-66033000D03*
X245745000Y-69333000D03*
D25*
X38325499Y-51587336D03*
X35963479Y-51587336D03*
X67564000Y-50883000D03*
X105287737Y-50910913D03*
X124714000Y-50883000D03*
X134239000Y-70068000D03*
X162814000Y-50883000D03*
X181991000Y-70060000D03*
X200914000Y-50883000D03*
X212852000Y-70060000D03*
X234315000Y-70060000D03*
X250952000Y-50927000D03*
X99626298Y-72066000D03*
X112151089Y-73919233D03*
X129257933Y-31086933D03*
X132557499Y-31115000D03*
X111137134Y-73926134D03*
X100402108Y-71339000D03*
X119253000Y-50165000D03*
X122555000Y-50165000D03*
X99695000Y-70612000D03*
X110115067Y-73920067D03*
X125417819Y-69341000D03*
X109093000Y-73914000D03*
X100457000Y-69342000D03*
X141097000Y-11303000D03*
X141097000Y-12783000D03*
X125941614Y-53043616D03*
X115560228Y-53076228D03*
X142972770Y-4859441D03*
X132969000Y-4826000D03*
X107442000Y-53086000D03*
X111887000Y-58166000D03*
X109982000Y-58166000D03*
X126821279Y-52568021D03*
X120880083Y-51310084D03*
X101092000Y-61468000D03*
X101346000Y-68453000D03*
X108077000Y-51308000D03*
X106426000Y-56007000D03*
X114681000Y-56007000D03*
X121031000Y-63881000D03*
X136465808Y-8206857D03*
X139886192Y-8206857D03*
X136699000Y-3928411D03*
X134874000Y-4064000D03*
X140105894Y-3898170D03*
X142142566Y-3994809D03*
X137670833Y-8372083D03*
X137668000Y-13843000D03*
X138811000Y-8382000D03*
X138811000Y-13843000D03*
D26*
X103272198Y-66675000D02*
X88207199Y-51610001D01*
X105044000Y-66675000D02*
X103272198Y-66675000D01*
X67215039Y-51610001D02*
X88207199Y-51610001D01*
X67215039Y-51610001D02*
X38348164Y-51610001D01*
X38348164Y-51610001D02*
X38325499Y-51587336D01*
X35725164Y-51587336D02*
X35963479Y-51587336D01*
X35702499Y-51610001D02*
X35725164Y-51587336D01*
X21981317Y-51610001D02*
X35702499Y-51610001D01*
X17621250Y-45085000D02*
X17621250Y-47249934D01*
X17621250Y-47249934D02*
X21981317Y-51610001D01*
X103982980Y-67417980D02*
X103373112Y-67417980D01*
X105044000Y-67475000D02*
X104040000Y-67475000D01*
X103373112Y-67417980D02*
X88019143Y-52064011D01*
X104040000Y-67475000D02*
X103982980Y-67417980D01*
X88019143Y-52064011D02*
X46106989Y-52064011D01*
X46106989Y-52064011D02*
X34290000Y-63881000D01*
X34290000Y-63881000D02*
X34290000Y-64135000D01*
X87831087Y-52518021D02*
X67338229Y-52518021D01*
X104163124Y-68275000D02*
X103760115Y-67871990D01*
X103760115Y-67871990D02*
X103185056Y-67871990D01*
X105044000Y-68275000D02*
X104163124Y-68275000D01*
X103185056Y-67871990D02*
X87831087Y-52518021D01*
X67338229Y-52518021D02*
X55721250Y-64135000D01*
X67818000Y-51137000D02*
X67564000Y-50883000D01*
X67818000Y-51155991D02*
X67818000Y-51137000D01*
X88395256Y-51155991D02*
X67818000Y-51155991D01*
X103114264Y-65875000D02*
X88395256Y-51155991D01*
X105044000Y-65875000D02*
X103114264Y-65875000D01*
X103572058Y-68326000D02*
X102997000Y-68326000D01*
X104123059Y-68877001D02*
X103572058Y-68326000D01*
X104889000Y-69075000D02*
X104691001Y-68877001D01*
X104691001Y-68877001D02*
X104123059Y-68877001D01*
X105044000Y-69075000D02*
X104889000Y-69075000D01*
X102997000Y-68326000D02*
X94813999Y-60142999D01*
X90669501Y-60142999D02*
X91368001Y-60142999D01*
X86677500Y-64135000D02*
X90669501Y-60142999D01*
X94813999Y-60142999D02*
X91368001Y-60142999D01*
X102956331Y-65075000D02*
X105044000Y-65075000D01*
X99491839Y-61610508D02*
X102956331Y-65075000D01*
X99491839Y-56706811D02*
X99491839Y-61610508D01*
X105287737Y-50910913D02*
X99491839Y-56706811D01*
X124314001Y-51282999D02*
X124714000Y-50883000D01*
X124057000Y-51540000D02*
X124314001Y-51282999D01*
X123937566Y-51659434D02*
X124057000Y-51540000D01*
X118981375Y-53139990D02*
X113131010Y-58990355D01*
X122457010Y-53139990D02*
X118981375Y-53139990D01*
X124057000Y-51540000D02*
X122457010Y-53139990D01*
X112344000Y-59971000D02*
X112344000Y-60975000D01*
X112344000Y-59765400D02*
X112344000Y-59971000D01*
X113119045Y-58990355D02*
X112344000Y-59765400D01*
X113131010Y-58990355D02*
X113119045Y-58990355D01*
X134239000Y-70068000D02*
X124551000Y-70068000D01*
X122758000Y-68275000D02*
X116444000Y-68275000D01*
X124551000Y-70068000D02*
X122758000Y-68275000D01*
X113144000Y-59619432D02*
X113144000Y-60975000D01*
X162248315Y-50883000D02*
X162198314Y-50933001D01*
X162814000Y-50883000D02*
X162248315Y-50883000D01*
X162198314Y-50933001D02*
X125739961Y-50933001D01*
X125739961Y-50933001D02*
X123078962Y-53594000D01*
X123078962Y-53594000D02*
X119169432Y-53594000D01*
X119169432Y-53594000D02*
X113144000Y-59619432D01*
X135151962Y-70231000D02*
X181820000Y-70231000D01*
X181820000Y-70231000D02*
X181991000Y-70060000D01*
X134587961Y-70795001D02*
X135151962Y-70231000D01*
X124635935Y-70795001D02*
X134587961Y-70795001D01*
X122915934Y-69075000D02*
X116444000Y-69075000D01*
X124635935Y-70795001D02*
X122915934Y-69075000D01*
X113944000Y-59461499D02*
X113944000Y-60975000D01*
X123267018Y-54048010D02*
X119357489Y-54048010D01*
X125928017Y-51387011D02*
X123267018Y-54048010D01*
X162131011Y-51387011D02*
X125928017Y-51387011D01*
X162354001Y-51610001D02*
X162131011Y-51387011D01*
X200870000Y-50927000D02*
X196469000Y-50927000D01*
X200914000Y-50883000D02*
X200870000Y-50927000D01*
X196469000Y-50927000D02*
X196462999Y-50933001D01*
X196462999Y-50933001D02*
X163839961Y-50933001D01*
X119357489Y-54048010D02*
X113944000Y-59461499D01*
X163839961Y-50933001D02*
X163162961Y-51610001D01*
X163162961Y-51610001D02*
X162354001Y-51610001D01*
X180642001Y-70787001D02*
X180261001Y-70787001D01*
X181434999Y-70787001D02*
X180642001Y-70787001D01*
X182339961Y-70787001D02*
X181434999Y-70787001D01*
X183016961Y-70110001D02*
X182339961Y-70787001D01*
X212852000Y-70060000D02*
X212801999Y-70110001D01*
X212801999Y-70110001D02*
X183016961Y-70110001D01*
X134776017Y-71249011D02*
X135238028Y-70787001D01*
X124447878Y-71249011D02*
X134776017Y-71249011D01*
X135238028Y-70787001D02*
X180642001Y-70787001D01*
X123073867Y-69875000D02*
X116444000Y-69875000D01*
X124447878Y-71249011D02*
X123073867Y-69875000D01*
X213877961Y-70110001D02*
X234315000Y-70110001D01*
X213200961Y-70787001D02*
X213877961Y-70110001D01*
X212503039Y-70787001D02*
X213200961Y-70787001D01*
X212280049Y-70564011D02*
X212503039Y-70787001D01*
X183205018Y-70564011D02*
X212280049Y-70564011D01*
X124259821Y-71703021D02*
X134964074Y-71703021D01*
X134964074Y-71703021D02*
X135426084Y-71241011D01*
X135426084Y-71241011D02*
X182528018Y-71241011D01*
X182528018Y-71241011D02*
X183205018Y-70564011D01*
X123231800Y-70675000D02*
X116444000Y-70675000D01*
X124259821Y-71703021D02*
X123231800Y-70675000D01*
X250342315Y-50927000D02*
X250952000Y-50927000D01*
X161942954Y-51841021D02*
X162165944Y-52064011D01*
X250336314Y-50933001D02*
X250342315Y-50927000D01*
X200352010Y-51381010D02*
X200565039Y-51594039D01*
X126116073Y-51841021D02*
X161942954Y-51841021D01*
X200565039Y-51594039D02*
X200565039Y-51610001D01*
X200565039Y-51610001D02*
X201262961Y-51610001D01*
X123455075Y-54502020D02*
X126116073Y-51841021D01*
X114744000Y-60975000D02*
X114744000Y-59303566D01*
X196651056Y-51387011D02*
X196657057Y-51381010D01*
X119545546Y-54502020D02*
X123455075Y-54502020D01*
X196657057Y-51381010D02*
X200352010Y-51381010D01*
X201262961Y-51610001D02*
X201939961Y-50933001D01*
X162165944Y-52064011D02*
X163351018Y-52064011D01*
X201939961Y-50933001D02*
X250336314Y-50933001D01*
X114744000Y-59303566D02*
X119545546Y-54502020D01*
X163351018Y-52064011D02*
X164028017Y-51387011D01*
X164028017Y-51387011D02*
X196651056Y-51387011D01*
X251412500Y-12056000D02*
X232362500Y-12056000D01*
X232362500Y-12056000D02*
X213312500Y-12056000D01*
X212458500Y-12056000D02*
X194262500Y-12056000D01*
X213312500Y-12056000D02*
X212458500Y-12056000D01*
X193408500Y-12056000D02*
X175212500Y-12056000D01*
X194262500Y-12056000D02*
X193408500Y-12056000D01*
X175212500Y-12056000D02*
X156162500Y-12056000D01*
X118062500Y-12056000D02*
X99012500Y-12056000D01*
X98158500Y-12056000D02*
X79962500Y-12056000D01*
X99012500Y-12056000D02*
X98158500Y-12056000D01*
X79962500Y-12056000D02*
X60912500Y-12056000D01*
X60912500Y-12056000D02*
X41862500Y-12056000D01*
X22741000Y-12056000D02*
X22733000Y-12064000D01*
X41862500Y-12056000D02*
X22741000Y-12056000D01*
X118070500Y-12064000D02*
X118062500Y-12056000D01*
X137056000Y-12699000D02*
X136906000Y-12699000D01*
X138258010Y-11496990D02*
X137056000Y-12699000D01*
X140183008Y-11496990D02*
X138258010Y-11496990D01*
X140742018Y-12056000D02*
X140183008Y-11496990D01*
X156162500Y-12056000D02*
X140742018Y-12056000D01*
X136263000Y-12056000D02*
X136906000Y-12699000D01*
X118062500Y-12056000D02*
X136263000Y-12056000D01*
X34531927Y-71250023D02*
X30909979Y-67628075D01*
X42926000Y-47431102D02*
X41916112Y-48440990D01*
X42926000Y-45491816D02*
X42926000Y-47431102D01*
X33264501Y-23299501D02*
X33264501Y-28540397D01*
X22733000Y-12064000D02*
X22733000Y-12768000D01*
X22733000Y-12768000D02*
X33264501Y-23299501D01*
X33264501Y-28540397D02*
X31410499Y-30394399D01*
X31410499Y-30394399D02*
X31410499Y-33976315D01*
X31410499Y-33976315D02*
X42926000Y-45491816D01*
X34531927Y-71250023D02*
X98174023Y-71250023D01*
X98174023Y-71250023D02*
X98990000Y-72066000D01*
X98990000Y-72066000D02*
X99626298Y-72066000D01*
X112344000Y-72375000D02*
X112344000Y-73726322D01*
X112344000Y-73726322D02*
X112151089Y-73919233D01*
X251412500Y-12056000D02*
X273050000Y-12056000D01*
X39086414Y-48440990D02*
X36690479Y-50836925D01*
X41916112Y-48440990D02*
X39086414Y-48440990D01*
X36690479Y-50836925D02*
X36690479Y-58151427D01*
X36690479Y-58151427D02*
X30909979Y-63931927D01*
X30909979Y-63931927D02*
X30909979Y-64721021D01*
X30909979Y-67628075D02*
X30909979Y-64721021D01*
X30909979Y-64721021D02*
X30909979Y-64340021D01*
X32337500Y-31106000D02*
X51387500Y-31106000D01*
X51387500Y-31106000D02*
X70437500Y-31106000D01*
X70437500Y-31106000D02*
X89487500Y-31106000D01*
X90341500Y-31106000D02*
X108537500Y-31106000D01*
X89487500Y-31106000D02*
X90341500Y-31106000D01*
X109391500Y-31106000D02*
X127587500Y-31106000D01*
X108537500Y-31106000D02*
X109391500Y-31106000D01*
X127587500Y-31106000D02*
X128441500Y-31106000D01*
X165687500Y-31106000D02*
X184737500Y-31106000D01*
X185591500Y-31106000D02*
X203787500Y-31106000D01*
X184737500Y-31106000D02*
X185591500Y-31106000D01*
X203787500Y-31106000D02*
X222837500Y-31106000D01*
X223691500Y-31106000D02*
X241887500Y-31106000D01*
X222837500Y-31106000D02*
X223691500Y-31106000D01*
X241887500Y-31106000D02*
X242741500Y-31106000D01*
X43380009Y-45303759D02*
X43380009Y-46301009D01*
X32337500Y-34261250D02*
X43380009Y-45303759D01*
X32337500Y-31106000D02*
X32337500Y-34261250D01*
X43380009Y-46092841D02*
X43380009Y-46301009D01*
X128441500Y-31106000D02*
X129238866Y-31106000D01*
X129238866Y-31106000D02*
X129257933Y-31086933D01*
X147302000Y-31115000D02*
X147311000Y-31106000D01*
X132557499Y-31115000D02*
X147302000Y-31115000D01*
X146637500Y-31106000D02*
X147311000Y-31106000D01*
X147311000Y-31106000D02*
X165687500Y-31106000D01*
X111544000Y-73519268D02*
X111544000Y-72375000D01*
X111137134Y-73926134D02*
X111544000Y-73519268D01*
X242741500Y-31106000D02*
X273050000Y-31106000D01*
X98806000Y-70796013D02*
X99348989Y-71339000D01*
X34719984Y-70796013D02*
X98806000Y-70796013D01*
X31363989Y-67440018D02*
X34719984Y-70796013D01*
X31363990Y-64119982D02*
X31363989Y-67440018D01*
X99348989Y-71339000D02*
X100402108Y-71339000D01*
X43380010Y-47619159D02*
X42104169Y-48895000D01*
X43380009Y-46301009D02*
X43380010Y-47619159D01*
X39274471Y-48895000D02*
X37144489Y-51024982D01*
X42104169Y-48895000D02*
X39274471Y-48895000D01*
X37144489Y-51024982D02*
X37144489Y-58339483D01*
X37144489Y-58339483D02*
X31363990Y-64119982D01*
X232362500Y-50156000D02*
X213312500Y-50156000D01*
X213312500Y-50156000D02*
X194262500Y-50156000D01*
X194262500Y-50156000D02*
X175212500Y-50156000D01*
X175212500Y-50156000D02*
X156162500Y-50156000D01*
X156162500Y-50156000D02*
X137112500Y-50156000D01*
X118062500Y-50156000D02*
X99012500Y-50156000D01*
X98158500Y-50156000D02*
X79962500Y-50156000D01*
X99012500Y-50156000D02*
X98158500Y-50156000D01*
X79108500Y-50156000D02*
X60912500Y-50156000D01*
X79962500Y-50156000D02*
X79108500Y-50156000D01*
X60912500Y-50156000D02*
X41862500Y-50156000D01*
X34908041Y-70342003D02*
X31817999Y-67251961D01*
X118062500Y-50156000D02*
X119244000Y-50156000D01*
X119244000Y-50156000D02*
X119253000Y-50165000D01*
X136258500Y-50156000D02*
X137112500Y-50156000D01*
X124365038Y-50156000D02*
X136258500Y-50156000D01*
X124356038Y-50165000D02*
X124365038Y-50156000D01*
X122555000Y-50165000D02*
X124356038Y-50165000D01*
X34908041Y-70342003D02*
X99425003Y-70342003D01*
X99425003Y-70342003D02*
X99695000Y-70612000D01*
X110744000Y-73291134D02*
X110744000Y-72375000D01*
X110115067Y-73920067D02*
X110744000Y-73291134D01*
X273042000Y-50156000D02*
X273050000Y-50164000D01*
X232362500Y-50156000D02*
X273042000Y-50156000D01*
X31817999Y-67251961D02*
X31817999Y-65599999D01*
X41862500Y-50156000D02*
X38655538Y-50156000D01*
X31817999Y-65599999D02*
X31817999Y-64308039D01*
X38655538Y-50156000D02*
X37598499Y-51213039D01*
X37598499Y-58527539D02*
X37598499Y-55124499D01*
X31817999Y-64308039D02*
X37598499Y-58527539D01*
X31817999Y-67251961D02*
X31817999Y-64308039D01*
X37598499Y-51213039D02*
X37598499Y-55124499D01*
X227473000Y-69333000D02*
X203660500Y-69333000D01*
X203660500Y-69333000D02*
X165362000Y-69333000D01*
X70445500Y-69341000D02*
X70437500Y-69333000D01*
X99060000Y-69341000D02*
X70445500Y-69341000D01*
X70437500Y-69333000D02*
X46625000Y-69333000D01*
X165354000Y-69341000D02*
X130557000Y-69341000D01*
X130557000Y-69341000D02*
X130556000Y-69342000D01*
X125417819Y-69341000D02*
X130557000Y-69341000D01*
X109944000Y-73063000D02*
X109944000Y-72375000D01*
X109093000Y-73914000D02*
X109944000Y-73063000D01*
X99061000Y-69342000D02*
X99060000Y-69341000D01*
X100457000Y-69342000D02*
X99061000Y-69342000D01*
X245745000Y-69333000D02*
X227473000Y-69333000D01*
X18765250Y-8764000D02*
X14446250Y-4445000D01*
X22733000Y-8764000D02*
X18765250Y-8764000D01*
X40188500Y-8756000D02*
X35877500Y-4445000D01*
X41862500Y-8756000D02*
X40188500Y-8756000D01*
X59238500Y-8756000D02*
X54927500Y-4445000D01*
X60912500Y-8756000D02*
X59238500Y-8756000D01*
X78288500Y-8756000D02*
X73977500Y-4445000D01*
X79962500Y-8756000D02*
X78288500Y-8756000D01*
X97338500Y-8756000D02*
X93027500Y-4445000D01*
X99012500Y-8756000D02*
X97338500Y-8756000D01*
X116388500Y-8756000D02*
X112077500Y-4445000D01*
X118062500Y-8756000D02*
X116388500Y-8756000D01*
X132252499Y-5569999D02*
X131127500Y-4445000D01*
X132252499Y-5599499D02*
X132252499Y-5569999D01*
X136052000Y-9399000D02*
X132252499Y-5599499D01*
X136906000Y-9399000D02*
X136052000Y-9399000D01*
X154488500Y-8756000D02*
X150177500Y-4445000D01*
X156162500Y-8756000D02*
X154488500Y-8756000D01*
X173538500Y-8756000D02*
X169227500Y-4445000D01*
X175212500Y-8756000D02*
X173538500Y-8756000D01*
X192588500Y-8756000D02*
X188277500Y-4445000D01*
X194262500Y-8756000D02*
X192588500Y-8756000D01*
X211638500Y-8756000D02*
X207327500Y-4445000D01*
X213312500Y-8756000D02*
X211638500Y-8756000D01*
X230688500Y-8756000D02*
X226377500Y-4445000D01*
X232362500Y-8756000D02*
X230688500Y-8756000D01*
X249738500Y-8756000D02*
X245427500Y-4445000D01*
X251412500Y-8756000D02*
X249738500Y-8756000D01*
X271169750Y-8756000D02*
X266858750Y-4445000D01*
X273050000Y-8756000D02*
X271169750Y-8756000D01*
X23519750Y-27806000D02*
X19208750Y-23495000D01*
X32337500Y-27806000D02*
X23519750Y-27806000D01*
X49713500Y-27806000D02*
X45402500Y-23495000D01*
X51387500Y-27806000D02*
X49713500Y-27806000D01*
X68763500Y-27806000D02*
X64452500Y-23495000D01*
X70437500Y-27806000D02*
X68763500Y-27806000D01*
X87813500Y-27806000D02*
X83502500Y-23495000D01*
X89487500Y-27806000D02*
X87813500Y-27806000D01*
X106863500Y-27806000D02*
X102552500Y-23495000D01*
X108537500Y-27806000D02*
X106863500Y-27806000D01*
X125913500Y-27806000D02*
X121602500Y-23495000D01*
X127587500Y-27806000D02*
X125913500Y-27806000D01*
X144963500Y-27806000D02*
X140652500Y-23495000D01*
X146637500Y-27806000D02*
X144963500Y-27806000D01*
X164013500Y-27806000D02*
X159702500Y-23495000D01*
X165687500Y-27806000D02*
X164013500Y-27806000D01*
X183063500Y-27806000D02*
X178752500Y-23495000D01*
X184737500Y-27806000D02*
X183063500Y-27806000D01*
X202113500Y-27806000D02*
X197802500Y-23495000D01*
X203787500Y-27806000D02*
X202113500Y-27806000D01*
X221163500Y-27806000D02*
X216852500Y-23495000D01*
X222837500Y-27806000D02*
X221163500Y-27806000D01*
X240213500Y-27806000D02*
X235902500Y-23495000D01*
X241887500Y-27806000D02*
X240213500Y-27806000D01*
X266407250Y-27806000D02*
X262096250Y-23495000D01*
X273050000Y-27806000D02*
X266407250Y-27806000D01*
X28282250Y-46856000D02*
X23971250Y-42545000D01*
X41862500Y-46856000D02*
X28282250Y-46856000D01*
X59238500Y-46856000D02*
X54927500Y-42545000D01*
X60912500Y-46856000D02*
X59238500Y-46856000D01*
X78288500Y-46856000D02*
X73977500Y-42545000D01*
X79962500Y-46856000D02*
X78288500Y-46856000D01*
X97338500Y-46856000D02*
X93027500Y-42545000D01*
X99012500Y-46856000D02*
X97338500Y-46856000D01*
X116388500Y-46856000D02*
X112077500Y-42545000D01*
X118062500Y-46856000D02*
X116388500Y-46856000D01*
X135438500Y-46856000D02*
X131127500Y-42545000D01*
X137112500Y-46856000D02*
X135438500Y-46856000D01*
X154488500Y-46856000D02*
X150177500Y-42545000D01*
X156162500Y-46856000D02*
X154488500Y-46856000D01*
X173538500Y-46856000D02*
X169227500Y-42545000D01*
X175212500Y-46856000D02*
X173538500Y-46856000D01*
X192588500Y-46856000D02*
X188277500Y-42545000D01*
X194262500Y-46856000D02*
X192588500Y-46856000D01*
X211638500Y-46856000D02*
X207327500Y-42545000D01*
X213312500Y-46856000D02*
X211638500Y-46856000D01*
X230688500Y-46856000D02*
X226377500Y-42545000D01*
X232362500Y-46856000D02*
X230688500Y-46856000D01*
X261652750Y-46864000D02*
X257333750Y-42545000D01*
X273050000Y-46864000D02*
X261652750Y-46864000D01*
X45078000Y-66033000D02*
X40640000Y-61595000D01*
X46625000Y-66033000D02*
X45078000Y-66033000D01*
X66509250Y-66033000D02*
X62071250Y-61595000D01*
X70437500Y-66033000D02*
X66509250Y-66033000D01*
X97473500Y-66041000D02*
X93027500Y-61595000D01*
X99060000Y-66041000D02*
X97473500Y-66041000D01*
X165354000Y-66041000D02*
X145098500Y-66041000D01*
X143373491Y-64315991D02*
X140652500Y-61595000D01*
X145098500Y-66041000D02*
X143373491Y-64315991D01*
X192715500Y-66033000D02*
X188277500Y-61595000D01*
X203660500Y-66033000D02*
X192715500Y-66033000D01*
X223671750Y-66033000D02*
X219233750Y-61595000D01*
X227473000Y-66033000D02*
X223671750Y-66033000D01*
X241789999Y-62719999D02*
X240665000Y-61595000D01*
X245103000Y-66033000D02*
X241789999Y-62719999D01*
X245745000Y-66033000D02*
X245103000Y-66033000D01*
D27*
X139395000Y-5727000D02*
X139176000Y-5727000D01*
X141401000Y-3721000D02*
X139395000Y-5727000D01*
X141401000Y-2615000D02*
X141401000Y-3721000D01*
X134698763Y-6525763D02*
X135255000Y-7082000D01*
X134083499Y-3684559D02*
X134083499Y-5910499D01*
X134951000Y-2817058D02*
X134083499Y-3684559D01*
X134951000Y-2615000D02*
X134951000Y-2817058D01*
X139176000Y-5877000D02*
X140462000Y-7163000D01*
X139176000Y-5727000D02*
X139176000Y-5877000D01*
X140464500Y-7160500D02*
X141478000Y-7160500D01*
X140462000Y-7163000D02*
X140464500Y-7160500D01*
X140921763Y-11127763D02*
X141097000Y-11303000D01*
X141478000Y-7160500D02*
X140921763Y-7716737D01*
X140921763Y-7716737D02*
X140921763Y-11127763D01*
X125681500Y-62820500D02*
X125769000Y-62908000D01*
X125681500Y-60833000D02*
X125681500Y-62820500D01*
X127556500Y-65195500D02*
X127469000Y-65108000D01*
X127556500Y-67183000D02*
X127556500Y-65195500D01*
X126772010Y-59742490D02*
X126237737Y-60276763D01*
X128062970Y-59742490D02*
X126772010Y-59742490D01*
X128459501Y-60139021D02*
X128062970Y-59742490D01*
X128459501Y-64017499D02*
X128459501Y-60139021D01*
X127469000Y-65008000D02*
X128459501Y-64017499D01*
X126237737Y-60276763D02*
X125681500Y-60833000D01*
X127469000Y-65108000D02*
X127469000Y-65008000D01*
X103451500Y-69875000D02*
X105044000Y-69875000D01*
X102743000Y-69166500D02*
X103451500Y-69875000D01*
X117575000Y-65075000D02*
X116444000Y-65075000D01*
X122621000Y-65075000D02*
X117575000Y-65075000D01*
X124788000Y-62908000D02*
X122621000Y-65075000D01*
X125769000Y-62908000D02*
X124788000Y-62908000D01*
X131766999Y-31936001D02*
X129476500Y-34226500D01*
X131766999Y-26177559D02*
X131766999Y-31936001D01*
X129921000Y-33782000D02*
X129476500Y-34226500D01*
X141097000Y-12783000D02*
X141097000Y-17585672D01*
X139319000Y-19363672D02*
X138580886Y-19363672D01*
X141097000Y-17585672D02*
X139319000Y-19363672D01*
X138580886Y-19363672D02*
X131766999Y-26177559D01*
X147222490Y-57902490D02*
X133564359Y-57902490D01*
X152579000Y-64190000D02*
X152579000Y-63259000D01*
X152579000Y-63259000D02*
X147222490Y-57902490D01*
X133564359Y-57902490D02*
X130800488Y-57902490D01*
X121670583Y-42032417D02*
X122174000Y-41529000D01*
X121670583Y-51176417D02*
X121670583Y-42032417D01*
X129476500Y-34226500D02*
X122174000Y-41529000D01*
X121670583Y-51176417D02*
X121670583Y-50904640D01*
X121670583Y-51176417D02*
X121670583Y-51663522D01*
X115960227Y-52676229D02*
X115560228Y-53076228D01*
X116535871Y-52100585D02*
X115960227Y-52676229D01*
X121233520Y-52100585D02*
X116535871Y-52100585D01*
X121670583Y-51663522D02*
X121233520Y-52100585D01*
X141478000Y-7160500D02*
X142972770Y-5665730D01*
X142972770Y-5665730D02*
X142972770Y-4859441D01*
X134083499Y-5910499D02*
X134444500Y-6271500D01*
X134444500Y-6271500D02*
X134698763Y-6525763D01*
X134083499Y-5910499D02*
X134053499Y-5910499D01*
X134053499Y-5910499D02*
X132969000Y-4826000D01*
X102923500Y-63475000D02*
X102743000Y-63294500D01*
X105044000Y-63475000D02*
X102923500Y-63475000D01*
X114744000Y-72912500D02*
X116380500Y-74549000D01*
X114744000Y-72375000D02*
X114744000Y-72912500D01*
X106175000Y-63475000D02*
X105044000Y-63475000D01*
X108575000Y-63475000D02*
X106175000Y-63475000D01*
X109944000Y-62106000D02*
X108575000Y-63475000D01*
X109944000Y-60975000D02*
X109944000Y-62106000D01*
X108575000Y-67475000D02*
X108575000Y-63475000D01*
X106175000Y-69875000D02*
X108575000Y-67475000D01*
X105044000Y-69875000D02*
X106175000Y-69875000D01*
X114744000Y-71244000D02*
X114744000Y-72375000D01*
X113375000Y-69875000D02*
X114744000Y-71244000D01*
X115313000Y-65075000D02*
X116444000Y-65075000D01*
X113375000Y-67013000D02*
X115313000Y-65075000D01*
X113375000Y-69875000D02*
X113375000Y-67013000D01*
X115531272Y-53076228D02*
X115560228Y-53076228D01*
X107571902Y-69875000D02*
X108737000Y-69875000D01*
X105107500Y-72339402D02*
X107571902Y-69875000D01*
X105107500Y-74549000D02*
X105107500Y-72339402D01*
X106175000Y-69875000D02*
X108737000Y-69875000D01*
X108737000Y-69875000D02*
X113375000Y-69875000D01*
X107442000Y-57325500D02*
X107363500Y-57404000D01*
X107442000Y-53086000D02*
X107442000Y-57325500D01*
X109953501Y-62115501D02*
X109944000Y-62106000D01*
X115331401Y-62115501D02*
X109953501Y-62115501D01*
X115519402Y-61927500D02*
X115331401Y-62115501D01*
X119507000Y-61927500D02*
X115519402Y-61927500D01*
X130800488Y-57902490D02*
X125941614Y-53043616D01*
X115277272Y-53076228D02*
X113411000Y-54942500D01*
X115560228Y-53076228D02*
X115277272Y-53076228D01*
X113411000Y-54942500D02*
X110363000Y-54942500D01*
X113411000Y-54942500D02*
X111887000Y-56466500D01*
X111887000Y-56466500D02*
X111887000Y-58166000D01*
X109982000Y-60937000D02*
X109944000Y-60975000D01*
X109982000Y-58166000D02*
X109982000Y-60937000D01*
X104677500Y-71041500D02*
X105044000Y-70675000D01*
X102743000Y-71041500D02*
X104677500Y-71041500D01*
X147863382Y-57321480D02*
X133805021Y-57321480D01*
X154813000Y-65102500D02*
X154813000Y-64271098D01*
X154813000Y-64271098D02*
X147863382Y-57321480D01*
X133805021Y-57321480D02*
X131041150Y-57321480D01*
X131041150Y-57321480D02*
X126821279Y-53101609D01*
X126821279Y-53101609D02*
X126821279Y-52568021D01*
X121089573Y-41657363D02*
X121089573Y-51100594D01*
X131185989Y-25936897D02*
X131185989Y-31560947D01*
X138340223Y-18782663D02*
X131185989Y-25936897D01*
X139319000Y-12449000D02*
X139319000Y-13174000D01*
X139319000Y-13174000D02*
X140335000Y-14190000D01*
X131185989Y-31560947D02*
X121089573Y-41657363D01*
X140335000Y-14190000D02*
X140335000Y-17526000D01*
X140335000Y-17526000D02*
X139078338Y-18782662D01*
X139078338Y-18782662D02*
X138340223Y-18782663D01*
X121089573Y-51100594D02*
X120880083Y-51310084D01*
X103998500Y-62675000D02*
X102743000Y-61419500D01*
X105044000Y-62675000D02*
X103998500Y-62675000D01*
X101346000Y-69644500D02*
X102743000Y-71041500D01*
X101346000Y-68453000D02*
X101346000Y-69644500D01*
X102694500Y-61468000D02*
X102743000Y-61419500D01*
X101092000Y-61468000D02*
X102694500Y-61468000D01*
X113944000Y-73987500D02*
X113944000Y-72375000D01*
X114505500Y-74549000D02*
X113944000Y-73987500D01*
X113414990Y-75639510D02*
X113949263Y-75105237D01*
X100457000Y-74524962D02*
X101571548Y-75639510D01*
X100457000Y-72795038D02*
X100457000Y-74524962D01*
X101346000Y-71906038D02*
X100457000Y-72795038D01*
X113949263Y-75105237D02*
X114505500Y-74549000D01*
X101346000Y-69644500D02*
X101346000Y-71906038D01*
X101571548Y-75639510D02*
X113414990Y-75639510D01*
X107544000Y-59459500D02*
X107544000Y-60975000D01*
X105488500Y-57404000D02*
X107544000Y-59459500D01*
X105488500Y-53869558D02*
X105488500Y-55293500D01*
X107650059Y-51707999D02*
X105488500Y-53869558D01*
X107677001Y-51707999D02*
X107650059Y-51707999D01*
X108077000Y-51308000D02*
X107677001Y-51707999D01*
X105488500Y-54658500D02*
X105488500Y-55293500D01*
X105488500Y-55293500D02*
X105488500Y-57404000D01*
X105488500Y-57404000D02*
X105488500Y-56944500D01*
X105488500Y-56944500D02*
X106426000Y-56007000D01*
X114681000Y-56007000D02*
X114475500Y-56007000D01*
X119034500Y-64275000D02*
X116444000Y-64275000D01*
X119507000Y-63802500D02*
X119034500Y-64275000D01*
X119585500Y-63881000D02*
X119507000Y-63802500D01*
X121031000Y-63881000D02*
X119585500Y-63881000D01*
X114221500Y-56007000D02*
X113411000Y-56817500D01*
X114681000Y-56007000D02*
X114221500Y-56007000D01*
X111544000Y-59833532D02*
X111544000Y-60975000D01*
X113411000Y-56817500D02*
X113411000Y-57966532D01*
X113411000Y-57966532D02*
X111544000Y-59833532D01*
X100692001Y-61068001D02*
X101092000Y-61468000D01*
X100009349Y-60385349D02*
X100692001Y-61068001D01*
X100009349Y-57275487D02*
X100009349Y-60385349D01*
X101249237Y-56035599D02*
X100009349Y-57275487D01*
X104120099Y-56035599D02*
X101249237Y-56035599D01*
X105488500Y-57404000D02*
X104120099Y-56035599D01*
D26*
X125769000Y-67095500D02*
X125681500Y-67183000D01*
X125769000Y-65108000D02*
X125769000Y-67095500D01*
X116492237Y-66626763D02*
X116444000Y-66675000D01*
X125125263Y-66626763D02*
X116492237Y-66626763D01*
X125681500Y-67183000D02*
X125125263Y-66626763D01*
X127556500Y-62820500D02*
X127469000Y-62908000D01*
X127556500Y-60833000D02*
X127556500Y-62820500D01*
X127469000Y-63096602D02*
X126630601Y-63935001D01*
X127469000Y-62908000D02*
X127469000Y-63096602D01*
X123037398Y-65875000D02*
X116444000Y-65875000D01*
X124977397Y-63935001D02*
X125421999Y-63935001D01*
X123037398Y-65875000D02*
X124977397Y-63935001D01*
X126630601Y-63935001D02*
X125421999Y-63935001D01*
X125421999Y-63935001D02*
X125053397Y-63935001D01*
X110744000Y-59971000D02*
X110744000Y-60975000D01*
X110744000Y-57786000D02*
X110744000Y-59971000D01*
X110363000Y-57405000D02*
X110744000Y-57786000D01*
X110363000Y-56817500D02*
X110363000Y-57405000D01*
D27*
X135726000Y-4077000D02*
X137176000Y-5527000D01*
X135726000Y-2615000D02*
X135726000Y-4077000D01*
X135726000Y-2615000D02*
X135726000Y-1815000D01*
X140626000Y-1788942D02*
X140626000Y-2615000D01*
X139716548Y-879490D02*
X140626000Y-1788942D01*
X136661510Y-879490D02*
X139716548Y-879490D01*
X135726000Y-1815000D02*
X136661510Y-879490D01*
X136435499Y-8176548D02*
X136465808Y-8206857D01*
X136435499Y-6948501D02*
X136435499Y-8176548D01*
X137176000Y-5527000D02*
X137176000Y-6208000D01*
X137176000Y-6208000D02*
X136435499Y-6948501D01*
X139886192Y-9081808D02*
X139319000Y-9649000D01*
X139886192Y-8206857D02*
X139886192Y-9081808D01*
D26*
X130214469Y-31158531D02*
X128756000Y-32617000D01*
X130214469Y-25534481D02*
X130214469Y-31158531D01*
X137160000Y-18588952D02*
X130214469Y-25534481D01*
X137160000Y-17066500D02*
X137160000Y-18588952D01*
X129540000Y-31833000D02*
X128756000Y-32617000D01*
X120247000Y-41126000D02*
X128756000Y-32617000D01*
X119980001Y-41392999D02*
X120247000Y-41126000D01*
X119980001Y-50513961D02*
X119980001Y-41392999D01*
X119560961Y-50933001D02*
X119980001Y-50513961D01*
X116033255Y-50933001D02*
X116592001Y-50933001D01*
X116592001Y-50933001D02*
X119560961Y-50933001D01*
X108344000Y-52972000D02*
X108344000Y-60975000D01*
X108331000Y-52959000D02*
X108344000Y-52972000D01*
X116592001Y-50933001D02*
X110356999Y-50933001D01*
X110356999Y-50933001D02*
X108331000Y-52959000D01*
X129077034Y-32938033D02*
X129077033Y-32938033D01*
X129455065Y-32560001D02*
X129077033Y-32938033D01*
X130668479Y-31346588D02*
X129077034Y-32938033D01*
X139192000Y-17066500D02*
X139192000Y-17907000D01*
X139192000Y-17907000D02*
X138833846Y-18265154D01*
X138833846Y-18265154D02*
X138125863Y-18265155D01*
X130668479Y-25722538D02*
X130668479Y-31346588D01*
X138125863Y-18265155D02*
X130668479Y-25722538D01*
X120434011Y-41581055D02*
X120568033Y-41447033D01*
X129077033Y-32938033D02*
X120568033Y-41447033D01*
X119749018Y-51387011D02*
X120434011Y-50702018D01*
X120434011Y-50702018D02*
X120434011Y-41581055D01*
X116221311Y-51387011D02*
X116887989Y-51387011D01*
X116887989Y-51387011D02*
X119749018Y-51387011D01*
X109144000Y-52788066D02*
X109144000Y-60975000D01*
X116887989Y-51387011D02*
X110545055Y-51387011D01*
X110545055Y-51387011D02*
X109144000Y-52788066D01*
X154013000Y-66977500D02*
X154813000Y-66977500D01*
X148445500Y-66977500D02*
X154013000Y-66977500D01*
X147533000Y-67890000D02*
X148445500Y-66977500D01*
X146379000Y-67890000D02*
X147533000Y-67890000D01*
X146305434Y-67890000D02*
X145506717Y-67091283D01*
X146379000Y-67890000D02*
X146305434Y-67890000D01*
X145506717Y-67091283D02*
X145598434Y-67183000D01*
X117448000Y-63475000D02*
X116444000Y-63475000D01*
X117935010Y-62987990D02*
X117448000Y-63475000D01*
X145506717Y-67091283D02*
X143185434Y-64770000D01*
X133604000Y-58420000D02*
X124521678Y-58420000D01*
X139954000Y-64770000D02*
X133604000Y-58420000D01*
X124521678Y-58420000D02*
X119953688Y-62987990D01*
X143185434Y-64770000D02*
X139954000Y-64770000D01*
X119953688Y-62987990D02*
X117935010Y-62987990D01*
X106744000Y-74310500D02*
X106982500Y-74549000D01*
X106744000Y-72375000D02*
X106744000Y-74310500D01*
X134874000Y-4826000D02*
X135255000Y-5207000D01*
X134874000Y-4064000D02*
X134874000Y-4826000D01*
X136926000Y-3701411D02*
X136699000Y-3928411D01*
X136926000Y-2615000D02*
X136926000Y-3701411D01*
X139926000Y-2615000D02*
X139926000Y-3718276D01*
X139926000Y-3718276D02*
X140105894Y-3898170D01*
X142142566Y-4620934D02*
X141478000Y-5285500D01*
X142142566Y-3994809D02*
X142142566Y-4620934D01*
X137922000Y-6731000D02*
X137226000Y-7427000D01*
X137922000Y-4900332D02*
X137922000Y-6731000D01*
X138426000Y-4396332D02*
X137922000Y-4900332D01*
X138426000Y-2615000D02*
X138426000Y-4396332D01*
X137426000Y-4404332D02*
X137922000Y-4900332D01*
X137426000Y-2615000D02*
X137426000Y-4404332D01*
X137176000Y-7427000D02*
X137226000Y-7427000D01*
X137176000Y-7427000D02*
X137176000Y-7877250D01*
X137176000Y-7877250D02*
X137670833Y-8372083D01*
X137668000Y-14683500D02*
X137160000Y-15191500D01*
X137668000Y-13843000D02*
X137668000Y-14683500D01*
X137926000Y-1636000D02*
X138165000Y-1397000D01*
X137926000Y-2615000D02*
X137926000Y-1636000D01*
X138926000Y-1636000D02*
X138926000Y-2615000D01*
X138687000Y-1397000D02*
X138926000Y-1636000D01*
X138165000Y-1397000D02*
X138687000Y-1397000D01*
X139126000Y-7427000D02*
X139176000Y-7427000D01*
X138498999Y-6799999D02*
X139126000Y-7427000D01*
X138498999Y-4965399D02*
X138498999Y-6799999D01*
X138926000Y-4538398D02*
X138498999Y-4965399D01*
X138926000Y-2615000D02*
X138926000Y-4538398D01*
X139176000Y-7427000D02*
X139131000Y-7427000D01*
X139176000Y-7427000D02*
X139176000Y-8017000D01*
X139176000Y-8017000D02*
X138811000Y-8382000D01*
X138811000Y-14810500D02*
X139192000Y-15191500D01*
X138811000Y-13843000D02*
X138811000Y-14810500D01*
D27*
X133856000Y1299000D02*
X133856000Y-1700000D01*
X133856000Y2480000D02*
X133856000Y1299000D01*
X142496000Y2480000D02*
X142496000Y-1700000D01*
X134737000Y2480000D02*
X142496000Y2480000D01*
X133856000Y2480000D02*
X134737000Y2480000D01*
D28*
G36*
X128892300Y-68440300D02*
G01*
X125609047Y-68440300D01*
X125508500Y-68420300D01*
X125327138Y-68420300D01*
X125226591Y-68440300D01*
X124345700Y-68440300D01*
X124345700Y-67274463D01*
X124670781Y-67274463D01*
X124670781Y-67639250D01*
X124685518Y-67788878D01*
X124729163Y-67932756D01*
X124800039Y-68065355D01*
X124895421Y-68181579D01*
X125011645Y-68276961D01*
X125144244Y-68347837D01*
X125288122Y-68391482D01*
X125437750Y-68406219D01*
X125925250Y-68406219D01*
X126074878Y-68391482D01*
X126218756Y-68347837D01*
X126351355Y-68276961D01*
X126467579Y-68181579D01*
X126562961Y-68065355D01*
X126633837Y-67932756D01*
X126677482Y-67788878D01*
X126692219Y-67639250D01*
X126692219Y-66726750D01*
X126677482Y-66577122D01*
X126633837Y-66433244D01*
X126562961Y-66300645D01*
X126558129Y-66294757D01*
X126569227Y-66291391D01*
X126659685Y-66243041D01*
X126738972Y-66177972D01*
X126804041Y-66098685D01*
X126852391Y-66008227D01*
X126882165Y-65910075D01*
X126892219Y-65808000D01*
X126892219Y-64529581D01*
X126992184Y-64476149D01*
X127090809Y-64395209D01*
X127111088Y-64370499D01*
X127350368Y-64131219D01*
X128069000Y-64131219D01*
X128171075Y-64121165D01*
X128269227Y-64091391D01*
X128359685Y-64043041D01*
X128438972Y-63977972D01*
X128504041Y-63898685D01*
X128552391Y-63808227D01*
X128582165Y-63710075D01*
X128592219Y-63608000D01*
X128592219Y-62208000D01*
X128582165Y-62105925D01*
X128552391Y-62007773D01*
X128504041Y-61917315D01*
X128438972Y-61838028D01*
X128378210Y-61788162D01*
X128437961Y-61715355D01*
X128508837Y-61582756D01*
X128552482Y-61438878D01*
X128567219Y-61289250D01*
X128567219Y-60376750D01*
X128552482Y-60227122D01*
X128508837Y-60083244D01*
X128437961Y-59950645D01*
X128342579Y-59834421D01*
X128226355Y-59739039D01*
X128093756Y-59668163D01*
X127949878Y-59624518D01*
X127800250Y-59609781D01*
X127312750Y-59609781D01*
X127163122Y-59624518D01*
X127019244Y-59668163D01*
X126886645Y-59739039D01*
X126770421Y-59834421D01*
X126675039Y-59950645D01*
X126604163Y-60083244D01*
X126560518Y-60227122D01*
X126545781Y-60376750D01*
X126545781Y-61289250D01*
X126560518Y-61438878D01*
X126604163Y-61582756D01*
X126675039Y-61715355D01*
X126679871Y-61721243D01*
X126668773Y-61724609D01*
X126578315Y-61772959D01*
X126499028Y-61838028D01*
X126433959Y-61917315D01*
X126385609Y-62007773D01*
X126355835Y-62105925D01*
X126345781Y-62208000D01*
X126345781Y-63287301D01*
X125009198Y-63287301D01*
X124977397Y-63284169D01*
X124945596Y-63287301D01*
X124945588Y-63287301D01*
X124861471Y-63295586D01*
X124850425Y-63296674D01*
X124728334Y-63333710D01*
X124615814Y-63393853D01*
X124615812Y-63393854D01*
X124615813Y-63393854D01*
X124548439Y-63449147D01*
X124517189Y-63474793D01*
X124496914Y-63499498D01*
X124345700Y-63650712D01*
X124345700Y-59511964D01*
X124535964Y-59321700D01*
X128892300Y-59321700D01*
X128892300Y-68440300D01*
X128892300Y-68440300D01*
G37*
X128892300Y-68440300D02*
X125609047Y-68440300D01*
X125508500Y-68420300D01*
X125327138Y-68420300D01*
X125226591Y-68440300D01*
X124345700Y-68440300D01*
X124345700Y-67274463D01*
X124670781Y-67274463D01*
X124670781Y-67639250D01*
X124685518Y-67788878D01*
X124729163Y-67932756D01*
X124800039Y-68065355D01*
X124895421Y-68181579D01*
X125011645Y-68276961D01*
X125144244Y-68347837D01*
X125288122Y-68391482D01*
X125437750Y-68406219D01*
X125925250Y-68406219D01*
X126074878Y-68391482D01*
X126218756Y-68347837D01*
X126351355Y-68276961D01*
X126467579Y-68181579D01*
X126562961Y-68065355D01*
X126633837Y-67932756D01*
X126677482Y-67788878D01*
X126692219Y-67639250D01*
X126692219Y-66726750D01*
X126677482Y-66577122D01*
X126633837Y-66433244D01*
X126562961Y-66300645D01*
X126558129Y-66294757D01*
X126569227Y-66291391D01*
X126659685Y-66243041D01*
X126738972Y-66177972D01*
X126804041Y-66098685D01*
X126852391Y-66008227D01*
X126882165Y-65910075D01*
X126892219Y-65808000D01*
X126892219Y-64529581D01*
X126992184Y-64476149D01*
X127090809Y-64395209D01*
X127111088Y-64370499D01*
X127350368Y-64131219D01*
X128069000Y-64131219D01*
X128171075Y-64121165D01*
X128269227Y-64091391D01*
X128359685Y-64043041D01*
X128438972Y-63977972D01*
X128504041Y-63898685D01*
X128552391Y-63808227D01*
X128582165Y-63710075D01*
X128592219Y-63608000D01*
X128592219Y-62208000D01*
X128582165Y-62105925D01*
X128552391Y-62007773D01*
X128504041Y-61917315D01*
X128438972Y-61838028D01*
X128378210Y-61788162D01*
X128437961Y-61715355D01*
X128508837Y-61582756D01*
X128552482Y-61438878D01*
X128567219Y-61289250D01*
X128567219Y-60376750D01*
X128552482Y-60227122D01*
X128508837Y-60083244D01*
X128437961Y-59950645D01*
X128342579Y-59834421D01*
X128226355Y-59739039D01*
X128093756Y-59668163D01*
X127949878Y-59624518D01*
X127800250Y-59609781D01*
X127312750Y-59609781D01*
X127163122Y-59624518D01*
X127019244Y-59668163D01*
X126886645Y-59739039D01*
X126770421Y-59834421D01*
X126675039Y-59950645D01*
X126604163Y-60083244D01*
X126560518Y-60227122D01*
X126545781Y-60376750D01*
X126545781Y-61289250D01*
X126560518Y-61438878D01*
X126604163Y-61582756D01*
X126675039Y-61715355D01*
X126679871Y-61721243D01*
X126668773Y-61724609D01*
X126578315Y-61772959D01*
X126499028Y-61838028D01*
X126433959Y-61917315D01*
X126385609Y-62007773D01*
X126355835Y-62105925D01*
X126345781Y-62208000D01*
X126345781Y-63287301D01*
X125009198Y-63287301D01*
X124977397Y-63284169D01*
X124945596Y-63287301D01*
X124945588Y-63287301D01*
X124861471Y-63295586D01*
X124850425Y-63296674D01*
X124728334Y-63333710D01*
X124615814Y-63393853D01*
X124615812Y-63393854D01*
X124615813Y-63393854D01*
X124548439Y-63449147D01*
X124517189Y-63474793D01*
X124496914Y-63499498D01*
X124345700Y-63650712D01*
X124345700Y-59511964D01*
X124535964Y-59321700D01*
X128892300Y-59321700D01*
X128892300Y-68440300D01*
D26*
G36*
X110017815Y-62176185D02*
G01*
X110114506Y-62255537D01*
X110137667Y-62267917D01*
X110229750Y-62360000D01*
X110343337Y-62350454D01*
X110344518Y-62350812D01*
X110469000Y-62363072D01*
X111019000Y-62363072D01*
X111143482Y-62350812D01*
X111144000Y-62350655D01*
X111144518Y-62350812D01*
X111269000Y-62363072D01*
X111819000Y-62363072D01*
X111943482Y-62350812D01*
X111944000Y-62350655D01*
X111944518Y-62350812D01*
X112069000Y-62363072D01*
X112619000Y-62363072D01*
X112743482Y-62350812D01*
X112744000Y-62350655D01*
X112744518Y-62350812D01*
X112869000Y-62363072D01*
X113419000Y-62363072D01*
X113543482Y-62350812D01*
X113544000Y-62350655D01*
X113544518Y-62350812D01*
X113669000Y-62363072D01*
X114219000Y-62363072D01*
X114343482Y-62350812D01*
X114344000Y-62350655D01*
X114344518Y-62350812D01*
X114469000Y-62363072D01*
X115019000Y-62363072D01*
X115059962Y-62359038D01*
X115055928Y-62400000D01*
X115055928Y-62950000D01*
X115068188Y-63074482D01*
X115068345Y-63075000D01*
X115068188Y-63075518D01*
X115055928Y-63200000D01*
X115055928Y-63750000D01*
X115068188Y-63874482D01*
X115068345Y-63875000D01*
X115068188Y-63875518D01*
X115055928Y-64000000D01*
X115055928Y-64550000D01*
X115068188Y-64674482D01*
X115068546Y-64675663D01*
X115059000Y-64789250D01*
X115151083Y-64881333D01*
X115163463Y-64904494D01*
X115242815Y-65001185D01*
X115316000Y-65061246D01*
X115316000Y-65088754D01*
X115242815Y-65148815D01*
X115163463Y-65245506D01*
X115151083Y-65268667D01*
X115059000Y-65360750D01*
X115068546Y-65474337D01*
X115068188Y-65475518D01*
X115055928Y-65600000D01*
X115055928Y-66150000D01*
X115068188Y-66274482D01*
X115068345Y-66275000D01*
X115068188Y-66275518D01*
X115055928Y-66400000D01*
X115055928Y-66950000D01*
X115068188Y-67074482D01*
X115068345Y-67075000D01*
X115068188Y-67075518D01*
X115055928Y-67200000D01*
X115055928Y-67750000D01*
X115068188Y-67874482D01*
X115068345Y-67875000D01*
X115068188Y-67875518D01*
X115055928Y-68000000D01*
X115055928Y-68550000D01*
X115068188Y-68674482D01*
X115068345Y-68675000D01*
X115068188Y-68675518D01*
X115055928Y-68800000D01*
X115055928Y-69350000D01*
X115068188Y-69474482D01*
X115068345Y-69475000D01*
X115068188Y-69475518D01*
X115055928Y-69600000D01*
X115055928Y-70150000D01*
X115068188Y-70274482D01*
X115068345Y-70275000D01*
X115068188Y-70275518D01*
X115055928Y-70400000D01*
X115055928Y-70950000D01*
X115060119Y-70992552D01*
X115029750Y-70990000D01*
X114871000Y-71148750D01*
X114871000Y-71247000D01*
X114730246Y-71247000D01*
X114670185Y-71173815D01*
X114573494Y-71094463D01*
X114550333Y-71082083D01*
X114458250Y-70990000D01*
X114344663Y-70999546D01*
X114343482Y-70999188D01*
X114219000Y-70986928D01*
X113669000Y-70986928D01*
X113544518Y-70999188D01*
X113544000Y-70999345D01*
X113543482Y-70999188D01*
X113419000Y-70986928D01*
X112869000Y-70986928D01*
X112744518Y-70999188D01*
X112744000Y-70999345D01*
X112743482Y-70999188D01*
X112619000Y-70986928D01*
X112069000Y-70986928D01*
X111944518Y-70999188D01*
X111944000Y-70999345D01*
X111943482Y-70999188D01*
X111819000Y-70986928D01*
X111269000Y-70986928D01*
X111144518Y-70999188D01*
X111144000Y-70999345D01*
X111143482Y-70999188D01*
X111019000Y-70986928D01*
X110469000Y-70986928D01*
X110344518Y-70999188D01*
X110344000Y-70999345D01*
X110343482Y-70999188D01*
X110219000Y-70986928D01*
X109669000Y-70986928D01*
X109544518Y-70999188D01*
X109544000Y-70999345D01*
X109543482Y-70999188D01*
X109419000Y-70986928D01*
X108869000Y-70986928D01*
X108744518Y-70999188D01*
X108744000Y-70999345D01*
X108743482Y-70999188D01*
X108619000Y-70986928D01*
X108069000Y-70986928D01*
X107944518Y-70999188D01*
X107944000Y-70999345D01*
X107943482Y-70999188D01*
X107819000Y-70986928D01*
X107269000Y-70986928D01*
X107144518Y-70999188D01*
X107144000Y-70999345D01*
X107143482Y-70999188D01*
X107019000Y-70986928D01*
X106469000Y-70986928D01*
X106428038Y-70990962D01*
X106432072Y-70950000D01*
X106432072Y-70400000D01*
X106419812Y-70275518D01*
X106419454Y-70274337D01*
X106429000Y-70160750D01*
X106336917Y-70068667D01*
X106324537Y-70045506D01*
X106245185Y-69948815D01*
X106172000Y-69888754D01*
X106172000Y-69861246D01*
X106245185Y-69801185D01*
X106324537Y-69704494D01*
X106336917Y-69681333D01*
X106429000Y-69589250D01*
X106419454Y-69475663D01*
X106419812Y-69474482D01*
X106432072Y-69350000D01*
X106432072Y-68800000D01*
X106419812Y-68675518D01*
X106419655Y-68675000D01*
X106419812Y-68674482D01*
X106432072Y-68550000D01*
X106432072Y-68000000D01*
X106419812Y-67875518D01*
X106419655Y-67875000D01*
X106419812Y-67874482D01*
X106432072Y-67750000D01*
X106432072Y-67200000D01*
X106419812Y-67075518D01*
X106419655Y-67075000D01*
X106419812Y-67074482D01*
X106432072Y-66950000D01*
X106432072Y-66400000D01*
X106419812Y-66275518D01*
X106419655Y-66275000D01*
X106419812Y-66274482D01*
X106432072Y-66150000D01*
X106432072Y-65600000D01*
X106419812Y-65475518D01*
X106419655Y-65475000D01*
X106419812Y-65474482D01*
X106432072Y-65350000D01*
X106432072Y-64800000D01*
X106419812Y-64675518D01*
X106419655Y-64675000D01*
X106419812Y-64674482D01*
X106432072Y-64550000D01*
X106432072Y-64000000D01*
X106419812Y-63875518D01*
X106419454Y-63874337D01*
X106429000Y-63760750D01*
X106336917Y-63668667D01*
X106324537Y-63645506D01*
X106245185Y-63548815D01*
X106172000Y-63488754D01*
X106172000Y-63461246D01*
X106245185Y-63401185D01*
X106324537Y-63304494D01*
X106336917Y-63281333D01*
X106429000Y-63189250D01*
X106419454Y-63075663D01*
X106419812Y-63074482D01*
X106432072Y-62950000D01*
X106432072Y-62400000D01*
X106428038Y-62359038D01*
X106469000Y-62363072D01*
X107019000Y-62363072D01*
X107143482Y-62350812D01*
X107144000Y-62350655D01*
X107144518Y-62350812D01*
X107269000Y-62363072D01*
X107819000Y-62363072D01*
X107943482Y-62350812D01*
X107944000Y-62350655D01*
X107944518Y-62350812D01*
X108069000Y-62363072D01*
X108619000Y-62363072D01*
X108743482Y-62350812D01*
X108744000Y-62350655D01*
X108744518Y-62350812D01*
X108869000Y-62363072D01*
X109419000Y-62363072D01*
X109543482Y-62350812D01*
X109544663Y-62350454D01*
X109658250Y-62360000D01*
X109750333Y-62267917D01*
X109773494Y-62255537D01*
X109870185Y-62176185D01*
X109930246Y-62103000D01*
X109957754Y-62103000D01*
X110017815Y-62176185D01*
X110017815Y-62176185D01*
G37*
X110017815Y-62176185D02*
X110114506Y-62255537D01*
X110137667Y-62267917D01*
X110229750Y-62360000D01*
X110343337Y-62350454D01*
X110344518Y-62350812D01*
X110469000Y-62363072D01*
X111019000Y-62363072D01*
X111143482Y-62350812D01*
X111144000Y-62350655D01*
X111144518Y-62350812D01*
X111269000Y-62363072D01*
X111819000Y-62363072D01*
X111943482Y-62350812D01*
X111944000Y-62350655D01*
X111944518Y-62350812D01*
X112069000Y-62363072D01*
X112619000Y-62363072D01*
X112743482Y-62350812D01*
X112744000Y-62350655D01*
X112744518Y-62350812D01*
X112869000Y-62363072D01*
X113419000Y-62363072D01*
X113543482Y-62350812D01*
X113544000Y-62350655D01*
X113544518Y-62350812D01*
X113669000Y-62363072D01*
X114219000Y-62363072D01*
X114343482Y-62350812D01*
X114344000Y-62350655D01*
X114344518Y-62350812D01*
X114469000Y-62363072D01*
X115019000Y-62363072D01*
X115059962Y-62359038D01*
X115055928Y-62400000D01*
X115055928Y-62950000D01*
X115068188Y-63074482D01*
X115068345Y-63075000D01*
X115068188Y-63075518D01*
X115055928Y-63200000D01*
X115055928Y-63750000D01*
X115068188Y-63874482D01*
X115068345Y-63875000D01*
X115068188Y-63875518D01*
X115055928Y-64000000D01*
X115055928Y-64550000D01*
X115068188Y-64674482D01*
X115068546Y-64675663D01*
X115059000Y-64789250D01*
X115151083Y-64881333D01*
X115163463Y-64904494D01*
X115242815Y-65001185D01*
X115316000Y-65061246D01*
X115316000Y-65088754D01*
X115242815Y-65148815D01*
X115163463Y-65245506D01*
X115151083Y-65268667D01*
X115059000Y-65360750D01*
X115068546Y-65474337D01*
X115068188Y-65475518D01*
X115055928Y-65600000D01*
X115055928Y-66150000D01*
X115068188Y-66274482D01*
X115068345Y-66275000D01*
X115068188Y-66275518D01*
X115055928Y-66400000D01*
X115055928Y-66950000D01*
X115068188Y-67074482D01*
X115068345Y-67075000D01*
X115068188Y-67075518D01*
X115055928Y-67200000D01*
X115055928Y-67750000D01*
X115068188Y-67874482D01*
X115068345Y-67875000D01*
X115068188Y-67875518D01*
X115055928Y-68000000D01*
X115055928Y-68550000D01*
X115068188Y-68674482D01*
X115068345Y-68675000D01*
X115068188Y-68675518D01*
X115055928Y-68800000D01*
X115055928Y-69350000D01*
X115068188Y-69474482D01*
X115068345Y-69475000D01*
X115068188Y-69475518D01*
X115055928Y-69600000D01*
X115055928Y-70150000D01*
X115068188Y-70274482D01*
X115068345Y-70275000D01*
X115068188Y-70275518D01*
X115055928Y-70400000D01*
X115055928Y-70950000D01*
X115060119Y-70992552D01*
X115029750Y-70990000D01*
X114871000Y-71148750D01*
X114871000Y-71247000D01*
X114730246Y-71247000D01*
X114670185Y-71173815D01*
X114573494Y-71094463D01*
X114550333Y-71082083D01*
X114458250Y-70990000D01*
X114344663Y-70999546D01*
X114343482Y-70999188D01*
X114219000Y-70986928D01*
X113669000Y-70986928D01*
X113544518Y-70999188D01*
X113544000Y-70999345D01*
X113543482Y-70999188D01*
X113419000Y-70986928D01*
X112869000Y-70986928D01*
X112744518Y-70999188D01*
X112744000Y-70999345D01*
X112743482Y-70999188D01*
X112619000Y-70986928D01*
X112069000Y-70986928D01*
X111944518Y-70999188D01*
X111944000Y-70999345D01*
X111943482Y-70999188D01*
X111819000Y-70986928D01*
X111269000Y-70986928D01*
X111144518Y-70999188D01*
X111144000Y-70999345D01*
X111143482Y-70999188D01*
X111019000Y-70986928D01*
X110469000Y-70986928D01*
X110344518Y-70999188D01*
X110344000Y-70999345D01*
X110343482Y-70999188D01*
X110219000Y-70986928D01*
X109669000Y-70986928D01*
X109544518Y-70999188D01*
X109544000Y-70999345D01*
X109543482Y-70999188D01*
X109419000Y-70986928D01*
X108869000Y-70986928D01*
X108744518Y-70999188D01*
X108744000Y-70999345D01*
X108743482Y-70999188D01*
X108619000Y-70986928D01*
X108069000Y-70986928D01*
X107944518Y-70999188D01*
X107944000Y-70999345D01*
X107943482Y-70999188D01*
X107819000Y-70986928D01*
X107269000Y-70986928D01*
X107144518Y-70999188D01*
X107144000Y-70999345D01*
X107143482Y-70999188D01*
X107019000Y-70986928D01*
X106469000Y-70986928D01*
X106428038Y-70990962D01*
X106432072Y-70950000D01*
X106432072Y-70400000D01*
X106419812Y-70275518D01*
X106419454Y-70274337D01*
X106429000Y-70160750D01*
X106336917Y-70068667D01*
X106324537Y-70045506D01*
X106245185Y-69948815D01*
X106172000Y-69888754D01*
X106172000Y-69861246D01*
X106245185Y-69801185D01*
X106324537Y-69704494D01*
X106336917Y-69681333D01*
X106429000Y-69589250D01*
X106419454Y-69475663D01*
X106419812Y-69474482D01*
X106432072Y-69350000D01*
X106432072Y-68800000D01*
X106419812Y-68675518D01*
X106419655Y-68675000D01*
X106419812Y-68674482D01*
X106432072Y-68550000D01*
X106432072Y-68000000D01*
X106419812Y-67875518D01*
X106419655Y-67875000D01*
X106419812Y-67874482D01*
X106432072Y-67750000D01*
X106432072Y-67200000D01*
X106419812Y-67075518D01*
X106419655Y-67075000D01*
X106419812Y-67074482D01*
X106432072Y-66950000D01*
X106432072Y-66400000D01*
X106419812Y-66275518D01*
X106419655Y-66275000D01*
X106419812Y-66274482D01*
X106432072Y-66150000D01*
X106432072Y-65600000D01*
X106419812Y-65475518D01*
X106419655Y-65475000D01*
X106419812Y-65474482D01*
X106432072Y-65350000D01*
X106432072Y-64800000D01*
X106419812Y-64675518D01*
X106419655Y-64675000D01*
X106419812Y-64674482D01*
X106432072Y-64550000D01*
X106432072Y-64000000D01*
X106419812Y-63875518D01*
X106419454Y-63874337D01*
X106429000Y-63760750D01*
X106336917Y-63668667D01*
X106324537Y-63645506D01*
X106245185Y-63548815D01*
X106172000Y-63488754D01*
X106172000Y-63461246D01*
X106245185Y-63401185D01*
X106324537Y-63304494D01*
X106336917Y-63281333D01*
X106429000Y-63189250D01*
X106419454Y-63075663D01*
X106419812Y-63074482D01*
X106432072Y-62950000D01*
X106432072Y-62400000D01*
X106428038Y-62359038D01*
X106469000Y-62363072D01*
X107019000Y-62363072D01*
X107143482Y-62350812D01*
X107144000Y-62350655D01*
X107144518Y-62350812D01*
X107269000Y-62363072D01*
X107819000Y-62363072D01*
X107943482Y-62350812D01*
X107944000Y-62350655D01*
X107944518Y-62350812D01*
X108069000Y-62363072D01*
X108619000Y-62363072D01*
X108743482Y-62350812D01*
X108744000Y-62350655D01*
X108744518Y-62350812D01*
X108869000Y-62363072D01*
X109419000Y-62363072D01*
X109543482Y-62350812D01*
X109544663Y-62350454D01*
X109658250Y-62360000D01*
X109750333Y-62267917D01*
X109773494Y-62255537D01*
X109870185Y-62176185D01*
X109930246Y-62103000D01*
X109957754Y-62103000D01*
X110017815Y-62176185D01*
M02*
