G04 #@! TF.GenerationSoftware,KiCad,Pcbnew,(5.1.4)-1*
G04 #@! TF.CreationDate,2020-11-15T13:42:54-06:00*
G04 #@! TF.ProjectId,minim,6d696e69-6d2e-46b6-9963-61645f706362,rev?*
G04 #@! TF.SameCoordinates,Original*
G04 #@! TF.FileFunction,Legend,Bot*
G04 #@! TF.FilePolarity,Positive*
%FSLAX46Y46*%
G04 Gerber Fmt 4.6, Leading zero omitted, Abs format (unit mm)*
G04 Created by KiCad (PCBNEW (5.1.4)-1) date 2020-11-15 13:42:54*
%MOMM*%
%LPD*%
G04 APERTURE LIST*
%ADD10C,0.120000*%
%ADD11C,0.150000*%
%ADD12R,1.200000X0.900000*%
%ADD13C,0.100000*%
%ADD14C,0.975000*%
%ADD15R,0.600000X1.450000*%
%ADD16R,0.300000X1.450000*%
%ADD17C,0.650000*%
%ADD18O,1.000000X2.100000*%
%ADD19O,1.000000X1.600000*%
%ADD20R,0.700000X1.000000*%
%ADD21R,0.700000X0.600000*%
%ADD22C,1.250000*%
%ADD23R,1.200000X1.400000*%
%ADD24R,1.500000X0.550000*%
%ADD25R,0.550000X1.500000*%
%ADD26R,1.800000X1.100000*%
%ADD27C,1.750000*%
%ADD28C,2.250000*%
%ADD29C,3.987800*%
%ADD30C,3.048000*%
G04 APERTURE END LIST*
D10*
X23733000Y-12664000D02*
X21733000Y-12664000D01*
X21733000Y-12664000D02*
X21733000Y-8764000D01*
X23733000Y-12664000D02*
X23733000Y-8764000D01*
X114121000Y-56138578D02*
X114121000Y-55621422D01*
X112701000Y-56138578D02*
X112701000Y-55621422D01*
X120217000Y-63123578D02*
X120217000Y-62606422D01*
X118797000Y-63123578D02*
X118797000Y-62606422D01*
D11*
X137526000Y-5027000D02*
X137526000Y-7927000D01*
X137526000Y-5027000D02*
X138826000Y-5027000D01*
X138826000Y-5027000D02*
X138826000Y-7927000D01*
X138826000Y-7927000D02*
X137526000Y-7927000D01*
D10*
X138482000Y-16387578D02*
X138482000Y-15870422D01*
X139902000Y-16387578D02*
X139902000Y-15870422D01*
X136450000Y-16387578D02*
X136450000Y-15870422D01*
X137870000Y-16387578D02*
X137870000Y-15870422D01*
X142188000Y-6481578D02*
X142188000Y-5964422D01*
X140768000Y-6481578D02*
X140768000Y-5964422D01*
X135965000Y-6403078D02*
X135965000Y-5885922D01*
X134545000Y-6403078D02*
X134545000Y-5885922D01*
X140229000Y-11651064D02*
X140229000Y-10446936D01*
X138409000Y-11651064D02*
X138409000Y-10446936D01*
X124969000Y-66008000D02*
X124969000Y-62008000D01*
X128269000Y-66008000D02*
X124969000Y-66008000D01*
D11*
X106144000Y-61500000D02*
X106144000Y-60225000D01*
X105569000Y-71850000D02*
X105569000Y-71175000D01*
X115919000Y-71850000D02*
X115919000Y-71175000D01*
X115919000Y-61500000D02*
X115919000Y-62175000D01*
X105569000Y-61500000D02*
X105569000Y-62175000D01*
X115919000Y-61500000D02*
X115244000Y-61500000D01*
X115919000Y-71850000D02*
X115244000Y-71850000D01*
X105569000Y-71850000D02*
X106244000Y-71850000D01*
X105569000Y-61500000D02*
X106144000Y-61500000D01*
X150479000Y-66040000D02*
G75*
G03X150479000Y-66040000I-1000000J0D01*
G01*
X146879000Y-63440000D02*
X146879000Y-68640000D01*
X152079000Y-63440000D02*
X146879000Y-63440000D01*
X152079000Y-68640000D02*
X152079000Y-63440000D01*
X146879000Y-68640000D02*
X152079000Y-68640000D01*
D10*
X105786422Y-75259000D02*
X106303578Y-75259000D01*
X105786422Y-73839000D02*
X106303578Y-73839000D01*
X155523000Y-65781422D02*
X155523000Y-66298578D01*
X154103000Y-65781422D02*
X154103000Y-66298578D01*
X106167422Y-58114000D02*
X106684578Y-58114000D01*
X106167422Y-56694000D02*
X106684578Y-56694000D01*
X111073000Y-56138578D02*
X111073000Y-55621422D01*
X109653000Y-56138578D02*
X109653000Y-55621422D01*
X126877578Y-60123000D02*
X126360422Y-60123000D01*
X126877578Y-61543000D02*
X126360422Y-61543000D01*
X126360422Y-66473000D02*
X126877578Y-66473000D01*
X126360422Y-67893000D02*
X126877578Y-67893000D01*
X103453000Y-62098422D02*
X103453000Y-62615578D01*
X102033000Y-62098422D02*
X102033000Y-62615578D01*
X102033000Y-70362578D02*
X102033000Y-69845422D01*
X103453000Y-70362578D02*
X103453000Y-69845422D01*
X115184422Y-73839000D02*
X115701578Y-73839000D01*
X115184422Y-75259000D02*
X115701578Y-75259000D01*
X42862500Y-12656000D02*
X40862500Y-12656000D01*
X40862500Y-12656000D02*
X40862500Y-8756000D01*
X42862500Y-12656000D02*
X42862500Y-8756000D01*
X61912500Y-12656000D02*
X59912500Y-12656000D01*
X59912500Y-12656000D02*
X59912500Y-8756000D01*
X61912500Y-12656000D02*
X61912500Y-8756000D01*
X80962500Y-12656000D02*
X78962500Y-12656000D01*
X78962500Y-12656000D02*
X78962500Y-8756000D01*
X80962500Y-12656000D02*
X80962500Y-8756000D01*
X100012500Y-12656000D02*
X98012500Y-12656000D01*
X98012500Y-12656000D02*
X98012500Y-8756000D01*
X100012500Y-12656000D02*
X100012500Y-8756000D01*
X119062500Y-12656000D02*
X117062500Y-12656000D01*
X117062500Y-12656000D02*
X117062500Y-8756000D01*
X119062500Y-12656000D02*
X119062500Y-8756000D01*
X137906000Y-13299000D02*
X135906000Y-13299000D01*
X135906000Y-13299000D02*
X135906000Y-9399000D01*
X137906000Y-13299000D02*
X137906000Y-9399000D01*
X157162500Y-12656000D02*
X155162500Y-12656000D01*
X155162500Y-12656000D02*
X155162500Y-8756000D01*
X157162500Y-12656000D02*
X157162500Y-8756000D01*
X176212500Y-12656000D02*
X174212500Y-12656000D01*
X174212500Y-12656000D02*
X174212500Y-8756000D01*
X176212500Y-12656000D02*
X176212500Y-8756000D01*
X195262500Y-12656000D02*
X193262500Y-12656000D01*
X193262500Y-12656000D02*
X193262500Y-8756000D01*
X195262500Y-12656000D02*
X195262500Y-8756000D01*
X214312500Y-12656000D02*
X212312500Y-12656000D01*
X212312500Y-12656000D02*
X212312500Y-8756000D01*
X214312500Y-12656000D02*
X214312500Y-8756000D01*
X233362500Y-12656000D02*
X231362500Y-12656000D01*
X231362500Y-12656000D02*
X231362500Y-8756000D01*
X233362500Y-12656000D02*
X233362500Y-8756000D01*
X252412500Y-12656000D02*
X250412500Y-12656000D01*
X250412500Y-12656000D02*
X250412500Y-8756000D01*
X252412500Y-12656000D02*
X252412500Y-8756000D01*
X274050000Y-12656000D02*
X272050000Y-12656000D01*
X272050000Y-12656000D02*
X272050000Y-8756000D01*
X274050000Y-12656000D02*
X274050000Y-8756000D01*
X33337500Y-31706000D02*
X31337500Y-31706000D01*
X31337500Y-31706000D02*
X31337500Y-27806000D01*
X33337500Y-31706000D02*
X33337500Y-27806000D01*
X52387500Y-31706000D02*
X50387500Y-31706000D01*
X50387500Y-31706000D02*
X50387500Y-27806000D01*
X52387500Y-31706000D02*
X52387500Y-27806000D01*
X71437500Y-31706000D02*
X69437500Y-31706000D01*
X69437500Y-31706000D02*
X69437500Y-27806000D01*
X71437500Y-31706000D02*
X71437500Y-27806000D01*
X90487500Y-31706000D02*
X88487500Y-31706000D01*
X88487500Y-31706000D02*
X88487500Y-27806000D01*
X90487500Y-31706000D02*
X90487500Y-27806000D01*
X109537500Y-31706000D02*
X107537500Y-31706000D01*
X107537500Y-31706000D02*
X107537500Y-27806000D01*
X109537500Y-31706000D02*
X109537500Y-27806000D01*
X128587500Y-31706000D02*
X126587500Y-31706000D01*
X126587500Y-31706000D02*
X126587500Y-27806000D01*
X128587500Y-31706000D02*
X128587500Y-27806000D01*
X147637500Y-31706000D02*
X145637500Y-31706000D01*
X145637500Y-31706000D02*
X145637500Y-27806000D01*
X147637500Y-31706000D02*
X147637500Y-27806000D01*
X166687500Y-31706000D02*
X164687500Y-31706000D01*
X164687500Y-31706000D02*
X164687500Y-27806000D01*
X166687500Y-31706000D02*
X166687500Y-27806000D01*
X185737500Y-31706000D02*
X183737500Y-31706000D01*
X183737500Y-31706000D02*
X183737500Y-27806000D01*
X185737500Y-31706000D02*
X185737500Y-27806000D01*
X204787500Y-31706000D02*
X202787500Y-31706000D01*
X202787500Y-31706000D02*
X202787500Y-27806000D01*
X204787500Y-31706000D02*
X204787500Y-27806000D01*
X223837500Y-31706000D02*
X221837500Y-31706000D01*
X221837500Y-31706000D02*
X221837500Y-27806000D01*
X223837500Y-31706000D02*
X223837500Y-27806000D01*
X242887500Y-31706000D02*
X240887500Y-31706000D01*
X240887500Y-31706000D02*
X240887500Y-27806000D01*
X242887500Y-31706000D02*
X242887500Y-27806000D01*
X274050000Y-31706000D02*
X272050000Y-31706000D01*
X272050000Y-31706000D02*
X272050000Y-27806000D01*
X274050000Y-31706000D02*
X274050000Y-27806000D01*
X42862500Y-50756000D02*
X40862500Y-50756000D01*
X40862500Y-50756000D02*
X40862500Y-46856000D01*
X42862500Y-50756000D02*
X42862500Y-46856000D01*
X61912500Y-50756000D02*
X59912500Y-50756000D01*
X59912500Y-50756000D02*
X59912500Y-46856000D01*
X61912500Y-50756000D02*
X61912500Y-46856000D01*
X80962500Y-50756000D02*
X78962500Y-50756000D01*
X78962500Y-50756000D02*
X78962500Y-46856000D01*
X80962500Y-50756000D02*
X80962500Y-46856000D01*
X100012500Y-50756000D02*
X98012500Y-50756000D01*
X98012500Y-50756000D02*
X98012500Y-46856000D01*
X100012500Y-50756000D02*
X100012500Y-46856000D01*
X119062500Y-50756000D02*
X117062500Y-50756000D01*
X117062500Y-50756000D02*
X117062500Y-46856000D01*
X119062500Y-50756000D02*
X119062500Y-46856000D01*
X138112500Y-50756000D02*
X136112500Y-50756000D01*
X136112500Y-50756000D02*
X136112500Y-46856000D01*
X138112500Y-50756000D02*
X138112500Y-46856000D01*
X157162500Y-50756000D02*
X155162500Y-50756000D01*
X155162500Y-50756000D02*
X155162500Y-46856000D01*
X157162500Y-50756000D02*
X157162500Y-46856000D01*
X176212500Y-50756000D02*
X174212500Y-50756000D01*
X174212500Y-50756000D02*
X174212500Y-46856000D01*
X176212500Y-50756000D02*
X176212500Y-46856000D01*
X195262500Y-50756000D02*
X193262500Y-50756000D01*
X193262500Y-50756000D02*
X193262500Y-46856000D01*
X195262500Y-50756000D02*
X195262500Y-46856000D01*
X214312500Y-50756000D02*
X212312500Y-50756000D01*
X212312500Y-50756000D02*
X212312500Y-46856000D01*
X214312500Y-50756000D02*
X214312500Y-46856000D01*
X233362500Y-50756000D02*
X231362500Y-50756000D01*
X231362500Y-50756000D02*
X231362500Y-46856000D01*
X233362500Y-50756000D02*
X233362500Y-46856000D01*
X274050000Y-50764000D02*
X272050000Y-50764000D01*
X272050000Y-50764000D02*
X272050000Y-46864000D01*
X274050000Y-50764000D02*
X274050000Y-46864000D01*
X47625000Y-69933000D02*
X47625000Y-66033000D01*
X45625000Y-69933000D02*
X45625000Y-66033000D01*
X47625000Y-69933000D02*
X45625000Y-69933000D01*
X71437500Y-69933000D02*
X71437500Y-66033000D01*
X69437500Y-69933000D02*
X69437500Y-66033000D01*
X71437500Y-69933000D02*
X69437500Y-69933000D01*
X100060000Y-69941000D02*
X100060000Y-66041000D01*
X98060000Y-69941000D02*
X98060000Y-66041000D01*
X100060000Y-69941000D02*
X98060000Y-69941000D01*
X166354000Y-69941000D02*
X164354000Y-69941000D01*
X164354000Y-69941000D02*
X164354000Y-66041000D01*
X166354000Y-69941000D02*
X166354000Y-66041000D01*
X204660500Y-69933000D02*
X202660500Y-69933000D01*
X202660500Y-69933000D02*
X202660500Y-66033000D01*
X204660500Y-69933000D02*
X204660500Y-66033000D01*
X228473000Y-69933000D02*
X228473000Y-66033000D01*
X226473000Y-69933000D02*
X226473000Y-66033000D01*
X228473000Y-69933000D02*
X226473000Y-69933000D01*
X246745000Y-69933000D02*
X244745000Y-69933000D01*
X244745000Y-69933000D02*
X244745000Y-66033000D01*
X246745000Y-69933000D02*
X246745000Y-66033000D01*
D11*
X25185380Y-9294952D02*
X24185380Y-9294952D01*
X24185380Y-9533047D01*
X24233000Y-9675904D01*
X24328238Y-9771142D01*
X24423476Y-9818761D01*
X24613952Y-9866380D01*
X24756809Y-9866380D01*
X24947285Y-9818761D01*
X25042523Y-9771142D01*
X25137761Y-9675904D01*
X25185380Y-9533047D01*
X25185380Y-9294952D01*
X25280619Y-10056857D02*
X25280619Y-10818761D01*
X25185380Y-11580666D02*
X25185380Y-11009238D01*
X25185380Y-11294952D02*
X24185380Y-11294952D01*
X24328238Y-11199714D01*
X24423476Y-11104476D01*
X24471095Y-11009238D01*
X113577666Y-53824142D02*
X113625285Y-53871761D01*
X113768142Y-53919380D01*
X113863380Y-53919380D01*
X114006238Y-53871761D01*
X114101476Y-53776523D01*
X114149095Y-53681285D01*
X114196714Y-53490809D01*
X114196714Y-53347952D01*
X114149095Y-53157476D01*
X114101476Y-53062238D01*
X114006238Y-52967000D01*
X113863380Y-52919380D01*
X113768142Y-52919380D01*
X113625285Y-52967000D01*
X113577666Y-53014619D01*
X113244333Y-52919380D02*
X112577666Y-52919380D01*
X113006238Y-53919380D01*
X121514142Y-62698333D02*
X121561761Y-62650714D01*
X121609380Y-62507857D01*
X121609380Y-62412619D01*
X121561761Y-62269761D01*
X121466523Y-62174523D01*
X121371285Y-62126904D01*
X121180809Y-62079285D01*
X121037952Y-62079285D01*
X120847476Y-62126904D01*
X120752238Y-62174523D01*
X120657000Y-62269761D01*
X120609380Y-62412619D01*
X120609380Y-62507857D01*
X120657000Y-62650714D01*
X120704619Y-62698333D01*
X120609380Y-63555476D02*
X120609380Y-63365000D01*
X120657000Y-63269761D01*
X120704619Y-63222142D01*
X120847476Y-63126904D01*
X121037952Y-63079285D01*
X121418904Y-63079285D01*
X121514142Y-63126904D01*
X121561761Y-63174523D01*
X121609380Y-63269761D01*
X121609380Y-63460238D01*
X121561761Y-63555476D01*
X121514142Y-63603095D01*
X121418904Y-63650714D01*
X121180809Y-63650714D01*
X121085571Y-63603095D01*
X121037952Y-63555476D01*
X120990333Y-63460238D01*
X120990333Y-63269761D01*
X121037952Y-63174523D01*
X121085571Y-63126904D01*
X121180809Y-63079285D01*
X139914095Y-3622380D02*
X139914095Y-4431904D01*
X139866476Y-4527142D01*
X139818857Y-4574761D01*
X139723619Y-4622380D01*
X139533142Y-4622380D01*
X139437904Y-4574761D01*
X139390285Y-4527142D01*
X139342666Y-4431904D01*
X139342666Y-3622380D01*
X138914095Y-4574761D02*
X138771238Y-4622380D01*
X138533142Y-4622380D01*
X138437904Y-4574761D01*
X138390285Y-4527142D01*
X138342666Y-4431904D01*
X138342666Y-4336666D01*
X138390285Y-4241428D01*
X138437904Y-4193809D01*
X138533142Y-4146190D01*
X138723619Y-4098571D01*
X138818857Y-4050952D01*
X138866476Y-4003333D01*
X138914095Y-3908095D01*
X138914095Y-3812857D01*
X138866476Y-3717619D01*
X138818857Y-3670000D01*
X138723619Y-3622380D01*
X138485523Y-3622380D01*
X138342666Y-3670000D01*
X137580761Y-4098571D02*
X137437904Y-4146190D01*
X137390285Y-4193809D01*
X137342666Y-4289047D01*
X137342666Y-4431904D01*
X137390285Y-4527142D01*
X137437904Y-4574761D01*
X137533142Y-4622380D01*
X137914095Y-4622380D01*
X137914095Y-3622380D01*
X137580761Y-3622380D01*
X137485523Y-3670000D01*
X137437904Y-3717619D01*
X137390285Y-3812857D01*
X137390285Y-3908095D01*
X137437904Y-4003333D01*
X137485523Y-4050952D01*
X137580761Y-4098571D01*
X137914095Y-4098571D01*
X136390285Y-4622380D02*
X136961714Y-4622380D01*
X136676000Y-4622380D02*
X136676000Y-3622380D01*
X136771238Y-3765238D01*
X136866476Y-3860476D01*
X136961714Y-3908095D01*
X138937904Y-8088380D02*
X138937904Y-8897904D01*
X138890285Y-8993142D01*
X138842666Y-9040761D01*
X138747428Y-9088380D01*
X138556952Y-9088380D01*
X138461714Y-9040761D01*
X138414095Y-8993142D01*
X138366476Y-8897904D01*
X138366476Y-8088380D01*
X137937904Y-8183619D02*
X137890285Y-8136000D01*
X137795047Y-8088380D01*
X137556952Y-8088380D01*
X137461714Y-8136000D01*
X137414095Y-8183619D01*
X137366476Y-8278857D01*
X137366476Y-8374095D01*
X137414095Y-8516952D01*
X137985523Y-9088380D01*
X137366476Y-9088380D01*
X141294380Y-15962333D02*
X140818190Y-15629000D01*
X141294380Y-15390904D02*
X140294380Y-15390904D01*
X140294380Y-15771857D01*
X140342000Y-15867095D01*
X140389619Y-15914714D01*
X140484857Y-15962333D01*
X140627714Y-15962333D01*
X140722952Y-15914714D01*
X140770571Y-15867095D01*
X140818190Y-15771857D01*
X140818190Y-15390904D01*
X140294380Y-16295666D02*
X140294380Y-16914714D01*
X140675333Y-16581380D01*
X140675333Y-16724238D01*
X140722952Y-16819476D01*
X140770571Y-16867095D01*
X140865809Y-16914714D01*
X141103904Y-16914714D01*
X141199142Y-16867095D01*
X141246761Y-16819476D01*
X141294380Y-16724238D01*
X141294380Y-16438523D01*
X141246761Y-16343285D01*
X141199142Y-16295666D01*
X135961380Y-15962333D02*
X135485190Y-15629000D01*
X135961380Y-15390904D02*
X134961380Y-15390904D01*
X134961380Y-15771857D01*
X135009000Y-15867095D01*
X135056619Y-15914714D01*
X135151857Y-15962333D01*
X135294714Y-15962333D01*
X135389952Y-15914714D01*
X135437571Y-15867095D01*
X135485190Y-15771857D01*
X135485190Y-15390904D01*
X135056619Y-16343285D02*
X135009000Y-16390904D01*
X134961380Y-16486142D01*
X134961380Y-16724238D01*
X135009000Y-16819476D01*
X135056619Y-16867095D01*
X135151857Y-16914714D01*
X135247095Y-16914714D01*
X135389952Y-16867095D01*
X135961380Y-16295666D01*
X135961380Y-16914714D01*
X141263666Y-9088380D02*
X141597000Y-8612190D01*
X141835095Y-9088380D02*
X141835095Y-8088380D01*
X141454142Y-8088380D01*
X141358904Y-8136000D01*
X141311285Y-8183619D01*
X141263666Y-8278857D01*
X141263666Y-8421714D01*
X141311285Y-8516952D01*
X141358904Y-8564571D01*
X141454142Y-8612190D01*
X141835095Y-8612190D01*
X140406523Y-8088380D02*
X140597000Y-8088380D01*
X140692238Y-8136000D01*
X140739857Y-8183619D01*
X140835095Y-8326476D01*
X140882714Y-8516952D01*
X140882714Y-8897904D01*
X140835095Y-8993142D01*
X140787476Y-9040761D01*
X140692238Y-9088380D01*
X140501761Y-9088380D01*
X140406523Y-9040761D01*
X140358904Y-8993142D01*
X140311285Y-8897904D01*
X140311285Y-8659809D01*
X140358904Y-8564571D01*
X140406523Y-8516952D01*
X140501761Y-8469333D01*
X140692238Y-8469333D01*
X140787476Y-8516952D01*
X140835095Y-8564571D01*
X140882714Y-8659809D01*
X135421666Y-9088380D02*
X135755000Y-8612190D01*
X135993095Y-9088380D02*
X135993095Y-8088380D01*
X135612142Y-8088380D01*
X135516904Y-8136000D01*
X135469285Y-8183619D01*
X135421666Y-8278857D01*
X135421666Y-8421714D01*
X135469285Y-8516952D01*
X135516904Y-8564571D01*
X135612142Y-8612190D01*
X135993095Y-8612190D01*
X134516904Y-8088380D02*
X134993095Y-8088380D01*
X135040714Y-8564571D01*
X134993095Y-8516952D01*
X134897857Y-8469333D01*
X134659761Y-8469333D01*
X134564523Y-8516952D01*
X134516904Y-8564571D01*
X134469285Y-8659809D01*
X134469285Y-8897904D01*
X134516904Y-8993142D01*
X134564523Y-9040761D01*
X134659761Y-9088380D01*
X134897857Y-9088380D01*
X134993095Y-9040761D01*
X135040714Y-8993142D01*
X141067571Y-10715666D02*
X141067571Y-10382333D01*
X141591380Y-10382333D02*
X140591380Y-10382333D01*
X140591380Y-10858523D01*
X141591380Y-11763285D02*
X141591380Y-11191857D01*
X141591380Y-11477571D02*
X140591380Y-11477571D01*
X140734238Y-11382333D01*
X140829476Y-11287095D01*
X140877095Y-11191857D01*
X129643190Y-63658809D02*
X130119380Y-63658809D01*
X129119380Y-63325476D02*
X129643190Y-63658809D01*
X129119380Y-63992142D01*
X130119380Y-64849285D02*
X130119380Y-64277857D01*
X130119380Y-64563571D02*
X129119380Y-64563571D01*
X129262238Y-64468333D01*
X129357476Y-64373095D01*
X129405095Y-64277857D01*
X102830380Y-65151095D02*
X103639904Y-65151095D01*
X103735142Y-65198714D01*
X103782761Y-65246333D01*
X103830380Y-65341571D01*
X103830380Y-65532047D01*
X103782761Y-65627285D01*
X103735142Y-65674904D01*
X103639904Y-65722523D01*
X102830380Y-65722523D01*
X103830380Y-66722523D02*
X103830380Y-66151095D01*
X103830380Y-66436809D02*
X102830380Y-66436809D01*
X102973238Y-66341571D01*
X103068476Y-66246333D01*
X103116095Y-66151095D01*
X150812333Y-62380761D02*
X150669476Y-62428380D01*
X150431380Y-62428380D01*
X150336142Y-62380761D01*
X150288523Y-62333142D01*
X150240904Y-62237904D01*
X150240904Y-62142666D01*
X150288523Y-62047428D01*
X150336142Y-61999809D01*
X150431380Y-61952190D01*
X150621857Y-61904571D01*
X150717095Y-61856952D01*
X150764714Y-61809333D01*
X150812333Y-61714095D01*
X150812333Y-61618857D01*
X150764714Y-61523619D01*
X150717095Y-61476000D01*
X150621857Y-61428380D01*
X150383761Y-61428380D01*
X150240904Y-61476000D01*
X149907571Y-61428380D02*
X149669476Y-62428380D01*
X149479000Y-61714095D01*
X149288523Y-62428380D01*
X149050428Y-61428380D01*
X148145666Y-62428380D02*
X148717095Y-62428380D01*
X148431380Y-62428380D02*
X148431380Y-61428380D01*
X148526619Y-61571238D01*
X148621857Y-61666476D01*
X148717095Y-61714095D01*
X108910380Y-74382333D02*
X108434190Y-74049000D01*
X108910380Y-73810904D02*
X107910380Y-73810904D01*
X107910380Y-74191857D01*
X107958000Y-74287095D01*
X108005619Y-74334714D01*
X108100857Y-74382333D01*
X108243714Y-74382333D01*
X108338952Y-74334714D01*
X108386571Y-74287095D01*
X108434190Y-74191857D01*
X108434190Y-73810904D01*
X108243714Y-75239476D02*
X108910380Y-75239476D01*
X107862761Y-75001380D02*
X108577047Y-74763285D01*
X108577047Y-75382333D01*
X153615380Y-65873333D02*
X153139190Y-65540000D01*
X153615380Y-65301904D02*
X152615380Y-65301904D01*
X152615380Y-65682857D01*
X152663000Y-65778095D01*
X152710619Y-65825714D01*
X152805857Y-65873333D01*
X152948714Y-65873333D01*
X153043952Y-65825714D01*
X153091571Y-65778095D01*
X153139190Y-65682857D01*
X153139190Y-65301904D01*
X153615380Y-66825714D02*
X153615380Y-66254285D01*
X153615380Y-66540000D02*
X152615380Y-66540000D01*
X152758238Y-66444761D01*
X152853476Y-66349523D01*
X152901095Y-66254285D01*
X106592666Y-56110142D02*
X106640285Y-56157761D01*
X106783142Y-56205380D01*
X106878380Y-56205380D01*
X107021238Y-56157761D01*
X107116476Y-56062523D01*
X107164095Y-55967285D01*
X107211714Y-55776809D01*
X107211714Y-55633952D01*
X107164095Y-55443476D01*
X107116476Y-55348238D01*
X107021238Y-55253000D01*
X106878380Y-55205380D01*
X106783142Y-55205380D01*
X106640285Y-55253000D01*
X106592666Y-55300619D01*
X106021238Y-55633952D02*
X106116476Y-55586333D01*
X106164095Y-55538714D01*
X106211714Y-55443476D01*
X106211714Y-55395857D01*
X106164095Y-55300619D01*
X106116476Y-55253000D01*
X106021238Y-55205380D01*
X105830761Y-55205380D01*
X105735523Y-55253000D01*
X105687904Y-55300619D01*
X105640285Y-55395857D01*
X105640285Y-55443476D01*
X105687904Y-55538714D01*
X105735523Y-55586333D01*
X105830761Y-55633952D01*
X106021238Y-55633952D01*
X106116476Y-55681571D01*
X106164095Y-55729190D01*
X106211714Y-55824428D01*
X106211714Y-56014904D01*
X106164095Y-56110142D01*
X106116476Y-56157761D01*
X106021238Y-56205380D01*
X105830761Y-56205380D01*
X105735523Y-56157761D01*
X105687904Y-56110142D01*
X105640285Y-56014904D01*
X105640285Y-55824428D01*
X105687904Y-55729190D01*
X105735523Y-55681571D01*
X105830761Y-55633952D01*
X110529666Y-53824142D02*
X110577285Y-53871761D01*
X110720142Y-53919380D01*
X110815380Y-53919380D01*
X110958238Y-53871761D01*
X111053476Y-53776523D01*
X111101095Y-53681285D01*
X111148714Y-53490809D01*
X111148714Y-53347952D01*
X111101095Y-53157476D01*
X111053476Y-53062238D01*
X110958238Y-52967000D01*
X110815380Y-52919380D01*
X110720142Y-52919380D01*
X110577285Y-52967000D01*
X110529666Y-53014619D01*
X110053476Y-53919380D02*
X109863000Y-53919380D01*
X109767761Y-53871761D01*
X109720142Y-53824142D01*
X109624904Y-53681285D01*
X109577285Y-53490809D01*
X109577285Y-53109857D01*
X109624904Y-53014619D01*
X109672523Y-52967000D01*
X109767761Y-52919380D01*
X109958238Y-52919380D01*
X110053476Y-52967000D01*
X110101095Y-53014619D01*
X110148714Y-53109857D01*
X110148714Y-53347952D01*
X110101095Y-53443190D01*
X110053476Y-53490809D01*
X109958238Y-53538428D01*
X109767761Y-53538428D01*
X109672523Y-53490809D01*
X109624904Y-53443190D01*
X109577285Y-53347952D01*
X126785666Y-59031142D02*
X126833285Y-59078761D01*
X126976142Y-59126380D01*
X127071380Y-59126380D01*
X127214238Y-59078761D01*
X127309476Y-58983523D01*
X127357095Y-58888285D01*
X127404714Y-58697809D01*
X127404714Y-58554952D01*
X127357095Y-58364476D01*
X127309476Y-58269238D01*
X127214238Y-58174000D01*
X127071380Y-58126380D01*
X126976142Y-58126380D01*
X126833285Y-58174000D01*
X126785666Y-58221619D01*
X126404714Y-58221619D02*
X126357095Y-58174000D01*
X126261857Y-58126380D01*
X126023761Y-58126380D01*
X125928523Y-58174000D01*
X125880904Y-58221619D01*
X125833285Y-58316857D01*
X125833285Y-58412095D01*
X125880904Y-58554952D01*
X126452333Y-59126380D01*
X125833285Y-59126380D01*
X126658666Y-69572142D02*
X126706285Y-69619761D01*
X126849142Y-69667380D01*
X126944380Y-69667380D01*
X127087238Y-69619761D01*
X127182476Y-69524523D01*
X127230095Y-69429285D01*
X127277714Y-69238809D01*
X127277714Y-69095952D01*
X127230095Y-68905476D01*
X127182476Y-68810238D01*
X127087238Y-68715000D01*
X126944380Y-68667380D01*
X126849142Y-68667380D01*
X126706285Y-68715000D01*
X126658666Y-68762619D01*
X125706285Y-69667380D02*
X126277714Y-69667380D01*
X125992000Y-69667380D02*
X125992000Y-68667380D01*
X126087238Y-68810238D01*
X126182476Y-68905476D01*
X126277714Y-68953095D01*
X101450142Y-62190333D02*
X101497761Y-62142714D01*
X101545380Y-61999857D01*
X101545380Y-61904619D01*
X101497761Y-61761761D01*
X101402523Y-61666523D01*
X101307285Y-61618904D01*
X101116809Y-61571285D01*
X100973952Y-61571285D01*
X100783476Y-61618904D01*
X100688238Y-61666523D01*
X100593000Y-61761761D01*
X100545380Y-61904619D01*
X100545380Y-61999857D01*
X100593000Y-62142714D01*
X100640619Y-62190333D01*
X100545380Y-63095095D02*
X100545380Y-62618904D01*
X101021571Y-62571285D01*
X100973952Y-62618904D01*
X100926333Y-62714142D01*
X100926333Y-62952238D01*
X100973952Y-63047476D01*
X101021571Y-63095095D01*
X101116809Y-63142714D01*
X101354904Y-63142714D01*
X101450142Y-63095095D01*
X101497761Y-63047476D01*
X101545380Y-62952238D01*
X101545380Y-62714142D01*
X101497761Y-62618904D01*
X101450142Y-62571285D01*
X102909666Y-68048142D02*
X102957285Y-68095761D01*
X103100142Y-68143380D01*
X103195380Y-68143380D01*
X103338238Y-68095761D01*
X103433476Y-68000523D01*
X103481095Y-67905285D01*
X103528714Y-67714809D01*
X103528714Y-67571952D01*
X103481095Y-67381476D01*
X103433476Y-67286238D01*
X103338238Y-67191000D01*
X103195380Y-67143380D01*
X103100142Y-67143380D01*
X102957285Y-67191000D01*
X102909666Y-67238619D01*
X102052523Y-67476714D02*
X102052523Y-68143380D01*
X102290619Y-67095761D02*
X102528714Y-67810047D01*
X101909666Y-67810047D01*
X113514142Y-74382333D02*
X113561761Y-74334714D01*
X113609380Y-74191857D01*
X113609380Y-74096619D01*
X113561761Y-73953761D01*
X113466523Y-73858523D01*
X113371285Y-73810904D01*
X113180809Y-73763285D01*
X113037952Y-73763285D01*
X112847476Y-73810904D01*
X112752238Y-73858523D01*
X112657000Y-73953761D01*
X112609380Y-74096619D01*
X112609380Y-74191857D01*
X112657000Y-74334714D01*
X112704619Y-74382333D01*
X112609380Y-74715666D02*
X112609380Y-75334714D01*
X112990333Y-75001380D01*
X112990333Y-75144238D01*
X113037952Y-75239476D01*
X113085571Y-75287095D01*
X113180809Y-75334714D01*
X113418904Y-75334714D01*
X113514142Y-75287095D01*
X113561761Y-75239476D01*
X113609380Y-75144238D01*
X113609380Y-74858523D01*
X113561761Y-74763285D01*
X113514142Y-74715666D01*
X44314880Y-9286952D02*
X43314880Y-9286952D01*
X43314880Y-9525047D01*
X43362500Y-9667904D01*
X43457738Y-9763142D01*
X43552976Y-9810761D01*
X43743452Y-9858380D01*
X43886309Y-9858380D01*
X44076785Y-9810761D01*
X44172023Y-9763142D01*
X44267261Y-9667904D01*
X44314880Y-9525047D01*
X44314880Y-9286952D01*
X44410119Y-10048857D02*
X44410119Y-10810761D01*
X43410119Y-11001238D02*
X43362500Y-11048857D01*
X43314880Y-11144095D01*
X43314880Y-11382190D01*
X43362500Y-11477428D01*
X43410119Y-11525047D01*
X43505357Y-11572666D01*
X43600595Y-11572666D01*
X43743452Y-11525047D01*
X44314880Y-10953619D01*
X44314880Y-11572666D01*
X63364880Y-9286952D02*
X62364880Y-9286952D01*
X62364880Y-9525047D01*
X62412500Y-9667904D01*
X62507738Y-9763142D01*
X62602976Y-9810761D01*
X62793452Y-9858380D01*
X62936309Y-9858380D01*
X63126785Y-9810761D01*
X63222023Y-9763142D01*
X63317261Y-9667904D01*
X63364880Y-9525047D01*
X63364880Y-9286952D01*
X63460119Y-10048857D02*
X63460119Y-10810761D01*
X62364880Y-10953619D02*
X62364880Y-11572666D01*
X62745833Y-11239333D01*
X62745833Y-11382190D01*
X62793452Y-11477428D01*
X62841071Y-11525047D01*
X62936309Y-11572666D01*
X63174404Y-11572666D01*
X63269642Y-11525047D01*
X63317261Y-11477428D01*
X63364880Y-11382190D01*
X63364880Y-11096476D01*
X63317261Y-11001238D01*
X63269642Y-10953619D01*
X82414880Y-9286952D02*
X81414880Y-9286952D01*
X81414880Y-9525047D01*
X81462500Y-9667904D01*
X81557738Y-9763142D01*
X81652976Y-9810761D01*
X81843452Y-9858380D01*
X81986309Y-9858380D01*
X82176785Y-9810761D01*
X82272023Y-9763142D01*
X82367261Y-9667904D01*
X82414880Y-9525047D01*
X82414880Y-9286952D01*
X82510119Y-10048857D02*
X82510119Y-10810761D01*
X81748214Y-11477428D02*
X82414880Y-11477428D01*
X81367261Y-11239333D02*
X82081547Y-11001238D01*
X82081547Y-11620285D01*
X101464880Y-9286952D02*
X100464880Y-9286952D01*
X100464880Y-9525047D01*
X100512500Y-9667904D01*
X100607738Y-9763142D01*
X100702976Y-9810761D01*
X100893452Y-9858380D01*
X101036309Y-9858380D01*
X101226785Y-9810761D01*
X101322023Y-9763142D01*
X101417261Y-9667904D01*
X101464880Y-9525047D01*
X101464880Y-9286952D01*
X101560119Y-10048857D02*
X101560119Y-10810761D01*
X100464880Y-11525047D02*
X100464880Y-11048857D01*
X100941071Y-11001238D01*
X100893452Y-11048857D01*
X100845833Y-11144095D01*
X100845833Y-11382190D01*
X100893452Y-11477428D01*
X100941071Y-11525047D01*
X101036309Y-11572666D01*
X101274404Y-11572666D01*
X101369642Y-11525047D01*
X101417261Y-11477428D01*
X101464880Y-11382190D01*
X101464880Y-11144095D01*
X101417261Y-11048857D01*
X101369642Y-11001238D01*
X120514880Y-9286952D02*
X119514880Y-9286952D01*
X119514880Y-9525047D01*
X119562500Y-9667904D01*
X119657738Y-9763142D01*
X119752976Y-9810761D01*
X119943452Y-9858380D01*
X120086309Y-9858380D01*
X120276785Y-9810761D01*
X120372023Y-9763142D01*
X120467261Y-9667904D01*
X120514880Y-9525047D01*
X120514880Y-9286952D01*
X120610119Y-10048857D02*
X120610119Y-10810761D01*
X119514880Y-11477428D02*
X119514880Y-11286952D01*
X119562500Y-11191714D01*
X119610119Y-11144095D01*
X119752976Y-11048857D01*
X119943452Y-11001238D01*
X120324404Y-11001238D01*
X120419642Y-11048857D01*
X120467261Y-11096476D01*
X120514880Y-11191714D01*
X120514880Y-11382190D01*
X120467261Y-11477428D01*
X120419642Y-11525047D01*
X120324404Y-11572666D01*
X120086309Y-11572666D01*
X119991071Y-11525047D01*
X119943452Y-11477428D01*
X119895833Y-11382190D01*
X119895833Y-11191714D01*
X119943452Y-11096476D01*
X119991071Y-11048857D01*
X120086309Y-11001238D01*
X135453380Y-9929952D02*
X134453380Y-9929952D01*
X134453380Y-10168047D01*
X134501000Y-10310904D01*
X134596238Y-10406142D01*
X134691476Y-10453761D01*
X134881952Y-10501380D01*
X135024809Y-10501380D01*
X135215285Y-10453761D01*
X135310523Y-10406142D01*
X135405761Y-10310904D01*
X135453380Y-10168047D01*
X135453380Y-9929952D01*
X135548619Y-10691857D02*
X135548619Y-11453761D01*
X134453380Y-11596619D02*
X134453380Y-12263285D01*
X135453380Y-11834714D01*
X158614880Y-9286952D02*
X157614880Y-9286952D01*
X157614880Y-9525047D01*
X157662500Y-9667904D01*
X157757738Y-9763142D01*
X157852976Y-9810761D01*
X158043452Y-9858380D01*
X158186309Y-9858380D01*
X158376785Y-9810761D01*
X158472023Y-9763142D01*
X158567261Y-9667904D01*
X158614880Y-9525047D01*
X158614880Y-9286952D01*
X158710119Y-10048857D02*
X158710119Y-10810761D01*
X158043452Y-11191714D02*
X157995833Y-11096476D01*
X157948214Y-11048857D01*
X157852976Y-11001238D01*
X157805357Y-11001238D01*
X157710119Y-11048857D01*
X157662500Y-11096476D01*
X157614880Y-11191714D01*
X157614880Y-11382190D01*
X157662500Y-11477428D01*
X157710119Y-11525047D01*
X157805357Y-11572666D01*
X157852976Y-11572666D01*
X157948214Y-11525047D01*
X157995833Y-11477428D01*
X158043452Y-11382190D01*
X158043452Y-11191714D01*
X158091071Y-11096476D01*
X158138690Y-11048857D01*
X158233928Y-11001238D01*
X158424404Y-11001238D01*
X158519642Y-11048857D01*
X158567261Y-11096476D01*
X158614880Y-11191714D01*
X158614880Y-11382190D01*
X158567261Y-11477428D01*
X158519642Y-11525047D01*
X158424404Y-11572666D01*
X158233928Y-11572666D01*
X158138690Y-11525047D01*
X158091071Y-11477428D01*
X158043452Y-11382190D01*
X177664880Y-9286952D02*
X176664880Y-9286952D01*
X176664880Y-9525047D01*
X176712500Y-9667904D01*
X176807738Y-9763142D01*
X176902976Y-9810761D01*
X177093452Y-9858380D01*
X177236309Y-9858380D01*
X177426785Y-9810761D01*
X177522023Y-9763142D01*
X177617261Y-9667904D01*
X177664880Y-9525047D01*
X177664880Y-9286952D01*
X177760119Y-10048857D02*
X177760119Y-10810761D01*
X177664880Y-11096476D02*
X177664880Y-11286952D01*
X177617261Y-11382190D01*
X177569642Y-11429809D01*
X177426785Y-11525047D01*
X177236309Y-11572666D01*
X176855357Y-11572666D01*
X176760119Y-11525047D01*
X176712500Y-11477428D01*
X176664880Y-11382190D01*
X176664880Y-11191714D01*
X176712500Y-11096476D01*
X176760119Y-11048857D01*
X176855357Y-11001238D01*
X177093452Y-11001238D01*
X177188690Y-11048857D01*
X177236309Y-11096476D01*
X177283928Y-11191714D01*
X177283928Y-11382190D01*
X177236309Y-11477428D01*
X177188690Y-11525047D01*
X177093452Y-11572666D01*
X196714880Y-8810761D02*
X195714880Y-8810761D01*
X195714880Y-9048857D01*
X195762500Y-9191714D01*
X195857738Y-9286952D01*
X195952976Y-9334571D01*
X196143452Y-9382190D01*
X196286309Y-9382190D01*
X196476785Y-9334571D01*
X196572023Y-9286952D01*
X196667261Y-9191714D01*
X196714880Y-9048857D01*
X196714880Y-8810761D01*
X196810119Y-9572666D02*
X196810119Y-10334571D01*
X196714880Y-11096476D02*
X196714880Y-10525047D01*
X196714880Y-10810761D02*
X195714880Y-10810761D01*
X195857738Y-10715523D01*
X195952976Y-10620285D01*
X196000595Y-10525047D01*
X195714880Y-11715523D02*
X195714880Y-11810761D01*
X195762500Y-11906000D01*
X195810119Y-11953619D01*
X195905357Y-12001238D01*
X196095833Y-12048857D01*
X196333928Y-12048857D01*
X196524404Y-12001238D01*
X196619642Y-11953619D01*
X196667261Y-11906000D01*
X196714880Y-11810761D01*
X196714880Y-11715523D01*
X196667261Y-11620285D01*
X196619642Y-11572666D01*
X196524404Y-11525047D01*
X196333928Y-11477428D01*
X196095833Y-11477428D01*
X195905357Y-11525047D01*
X195810119Y-11572666D01*
X195762500Y-11620285D01*
X195714880Y-11715523D01*
X215764880Y-8810761D02*
X214764880Y-8810761D01*
X214764880Y-9048857D01*
X214812500Y-9191714D01*
X214907738Y-9286952D01*
X215002976Y-9334571D01*
X215193452Y-9382190D01*
X215336309Y-9382190D01*
X215526785Y-9334571D01*
X215622023Y-9286952D01*
X215717261Y-9191714D01*
X215764880Y-9048857D01*
X215764880Y-8810761D01*
X215860119Y-9572666D02*
X215860119Y-10334571D01*
X215764880Y-11096476D02*
X215764880Y-10525047D01*
X215764880Y-10810761D02*
X214764880Y-10810761D01*
X214907738Y-10715523D01*
X215002976Y-10620285D01*
X215050595Y-10525047D01*
X215764880Y-12048857D02*
X215764880Y-11477428D01*
X215764880Y-11763142D02*
X214764880Y-11763142D01*
X214907738Y-11667904D01*
X215002976Y-11572666D01*
X215050595Y-11477428D01*
X234814880Y-8810761D02*
X233814880Y-8810761D01*
X233814880Y-9048857D01*
X233862500Y-9191714D01*
X233957738Y-9286952D01*
X234052976Y-9334571D01*
X234243452Y-9382190D01*
X234386309Y-9382190D01*
X234576785Y-9334571D01*
X234672023Y-9286952D01*
X234767261Y-9191714D01*
X234814880Y-9048857D01*
X234814880Y-8810761D01*
X234910119Y-9572666D02*
X234910119Y-10334571D01*
X234814880Y-11096476D02*
X234814880Y-10525047D01*
X234814880Y-10810761D02*
X233814880Y-10810761D01*
X233957738Y-10715523D01*
X234052976Y-10620285D01*
X234100595Y-10525047D01*
X233910119Y-11477428D02*
X233862500Y-11525047D01*
X233814880Y-11620285D01*
X233814880Y-11858380D01*
X233862500Y-11953619D01*
X233910119Y-12001238D01*
X234005357Y-12048857D01*
X234100595Y-12048857D01*
X234243452Y-12001238D01*
X234814880Y-11429809D01*
X234814880Y-12048857D01*
X253864880Y-8810761D02*
X252864880Y-8810761D01*
X252864880Y-9048857D01*
X252912500Y-9191714D01*
X253007738Y-9286952D01*
X253102976Y-9334571D01*
X253293452Y-9382190D01*
X253436309Y-9382190D01*
X253626785Y-9334571D01*
X253722023Y-9286952D01*
X253817261Y-9191714D01*
X253864880Y-9048857D01*
X253864880Y-8810761D01*
X253960119Y-9572666D02*
X253960119Y-10334571D01*
X253864880Y-11096476D02*
X253864880Y-10525047D01*
X253864880Y-10810761D02*
X252864880Y-10810761D01*
X253007738Y-10715523D01*
X253102976Y-10620285D01*
X253150595Y-10525047D01*
X252864880Y-11429809D02*
X252864880Y-12048857D01*
X253245833Y-11715523D01*
X253245833Y-11858380D01*
X253293452Y-11953619D01*
X253341071Y-12001238D01*
X253436309Y-12048857D01*
X253674404Y-12048857D01*
X253769642Y-12001238D01*
X253817261Y-11953619D01*
X253864880Y-11858380D01*
X253864880Y-11572666D01*
X253817261Y-11477428D01*
X253769642Y-11429809D01*
X275502380Y-8810761D02*
X274502380Y-8810761D01*
X274502380Y-9048857D01*
X274550000Y-9191714D01*
X274645238Y-9286952D01*
X274740476Y-9334571D01*
X274930952Y-9382190D01*
X275073809Y-9382190D01*
X275264285Y-9334571D01*
X275359523Y-9286952D01*
X275454761Y-9191714D01*
X275502380Y-9048857D01*
X275502380Y-8810761D01*
X275597619Y-9572666D02*
X275597619Y-10334571D01*
X275502380Y-11096476D02*
X275502380Y-10525047D01*
X275502380Y-10810761D02*
X274502380Y-10810761D01*
X274645238Y-10715523D01*
X274740476Y-10620285D01*
X274788095Y-10525047D01*
X274835714Y-11953619D02*
X275502380Y-11953619D01*
X274454761Y-11715523D02*
X275169047Y-11477428D01*
X275169047Y-12096476D01*
X34789880Y-27860761D02*
X33789880Y-27860761D01*
X33789880Y-28098857D01*
X33837500Y-28241714D01*
X33932738Y-28336952D01*
X34027976Y-28384571D01*
X34218452Y-28432190D01*
X34361309Y-28432190D01*
X34551785Y-28384571D01*
X34647023Y-28336952D01*
X34742261Y-28241714D01*
X34789880Y-28098857D01*
X34789880Y-27860761D01*
X34885119Y-28622666D02*
X34885119Y-29384571D01*
X34789880Y-30146476D02*
X34789880Y-29575047D01*
X34789880Y-29860761D02*
X33789880Y-29860761D01*
X33932738Y-29765523D01*
X34027976Y-29670285D01*
X34075595Y-29575047D01*
X33789880Y-31051238D02*
X33789880Y-30575047D01*
X34266071Y-30527428D01*
X34218452Y-30575047D01*
X34170833Y-30670285D01*
X34170833Y-30908380D01*
X34218452Y-31003619D01*
X34266071Y-31051238D01*
X34361309Y-31098857D01*
X34599404Y-31098857D01*
X34694642Y-31051238D01*
X34742261Y-31003619D01*
X34789880Y-30908380D01*
X34789880Y-30670285D01*
X34742261Y-30575047D01*
X34694642Y-30527428D01*
X53839880Y-27860761D02*
X52839880Y-27860761D01*
X52839880Y-28098857D01*
X52887500Y-28241714D01*
X52982738Y-28336952D01*
X53077976Y-28384571D01*
X53268452Y-28432190D01*
X53411309Y-28432190D01*
X53601785Y-28384571D01*
X53697023Y-28336952D01*
X53792261Y-28241714D01*
X53839880Y-28098857D01*
X53839880Y-27860761D01*
X53935119Y-28622666D02*
X53935119Y-29384571D01*
X53839880Y-30146476D02*
X53839880Y-29575047D01*
X53839880Y-29860761D02*
X52839880Y-29860761D01*
X52982738Y-29765523D01*
X53077976Y-29670285D01*
X53125595Y-29575047D01*
X52839880Y-31003619D02*
X52839880Y-30813142D01*
X52887500Y-30717904D01*
X52935119Y-30670285D01*
X53077976Y-30575047D01*
X53268452Y-30527428D01*
X53649404Y-30527428D01*
X53744642Y-30575047D01*
X53792261Y-30622666D01*
X53839880Y-30717904D01*
X53839880Y-30908380D01*
X53792261Y-31003619D01*
X53744642Y-31051238D01*
X53649404Y-31098857D01*
X53411309Y-31098857D01*
X53316071Y-31051238D01*
X53268452Y-31003619D01*
X53220833Y-30908380D01*
X53220833Y-30717904D01*
X53268452Y-30622666D01*
X53316071Y-30575047D01*
X53411309Y-30527428D01*
X72889880Y-27860761D02*
X71889880Y-27860761D01*
X71889880Y-28098857D01*
X71937500Y-28241714D01*
X72032738Y-28336952D01*
X72127976Y-28384571D01*
X72318452Y-28432190D01*
X72461309Y-28432190D01*
X72651785Y-28384571D01*
X72747023Y-28336952D01*
X72842261Y-28241714D01*
X72889880Y-28098857D01*
X72889880Y-27860761D01*
X72985119Y-28622666D02*
X72985119Y-29384571D01*
X72889880Y-30146476D02*
X72889880Y-29575047D01*
X72889880Y-29860761D02*
X71889880Y-29860761D01*
X72032738Y-29765523D01*
X72127976Y-29670285D01*
X72175595Y-29575047D01*
X71889880Y-30479809D02*
X71889880Y-31146476D01*
X72889880Y-30717904D01*
X91939880Y-27860761D02*
X90939880Y-27860761D01*
X90939880Y-28098857D01*
X90987500Y-28241714D01*
X91082738Y-28336952D01*
X91177976Y-28384571D01*
X91368452Y-28432190D01*
X91511309Y-28432190D01*
X91701785Y-28384571D01*
X91797023Y-28336952D01*
X91892261Y-28241714D01*
X91939880Y-28098857D01*
X91939880Y-27860761D01*
X92035119Y-28622666D02*
X92035119Y-29384571D01*
X91939880Y-30146476D02*
X91939880Y-29575047D01*
X91939880Y-29860761D02*
X90939880Y-29860761D01*
X91082738Y-29765523D01*
X91177976Y-29670285D01*
X91225595Y-29575047D01*
X91368452Y-30717904D02*
X91320833Y-30622666D01*
X91273214Y-30575047D01*
X91177976Y-30527428D01*
X91130357Y-30527428D01*
X91035119Y-30575047D01*
X90987500Y-30622666D01*
X90939880Y-30717904D01*
X90939880Y-30908380D01*
X90987500Y-31003619D01*
X91035119Y-31051238D01*
X91130357Y-31098857D01*
X91177976Y-31098857D01*
X91273214Y-31051238D01*
X91320833Y-31003619D01*
X91368452Y-30908380D01*
X91368452Y-30717904D01*
X91416071Y-30622666D01*
X91463690Y-30575047D01*
X91558928Y-30527428D01*
X91749404Y-30527428D01*
X91844642Y-30575047D01*
X91892261Y-30622666D01*
X91939880Y-30717904D01*
X91939880Y-30908380D01*
X91892261Y-31003619D01*
X91844642Y-31051238D01*
X91749404Y-31098857D01*
X91558928Y-31098857D01*
X91463690Y-31051238D01*
X91416071Y-31003619D01*
X91368452Y-30908380D01*
X110989880Y-27860761D02*
X109989880Y-27860761D01*
X109989880Y-28098857D01*
X110037500Y-28241714D01*
X110132738Y-28336952D01*
X110227976Y-28384571D01*
X110418452Y-28432190D01*
X110561309Y-28432190D01*
X110751785Y-28384571D01*
X110847023Y-28336952D01*
X110942261Y-28241714D01*
X110989880Y-28098857D01*
X110989880Y-27860761D01*
X111085119Y-28622666D02*
X111085119Y-29384571D01*
X110989880Y-30146476D02*
X110989880Y-29575047D01*
X110989880Y-29860761D02*
X109989880Y-29860761D01*
X110132738Y-29765523D01*
X110227976Y-29670285D01*
X110275595Y-29575047D01*
X110989880Y-30622666D02*
X110989880Y-30813142D01*
X110942261Y-30908380D01*
X110894642Y-30956000D01*
X110751785Y-31051238D01*
X110561309Y-31098857D01*
X110180357Y-31098857D01*
X110085119Y-31051238D01*
X110037500Y-31003619D01*
X109989880Y-30908380D01*
X109989880Y-30717904D01*
X110037500Y-30622666D01*
X110085119Y-30575047D01*
X110180357Y-30527428D01*
X110418452Y-30527428D01*
X110513690Y-30575047D01*
X110561309Y-30622666D01*
X110608928Y-30717904D01*
X110608928Y-30908380D01*
X110561309Y-31003619D01*
X110513690Y-31051238D01*
X110418452Y-31098857D01*
X130039880Y-27860761D02*
X129039880Y-27860761D01*
X129039880Y-28098857D01*
X129087500Y-28241714D01*
X129182738Y-28336952D01*
X129277976Y-28384571D01*
X129468452Y-28432190D01*
X129611309Y-28432190D01*
X129801785Y-28384571D01*
X129897023Y-28336952D01*
X129992261Y-28241714D01*
X130039880Y-28098857D01*
X130039880Y-27860761D01*
X130135119Y-28622666D02*
X130135119Y-29384571D01*
X129135119Y-29575047D02*
X129087500Y-29622666D01*
X129039880Y-29717904D01*
X129039880Y-29956000D01*
X129087500Y-30051238D01*
X129135119Y-30098857D01*
X129230357Y-30146476D01*
X129325595Y-30146476D01*
X129468452Y-30098857D01*
X130039880Y-29527428D01*
X130039880Y-30146476D01*
X129039880Y-30765523D02*
X129039880Y-30860761D01*
X129087500Y-30956000D01*
X129135119Y-31003619D01*
X129230357Y-31051238D01*
X129420833Y-31098857D01*
X129658928Y-31098857D01*
X129849404Y-31051238D01*
X129944642Y-31003619D01*
X129992261Y-30956000D01*
X130039880Y-30860761D01*
X130039880Y-30765523D01*
X129992261Y-30670285D01*
X129944642Y-30622666D01*
X129849404Y-30575047D01*
X129658928Y-30527428D01*
X129420833Y-30527428D01*
X129230357Y-30575047D01*
X129135119Y-30622666D01*
X129087500Y-30670285D01*
X129039880Y-30765523D01*
X149089880Y-27860761D02*
X148089880Y-27860761D01*
X148089880Y-28098857D01*
X148137500Y-28241714D01*
X148232738Y-28336952D01*
X148327976Y-28384571D01*
X148518452Y-28432190D01*
X148661309Y-28432190D01*
X148851785Y-28384571D01*
X148947023Y-28336952D01*
X149042261Y-28241714D01*
X149089880Y-28098857D01*
X149089880Y-27860761D01*
X149185119Y-28622666D02*
X149185119Y-29384571D01*
X148185119Y-29575047D02*
X148137500Y-29622666D01*
X148089880Y-29717904D01*
X148089880Y-29956000D01*
X148137500Y-30051238D01*
X148185119Y-30098857D01*
X148280357Y-30146476D01*
X148375595Y-30146476D01*
X148518452Y-30098857D01*
X149089880Y-29527428D01*
X149089880Y-30146476D01*
X149089880Y-31098857D02*
X149089880Y-30527428D01*
X149089880Y-30813142D02*
X148089880Y-30813142D01*
X148232738Y-30717904D01*
X148327976Y-30622666D01*
X148375595Y-30527428D01*
X168139880Y-27860761D02*
X167139880Y-27860761D01*
X167139880Y-28098857D01*
X167187500Y-28241714D01*
X167282738Y-28336952D01*
X167377976Y-28384571D01*
X167568452Y-28432190D01*
X167711309Y-28432190D01*
X167901785Y-28384571D01*
X167997023Y-28336952D01*
X168092261Y-28241714D01*
X168139880Y-28098857D01*
X168139880Y-27860761D01*
X168235119Y-28622666D02*
X168235119Y-29384571D01*
X167235119Y-29575047D02*
X167187500Y-29622666D01*
X167139880Y-29717904D01*
X167139880Y-29956000D01*
X167187500Y-30051238D01*
X167235119Y-30098857D01*
X167330357Y-30146476D01*
X167425595Y-30146476D01*
X167568452Y-30098857D01*
X168139880Y-29527428D01*
X168139880Y-30146476D01*
X167235119Y-30527428D02*
X167187500Y-30575047D01*
X167139880Y-30670285D01*
X167139880Y-30908380D01*
X167187500Y-31003619D01*
X167235119Y-31051238D01*
X167330357Y-31098857D01*
X167425595Y-31098857D01*
X167568452Y-31051238D01*
X168139880Y-30479809D01*
X168139880Y-31098857D01*
X187189880Y-27860761D02*
X186189880Y-27860761D01*
X186189880Y-28098857D01*
X186237500Y-28241714D01*
X186332738Y-28336952D01*
X186427976Y-28384571D01*
X186618452Y-28432190D01*
X186761309Y-28432190D01*
X186951785Y-28384571D01*
X187047023Y-28336952D01*
X187142261Y-28241714D01*
X187189880Y-28098857D01*
X187189880Y-27860761D01*
X187285119Y-28622666D02*
X187285119Y-29384571D01*
X186285119Y-29575047D02*
X186237500Y-29622666D01*
X186189880Y-29717904D01*
X186189880Y-29956000D01*
X186237500Y-30051238D01*
X186285119Y-30098857D01*
X186380357Y-30146476D01*
X186475595Y-30146476D01*
X186618452Y-30098857D01*
X187189880Y-29527428D01*
X187189880Y-30146476D01*
X186189880Y-30479809D02*
X186189880Y-31098857D01*
X186570833Y-30765523D01*
X186570833Y-30908380D01*
X186618452Y-31003619D01*
X186666071Y-31051238D01*
X186761309Y-31098857D01*
X186999404Y-31098857D01*
X187094642Y-31051238D01*
X187142261Y-31003619D01*
X187189880Y-30908380D01*
X187189880Y-30622666D01*
X187142261Y-30527428D01*
X187094642Y-30479809D01*
X206239880Y-27860761D02*
X205239880Y-27860761D01*
X205239880Y-28098857D01*
X205287500Y-28241714D01*
X205382738Y-28336952D01*
X205477976Y-28384571D01*
X205668452Y-28432190D01*
X205811309Y-28432190D01*
X206001785Y-28384571D01*
X206097023Y-28336952D01*
X206192261Y-28241714D01*
X206239880Y-28098857D01*
X206239880Y-27860761D01*
X206335119Y-28622666D02*
X206335119Y-29384571D01*
X205335119Y-29575047D02*
X205287500Y-29622666D01*
X205239880Y-29717904D01*
X205239880Y-29956000D01*
X205287500Y-30051238D01*
X205335119Y-30098857D01*
X205430357Y-30146476D01*
X205525595Y-30146476D01*
X205668452Y-30098857D01*
X206239880Y-29527428D01*
X206239880Y-30146476D01*
X205573214Y-31003619D02*
X206239880Y-31003619D01*
X205192261Y-30765523D02*
X205906547Y-30527428D01*
X205906547Y-31146476D01*
X225289880Y-27860761D02*
X224289880Y-27860761D01*
X224289880Y-28098857D01*
X224337500Y-28241714D01*
X224432738Y-28336952D01*
X224527976Y-28384571D01*
X224718452Y-28432190D01*
X224861309Y-28432190D01*
X225051785Y-28384571D01*
X225147023Y-28336952D01*
X225242261Y-28241714D01*
X225289880Y-28098857D01*
X225289880Y-27860761D01*
X225385119Y-28622666D02*
X225385119Y-29384571D01*
X224385119Y-29575047D02*
X224337500Y-29622666D01*
X224289880Y-29717904D01*
X224289880Y-29956000D01*
X224337500Y-30051238D01*
X224385119Y-30098857D01*
X224480357Y-30146476D01*
X224575595Y-30146476D01*
X224718452Y-30098857D01*
X225289880Y-29527428D01*
X225289880Y-30146476D01*
X224289880Y-31051238D02*
X224289880Y-30575047D01*
X224766071Y-30527428D01*
X224718452Y-30575047D01*
X224670833Y-30670285D01*
X224670833Y-30908380D01*
X224718452Y-31003619D01*
X224766071Y-31051238D01*
X224861309Y-31098857D01*
X225099404Y-31098857D01*
X225194642Y-31051238D01*
X225242261Y-31003619D01*
X225289880Y-30908380D01*
X225289880Y-30670285D01*
X225242261Y-30575047D01*
X225194642Y-30527428D01*
X244339880Y-27860761D02*
X243339880Y-27860761D01*
X243339880Y-28098857D01*
X243387500Y-28241714D01*
X243482738Y-28336952D01*
X243577976Y-28384571D01*
X243768452Y-28432190D01*
X243911309Y-28432190D01*
X244101785Y-28384571D01*
X244197023Y-28336952D01*
X244292261Y-28241714D01*
X244339880Y-28098857D01*
X244339880Y-27860761D01*
X244435119Y-28622666D02*
X244435119Y-29384571D01*
X243435119Y-29575047D02*
X243387500Y-29622666D01*
X243339880Y-29717904D01*
X243339880Y-29956000D01*
X243387500Y-30051238D01*
X243435119Y-30098857D01*
X243530357Y-30146476D01*
X243625595Y-30146476D01*
X243768452Y-30098857D01*
X244339880Y-29527428D01*
X244339880Y-30146476D01*
X243339880Y-31003619D02*
X243339880Y-30813142D01*
X243387500Y-30717904D01*
X243435119Y-30670285D01*
X243577976Y-30575047D01*
X243768452Y-30527428D01*
X244149404Y-30527428D01*
X244244642Y-30575047D01*
X244292261Y-30622666D01*
X244339880Y-30717904D01*
X244339880Y-30908380D01*
X244292261Y-31003619D01*
X244244642Y-31051238D01*
X244149404Y-31098857D01*
X243911309Y-31098857D01*
X243816071Y-31051238D01*
X243768452Y-31003619D01*
X243720833Y-30908380D01*
X243720833Y-30717904D01*
X243768452Y-30622666D01*
X243816071Y-30575047D01*
X243911309Y-30527428D01*
X275502380Y-27860761D02*
X274502380Y-27860761D01*
X274502380Y-28098857D01*
X274550000Y-28241714D01*
X274645238Y-28336952D01*
X274740476Y-28384571D01*
X274930952Y-28432190D01*
X275073809Y-28432190D01*
X275264285Y-28384571D01*
X275359523Y-28336952D01*
X275454761Y-28241714D01*
X275502380Y-28098857D01*
X275502380Y-27860761D01*
X275597619Y-28622666D02*
X275597619Y-29384571D01*
X274597619Y-29575047D02*
X274550000Y-29622666D01*
X274502380Y-29717904D01*
X274502380Y-29956000D01*
X274550000Y-30051238D01*
X274597619Y-30098857D01*
X274692857Y-30146476D01*
X274788095Y-30146476D01*
X274930952Y-30098857D01*
X275502380Y-29527428D01*
X275502380Y-30146476D01*
X274502380Y-30479809D02*
X274502380Y-31146476D01*
X275502380Y-30717904D01*
X44314880Y-46910761D02*
X43314880Y-46910761D01*
X43314880Y-47148857D01*
X43362500Y-47291714D01*
X43457738Y-47386952D01*
X43552976Y-47434571D01*
X43743452Y-47482190D01*
X43886309Y-47482190D01*
X44076785Y-47434571D01*
X44172023Y-47386952D01*
X44267261Y-47291714D01*
X44314880Y-47148857D01*
X44314880Y-46910761D01*
X44410119Y-47672666D02*
X44410119Y-48434571D01*
X43410119Y-48625047D02*
X43362500Y-48672666D01*
X43314880Y-48767904D01*
X43314880Y-49006000D01*
X43362500Y-49101238D01*
X43410119Y-49148857D01*
X43505357Y-49196476D01*
X43600595Y-49196476D01*
X43743452Y-49148857D01*
X44314880Y-48577428D01*
X44314880Y-49196476D01*
X43743452Y-49767904D02*
X43695833Y-49672666D01*
X43648214Y-49625047D01*
X43552976Y-49577428D01*
X43505357Y-49577428D01*
X43410119Y-49625047D01*
X43362500Y-49672666D01*
X43314880Y-49767904D01*
X43314880Y-49958380D01*
X43362500Y-50053619D01*
X43410119Y-50101238D01*
X43505357Y-50148857D01*
X43552976Y-50148857D01*
X43648214Y-50101238D01*
X43695833Y-50053619D01*
X43743452Y-49958380D01*
X43743452Y-49767904D01*
X43791071Y-49672666D01*
X43838690Y-49625047D01*
X43933928Y-49577428D01*
X44124404Y-49577428D01*
X44219642Y-49625047D01*
X44267261Y-49672666D01*
X44314880Y-49767904D01*
X44314880Y-49958380D01*
X44267261Y-50053619D01*
X44219642Y-50101238D01*
X44124404Y-50148857D01*
X43933928Y-50148857D01*
X43838690Y-50101238D01*
X43791071Y-50053619D01*
X43743452Y-49958380D01*
X63364880Y-46910761D02*
X62364880Y-46910761D01*
X62364880Y-47148857D01*
X62412500Y-47291714D01*
X62507738Y-47386952D01*
X62602976Y-47434571D01*
X62793452Y-47482190D01*
X62936309Y-47482190D01*
X63126785Y-47434571D01*
X63222023Y-47386952D01*
X63317261Y-47291714D01*
X63364880Y-47148857D01*
X63364880Y-46910761D01*
X63460119Y-47672666D02*
X63460119Y-48434571D01*
X62460119Y-48625047D02*
X62412500Y-48672666D01*
X62364880Y-48767904D01*
X62364880Y-49006000D01*
X62412500Y-49101238D01*
X62460119Y-49148857D01*
X62555357Y-49196476D01*
X62650595Y-49196476D01*
X62793452Y-49148857D01*
X63364880Y-48577428D01*
X63364880Y-49196476D01*
X63364880Y-49672666D02*
X63364880Y-49863142D01*
X63317261Y-49958380D01*
X63269642Y-50006000D01*
X63126785Y-50101238D01*
X62936309Y-50148857D01*
X62555357Y-50148857D01*
X62460119Y-50101238D01*
X62412500Y-50053619D01*
X62364880Y-49958380D01*
X62364880Y-49767904D01*
X62412500Y-49672666D01*
X62460119Y-49625047D01*
X62555357Y-49577428D01*
X62793452Y-49577428D01*
X62888690Y-49625047D01*
X62936309Y-49672666D01*
X62983928Y-49767904D01*
X62983928Y-49958380D01*
X62936309Y-50053619D01*
X62888690Y-50101238D01*
X62793452Y-50148857D01*
X82414880Y-46910761D02*
X81414880Y-46910761D01*
X81414880Y-47148857D01*
X81462500Y-47291714D01*
X81557738Y-47386952D01*
X81652976Y-47434571D01*
X81843452Y-47482190D01*
X81986309Y-47482190D01*
X82176785Y-47434571D01*
X82272023Y-47386952D01*
X82367261Y-47291714D01*
X82414880Y-47148857D01*
X82414880Y-46910761D01*
X82510119Y-47672666D02*
X82510119Y-48434571D01*
X81414880Y-48577428D02*
X81414880Y-49196476D01*
X81795833Y-48863142D01*
X81795833Y-49006000D01*
X81843452Y-49101238D01*
X81891071Y-49148857D01*
X81986309Y-49196476D01*
X82224404Y-49196476D01*
X82319642Y-49148857D01*
X82367261Y-49101238D01*
X82414880Y-49006000D01*
X82414880Y-48720285D01*
X82367261Y-48625047D01*
X82319642Y-48577428D01*
X81414880Y-49815523D02*
X81414880Y-49910761D01*
X81462500Y-50006000D01*
X81510119Y-50053619D01*
X81605357Y-50101238D01*
X81795833Y-50148857D01*
X82033928Y-50148857D01*
X82224404Y-50101238D01*
X82319642Y-50053619D01*
X82367261Y-50006000D01*
X82414880Y-49910761D01*
X82414880Y-49815523D01*
X82367261Y-49720285D01*
X82319642Y-49672666D01*
X82224404Y-49625047D01*
X82033928Y-49577428D01*
X81795833Y-49577428D01*
X81605357Y-49625047D01*
X81510119Y-49672666D01*
X81462500Y-49720285D01*
X81414880Y-49815523D01*
X101464880Y-46910761D02*
X100464880Y-46910761D01*
X100464880Y-47148857D01*
X100512500Y-47291714D01*
X100607738Y-47386952D01*
X100702976Y-47434571D01*
X100893452Y-47482190D01*
X101036309Y-47482190D01*
X101226785Y-47434571D01*
X101322023Y-47386952D01*
X101417261Y-47291714D01*
X101464880Y-47148857D01*
X101464880Y-46910761D01*
X101560119Y-47672666D02*
X101560119Y-48434571D01*
X100464880Y-48577428D02*
X100464880Y-49196476D01*
X100845833Y-48863142D01*
X100845833Y-49006000D01*
X100893452Y-49101238D01*
X100941071Y-49148857D01*
X101036309Y-49196476D01*
X101274404Y-49196476D01*
X101369642Y-49148857D01*
X101417261Y-49101238D01*
X101464880Y-49006000D01*
X101464880Y-48720285D01*
X101417261Y-48625047D01*
X101369642Y-48577428D01*
X101464880Y-50148857D02*
X101464880Y-49577428D01*
X101464880Y-49863142D02*
X100464880Y-49863142D01*
X100607738Y-49767904D01*
X100702976Y-49672666D01*
X100750595Y-49577428D01*
X120514880Y-46910761D02*
X119514880Y-46910761D01*
X119514880Y-47148857D01*
X119562500Y-47291714D01*
X119657738Y-47386952D01*
X119752976Y-47434571D01*
X119943452Y-47482190D01*
X120086309Y-47482190D01*
X120276785Y-47434571D01*
X120372023Y-47386952D01*
X120467261Y-47291714D01*
X120514880Y-47148857D01*
X120514880Y-46910761D01*
X120610119Y-47672666D02*
X120610119Y-48434571D01*
X119514880Y-48577428D02*
X119514880Y-49196476D01*
X119895833Y-48863142D01*
X119895833Y-49006000D01*
X119943452Y-49101238D01*
X119991071Y-49148857D01*
X120086309Y-49196476D01*
X120324404Y-49196476D01*
X120419642Y-49148857D01*
X120467261Y-49101238D01*
X120514880Y-49006000D01*
X120514880Y-48720285D01*
X120467261Y-48625047D01*
X120419642Y-48577428D01*
X119610119Y-49577428D02*
X119562500Y-49625047D01*
X119514880Y-49720285D01*
X119514880Y-49958380D01*
X119562500Y-50053619D01*
X119610119Y-50101238D01*
X119705357Y-50148857D01*
X119800595Y-50148857D01*
X119943452Y-50101238D01*
X120514880Y-49529809D01*
X120514880Y-50148857D01*
X139564880Y-46910761D02*
X138564880Y-46910761D01*
X138564880Y-47148857D01*
X138612500Y-47291714D01*
X138707738Y-47386952D01*
X138802976Y-47434571D01*
X138993452Y-47482190D01*
X139136309Y-47482190D01*
X139326785Y-47434571D01*
X139422023Y-47386952D01*
X139517261Y-47291714D01*
X139564880Y-47148857D01*
X139564880Y-46910761D01*
X139660119Y-47672666D02*
X139660119Y-48434571D01*
X138564880Y-48577428D02*
X138564880Y-49196476D01*
X138945833Y-48863142D01*
X138945833Y-49006000D01*
X138993452Y-49101238D01*
X139041071Y-49148857D01*
X139136309Y-49196476D01*
X139374404Y-49196476D01*
X139469642Y-49148857D01*
X139517261Y-49101238D01*
X139564880Y-49006000D01*
X139564880Y-48720285D01*
X139517261Y-48625047D01*
X139469642Y-48577428D01*
X138564880Y-49529809D02*
X138564880Y-50148857D01*
X138945833Y-49815523D01*
X138945833Y-49958380D01*
X138993452Y-50053619D01*
X139041071Y-50101238D01*
X139136309Y-50148857D01*
X139374404Y-50148857D01*
X139469642Y-50101238D01*
X139517261Y-50053619D01*
X139564880Y-49958380D01*
X139564880Y-49672666D01*
X139517261Y-49577428D01*
X139469642Y-49529809D01*
X158614880Y-46910761D02*
X157614880Y-46910761D01*
X157614880Y-47148857D01*
X157662500Y-47291714D01*
X157757738Y-47386952D01*
X157852976Y-47434571D01*
X158043452Y-47482190D01*
X158186309Y-47482190D01*
X158376785Y-47434571D01*
X158472023Y-47386952D01*
X158567261Y-47291714D01*
X158614880Y-47148857D01*
X158614880Y-46910761D01*
X158710119Y-47672666D02*
X158710119Y-48434571D01*
X157614880Y-48577428D02*
X157614880Y-49196476D01*
X157995833Y-48863142D01*
X157995833Y-49006000D01*
X158043452Y-49101238D01*
X158091071Y-49148857D01*
X158186309Y-49196476D01*
X158424404Y-49196476D01*
X158519642Y-49148857D01*
X158567261Y-49101238D01*
X158614880Y-49006000D01*
X158614880Y-48720285D01*
X158567261Y-48625047D01*
X158519642Y-48577428D01*
X157948214Y-50053619D02*
X158614880Y-50053619D01*
X157567261Y-49815523D02*
X158281547Y-49577428D01*
X158281547Y-50196476D01*
X177664880Y-46910761D02*
X176664880Y-46910761D01*
X176664880Y-47148857D01*
X176712500Y-47291714D01*
X176807738Y-47386952D01*
X176902976Y-47434571D01*
X177093452Y-47482190D01*
X177236309Y-47482190D01*
X177426785Y-47434571D01*
X177522023Y-47386952D01*
X177617261Y-47291714D01*
X177664880Y-47148857D01*
X177664880Y-46910761D01*
X177760119Y-47672666D02*
X177760119Y-48434571D01*
X176664880Y-48577428D02*
X176664880Y-49196476D01*
X177045833Y-48863142D01*
X177045833Y-49006000D01*
X177093452Y-49101238D01*
X177141071Y-49148857D01*
X177236309Y-49196476D01*
X177474404Y-49196476D01*
X177569642Y-49148857D01*
X177617261Y-49101238D01*
X177664880Y-49006000D01*
X177664880Y-48720285D01*
X177617261Y-48625047D01*
X177569642Y-48577428D01*
X176664880Y-50101238D02*
X176664880Y-49625047D01*
X177141071Y-49577428D01*
X177093452Y-49625047D01*
X177045833Y-49720285D01*
X177045833Y-49958380D01*
X177093452Y-50053619D01*
X177141071Y-50101238D01*
X177236309Y-50148857D01*
X177474404Y-50148857D01*
X177569642Y-50101238D01*
X177617261Y-50053619D01*
X177664880Y-49958380D01*
X177664880Y-49720285D01*
X177617261Y-49625047D01*
X177569642Y-49577428D01*
X196714880Y-46910761D02*
X195714880Y-46910761D01*
X195714880Y-47148857D01*
X195762500Y-47291714D01*
X195857738Y-47386952D01*
X195952976Y-47434571D01*
X196143452Y-47482190D01*
X196286309Y-47482190D01*
X196476785Y-47434571D01*
X196572023Y-47386952D01*
X196667261Y-47291714D01*
X196714880Y-47148857D01*
X196714880Y-46910761D01*
X196810119Y-47672666D02*
X196810119Y-48434571D01*
X195714880Y-48577428D02*
X195714880Y-49196476D01*
X196095833Y-48863142D01*
X196095833Y-49006000D01*
X196143452Y-49101238D01*
X196191071Y-49148857D01*
X196286309Y-49196476D01*
X196524404Y-49196476D01*
X196619642Y-49148857D01*
X196667261Y-49101238D01*
X196714880Y-49006000D01*
X196714880Y-48720285D01*
X196667261Y-48625047D01*
X196619642Y-48577428D01*
X195714880Y-50053619D02*
X195714880Y-49863142D01*
X195762500Y-49767904D01*
X195810119Y-49720285D01*
X195952976Y-49625047D01*
X196143452Y-49577428D01*
X196524404Y-49577428D01*
X196619642Y-49625047D01*
X196667261Y-49672666D01*
X196714880Y-49767904D01*
X196714880Y-49958380D01*
X196667261Y-50053619D01*
X196619642Y-50101238D01*
X196524404Y-50148857D01*
X196286309Y-50148857D01*
X196191071Y-50101238D01*
X196143452Y-50053619D01*
X196095833Y-49958380D01*
X196095833Y-49767904D01*
X196143452Y-49672666D01*
X196191071Y-49625047D01*
X196286309Y-49577428D01*
X215764880Y-46910761D02*
X214764880Y-46910761D01*
X214764880Y-47148857D01*
X214812500Y-47291714D01*
X214907738Y-47386952D01*
X215002976Y-47434571D01*
X215193452Y-47482190D01*
X215336309Y-47482190D01*
X215526785Y-47434571D01*
X215622023Y-47386952D01*
X215717261Y-47291714D01*
X215764880Y-47148857D01*
X215764880Y-46910761D01*
X215860119Y-47672666D02*
X215860119Y-48434571D01*
X214764880Y-48577428D02*
X214764880Y-49196476D01*
X215145833Y-48863142D01*
X215145833Y-49006000D01*
X215193452Y-49101238D01*
X215241071Y-49148857D01*
X215336309Y-49196476D01*
X215574404Y-49196476D01*
X215669642Y-49148857D01*
X215717261Y-49101238D01*
X215764880Y-49006000D01*
X215764880Y-48720285D01*
X215717261Y-48625047D01*
X215669642Y-48577428D01*
X214764880Y-49529809D02*
X214764880Y-50196476D01*
X215764880Y-49767904D01*
X234814880Y-46910761D02*
X233814880Y-46910761D01*
X233814880Y-47148857D01*
X233862500Y-47291714D01*
X233957738Y-47386952D01*
X234052976Y-47434571D01*
X234243452Y-47482190D01*
X234386309Y-47482190D01*
X234576785Y-47434571D01*
X234672023Y-47386952D01*
X234767261Y-47291714D01*
X234814880Y-47148857D01*
X234814880Y-46910761D01*
X234910119Y-47672666D02*
X234910119Y-48434571D01*
X233814880Y-48577428D02*
X233814880Y-49196476D01*
X234195833Y-48863142D01*
X234195833Y-49006000D01*
X234243452Y-49101238D01*
X234291071Y-49148857D01*
X234386309Y-49196476D01*
X234624404Y-49196476D01*
X234719642Y-49148857D01*
X234767261Y-49101238D01*
X234814880Y-49006000D01*
X234814880Y-48720285D01*
X234767261Y-48625047D01*
X234719642Y-48577428D01*
X234243452Y-49767904D02*
X234195833Y-49672666D01*
X234148214Y-49625047D01*
X234052976Y-49577428D01*
X234005357Y-49577428D01*
X233910119Y-49625047D01*
X233862500Y-49672666D01*
X233814880Y-49767904D01*
X233814880Y-49958380D01*
X233862500Y-50053619D01*
X233910119Y-50101238D01*
X234005357Y-50148857D01*
X234052976Y-50148857D01*
X234148214Y-50101238D01*
X234195833Y-50053619D01*
X234243452Y-49958380D01*
X234243452Y-49767904D01*
X234291071Y-49672666D01*
X234338690Y-49625047D01*
X234433928Y-49577428D01*
X234624404Y-49577428D01*
X234719642Y-49625047D01*
X234767261Y-49672666D01*
X234814880Y-49767904D01*
X234814880Y-49958380D01*
X234767261Y-50053619D01*
X234719642Y-50101238D01*
X234624404Y-50148857D01*
X234433928Y-50148857D01*
X234338690Y-50101238D01*
X234291071Y-50053619D01*
X234243452Y-49958380D01*
X275502380Y-46918761D02*
X274502380Y-46918761D01*
X274502380Y-47156857D01*
X274550000Y-47299714D01*
X274645238Y-47394952D01*
X274740476Y-47442571D01*
X274930952Y-47490190D01*
X275073809Y-47490190D01*
X275264285Y-47442571D01*
X275359523Y-47394952D01*
X275454761Y-47299714D01*
X275502380Y-47156857D01*
X275502380Y-46918761D01*
X275597619Y-47680666D02*
X275597619Y-48442571D01*
X274502380Y-48585428D02*
X274502380Y-49204476D01*
X274883333Y-48871142D01*
X274883333Y-49014000D01*
X274930952Y-49109238D01*
X274978571Y-49156857D01*
X275073809Y-49204476D01*
X275311904Y-49204476D01*
X275407142Y-49156857D01*
X275454761Y-49109238D01*
X275502380Y-49014000D01*
X275502380Y-48728285D01*
X275454761Y-48633047D01*
X275407142Y-48585428D01*
X275502380Y-49680666D02*
X275502380Y-49871142D01*
X275454761Y-49966380D01*
X275407142Y-50014000D01*
X275264285Y-50109238D01*
X275073809Y-50156857D01*
X274692857Y-50156857D01*
X274597619Y-50109238D01*
X274550000Y-50061619D01*
X274502380Y-49966380D01*
X274502380Y-49775904D01*
X274550000Y-49680666D01*
X274597619Y-49633047D01*
X274692857Y-49585428D01*
X274930952Y-49585428D01*
X275026190Y-49633047D01*
X275073809Y-49680666D01*
X275121428Y-49775904D01*
X275121428Y-49966380D01*
X275073809Y-50061619D01*
X275026190Y-50109238D01*
X274930952Y-50156857D01*
X49077380Y-66087761D02*
X48077380Y-66087761D01*
X48077380Y-66325857D01*
X48125000Y-66468714D01*
X48220238Y-66563952D01*
X48315476Y-66611571D01*
X48505952Y-66659190D01*
X48648809Y-66659190D01*
X48839285Y-66611571D01*
X48934523Y-66563952D01*
X49029761Y-66468714D01*
X49077380Y-66325857D01*
X49077380Y-66087761D01*
X49172619Y-66849666D02*
X49172619Y-67611571D01*
X48410714Y-68278238D02*
X49077380Y-68278238D01*
X48029761Y-68040142D02*
X48744047Y-67802047D01*
X48744047Y-68421095D01*
X48077380Y-68992523D02*
X48077380Y-69087761D01*
X48125000Y-69183000D01*
X48172619Y-69230619D01*
X48267857Y-69278238D01*
X48458333Y-69325857D01*
X48696428Y-69325857D01*
X48886904Y-69278238D01*
X48982142Y-69230619D01*
X49029761Y-69183000D01*
X49077380Y-69087761D01*
X49077380Y-68992523D01*
X49029761Y-68897285D01*
X48982142Y-68849666D01*
X48886904Y-68802047D01*
X48696428Y-68754428D01*
X48458333Y-68754428D01*
X48267857Y-68802047D01*
X48172619Y-68849666D01*
X48125000Y-68897285D01*
X48077380Y-68992523D01*
X72889880Y-66087761D02*
X71889880Y-66087761D01*
X71889880Y-66325857D01*
X71937500Y-66468714D01*
X72032738Y-66563952D01*
X72127976Y-66611571D01*
X72318452Y-66659190D01*
X72461309Y-66659190D01*
X72651785Y-66611571D01*
X72747023Y-66563952D01*
X72842261Y-66468714D01*
X72889880Y-66325857D01*
X72889880Y-66087761D01*
X72985119Y-66849666D02*
X72985119Y-67611571D01*
X72223214Y-68278238D02*
X72889880Y-68278238D01*
X71842261Y-68040142D02*
X72556547Y-67802047D01*
X72556547Y-68421095D01*
X72889880Y-69325857D02*
X72889880Y-68754428D01*
X72889880Y-69040142D02*
X71889880Y-69040142D01*
X72032738Y-68944904D01*
X72127976Y-68849666D01*
X72175595Y-68754428D01*
X101512380Y-66095761D02*
X100512380Y-66095761D01*
X100512380Y-66333857D01*
X100560000Y-66476714D01*
X100655238Y-66571952D01*
X100750476Y-66619571D01*
X100940952Y-66667190D01*
X101083809Y-66667190D01*
X101274285Y-66619571D01*
X101369523Y-66571952D01*
X101464761Y-66476714D01*
X101512380Y-66333857D01*
X101512380Y-66095761D01*
X101607619Y-66857666D02*
X101607619Y-67619571D01*
X100845714Y-68286238D02*
X101512380Y-68286238D01*
X100464761Y-68048142D02*
X101179047Y-67810047D01*
X101179047Y-68429095D01*
X100607619Y-68762428D02*
X100560000Y-68810047D01*
X100512380Y-68905285D01*
X100512380Y-69143380D01*
X100560000Y-69238619D01*
X100607619Y-69286238D01*
X100702857Y-69333857D01*
X100798095Y-69333857D01*
X100940952Y-69286238D01*
X101512380Y-68714809D01*
X101512380Y-69333857D01*
X167806380Y-66095761D02*
X166806380Y-66095761D01*
X166806380Y-66333857D01*
X166854000Y-66476714D01*
X166949238Y-66571952D01*
X167044476Y-66619571D01*
X167234952Y-66667190D01*
X167377809Y-66667190D01*
X167568285Y-66619571D01*
X167663523Y-66571952D01*
X167758761Y-66476714D01*
X167806380Y-66333857D01*
X167806380Y-66095761D01*
X167901619Y-66857666D02*
X167901619Y-67619571D01*
X167139714Y-68286238D02*
X167806380Y-68286238D01*
X166758761Y-68048142D02*
X167473047Y-67810047D01*
X167473047Y-68429095D01*
X166806380Y-68714809D02*
X166806380Y-69333857D01*
X167187333Y-69000523D01*
X167187333Y-69143380D01*
X167234952Y-69238619D01*
X167282571Y-69286238D01*
X167377809Y-69333857D01*
X167615904Y-69333857D01*
X167711142Y-69286238D01*
X167758761Y-69238619D01*
X167806380Y-69143380D01*
X167806380Y-68857666D01*
X167758761Y-68762428D01*
X167711142Y-68714809D01*
X206112880Y-66087761D02*
X205112880Y-66087761D01*
X205112880Y-66325857D01*
X205160500Y-66468714D01*
X205255738Y-66563952D01*
X205350976Y-66611571D01*
X205541452Y-66659190D01*
X205684309Y-66659190D01*
X205874785Y-66611571D01*
X205970023Y-66563952D01*
X206065261Y-66468714D01*
X206112880Y-66325857D01*
X206112880Y-66087761D01*
X206208119Y-66849666D02*
X206208119Y-67611571D01*
X205446214Y-68278238D02*
X206112880Y-68278238D01*
X205065261Y-68040142D02*
X205779547Y-67802047D01*
X205779547Y-68421095D01*
X205446214Y-69230619D02*
X206112880Y-69230619D01*
X205065261Y-68992523D02*
X205779547Y-68754428D01*
X205779547Y-69373476D01*
X229925380Y-66087761D02*
X228925380Y-66087761D01*
X228925380Y-66325857D01*
X228973000Y-66468714D01*
X229068238Y-66563952D01*
X229163476Y-66611571D01*
X229353952Y-66659190D01*
X229496809Y-66659190D01*
X229687285Y-66611571D01*
X229782523Y-66563952D01*
X229877761Y-66468714D01*
X229925380Y-66325857D01*
X229925380Y-66087761D01*
X230020619Y-66849666D02*
X230020619Y-67611571D01*
X229258714Y-68278238D02*
X229925380Y-68278238D01*
X228877761Y-68040142D02*
X229592047Y-67802047D01*
X229592047Y-68421095D01*
X228925380Y-69278238D02*
X228925380Y-68802047D01*
X229401571Y-68754428D01*
X229353952Y-68802047D01*
X229306333Y-68897285D01*
X229306333Y-69135380D01*
X229353952Y-69230619D01*
X229401571Y-69278238D01*
X229496809Y-69325857D01*
X229734904Y-69325857D01*
X229830142Y-69278238D01*
X229877761Y-69230619D01*
X229925380Y-69135380D01*
X229925380Y-68897285D01*
X229877761Y-68802047D01*
X229830142Y-68754428D01*
X247213238Y-71445380D02*
X247213238Y-70445380D01*
X246975142Y-70445380D01*
X246832285Y-70493000D01*
X246737047Y-70588238D01*
X246689428Y-70683476D01*
X246641809Y-70873952D01*
X246641809Y-71016809D01*
X246689428Y-71207285D01*
X246737047Y-71302523D01*
X246832285Y-71397761D01*
X246975142Y-71445380D01*
X247213238Y-71445380D01*
X246451333Y-71540619D02*
X245689428Y-71540619D01*
X245022761Y-70778714D02*
X245022761Y-71445380D01*
X245260857Y-70397761D02*
X245498952Y-71112047D01*
X244879904Y-71112047D01*
X244070380Y-70445380D02*
X244260857Y-70445380D01*
X244356095Y-70493000D01*
X244403714Y-70540619D01*
X244498952Y-70683476D01*
X244546571Y-70873952D01*
X244546571Y-71254904D01*
X244498952Y-71350142D01*
X244451333Y-71397761D01*
X244356095Y-71445380D01*
X244165619Y-71445380D01*
X244070380Y-71397761D01*
X244022761Y-71350142D01*
X243975142Y-71254904D01*
X243975142Y-71016809D01*
X244022761Y-70921571D01*
X244070380Y-70873952D01*
X244165619Y-70826333D01*
X244356095Y-70826333D01*
X244451333Y-70873952D01*
X244498952Y-70921571D01*
X244546571Y-71016809D01*
%LPC*%
D12*
X22733000Y-8764000D03*
X22733000Y-12064000D03*
D13*
G36*
X113891142Y-56331174D02*
G01*
X113914803Y-56334684D01*
X113938007Y-56340496D01*
X113960529Y-56348554D01*
X113982153Y-56358782D01*
X114002670Y-56371079D01*
X114021883Y-56385329D01*
X114039607Y-56401393D01*
X114055671Y-56419117D01*
X114069921Y-56438330D01*
X114082218Y-56458847D01*
X114092446Y-56480471D01*
X114100504Y-56502993D01*
X114106316Y-56526197D01*
X114109826Y-56549858D01*
X114111000Y-56573750D01*
X114111000Y-57061250D01*
X114109826Y-57085142D01*
X114106316Y-57108803D01*
X114100504Y-57132007D01*
X114092446Y-57154529D01*
X114082218Y-57176153D01*
X114069921Y-57196670D01*
X114055671Y-57215883D01*
X114039607Y-57233607D01*
X114021883Y-57249671D01*
X114002670Y-57263921D01*
X113982153Y-57276218D01*
X113960529Y-57286446D01*
X113938007Y-57294504D01*
X113914803Y-57300316D01*
X113891142Y-57303826D01*
X113867250Y-57305000D01*
X112954750Y-57305000D01*
X112930858Y-57303826D01*
X112907197Y-57300316D01*
X112883993Y-57294504D01*
X112861471Y-57286446D01*
X112839847Y-57276218D01*
X112819330Y-57263921D01*
X112800117Y-57249671D01*
X112782393Y-57233607D01*
X112766329Y-57215883D01*
X112752079Y-57196670D01*
X112739782Y-57176153D01*
X112729554Y-57154529D01*
X112721496Y-57132007D01*
X112715684Y-57108803D01*
X112712174Y-57085142D01*
X112711000Y-57061250D01*
X112711000Y-56573750D01*
X112712174Y-56549858D01*
X112715684Y-56526197D01*
X112721496Y-56502993D01*
X112729554Y-56480471D01*
X112739782Y-56458847D01*
X112752079Y-56438330D01*
X112766329Y-56419117D01*
X112782393Y-56401393D01*
X112800117Y-56385329D01*
X112819330Y-56371079D01*
X112839847Y-56358782D01*
X112861471Y-56348554D01*
X112883993Y-56340496D01*
X112907197Y-56334684D01*
X112930858Y-56331174D01*
X112954750Y-56330000D01*
X113867250Y-56330000D01*
X113891142Y-56331174D01*
X113891142Y-56331174D01*
G37*
D14*
X113411000Y-56817500D03*
D13*
G36*
X113891142Y-54456174D02*
G01*
X113914803Y-54459684D01*
X113938007Y-54465496D01*
X113960529Y-54473554D01*
X113982153Y-54483782D01*
X114002670Y-54496079D01*
X114021883Y-54510329D01*
X114039607Y-54526393D01*
X114055671Y-54544117D01*
X114069921Y-54563330D01*
X114082218Y-54583847D01*
X114092446Y-54605471D01*
X114100504Y-54627993D01*
X114106316Y-54651197D01*
X114109826Y-54674858D01*
X114111000Y-54698750D01*
X114111000Y-55186250D01*
X114109826Y-55210142D01*
X114106316Y-55233803D01*
X114100504Y-55257007D01*
X114092446Y-55279529D01*
X114082218Y-55301153D01*
X114069921Y-55321670D01*
X114055671Y-55340883D01*
X114039607Y-55358607D01*
X114021883Y-55374671D01*
X114002670Y-55388921D01*
X113982153Y-55401218D01*
X113960529Y-55411446D01*
X113938007Y-55419504D01*
X113914803Y-55425316D01*
X113891142Y-55428826D01*
X113867250Y-55430000D01*
X112954750Y-55430000D01*
X112930858Y-55428826D01*
X112907197Y-55425316D01*
X112883993Y-55419504D01*
X112861471Y-55411446D01*
X112839847Y-55401218D01*
X112819330Y-55388921D01*
X112800117Y-55374671D01*
X112782393Y-55358607D01*
X112766329Y-55340883D01*
X112752079Y-55321670D01*
X112739782Y-55301153D01*
X112729554Y-55279529D01*
X112721496Y-55257007D01*
X112715684Y-55233803D01*
X112712174Y-55210142D01*
X112711000Y-55186250D01*
X112711000Y-54698750D01*
X112712174Y-54674858D01*
X112715684Y-54651197D01*
X112721496Y-54627993D01*
X112729554Y-54605471D01*
X112739782Y-54583847D01*
X112752079Y-54563330D01*
X112766329Y-54544117D01*
X112782393Y-54526393D01*
X112800117Y-54510329D01*
X112819330Y-54496079D01*
X112839847Y-54483782D01*
X112861471Y-54473554D01*
X112883993Y-54465496D01*
X112907197Y-54459684D01*
X112930858Y-54456174D01*
X112954750Y-54455000D01*
X113867250Y-54455000D01*
X113891142Y-54456174D01*
X113891142Y-54456174D01*
G37*
D14*
X113411000Y-54942500D03*
D13*
G36*
X119987142Y-63316174D02*
G01*
X120010803Y-63319684D01*
X120034007Y-63325496D01*
X120056529Y-63333554D01*
X120078153Y-63343782D01*
X120098670Y-63356079D01*
X120117883Y-63370329D01*
X120135607Y-63386393D01*
X120151671Y-63404117D01*
X120165921Y-63423330D01*
X120178218Y-63443847D01*
X120188446Y-63465471D01*
X120196504Y-63487993D01*
X120202316Y-63511197D01*
X120205826Y-63534858D01*
X120207000Y-63558750D01*
X120207000Y-64046250D01*
X120205826Y-64070142D01*
X120202316Y-64093803D01*
X120196504Y-64117007D01*
X120188446Y-64139529D01*
X120178218Y-64161153D01*
X120165921Y-64181670D01*
X120151671Y-64200883D01*
X120135607Y-64218607D01*
X120117883Y-64234671D01*
X120098670Y-64248921D01*
X120078153Y-64261218D01*
X120056529Y-64271446D01*
X120034007Y-64279504D01*
X120010803Y-64285316D01*
X119987142Y-64288826D01*
X119963250Y-64290000D01*
X119050750Y-64290000D01*
X119026858Y-64288826D01*
X119003197Y-64285316D01*
X118979993Y-64279504D01*
X118957471Y-64271446D01*
X118935847Y-64261218D01*
X118915330Y-64248921D01*
X118896117Y-64234671D01*
X118878393Y-64218607D01*
X118862329Y-64200883D01*
X118848079Y-64181670D01*
X118835782Y-64161153D01*
X118825554Y-64139529D01*
X118817496Y-64117007D01*
X118811684Y-64093803D01*
X118808174Y-64070142D01*
X118807000Y-64046250D01*
X118807000Y-63558750D01*
X118808174Y-63534858D01*
X118811684Y-63511197D01*
X118817496Y-63487993D01*
X118825554Y-63465471D01*
X118835782Y-63443847D01*
X118848079Y-63423330D01*
X118862329Y-63404117D01*
X118878393Y-63386393D01*
X118896117Y-63370329D01*
X118915330Y-63356079D01*
X118935847Y-63343782D01*
X118957471Y-63333554D01*
X118979993Y-63325496D01*
X119003197Y-63319684D01*
X119026858Y-63316174D01*
X119050750Y-63315000D01*
X119963250Y-63315000D01*
X119987142Y-63316174D01*
X119987142Y-63316174D01*
G37*
D14*
X119507000Y-63802500D03*
D13*
G36*
X119987142Y-61441174D02*
G01*
X120010803Y-61444684D01*
X120034007Y-61450496D01*
X120056529Y-61458554D01*
X120078153Y-61468782D01*
X120098670Y-61481079D01*
X120117883Y-61495329D01*
X120135607Y-61511393D01*
X120151671Y-61529117D01*
X120165921Y-61548330D01*
X120178218Y-61568847D01*
X120188446Y-61590471D01*
X120196504Y-61612993D01*
X120202316Y-61636197D01*
X120205826Y-61659858D01*
X120207000Y-61683750D01*
X120207000Y-62171250D01*
X120205826Y-62195142D01*
X120202316Y-62218803D01*
X120196504Y-62242007D01*
X120188446Y-62264529D01*
X120178218Y-62286153D01*
X120165921Y-62306670D01*
X120151671Y-62325883D01*
X120135607Y-62343607D01*
X120117883Y-62359671D01*
X120098670Y-62373921D01*
X120078153Y-62386218D01*
X120056529Y-62396446D01*
X120034007Y-62404504D01*
X120010803Y-62410316D01*
X119987142Y-62413826D01*
X119963250Y-62415000D01*
X119050750Y-62415000D01*
X119026858Y-62413826D01*
X119003197Y-62410316D01*
X118979993Y-62404504D01*
X118957471Y-62396446D01*
X118935847Y-62386218D01*
X118915330Y-62373921D01*
X118896117Y-62359671D01*
X118878393Y-62343607D01*
X118862329Y-62325883D01*
X118848079Y-62306670D01*
X118835782Y-62286153D01*
X118825554Y-62264529D01*
X118817496Y-62242007D01*
X118811684Y-62218803D01*
X118808174Y-62195142D01*
X118807000Y-62171250D01*
X118807000Y-61683750D01*
X118808174Y-61659858D01*
X118811684Y-61636197D01*
X118817496Y-61612993D01*
X118825554Y-61590471D01*
X118835782Y-61568847D01*
X118848079Y-61548330D01*
X118862329Y-61529117D01*
X118878393Y-61511393D01*
X118896117Y-61495329D01*
X118915330Y-61481079D01*
X118935847Y-61468782D01*
X118957471Y-61458554D01*
X118979993Y-61450496D01*
X119003197Y-61444684D01*
X119026858Y-61441174D01*
X119050750Y-61440000D01*
X119963250Y-61440000D01*
X119987142Y-61441174D01*
X119987142Y-61441174D01*
G37*
D14*
X119507000Y-61927500D03*
D15*
X141401000Y-2615000D03*
X134951000Y-2615000D03*
X140626000Y-2615000D03*
X135726000Y-2615000D03*
D16*
X136426000Y-2615000D03*
X139926000Y-2615000D03*
X136926000Y-2615000D03*
X139426000Y-2615000D03*
X137426000Y-2615000D03*
X138926000Y-2615000D03*
X138426000Y-2615000D03*
X137926000Y-2615000D03*
D17*
X141066000Y-1170000D03*
X135286000Y-1170000D03*
D18*
X133856000Y-1700000D03*
X142496000Y-1700000D03*
D19*
X133856000Y2480000D03*
X142496000Y2480000D03*
D20*
X139176000Y-5727000D03*
D21*
X137176000Y-5527000D03*
X139176000Y-7427000D03*
X137176000Y-7427000D03*
D13*
G36*
X139672142Y-14705174D02*
G01*
X139695803Y-14708684D01*
X139719007Y-14714496D01*
X139741529Y-14722554D01*
X139763153Y-14732782D01*
X139783670Y-14745079D01*
X139802883Y-14759329D01*
X139820607Y-14775393D01*
X139836671Y-14793117D01*
X139850921Y-14812330D01*
X139863218Y-14832847D01*
X139873446Y-14854471D01*
X139881504Y-14876993D01*
X139887316Y-14900197D01*
X139890826Y-14923858D01*
X139892000Y-14947750D01*
X139892000Y-15435250D01*
X139890826Y-15459142D01*
X139887316Y-15482803D01*
X139881504Y-15506007D01*
X139873446Y-15528529D01*
X139863218Y-15550153D01*
X139850921Y-15570670D01*
X139836671Y-15589883D01*
X139820607Y-15607607D01*
X139802883Y-15623671D01*
X139783670Y-15637921D01*
X139763153Y-15650218D01*
X139741529Y-15660446D01*
X139719007Y-15668504D01*
X139695803Y-15674316D01*
X139672142Y-15677826D01*
X139648250Y-15679000D01*
X138735750Y-15679000D01*
X138711858Y-15677826D01*
X138688197Y-15674316D01*
X138664993Y-15668504D01*
X138642471Y-15660446D01*
X138620847Y-15650218D01*
X138600330Y-15637921D01*
X138581117Y-15623671D01*
X138563393Y-15607607D01*
X138547329Y-15589883D01*
X138533079Y-15570670D01*
X138520782Y-15550153D01*
X138510554Y-15528529D01*
X138502496Y-15506007D01*
X138496684Y-15482803D01*
X138493174Y-15459142D01*
X138492000Y-15435250D01*
X138492000Y-14947750D01*
X138493174Y-14923858D01*
X138496684Y-14900197D01*
X138502496Y-14876993D01*
X138510554Y-14854471D01*
X138520782Y-14832847D01*
X138533079Y-14812330D01*
X138547329Y-14793117D01*
X138563393Y-14775393D01*
X138581117Y-14759329D01*
X138600330Y-14745079D01*
X138620847Y-14732782D01*
X138642471Y-14722554D01*
X138664993Y-14714496D01*
X138688197Y-14708684D01*
X138711858Y-14705174D01*
X138735750Y-14704000D01*
X139648250Y-14704000D01*
X139672142Y-14705174D01*
X139672142Y-14705174D01*
G37*
D14*
X139192000Y-15191500D03*
D13*
G36*
X139672142Y-16580174D02*
G01*
X139695803Y-16583684D01*
X139719007Y-16589496D01*
X139741529Y-16597554D01*
X139763153Y-16607782D01*
X139783670Y-16620079D01*
X139802883Y-16634329D01*
X139820607Y-16650393D01*
X139836671Y-16668117D01*
X139850921Y-16687330D01*
X139863218Y-16707847D01*
X139873446Y-16729471D01*
X139881504Y-16751993D01*
X139887316Y-16775197D01*
X139890826Y-16798858D01*
X139892000Y-16822750D01*
X139892000Y-17310250D01*
X139890826Y-17334142D01*
X139887316Y-17357803D01*
X139881504Y-17381007D01*
X139873446Y-17403529D01*
X139863218Y-17425153D01*
X139850921Y-17445670D01*
X139836671Y-17464883D01*
X139820607Y-17482607D01*
X139802883Y-17498671D01*
X139783670Y-17512921D01*
X139763153Y-17525218D01*
X139741529Y-17535446D01*
X139719007Y-17543504D01*
X139695803Y-17549316D01*
X139672142Y-17552826D01*
X139648250Y-17554000D01*
X138735750Y-17554000D01*
X138711858Y-17552826D01*
X138688197Y-17549316D01*
X138664993Y-17543504D01*
X138642471Y-17535446D01*
X138620847Y-17525218D01*
X138600330Y-17512921D01*
X138581117Y-17498671D01*
X138563393Y-17482607D01*
X138547329Y-17464883D01*
X138533079Y-17445670D01*
X138520782Y-17425153D01*
X138510554Y-17403529D01*
X138502496Y-17381007D01*
X138496684Y-17357803D01*
X138493174Y-17334142D01*
X138492000Y-17310250D01*
X138492000Y-16822750D01*
X138493174Y-16798858D01*
X138496684Y-16775197D01*
X138502496Y-16751993D01*
X138510554Y-16729471D01*
X138520782Y-16707847D01*
X138533079Y-16687330D01*
X138547329Y-16668117D01*
X138563393Y-16650393D01*
X138581117Y-16634329D01*
X138600330Y-16620079D01*
X138620847Y-16607782D01*
X138642471Y-16597554D01*
X138664993Y-16589496D01*
X138688197Y-16583684D01*
X138711858Y-16580174D01*
X138735750Y-16579000D01*
X139648250Y-16579000D01*
X139672142Y-16580174D01*
X139672142Y-16580174D01*
G37*
D14*
X139192000Y-17066500D03*
D13*
G36*
X137640142Y-14705174D02*
G01*
X137663803Y-14708684D01*
X137687007Y-14714496D01*
X137709529Y-14722554D01*
X137731153Y-14732782D01*
X137751670Y-14745079D01*
X137770883Y-14759329D01*
X137788607Y-14775393D01*
X137804671Y-14793117D01*
X137818921Y-14812330D01*
X137831218Y-14832847D01*
X137841446Y-14854471D01*
X137849504Y-14876993D01*
X137855316Y-14900197D01*
X137858826Y-14923858D01*
X137860000Y-14947750D01*
X137860000Y-15435250D01*
X137858826Y-15459142D01*
X137855316Y-15482803D01*
X137849504Y-15506007D01*
X137841446Y-15528529D01*
X137831218Y-15550153D01*
X137818921Y-15570670D01*
X137804671Y-15589883D01*
X137788607Y-15607607D01*
X137770883Y-15623671D01*
X137751670Y-15637921D01*
X137731153Y-15650218D01*
X137709529Y-15660446D01*
X137687007Y-15668504D01*
X137663803Y-15674316D01*
X137640142Y-15677826D01*
X137616250Y-15679000D01*
X136703750Y-15679000D01*
X136679858Y-15677826D01*
X136656197Y-15674316D01*
X136632993Y-15668504D01*
X136610471Y-15660446D01*
X136588847Y-15650218D01*
X136568330Y-15637921D01*
X136549117Y-15623671D01*
X136531393Y-15607607D01*
X136515329Y-15589883D01*
X136501079Y-15570670D01*
X136488782Y-15550153D01*
X136478554Y-15528529D01*
X136470496Y-15506007D01*
X136464684Y-15482803D01*
X136461174Y-15459142D01*
X136460000Y-15435250D01*
X136460000Y-14947750D01*
X136461174Y-14923858D01*
X136464684Y-14900197D01*
X136470496Y-14876993D01*
X136478554Y-14854471D01*
X136488782Y-14832847D01*
X136501079Y-14812330D01*
X136515329Y-14793117D01*
X136531393Y-14775393D01*
X136549117Y-14759329D01*
X136568330Y-14745079D01*
X136588847Y-14732782D01*
X136610471Y-14722554D01*
X136632993Y-14714496D01*
X136656197Y-14708684D01*
X136679858Y-14705174D01*
X136703750Y-14704000D01*
X137616250Y-14704000D01*
X137640142Y-14705174D01*
X137640142Y-14705174D01*
G37*
D14*
X137160000Y-15191500D03*
D13*
G36*
X137640142Y-16580174D02*
G01*
X137663803Y-16583684D01*
X137687007Y-16589496D01*
X137709529Y-16597554D01*
X137731153Y-16607782D01*
X137751670Y-16620079D01*
X137770883Y-16634329D01*
X137788607Y-16650393D01*
X137804671Y-16668117D01*
X137818921Y-16687330D01*
X137831218Y-16707847D01*
X137841446Y-16729471D01*
X137849504Y-16751993D01*
X137855316Y-16775197D01*
X137858826Y-16798858D01*
X137860000Y-16822750D01*
X137860000Y-17310250D01*
X137858826Y-17334142D01*
X137855316Y-17357803D01*
X137849504Y-17381007D01*
X137841446Y-17403529D01*
X137831218Y-17425153D01*
X137818921Y-17445670D01*
X137804671Y-17464883D01*
X137788607Y-17482607D01*
X137770883Y-17498671D01*
X137751670Y-17512921D01*
X137731153Y-17525218D01*
X137709529Y-17535446D01*
X137687007Y-17543504D01*
X137663803Y-17549316D01*
X137640142Y-17552826D01*
X137616250Y-17554000D01*
X136703750Y-17554000D01*
X136679858Y-17552826D01*
X136656197Y-17549316D01*
X136632993Y-17543504D01*
X136610471Y-17535446D01*
X136588847Y-17525218D01*
X136568330Y-17512921D01*
X136549117Y-17498671D01*
X136531393Y-17482607D01*
X136515329Y-17464883D01*
X136501079Y-17445670D01*
X136488782Y-17425153D01*
X136478554Y-17403529D01*
X136470496Y-17381007D01*
X136464684Y-17357803D01*
X136461174Y-17334142D01*
X136460000Y-17310250D01*
X136460000Y-16822750D01*
X136461174Y-16798858D01*
X136464684Y-16775197D01*
X136470496Y-16751993D01*
X136478554Y-16729471D01*
X136488782Y-16707847D01*
X136501079Y-16687330D01*
X136515329Y-16668117D01*
X136531393Y-16650393D01*
X136549117Y-16634329D01*
X136568330Y-16620079D01*
X136588847Y-16607782D01*
X136610471Y-16597554D01*
X136632993Y-16589496D01*
X136656197Y-16583684D01*
X136679858Y-16580174D01*
X136703750Y-16579000D01*
X137616250Y-16579000D01*
X137640142Y-16580174D01*
X137640142Y-16580174D01*
G37*
D14*
X137160000Y-17066500D03*
D13*
G36*
X141958142Y-6674174D02*
G01*
X141981803Y-6677684D01*
X142005007Y-6683496D01*
X142027529Y-6691554D01*
X142049153Y-6701782D01*
X142069670Y-6714079D01*
X142088883Y-6728329D01*
X142106607Y-6744393D01*
X142122671Y-6762117D01*
X142136921Y-6781330D01*
X142149218Y-6801847D01*
X142159446Y-6823471D01*
X142167504Y-6845993D01*
X142173316Y-6869197D01*
X142176826Y-6892858D01*
X142178000Y-6916750D01*
X142178000Y-7404250D01*
X142176826Y-7428142D01*
X142173316Y-7451803D01*
X142167504Y-7475007D01*
X142159446Y-7497529D01*
X142149218Y-7519153D01*
X142136921Y-7539670D01*
X142122671Y-7558883D01*
X142106607Y-7576607D01*
X142088883Y-7592671D01*
X142069670Y-7606921D01*
X142049153Y-7619218D01*
X142027529Y-7629446D01*
X142005007Y-7637504D01*
X141981803Y-7643316D01*
X141958142Y-7646826D01*
X141934250Y-7648000D01*
X141021750Y-7648000D01*
X140997858Y-7646826D01*
X140974197Y-7643316D01*
X140950993Y-7637504D01*
X140928471Y-7629446D01*
X140906847Y-7619218D01*
X140886330Y-7606921D01*
X140867117Y-7592671D01*
X140849393Y-7576607D01*
X140833329Y-7558883D01*
X140819079Y-7539670D01*
X140806782Y-7519153D01*
X140796554Y-7497529D01*
X140788496Y-7475007D01*
X140782684Y-7451803D01*
X140779174Y-7428142D01*
X140778000Y-7404250D01*
X140778000Y-6916750D01*
X140779174Y-6892858D01*
X140782684Y-6869197D01*
X140788496Y-6845993D01*
X140796554Y-6823471D01*
X140806782Y-6801847D01*
X140819079Y-6781330D01*
X140833329Y-6762117D01*
X140849393Y-6744393D01*
X140867117Y-6728329D01*
X140886330Y-6714079D01*
X140906847Y-6701782D01*
X140928471Y-6691554D01*
X140950993Y-6683496D01*
X140974197Y-6677684D01*
X140997858Y-6674174D01*
X141021750Y-6673000D01*
X141934250Y-6673000D01*
X141958142Y-6674174D01*
X141958142Y-6674174D01*
G37*
D14*
X141478000Y-7160500D03*
D13*
G36*
X141958142Y-4799174D02*
G01*
X141981803Y-4802684D01*
X142005007Y-4808496D01*
X142027529Y-4816554D01*
X142049153Y-4826782D01*
X142069670Y-4839079D01*
X142088883Y-4853329D01*
X142106607Y-4869393D01*
X142122671Y-4887117D01*
X142136921Y-4906330D01*
X142149218Y-4926847D01*
X142159446Y-4948471D01*
X142167504Y-4970993D01*
X142173316Y-4994197D01*
X142176826Y-5017858D01*
X142178000Y-5041750D01*
X142178000Y-5529250D01*
X142176826Y-5553142D01*
X142173316Y-5576803D01*
X142167504Y-5600007D01*
X142159446Y-5622529D01*
X142149218Y-5644153D01*
X142136921Y-5664670D01*
X142122671Y-5683883D01*
X142106607Y-5701607D01*
X142088883Y-5717671D01*
X142069670Y-5731921D01*
X142049153Y-5744218D01*
X142027529Y-5754446D01*
X142005007Y-5762504D01*
X141981803Y-5768316D01*
X141958142Y-5771826D01*
X141934250Y-5773000D01*
X141021750Y-5773000D01*
X140997858Y-5771826D01*
X140974197Y-5768316D01*
X140950993Y-5762504D01*
X140928471Y-5754446D01*
X140906847Y-5744218D01*
X140886330Y-5731921D01*
X140867117Y-5717671D01*
X140849393Y-5701607D01*
X140833329Y-5683883D01*
X140819079Y-5664670D01*
X140806782Y-5644153D01*
X140796554Y-5622529D01*
X140788496Y-5600007D01*
X140782684Y-5576803D01*
X140779174Y-5553142D01*
X140778000Y-5529250D01*
X140778000Y-5041750D01*
X140779174Y-5017858D01*
X140782684Y-4994197D01*
X140788496Y-4970993D01*
X140796554Y-4948471D01*
X140806782Y-4926847D01*
X140819079Y-4906330D01*
X140833329Y-4887117D01*
X140849393Y-4869393D01*
X140867117Y-4853329D01*
X140886330Y-4839079D01*
X140906847Y-4826782D01*
X140928471Y-4816554D01*
X140950993Y-4808496D01*
X140974197Y-4802684D01*
X140997858Y-4799174D01*
X141021750Y-4798000D01*
X141934250Y-4798000D01*
X141958142Y-4799174D01*
X141958142Y-4799174D01*
G37*
D14*
X141478000Y-5285500D03*
D13*
G36*
X135735142Y-6595674D02*
G01*
X135758803Y-6599184D01*
X135782007Y-6604996D01*
X135804529Y-6613054D01*
X135826153Y-6623282D01*
X135846670Y-6635579D01*
X135865883Y-6649829D01*
X135883607Y-6665893D01*
X135899671Y-6683617D01*
X135913921Y-6702830D01*
X135926218Y-6723347D01*
X135936446Y-6744971D01*
X135944504Y-6767493D01*
X135950316Y-6790697D01*
X135953826Y-6814358D01*
X135955000Y-6838250D01*
X135955000Y-7325750D01*
X135953826Y-7349642D01*
X135950316Y-7373303D01*
X135944504Y-7396507D01*
X135936446Y-7419029D01*
X135926218Y-7440653D01*
X135913921Y-7461170D01*
X135899671Y-7480383D01*
X135883607Y-7498107D01*
X135865883Y-7514171D01*
X135846670Y-7528421D01*
X135826153Y-7540718D01*
X135804529Y-7550946D01*
X135782007Y-7559004D01*
X135758803Y-7564816D01*
X135735142Y-7568326D01*
X135711250Y-7569500D01*
X134798750Y-7569500D01*
X134774858Y-7568326D01*
X134751197Y-7564816D01*
X134727993Y-7559004D01*
X134705471Y-7550946D01*
X134683847Y-7540718D01*
X134663330Y-7528421D01*
X134644117Y-7514171D01*
X134626393Y-7498107D01*
X134610329Y-7480383D01*
X134596079Y-7461170D01*
X134583782Y-7440653D01*
X134573554Y-7419029D01*
X134565496Y-7396507D01*
X134559684Y-7373303D01*
X134556174Y-7349642D01*
X134555000Y-7325750D01*
X134555000Y-6838250D01*
X134556174Y-6814358D01*
X134559684Y-6790697D01*
X134565496Y-6767493D01*
X134573554Y-6744971D01*
X134583782Y-6723347D01*
X134596079Y-6702830D01*
X134610329Y-6683617D01*
X134626393Y-6665893D01*
X134644117Y-6649829D01*
X134663330Y-6635579D01*
X134683847Y-6623282D01*
X134705471Y-6613054D01*
X134727993Y-6604996D01*
X134751197Y-6599184D01*
X134774858Y-6595674D01*
X134798750Y-6594500D01*
X135711250Y-6594500D01*
X135735142Y-6595674D01*
X135735142Y-6595674D01*
G37*
D14*
X135255000Y-7082000D03*
D13*
G36*
X135735142Y-4720674D02*
G01*
X135758803Y-4724184D01*
X135782007Y-4729996D01*
X135804529Y-4738054D01*
X135826153Y-4748282D01*
X135846670Y-4760579D01*
X135865883Y-4774829D01*
X135883607Y-4790893D01*
X135899671Y-4808617D01*
X135913921Y-4827830D01*
X135926218Y-4848347D01*
X135936446Y-4869971D01*
X135944504Y-4892493D01*
X135950316Y-4915697D01*
X135953826Y-4939358D01*
X135955000Y-4963250D01*
X135955000Y-5450750D01*
X135953826Y-5474642D01*
X135950316Y-5498303D01*
X135944504Y-5521507D01*
X135936446Y-5544029D01*
X135926218Y-5565653D01*
X135913921Y-5586170D01*
X135899671Y-5605383D01*
X135883607Y-5623107D01*
X135865883Y-5639171D01*
X135846670Y-5653421D01*
X135826153Y-5665718D01*
X135804529Y-5675946D01*
X135782007Y-5684004D01*
X135758803Y-5689816D01*
X135735142Y-5693326D01*
X135711250Y-5694500D01*
X134798750Y-5694500D01*
X134774858Y-5693326D01*
X134751197Y-5689816D01*
X134727993Y-5684004D01*
X134705471Y-5675946D01*
X134683847Y-5665718D01*
X134663330Y-5653421D01*
X134644117Y-5639171D01*
X134626393Y-5623107D01*
X134610329Y-5605383D01*
X134596079Y-5586170D01*
X134583782Y-5565653D01*
X134573554Y-5544029D01*
X134565496Y-5521507D01*
X134559684Y-5498303D01*
X134556174Y-5474642D01*
X134555000Y-5450750D01*
X134555000Y-4963250D01*
X134556174Y-4939358D01*
X134559684Y-4915697D01*
X134565496Y-4892493D01*
X134573554Y-4869971D01*
X134583782Y-4848347D01*
X134596079Y-4827830D01*
X134610329Y-4808617D01*
X134626393Y-4790893D01*
X134644117Y-4774829D01*
X134663330Y-4760579D01*
X134683847Y-4748282D01*
X134705471Y-4738054D01*
X134727993Y-4729996D01*
X134751197Y-4724184D01*
X134774858Y-4720674D01*
X134798750Y-4719500D01*
X135711250Y-4719500D01*
X135735142Y-4720674D01*
X135735142Y-4720674D01*
G37*
D14*
X135255000Y-5207000D03*
D13*
G36*
X139968504Y-11825204D02*
G01*
X139992773Y-11828804D01*
X140016571Y-11834765D01*
X140039671Y-11843030D01*
X140061849Y-11853520D01*
X140082893Y-11866133D01*
X140102598Y-11880747D01*
X140120777Y-11897223D01*
X140137253Y-11915402D01*
X140151867Y-11935107D01*
X140164480Y-11956151D01*
X140174970Y-11978329D01*
X140183235Y-12001429D01*
X140189196Y-12025227D01*
X140192796Y-12049496D01*
X140194000Y-12074000D01*
X140194000Y-12824000D01*
X140192796Y-12848504D01*
X140189196Y-12872773D01*
X140183235Y-12896571D01*
X140174970Y-12919671D01*
X140164480Y-12941849D01*
X140151867Y-12962893D01*
X140137253Y-12982598D01*
X140120777Y-13000777D01*
X140102598Y-13017253D01*
X140082893Y-13031867D01*
X140061849Y-13044480D01*
X140039671Y-13054970D01*
X140016571Y-13063235D01*
X139992773Y-13069196D01*
X139968504Y-13072796D01*
X139944000Y-13074000D01*
X138694000Y-13074000D01*
X138669496Y-13072796D01*
X138645227Y-13069196D01*
X138621429Y-13063235D01*
X138598329Y-13054970D01*
X138576151Y-13044480D01*
X138555107Y-13031867D01*
X138535402Y-13017253D01*
X138517223Y-13000777D01*
X138500747Y-12982598D01*
X138486133Y-12962893D01*
X138473520Y-12941849D01*
X138463030Y-12919671D01*
X138454765Y-12896571D01*
X138448804Y-12872773D01*
X138445204Y-12848504D01*
X138444000Y-12824000D01*
X138444000Y-12074000D01*
X138445204Y-12049496D01*
X138448804Y-12025227D01*
X138454765Y-12001429D01*
X138463030Y-11978329D01*
X138473520Y-11956151D01*
X138486133Y-11935107D01*
X138500747Y-11915402D01*
X138517223Y-11897223D01*
X138535402Y-11880747D01*
X138555107Y-11866133D01*
X138576151Y-11853520D01*
X138598329Y-11843030D01*
X138621429Y-11834765D01*
X138645227Y-11828804D01*
X138669496Y-11825204D01*
X138694000Y-11824000D01*
X139944000Y-11824000D01*
X139968504Y-11825204D01*
X139968504Y-11825204D01*
G37*
D22*
X139319000Y-12449000D03*
D13*
G36*
X139968504Y-9025204D02*
G01*
X139992773Y-9028804D01*
X140016571Y-9034765D01*
X140039671Y-9043030D01*
X140061849Y-9053520D01*
X140082893Y-9066133D01*
X140102598Y-9080747D01*
X140120777Y-9097223D01*
X140137253Y-9115402D01*
X140151867Y-9135107D01*
X140164480Y-9156151D01*
X140174970Y-9178329D01*
X140183235Y-9201429D01*
X140189196Y-9225227D01*
X140192796Y-9249496D01*
X140194000Y-9274000D01*
X140194000Y-10024000D01*
X140192796Y-10048504D01*
X140189196Y-10072773D01*
X140183235Y-10096571D01*
X140174970Y-10119671D01*
X140164480Y-10141849D01*
X140151867Y-10162893D01*
X140137253Y-10182598D01*
X140120777Y-10200777D01*
X140102598Y-10217253D01*
X140082893Y-10231867D01*
X140061849Y-10244480D01*
X140039671Y-10254970D01*
X140016571Y-10263235D01*
X139992773Y-10269196D01*
X139968504Y-10272796D01*
X139944000Y-10274000D01*
X138694000Y-10274000D01*
X138669496Y-10272796D01*
X138645227Y-10269196D01*
X138621429Y-10263235D01*
X138598329Y-10254970D01*
X138576151Y-10244480D01*
X138555107Y-10231867D01*
X138535402Y-10217253D01*
X138517223Y-10200777D01*
X138500747Y-10182598D01*
X138486133Y-10162893D01*
X138473520Y-10141849D01*
X138463030Y-10119671D01*
X138454765Y-10096571D01*
X138448804Y-10072773D01*
X138445204Y-10048504D01*
X138444000Y-10024000D01*
X138444000Y-9274000D01*
X138445204Y-9249496D01*
X138448804Y-9225227D01*
X138454765Y-9201429D01*
X138463030Y-9178329D01*
X138473520Y-9156151D01*
X138486133Y-9135107D01*
X138500747Y-9115402D01*
X138517223Y-9097223D01*
X138535402Y-9080747D01*
X138555107Y-9066133D01*
X138576151Y-9053520D01*
X138598329Y-9043030D01*
X138621429Y-9034765D01*
X138645227Y-9028804D01*
X138669496Y-9025204D01*
X138694000Y-9024000D01*
X139944000Y-9024000D01*
X139968504Y-9025204D01*
X139968504Y-9025204D01*
G37*
D22*
X139319000Y-9649000D03*
D23*
X127469000Y-65108000D03*
X127469000Y-62908000D03*
X125769000Y-62908000D03*
X125769000Y-65108000D03*
D24*
X105044000Y-62675000D03*
X105044000Y-63475000D03*
X105044000Y-64275000D03*
X105044000Y-65075000D03*
X105044000Y-65875000D03*
X105044000Y-66675000D03*
X105044000Y-67475000D03*
X105044000Y-68275000D03*
X105044000Y-69075000D03*
X105044000Y-69875000D03*
X105044000Y-70675000D03*
D25*
X106744000Y-72375000D03*
X107544000Y-72375000D03*
X108344000Y-72375000D03*
X109144000Y-72375000D03*
X109944000Y-72375000D03*
X110744000Y-72375000D03*
X111544000Y-72375000D03*
X112344000Y-72375000D03*
X113144000Y-72375000D03*
X113944000Y-72375000D03*
X114744000Y-72375000D03*
D24*
X116444000Y-70675000D03*
X116444000Y-69875000D03*
X116444000Y-69075000D03*
X116444000Y-68275000D03*
X116444000Y-67475000D03*
X116444000Y-66675000D03*
X116444000Y-65875000D03*
X116444000Y-65075000D03*
X116444000Y-64275000D03*
X116444000Y-63475000D03*
X116444000Y-62675000D03*
D25*
X114744000Y-60975000D03*
X113944000Y-60975000D03*
X113144000Y-60975000D03*
X112344000Y-60975000D03*
X111544000Y-60975000D03*
X110744000Y-60975000D03*
X109944000Y-60975000D03*
X109144000Y-60975000D03*
X108344000Y-60975000D03*
X107544000Y-60975000D03*
X106744000Y-60975000D03*
D26*
X152579000Y-64190000D03*
X146379000Y-67890000D03*
X152579000Y-67890000D03*
X146379000Y-64190000D03*
D13*
G36*
X105375142Y-73850174D02*
G01*
X105398803Y-73853684D01*
X105422007Y-73859496D01*
X105444529Y-73867554D01*
X105466153Y-73877782D01*
X105486670Y-73890079D01*
X105505883Y-73904329D01*
X105523607Y-73920393D01*
X105539671Y-73938117D01*
X105553921Y-73957330D01*
X105566218Y-73977847D01*
X105576446Y-73999471D01*
X105584504Y-74021993D01*
X105590316Y-74045197D01*
X105593826Y-74068858D01*
X105595000Y-74092750D01*
X105595000Y-75005250D01*
X105593826Y-75029142D01*
X105590316Y-75052803D01*
X105584504Y-75076007D01*
X105576446Y-75098529D01*
X105566218Y-75120153D01*
X105553921Y-75140670D01*
X105539671Y-75159883D01*
X105523607Y-75177607D01*
X105505883Y-75193671D01*
X105486670Y-75207921D01*
X105466153Y-75220218D01*
X105444529Y-75230446D01*
X105422007Y-75238504D01*
X105398803Y-75244316D01*
X105375142Y-75247826D01*
X105351250Y-75249000D01*
X104863750Y-75249000D01*
X104839858Y-75247826D01*
X104816197Y-75244316D01*
X104792993Y-75238504D01*
X104770471Y-75230446D01*
X104748847Y-75220218D01*
X104728330Y-75207921D01*
X104709117Y-75193671D01*
X104691393Y-75177607D01*
X104675329Y-75159883D01*
X104661079Y-75140670D01*
X104648782Y-75120153D01*
X104638554Y-75098529D01*
X104630496Y-75076007D01*
X104624684Y-75052803D01*
X104621174Y-75029142D01*
X104620000Y-75005250D01*
X104620000Y-74092750D01*
X104621174Y-74068858D01*
X104624684Y-74045197D01*
X104630496Y-74021993D01*
X104638554Y-73999471D01*
X104648782Y-73977847D01*
X104661079Y-73957330D01*
X104675329Y-73938117D01*
X104691393Y-73920393D01*
X104709117Y-73904329D01*
X104728330Y-73890079D01*
X104748847Y-73877782D01*
X104770471Y-73867554D01*
X104792993Y-73859496D01*
X104816197Y-73853684D01*
X104839858Y-73850174D01*
X104863750Y-73849000D01*
X105351250Y-73849000D01*
X105375142Y-73850174D01*
X105375142Y-73850174D01*
G37*
D14*
X105107500Y-74549000D03*
D13*
G36*
X107250142Y-73850174D02*
G01*
X107273803Y-73853684D01*
X107297007Y-73859496D01*
X107319529Y-73867554D01*
X107341153Y-73877782D01*
X107361670Y-73890079D01*
X107380883Y-73904329D01*
X107398607Y-73920393D01*
X107414671Y-73938117D01*
X107428921Y-73957330D01*
X107441218Y-73977847D01*
X107451446Y-73999471D01*
X107459504Y-74021993D01*
X107465316Y-74045197D01*
X107468826Y-74068858D01*
X107470000Y-74092750D01*
X107470000Y-75005250D01*
X107468826Y-75029142D01*
X107465316Y-75052803D01*
X107459504Y-75076007D01*
X107451446Y-75098529D01*
X107441218Y-75120153D01*
X107428921Y-75140670D01*
X107414671Y-75159883D01*
X107398607Y-75177607D01*
X107380883Y-75193671D01*
X107361670Y-75207921D01*
X107341153Y-75220218D01*
X107319529Y-75230446D01*
X107297007Y-75238504D01*
X107273803Y-75244316D01*
X107250142Y-75247826D01*
X107226250Y-75249000D01*
X106738750Y-75249000D01*
X106714858Y-75247826D01*
X106691197Y-75244316D01*
X106667993Y-75238504D01*
X106645471Y-75230446D01*
X106623847Y-75220218D01*
X106603330Y-75207921D01*
X106584117Y-75193671D01*
X106566393Y-75177607D01*
X106550329Y-75159883D01*
X106536079Y-75140670D01*
X106523782Y-75120153D01*
X106513554Y-75098529D01*
X106505496Y-75076007D01*
X106499684Y-75052803D01*
X106496174Y-75029142D01*
X106495000Y-75005250D01*
X106495000Y-74092750D01*
X106496174Y-74068858D01*
X106499684Y-74045197D01*
X106505496Y-74021993D01*
X106513554Y-73999471D01*
X106523782Y-73977847D01*
X106536079Y-73957330D01*
X106550329Y-73938117D01*
X106566393Y-73920393D01*
X106584117Y-73904329D01*
X106603330Y-73890079D01*
X106623847Y-73877782D01*
X106645471Y-73867554D01*
X106667993Y-73859496D01*
X106691197Y-73853684D01*
X106714858Y-73850174D01*
X106738750Y-73849000D01*
X107226250Y-73849000D01*
X107250142Y-73850174D01*
X107250142Y-73850174D01*
G37*
D14*
X106982500Y-74549000D03*
D13*
G36*
X155293142Y-66491174D02*
G01*
X155316803Y-66494684D01*
X155340007Y-66500496D01*
X155362529Y-66508554D01*
X155384153Y-66518782D01*
X155404670Y-66531079D01*
X155423883Y-66545329D01*
X155441607Y-66561393D01*
X155457671Y-66579117D01*
X155471921Y-66598330D01*
X155484218Y-66618847D01*
X155494446Y-66640471D01*
X155502504Y-66662993D01*
X155508316Y-66686197D01*
X155511826Y-66709858D01*
X155513000Y-66733750D01*
X155513000Y-67221250D01*
X155511826Y-67245142D01*
X155508316Y-67268803D01*
X155502504Y-67292007D01*
X155494446Y-67314529D01*
X155484218Y-67336153D01*
X155471921Y-67356670D01*
X155457671Y-67375883D01*
X155441607Y-67393607D01*
X155423883Y-67409671D01*
X155404670Y-67423921D01*
X155384153Y-67436218D01*
X155362529Y-67446446D01*
X155340007Y-67454504D01*
X155316803Y-67460316D01*
X155293142Y-67463826D01*
X155269250Y-67465000D01*
X154356750Y-67465000D01*
X154332858Y-67463826D01*
X154309197Y-67460316D01*
X154285993Y-67454504D01*
X154263471Y-67446446D01*
X154241847Y-67436218D01*
X154221330Y-67423921D01*
X154202117Y-67409671D01*
X154184393Y-67393607D01*
X154168329Y-67375883D01*
X154154079Y-67356670D01*
X154141782Y-67336153D01*
X154131554Y-67314529D01*
X154123496Y-67292007D01*
X154117684Y-67268803D01*
X154114174Y-67245142D01*
X154113000Y-67221250D01*
X154113000Y-66733750D01*
X154114174Y-66709858D01*
X154117684Y-66686197D01*
X154123496Y-66662993D01*
X154131554Y-66640471D01*
X154141782Y-66618847D01*
X154154079Y-66598330D01*
X154168329Y-66579117D01*
X154184393Y-66561393D01*
X154202117Y-66545329D01*
X154221330Y-66531079D01*
X154241847Y-66518782D01*
X154263471Y-66508554D01*
X154285993Y-66500496D01*
X154309197Y-66494684D01*
X154332858Y-66491174D01*
X154356750Y-66490000D01*
X155269250Y-66490000D01*
X155293142Y-66491174D01*
X155293142Y-66491174D01*
G37*
D14*
X154813000Y-66977500D03*
D13*
G36*
X155293142Y-64616174D02*
G01*
X155316803Y-64619684D01*
X155340007Y-64625496D01*
X155362529Y-64633554D01*
X155384153Y-64643782D01*
X155404670Y-64656079D01*
X155423883Y-64670329D01*
X155441607Y-64686393D01*
X155457671Y-64704117D01*
X155471921Y-64723330D01*
X155484218Y-64743847D01*
X155494446Y-64765471D01*
X155502504Y-64787993D01*
X155508316Y-64811197D01*
X155511826Y-64834858D01*
X155513000Y-64858750D01*
X155513000Y-65346250D01*
X155511826Y-65370142D01*
X155508316Y-65393803D01*
X155502504Y-65417007D01*
X155494446Y-65439529D01*
X155484218Y-65461153D01*
X155471921Y-65481670D01*
X155457671Y-65500883D01*
X155441607Y-65518607D01*
X155423883Y-65534671D01*
X155404670Y-65548921D01*
X155384153Y-65561218D01*
X155362529Y-65571446D01*
X155340007Y-65579504D01*
X155316803Y-65585316D01*
X155293142Y-65588826D01*
X155269250Y-65590000D01*
X154356750Y-65590000D01*
X154332858Y-65588826D01*
X154309197Y-65585316D01*
X154285993Y-65579504D01*
X154263471Y-65571446D01*
X154241847Y-65561218D01*
X154221330Y-65548921D01*
X154202117Y-65534671D01*
X154184393Y-65518607D01*
X154168329Y-65500883D01*
X154154079Y-65481670D01*
X154141782Y-65461153D01*
X154131554Y-65439529D01*
X154123496Y-65417007D01*
X154117684Y-65393803D01*
X154114174Y-65370142D01*
X154113000Y-65346250D01*
X154113000Y-64858750D01*
X154114174Y-64834858D01*
X154117684Y-64811197D01*
X154123496Y-64787993D01*
X154131554Y-64765471D01*
X154141782Y-64743847D01*
X154154079Y-64723330D01*
X154168329Y-64704117D01*
X154184393Y-64686393D01*
X154202117Y-64670329D01*
X154221330Y-64656079D01*
X154241847Y-64643782D01*
X154263471Y-64633554D01*
X154285993Y-64625496D01*
X154309197Y-64619684D01*
X154332858Y-64616174D01*
X154356750Y-64615000D01*
X155269250Y-64615000D01*
X155293142Y-64616174D01*
X155293142Y-64616174D01*
G37*
D14*
X154813000Y-65102500D03*
D13*
G36*
X105756142Y-56705174D02*
G01*
X105779803Y-56708684D01*
X105803007Y-56714496D01*
X105825529Y-56722554D01*
X105847153Y-56732782D01*
X105867670Y-56745079D01*
X105886883Y-56759329D01*
X105904607Y-56775393D01*
X105920671Y-56793117D01*
X105934921Y-56812330D01*
X105947218Y-56832847D01*
X105957446Y-56854471D01*
X105965504Y-56876993D01*
X105971316Y-56900197D01*
X105974826Y-56923858D01*
X105976000Y-56947750D01*
X105976000Y-57860250D01*
X105974826Y-57884142D01*
X105971316Y-57907803D01*
X105965504Y-57931007D01*
X105957446Y-57953529D01*
X105947218Y-57975153D01*
X105934921Y-57995670D01*
X105920671Y-58014883D01*
X105904607Y-58032607D01*
X105886883Y-58048671D01*
X105867670Y-58062921D01*
X105847153Y-58075218D01*
X105825529Y-58085446D01*
X105803007Y-58093504D01*
X105779803Y-58099316D01*
X105756142Y-58102826D01*
X105732250Y-58104000D01*
X105244750Y-58104000D01*
X105220858Y-58102826D01*
X105197197Y-58099316D01*
X105173993Y-58093504D01*
X105151471Y-58085446D01*
X105129847Y-58075218D01*
X105109330Y-58062921D01*
X105090117Y-58048671D01*
X105072393Y-58032607D01*
X105056329Y-58014883D01*
X105042079Y-57995670D01*
X105029782Y-57975153D01*
X105019554Y-57953529D01*
X105011496Y-57931007D01*
X105005684Y-57907803D01*
X105002174Y-57884142D01*
X105001000Y-57860250D01*
X105001000Y-56947750D01*
X105002174Y-56923858D01*
X105005684Y-56900197D01*
X105011496Y-56876993D01*
X105019554Y-56854471D01*
X105029782Y-56832847D01*
X105042079Y-56812330D01*
X105056329Y-56793117D01*
X105072393Y-56775393D01*
X105090117Y-56759329D01*
X105109330Y-56745079D01*
X105129847Y-56732782D01*
X105151471Y-56722554D01*
X105173993Y-56714496D01*
X105197197Y-56708684D01*
X105220858Y-56705174D01*
X105244750Y-56704000D01*
X105732250Y-56704000D01*
X105756142Y-56705174D01*
X105756142Y-56705174D01*
G37*
D14*
X105488500Y-57404000D03*
D13*
G36*
X107631142Y-56705174D02*
G01*
X107654803Y-56708684D01*
X107678007Y-56714496D01*
X107700529Y-56722554D01*
X107722153Y-56732782D01*
X107742670Y-56745079D01*
X107761883Y-56759329D01*
X107779607Y-56775393D01*
X107795671Y-56793117D01*
X107809921Y-56812330D01*
X107822218Y-56832847D01*
X107832446Y-56854471D01*
X107840504Y-56876993D01*
X107846316Y-56900197D01*
X107849826Y-56923858D01*
X107851000Y-56947750D01*
X107851000Y-57860250D01*
X107849826Y-57884142D01*
X107846316Y-57907803D01*
X107840504Y-57931007D01*
X107832446Y-57953529D01*
X107822218Y-57975153D01*
X107809921Y-57995670D01*
X107795671Y-58014883D01*
X107779607Y-58032607D01*
X107761883Y-58048671D01*
X107742670Y-58062921D01*
X107722153Y-58075218D01*
X107700529Y-58085446D01*
X107678007Y-58093504D01*
X107654803Y-58099316D01*
X107631142Y-58102826D01*
X107607250Y-58104000D01*
X107119750Y-58104000D01*
X107095858Y-58102826D01*
X107072197Y-58099316D01*
X107048993Y-58093504D01*
X107026471Y-58085446D01*
X107004847Y-58075218D01*
X106984330Y-58062921D01*
X106965117Y-58048671D01*
X106947393Y-58032607D01*
X106931329Y-58014883D01*
X106917079Y-57995670D01*
X106904782Y-57975153D01*
X106894554Y-57953529D01*
X106886496Y-57931007D01*
X106880684Y-57907803D01*
X106877174Y-57884142D01*
X106876000Y-57860250D01*
X106876000Y-56947750D01*
X106877174Y-56923858D01*
X106880684Y-56900197D01*
X106886496Y-56876993D01*
X106894554Y-56854471D01*
X106904782Y-56832847D01*
X106917079Y-56812330D01*
X106931329Y-56793117D01*
X106947393Y-56775393D01*
X106965117Y-56759329D01*
X106984330Y-56745079D01*
X107004847Y-56732782D01*
X107026471Y-56722554D01*
X107048993Y-56714496D01*
X107072197Y-56708684D01*
X107095858Y-56705174D01*
X107119750Y-56704000D01*
X107607250Y-56704000D01*
X107631142Y-56705174D01*
X107631142Y-56705174D01*
G37*
D14*
X107363500Y-57404000D03*
D13*
G36*
X110843142Y-56331174D02*
G01*
X110866803Y-56334684D01*
X110890007Y-56340496D01*
X110912529Y-56348554D01*
X110934153Y-56358782D01*
X110954670Y-56371079D01*
X110973883Y-56385329D01*
X110991607Y-56401393D01*
X111007671Y-56419117D01*
X111021921Y-56438330D01*
X111034218Y-56458847D01*
X111044446Y-56480471D01*
X111052504Y-56502993D01*
X111058316Y-56526197D01*
X111061826Y-56549858D01*
X111063000Y-56573750D01*
X111063000Y-57061250D01*
X111061826Y-57085142D01*
X111058316Y-57108803D01*
X111052504Y-57132007D01*
X111044446Y-57154529D01*
X111034218Y-57176153D01*
X111021921Y-57196670D01*
X111007671Y-57215883D01*
X110991607Y-57233607D01*
X110973883Y-57249671D01*
X110954670Y-57263921D01*
X110934153Y-57276218D01*
X110912529Y-57286446D01*
X110890007Y-57294504D01*
X110866803Y-57300316D01*
X110843142Y-57303826D01*
X110819250Y-57305000D01*
X109906750Y-57305000D01*
X109882858Y-57303826D01*
X109859197Y-57300316D01*
X109835993Y-57294504D01*
X109813471Y-57286446D01*
X109791847Y-57276218D01*
X109771330Y-57263921D01*
X109752117Y-57249671D01*
X109734393Y-57233607D01*
X109718329Y-57215883D01*
X109704079Y-57196670D01*
X109691782Y-57176153D01*
X109681554Y-57154529D01*
X109673496Y-57132007D01*
X109667684Y-57108803D01*
X109664174Y-57085142D01*
X109663000Y-57061250D01*
X109663000Y-56573750D01*
X109664174Y-56549858D01*
X109667684Y-56526197D01*
X109673496Y-56502993D01*
X109681554Y-56480471D01*
X109691782Y-56458847D01*
X109704079Y-56438330D01*
X109718329Y-56419117D01*
X109734393Y-56401393D01*
X109752117Y-56385329D01*
X109771330Y-56371079D01*
X109791847Y-56358782D01*
X109813471Y-56348554D01*
X109835993Y-56340496D01*
X109859197Y-56334684D01*
X109882858Y-56331174D01*
X109906750Y-56330000D01*
X110819250Y-56330000D01*
X110843142Y-56331174D01*
X110843142Y-56331174D01*
G37*
D14*
X110363000Y-56817500D03*
D13*
G36*
X110843142Y-54456174D02*
G01*
X110866803Y-54459684D01*
X110890007Y-54465496D01*
X110912529Y-54473554D01*
X110934153Y-54483782D01*
X110954670Y-54496079D01*
X110973883Y-54510329D01*
X110991607Y-54526393D01*
X111007671Y-54544117D01*
X111021921Y-54563330D01*
X111034218Y-54583847D01*
X111044446Y-54605471D01*
X111052504Y-54627993D01*
X111058316Y-54651197D01*
X111061826Y-54674858D01*
X111063000Y-54698750D01*
X111063000Y-55186250D01*
X111061826Y-55210142D01*
X111058316Y-55233803D01*
X111052504Y-55257007D01*
X111044446Y-55279529D01*
X111034218Y-55301153D01*
X111021921Y-55321670D01*
X111007671Y-55340883D01*
X110991607Y-55358607D01*
X110973883Y-55374671D01*
X110954670Y-55388921D01*
X110934153Y-55401218D01*
X110912529Y-55411446D01*
X110890007Y-55419504D01*
X110866803Y-55425316D01*
X110843142Y-55428826D01*
X110819250Y-55430000D01*
X109906750Y-55430000D01*
X109882858Y-55428826D01*
X109859197Y-55425316D01*
X109835993Y-55419504D01*
X109813471Y-55411446D01*
X109791847Y-55401218D01*
X109771330Y-55388921D01*
X109752117Y-55374671D01*
X109734393Y-55358607D01*
X109718329Y-55340883D01*
X109704079Y-55321670D01*
X109691782Y-55301153D01*
X109681554Y-55279529D01*
X109673496Y-55257007D01*
X109667684Y-55233803D01*
X109664174Y-55210142D01*
X109663000Y-55186250D01*
X109663000Y-54698750D01*
X109664174Y-54674858D01*
X109667684Y-54651197D01*
X109673496Y-54627993D01*
X109681554Y-54605471D01*
X109691782Y-54583847D01*
X109704079Y-54563330D01*
X109718329Y-54544117D01*
X109734393Y-54526393D01*
X109752117Y-54510329D01*
X109771330Y-54496079D01*
X109791847Y-54483782D01*
X109813471Y-54473554D01*
X109835993Y-54465496D01*
X109859197Y-54459684D01*
X109882858Y-54456174D01*
X109906750Y-54455000D01*
X110819250Y-54455000D01*
X110843142Y-54456174D01*
X110843142Y-54456174D01*
G37*
D14*
X110363000Y-54942500D03*
D13*
G36*
X127824142Y-60134174D02*
G01*
X127847803Y-60137684D01*
X127871007Y-60143496D01*
X127893529Y-60151554D01*
X127915153Y-60161782D01*
X127935670Y-60174079D01*
X127954883Y-60188329D01*
X127972607Y-60204393D01*
X127988671Y-60222117D01*
X128002921Y-60241330D01*
X128015218Y-60261847D01*
X128025446Y-60283471D01*
X128033504Y-60305993D01*
X128039316Y-60329197D01*
X128042826Y-60352858D01*
X128044000Y-60376750D01*
X128044000Y-61289250D01*
X128042826Y-61313142D01*
X128039316Y-61336803D01*
X128033504Y-61360007D01*
X128025446Y-61382529D01*
X128015218Y-61404153D01*
X128002921Y-61424670D01*
X127988671Y-61443883D01*
X127972607Y-61461607D01*
X127954883Y-61477671D01*
X127935670Y-61491921D01*
X127915153Y-61504218D01*
X127893529Y-61514446D01*
X127871007Y-61522504D01*
X127847803Y-61528316D01*
X127824142Y-61531826D01*
X127800250Y-61533000D01*
X127312750Y-61533000D01*
X127288858Y-61531826D01*
X127265197Y-61528316D01*
X127241993Y-61522504D01*
X127219471Y-61514446D01*
X127197847Y-61504218D01*
X127177330Y-61491921D01*
X127158117Y-61477671D01*
X127140393Y-61461607D01*
X127124329Y-61443883D01*
X127110079Y-61424670D01*
X127097782Y-61404153D01*
X127087554Y-61382529D01*
X127079496Y-61360007D01*
X127073684Y-61336803D01*
X127070174Y-61313142D01*
X127069000Y-61289250D01*
X127069000Y-60376750D01*
X127070174Y-60352858D01*
X127073684Y-60329197D01*
X127079496Y-60305993D01*
X127087554Y-60283471D01*
X127097782Y-60261847D01*
X127110079Y-60241330D01*
X127124329Y-60222117D01*
X127140393Y-60204393D01*
X127158117Y-60188329D01*
X127177330Y-60174079D01*
X127197847Y-60161782D01*
X127219471Y-60151554D01*
X127241993Y-60143496D01*
X127265197Y-60137684D01*
X127288858Y-60134174D01*
X127312750Y-60133000D01*
X127800250Y-60133000D01*
X127824142Y-60134174D01*
X127824142Y-60134174D01*
G37*
D14*
X127556500Y-60833000D03*
D13*
G36*
X125949142Y-60134174D02*
G01*
X125972803Y-60137684D01*
X125996007Y-60143496D01*
X126018529Y-60151554D01*
X126040153Y-60161782D01*
X126060670Y-60174079D01*
X126079883Y-60188329D01*
X126097607Y-60204393D01*
X126113671Y-60222117D01*
X126127921Y-60241330D01*
X126140218Y-60261847D01*
X126150446Y-60283471D01*
X126158504Y-60305993D01*
X126164316Y-60329197D01*
X126167826Y-60352858D01*
X126169000Y-60376750D01*
X126169000Y-61289250D01*
X126167826Y-61313142D01*
X126164316Y-61336803D01*
X126158504Y-61360007D01*
X126150446Y-61382529D01*
X126140218Y-61404153D01*
X126127921Y-61424670D01*
X126113671Y-61443883D01*
X126097607Y-61461607D01*
X126079883Y-61477671D01*
X126060670Y-61491921D01*
X126040153Y-61504218D01*
X126018529Y-61514446D01*
X125996007Y-61522504D01*
X125972803Y-61528316D01*
X125949142Y-61531826D01*
X125925250Y-61533000D01*
X125437750Y-61533000D01*
X125413858Y-61531826D01*
X125390197Y-61528316D01*
X125366993Y-61522504D01*
X125344471Y-61514446D01*
X125322847Y-61504218D01*
X125302330Y-61491921D01*
X125283117Y-61477671D01*
X125265393Y-61461607D01*
X125249329Y-61443883D01*
X125235079Y-61424670D01*
X125222782Y-61404153D01*
X125212554Y-61382529D01*
X125204496Y-61360007D01*
X125198684Y-61336803D01*
X125195174Y-61313142D01*
X125194000Y-61289250D01*
X125194000Y-60376750D01*
X125195174Y-60352858D01*
X125198684Y-60329197D01*
X125204496Y-60305993D01*
X125212554Y-60283471D01*
X125222782Y-60261847D01*
X125235079Y-60241330D01*
X125249329Y-60222117D01*
X125265393Y-60204393D01*
X125283117Y-60188329D01*
X125302330Y-60174079D01*
X125322847Y-60161782D01*
X125344471Y-60151554D01*
X125366993Y-60143496D01*
X125390197Y-60137684D01*
X125413858Y-60134174D01*
X125437750Y-60133000D01*
X125925250Y-60133000D01*
X125949142Y-60134174D01*
X125949142Y-60134174D01*
G37*
D14*
X125681500Y-60833000D03*
D13*
G36*
X127824142Y-66484174D02*
G01*
X127847803Y-66487684D01*
X127871007Y-66493496D01*
X127893529Y-66501554D01*
X127915153Y-66511782D01*
X127935670Y-66524079D01*
X127954883Y-66538329D01*
X127972607Y-66554393D01*
X127988671Y-66572117D01*
X128002921Y-66591330D01*
X128015218Y-66611847D01*
X128025446Y-66633471D01*
X128033504Y-66655993D01*
X128039316Y-66679197D01*
X128042826Y-66702858D01*
X128044000Y-66726750D01*
X128044000Y-67639250D01*
X128042826Y-67663142D01*
X128039316Y-67686803D01*
X128033504Y-67710007D01*
X128025446Y-67732529D01*
X128015218Y-67754153D01*
X128002921Y-67774670D01*
X127988671Y-67793883D01*
X127972607Y-67811607D01*
X127954883Y-67827671D01*
X127935670Y-67841921D01*
X127915153Y-67854218D01*
X127893529Y-67864446D01*
X127871007Y-67872504D01*
X127847803Y-67878316D01*
X127824142Y-67881826D01*
X127800250Y-67883000D01*
X127312750Y-67883000D01*
X127288858Y-67881826D01*
X127265197Y-67878316D01*
X127241993Y-67872504D01*
X127219471Y-67864446D01*
X127197847Y-67854218D01*
X127177330Y-67841921D01*
X127158117Y-67827671D01*
X127140393Y-67811607D01*
X127124329Y-67793883D01*
X127110079Y-67774670D01*
X127097782Y-67754153D01*
X127087554Y-67732529D01*
X127079496Y-67710007D01*
X127073684Y-67686803D01*
X127070174Y-67663142D01*
X127069000Y-67639250D01*
X127069000Y-66726750D01*
X127070174Y-66702858D01*
X127073684Y-66679197D01*
X127079496Y-66655993D01*
X127087554Y-66633471D01*
X127097782Y-66611847D01*
X127110079Y-66591330D01*
X127124329Y-66572117D01*
X127140393Y-66554393D01*
X127158117Y-66538329D01*
X127177330Y-66524079D01*
X127197847Y-66511782D01*
X127219471Y-66501554D01*
X127241993Y-66493496D01*
X127265197Y-66487684D01*
X127288858Y-66484174D01*
X127312750Y-66483000D01*
X127800250Y-66483000D01*
X127824142Y-66484174D01*
X127824142Y-66484174D01*
G37*
D14*
X127556500Y-67183000D03*
D13*
G36*
X125949142Y-66484174D02*
G01*
X125972803Y-66487684D01*
X125996007Y-66493496D01*
X126018529Y-66501554D01*
X126040153Y-66511782D01*
X126060670Y-66524079D01*
X126079883Y-66538329D01*
X126097607Y-66554393D01*
X126113671Y-66572117D01*
X126127921Y-66591330D01*
X126140218Y-66611847D01*
X126150446Y-66633471D01*
X126158504Y-66655993D01*
X126164316Y-66679197D01*
X126167826Y-66702858D01*
X126169000Y-66726750D01*
X126169000Y-67639250D01*
X126167826Y-67663142D01*
X126164316Y-67686803D01*
X126158504Y-67710007D01*
X126150446Y-67732529D01*
X126140218Y-67754153D01*
X126127921Y-67774670D01*
X126113671Y-67793883D01*
X126097607Y-67811607D01*
X126079883Y-67827671D01*
X126060670Y-67841921D01*
X126040153Y-67854218D01*
X126018529Y-67864446D01*
X125996007Y-67872504D01*
X125972803Y-67878316D01*
X125949142Y-67881826D01*
X125925250Y-67883000D01*
X125437750Y-67883000D01*
X125413858Y-67881826D01*
X125390197Y-67878316D01*
X125366993Y-67872504D01*
X125344471Y-67864446D01*
X125322847Y-67854218D01*
X125302330Y-67841921D01*
X125283117Y-67827671D01*
X125265393Y-67811607D01*
X125249329Y-67793883D01*
X125235079Y-67774670D01*
X125222782Y-67754153D01*
X125212554Y-67732529D01*
X125204496Y-67710007D01*
X125198684Y-67686803D01*
X125195174Y-67663142D01*
X125194000Y-67639250D01*
X125194000Y-66726750D01*
X125195174Y-66702858D01*
X125198684Y-66679197D01*
X125204496Y-66655993D01*
X125212554Y-66633471D01*
X125222782Y-66611847D01*
X125235079Y-66591330D01*
X125249329Y-66572117D01*
X125265393Y-66554393D01*
X125283117Y-66538329D01*
X125302330Y-66524079D01*
X125322847Y-66511782D01*
X125344471Y-66501554D01*
X125366993Y-66493496D01*
X125390197Y-66487684D01*
X125413858Y-66484174D01*
X125437750Y-66483000D01*
X125925250Y-66483000D01*
X125949142Y-66484174D01*
X125949142Y-66484174D01*
G37*
D14*
X125681500Y-67183000D03*
D13*
G36*
X103223142Y-62808174D02*
G01*
X103246803Y-62811684D01*
X103270007Y-62817496D01*
X103292529Y-62825554D01*
X103314153Y-62835782D01*
X103334670Y-62848079D01*
X103353883Y-62862329D01*
X103371607Y-62878393D01*
X103387671Y-62896117D01*
X103401921Y-62915330D01*
X103414218Y-62935847D01*
X103424446Y-62957471D01*
X103432504Y-62979993D01*
X103438316Y-63003197D01*
X103441826Y-63026858D01*
X103443000Y-63050750D01*
X103443000Y-63538250D01*
X103441826Y-63562142D01*
X103438316Y-63585803D01*
X103432504Y-63609007D01*
X103424446Y-63631529D01*
X103414218Y-63653153D01*
X103401921Y-63673670D01*
X103387671Y-63692883D01*
X103371607Y-63710607D01*
X103353883Y-63726671D01*
X103334670Y-63740921D01*
X103314153Y-63753218D01*
X103292529Y-63763446D01*
X103270007Y-63771504D01*
X103246803Y-63777316D01*
X103223142Y-63780826D01*
X103199250Y-63782000D01*
X102286750Y-63782000D01*
X102262858Y-63780826D01*
X102239197Y-63777316D01*
X102215993Y-63771504D01*
X102193471Y-63763446D01*
X102171847Y-63753218D01*
X102151330Y-63740921D01*
X102132117Y-63726671D01*
X102114393Y-63710607D01*
X102098329Y-63692883D01*
X102084079Y-63673670D01*
X102071782Y-63653153D01*
X102061554Y-63631529D01*
X102053496Y-63609007D01*
X102047684Y-63585803D01*
X102044174Y-63562142D01*
X102043000Y-63538250D01*
X102043000Y-63050750D01*
X102044174Y-63026858D01*
X102047684Y-63003197D01*
X102053496Y-62979993D01*
X102061554Y-62957471D01*
X102071782Y-62935847D01*
X102084079Y-62915330D01*
X102098329Y-62896117D01*
X102114393Y-62878393D01*
X102132117Y-62862329D01*
X102151330Y-62848079D01*
X102171847Y-62835782D01*
X102193471Y-62825554D01*
X102215993Y-62817496D01*
X102239197Y-62811684D01*
X102262858Y-62808174D01*
X102286750Y-62807000D01*
X103199250Y-62807000D01*
X103223142Y-62808174D01*
X103223142Y-62808174D01*
G37*
D14*
X102743000Y-63294500D03*
D13*
G36*
X103223142Y-60933174D02*
G01*
X103246803Y-60936684D01*
X103270007Y-60942496D01*
X103292529Y-60950554D01*
X103314153Y-60960782D01*
X103334670Y-60973079D01*
X103353883Y-60987329D01*
X103371607Y-61003393D01*
X103387671Y-61021117D01*
X103401921Y-61040330D01*
X103414218Y-61060847D01*
X103424446Y-61082471D01*
X103432504Y-61104993D01*
X103438316Y-61128197D01*
X103441826Y-61151858D01*
X103443000Y-61175750D01*
X103443000Y-61663250D01*
X103441826Y-61687142D01*
X103438316Y-61710803D01*
X103432504Y-61734007D01*
X103424446Y-61756529D01*
X103414218Y-61778153D01*
X103401921Y-61798670D01*
X103387671Y-61817883D01*
X103371607Y-61835607D01*
X103353883Y-61851671D01*
X103334670Y-61865921D01*
X103314153Y-61878218D01*
X103292529Y-61888446D01*
X103270007Y-61896504D01*
X103246803Y-61902316D01*
X103223142Y-61905826D01*
X103199250Y-61907000D01*
X102286750Y-61907000D01*
X102262858Y-61905826D01*
X102239197Y-61902316D01*
X102215993Y-61896504D01*
X102193471Y-61888446D01*
X102171847Y-61878218D01*
X102151330Y-61865921D01*
X102132117Y-61851671D01*
X102114393Y-61835607D01*
X102098329Y-61817883D01*
X102084079Y-61798670D01*
X102071782Y-61778153D01*
X102061554Y-61756529D01*
X102053496Y-61734007D01*
X102047684Y-61710803D01*
X102044174Y-61687142D01*
X102043000Y-61663250D01*
X102043000Y-61175750D01*
X102044174Y-61151858D01*
X102047684Y-61128197D01*
X102053496Y-61104993D01*
X102061554Y-61082471D01*
X102071782Y-61060847D01*
X102084079Y-61040330D01*
X102098329Y-61021117D01*
X102114393Y-61003393D01*
X102132117Y-60987329D01*
X102151330Y-60973079D01*
X102171847Y-60960782D01*
X102193471Y-60950554D01*
X102215993Y-60942496D01*
X102239197Y-60936684D01*
X102262858Y-60933174D01*
X102286750Y-60932000D01*
X103199250Y-60932000D01*
X103223142Y-60933174D01*
X103223142Y-60933174D01*
G37*
D14*
X102743000Y-61419500D03*
D13*
G36*
X103223142Y-68680174D02*
G01*
X103246803Y-68683684D01*
X103270007Y-68689496D01*
X103292529Y-68697554D01*
X103314153Y-68707782D01*
X103334670Y-68720079D01*
X103353883Y-68734329D01*
X103371607Y-68750393D01*
X103387671Y-68768117D01*
X103401921Y-68787330D01*
X103414218Y-68807847D01*
X103424446Y-68829471D01*
X103432504Y-68851993D01*
X103438316Y-68875197D01*
X103441826Y-68898858D01*
X103443000Y-68922750D01*
X103443000Y-69410250D01*
X103441826Y-69434142D01*
X103438316Y-69457803D01*
X103432504Y-69481007D01*
X103424446Y-69503529D01*
X103414218Y-69525153D01*
X103401921Y-69545670D01*
X103387671Y-69564883D01*
X103371607Y-69582607D01*
X103353883Y-69598671D01*
X103334670Y-69612921D01*
X103314153Y-69625218D01*
X103292529Y-69635446D01*
X103270007Y-69643504D01*
X103246803Y-69649316D01*
X103223142Y-69652826D01*
X103199250Y-69654000D01*
X102286750Y-69654000D01*
X102262858Y-69652826D01*
X102239197Y-69649316D01*
X102215993Y-69643504D01*
X102193471Y-69635446D01*
X102171847Y-69625218D01*
X102151330Y-69612921D01*
X102132117Y-69598671D01*
X102114393Y-69582607D01*
X102098329Y-69564883D01*
X102084079Y-69545670D01*
X102071782Y-69525153D01*
X102061554Y-69503529D01*
X102053496Y-69481007D01*
X102047684Y-69457803D01*
X102044174Y-69434142D01*
X102043000Y-69410250D01*
X102043000Y-68922750D01*
X102044174Y-68898858D01*
X102047684Y-68875197D01*
X102053496Y-68851993D01*
X102061554Y-68829471D01*
X102071782Y-68807847D01*
X102084079Y-68787330D01*
X102098329Y-68768117D01*
X102114393Y-68750393D01*
X102132117Y-68734329D01*
X102151330Y-68720079D01*
X102171847Y-68707782D01*
X102193471Y-68697554D01*
X102215993Y-68689496D01*
X102239197Y-68683684D01*
X102262858Y-68680174D01*
X102286750Y-68679000D01*
X103199250Y-68679000D01*
X103223142Y-68680174D01*
X103223142Y-68680174D01*
G37*
D14*
X102743000Y-69166500D03*
D13*
G36*
X103223142Y-70555174D02*
G01*
X103246803Y-70558684D01*
X103270007Y-70564496D01*
X103292529Y-70572554D01*
X103314153Y-70582782D01*
X103334670Y-70595079D01*
X103353883Y-70609329D01*
X103371607Y-70625393D01*
X103387671Y-70643117D01*
X103401921Y-70662330D01*
X103414218Y-70682847D01*
X103424446Y-70704471D01*
X103432504Y-70726993D01*
X103438316Y-70750197D01*
X103441826Y-70773858D01*
X103443000Y-70797750D01*
X103443000Y-71285250D01*
X103441826Y-71309142D01*
X103438316Y-71332803D01*
X103432504Y-71356007D01*
X103424446Y-71378529D01*
X103414218Y-71400153D01*
X103401921Y-71420670D01*
X103387671Y-71439883D01*
X103371607Y-71457607D01*
X103353883Y-71473671D01*
X103334670Y-71487921D01*
X103314153Y-71500218D01*
X103292529Y-71510446D01*
X103270007Y-71518504D01*
X103246803Y-71524316D01*
X103223142Y-71527826D01*
X103199250Y-71529000D01*
X102286750Y-71529000D01*
X102262858Y-71527826D01*
X102239197Y-71524316D01*
X102215993Y-71518504D01*
X102193471Y-71510446D01*
X102171847Y-71500218D01*
X102151330Y-71487921D01*
X102132117Y-71473671D01*
X102114393Y-71457607D01*
X102098329Y-71439883D01*
X102084079Y-71420670D01*
X102071782Y-71400153D01*
X102061554Y-71378529D01*
X102053496Y-71356007D01*
X102047684Y-71332803D01*
X102044174Y-71309142D01*
X102043000Y-71285250D01*
X102043000Y-70797750D01*
X102044174Y-70773858D01*
X102047684Y-70750197D01*
X102053496Y-70726993D01*
X102061554Y-70704471D01*
X102071782Y-70682847D01*
X102084079Y-70662330D01*
X102098329Y-70643117D01*
X102114393Y-70625393D01*
X102132117Y-70609329D01*
X102151330Y-70595079D01*
X102171847Y-70582782D01*
X102193471Y-70572554D01*
X102215993Y-70564496D01*
X102239197Y-70558684D01*
X102262858Y-70555174D01*
X102286750Y-70554000D01*
X103199250Y-70554000D01*
X103223142Y-70555174D01*
X103223142Y-70555174D01*
G37*
D14*
X102743000Y-71041500D03*
D13*
G36*
X116648142Y-73850174D02*
G01*
X116671803Y-73853684D01*
X116695007Y-73859496D01*
X116717529Y-73867554D01*
X116739153Y-73877782D01*
X116759670Y-73890079D01*
X116778883Y-73904329D01*
X116796607Y-73920393D01*
X116812671Y-73938117D01*
X116826921Y-73957330D01*
X116839218Y-73977847D01*
X116849446Y-73999471D01*
X116857504Y-74021993D01*
X116863316Y-74045197D01*
X116866826Y-74068858D01*
X116868000Y-74092750D01*
X116868000Y-75005250D01*
X116866826Y-75029142D01*
X116863316Y-75052803D01*
X116857504Y-75076007D01*
X116849446Y-75098529D01*
X116839218Y-75120153D01*
X116826921Y-75140670D01*
X116812671Y-75159883D01*
X116796607Y-75177607D01*
X116778883Y-75193671D01*
X116759670Y-75207921D01*
X116739153Y-75220218D01*
X116717529Y-75230446D01*
X116695007Y-75238504D01*
X116671803Y-75244316D01*
X116648142Y-75247826D01*
X116624250Y-75249000D01*
X116136750Y-75249000D01*
X116112858Y-75247826D01*
X116089197Y-75244316D01*
X116065993Y-75238504D01*
X116043471Y-75230446D01*
X116021847Y-75220218D01*
X116001330Y-75207921D01*
X115982117Y-75193671D01*
X115964393Y-75177607D01*
X115948329Y-75159883D01*
X115934079Y-75140670D01*
X115921782Y-75120153D01*
X115911554Y-75098529D01*
X115903496Y-75076007D01*
X115897684Y-75052803D01*
X115894174Y-75029142D01*
X115893000Y-75005250D01*
X115893000Y-74092750D01*
X115894174Y-74068858D01*
X115897684Y-74045197D01*
X115903496Y-74021993D01*
X115911554Y-73999471D01*
X115921782Y-73977847D01*
X115934079Y-73957330D01*
X115948329Y-73938117D01*
X115964393Y-73920393D01*
X115982117Y-73904329D01*
X116001330Y-73890079D01*
X116021847Y-73877782D01*
X116043471Y-73867554D01*
X116065993Y-73859496D01*
X116089197Y-73853684D01*
X116112858Y-73850174D01*
X116136750Y-73849000D01*
X116624250Y-73849000D01*
X116648142Y-73850174D01*
X116648142Y-73850174D01*
G37*
D14*
X116380500Y-74549000D03*
D13*
G36*
X114773142Y-73850174D02*
G01*
X114796803Y-73853684D01*
X114820007Y-73859496D01*
X114842529Y-73867554D01*
X114864153Y-73877782D01*
X114884670Y-73890079D01*
X114903883Y-73904329D01*
X114921607Y-73920393D01*
X114937671Y-73938117D01*
X114951921Y-73957330D01*
X114964218Y-73977847D01*
X114974446Y-73999471D01*
X114982504Y-74021993D01*
X114988316Y-74045197D01*
X114991826Y-74068858D01*
X114993000Y-74092750D01*
X114993000Y-75005250D01*
X114991826Y-75029142D01*
X114988316Y-75052803D01*
X114982504Y-75076007D01*
X114974446Y-75098529D01*
X114964218Y-75120153D01*
X114951921Y-75140670D01*
X114937671Y-75159883D01*
X114921607Y-75177607D01*
X114903883Y-75193671D01*
X114884670Y-75207921D01*
X114864153Y-75220218D01*
X114842529Y-75230446D01*
X114820007Y-75238504D01*
X114796803Y-75244316D01*
X114773142Y-75247826D01*
X114749250Y-75249000D01*
X114261750Y-75249000D01*
X114237858Y-75247826D01*
X114214197Y-75244316D01*
X114190993Y-75238504D01*
X114168471Y-75230446D01*
X114146847Y-75220218D01*
X114126330Y-75207921D01*
X114107117Y-75193671D01*
X114089393Y-75177607D01*
X114073329Y-75159883D01*
X114059079Y-75140670D01*
X114046782Y-75120153D01*
X114036554Y-75098529D01*
X114028496Y-75076007D01*
X114022684Y-75052803D01*
X114019174Y-75029142D01*
X114018000Y-75005250D01*
X114018000Y-74092750D01*
X114019174Y-74068858D01*
X114022684Y-74045197D01*
X114028496Y-74021993D01*
X114036554Y-73999471D01*
X114046782Y-73977847D01*
X114059079Y-73957330D01*
X114073329Y-73938117D01*
X114089393Y-73920393D01*
X114107117Y-73904329D01*
X114126330Y-73890079D01*
X114146847Y-73877782D01*
X114168471Y-73867554D01*
X114190993Y-73859496D01*
X114214197Y-73853684D01*
X114237858Y-73850174D01*
X114261750Y-73849000D01*
X114749250Y-73849000D01*
X114773142Y-73850174D01*
X114773142Y-73850174D01*
G37*
D14*
X114505500Y-74549000D03*
D27*
X38417500Y-9525000D03*
X28257500Y-9525000D03*
D28*
X29527500Y-6985000D03*
D29*
X33337500Y-9525000D03*
D28*
X35877500Y-4445000D03*
D27*
X269398750Y-9525000D03*
X259238750Y-9525000D03*
D28*
X260508750Y-6985000D03*
D29*
X264318750Y-9525000D03*
D28*
X266858750Y-4445000D03*
D27*
X21748750Y-28575000D03*
X11588750Y-28575000D03*
D28*
X12858750Y-26035000D03*
D29*
X16668750Y-28575000D03*
D28*
X19208750Y-23495000D03*
D27*
X47942500Y-28575000D03*
X37782500Y-28575000D03*
D28*
X39052500Y-26035000D03*
D29*
X42862500Y-28575000D03*
D28*
X45402500Y-23495000D03*
D27*
X264636250Y-28575000D03*
X254476250Y-28575000D03*
D28*
X255746250Y-26035000D03*
D29*
X259556250Y-28575000D03*
D28*
X262096250Y-23495000D03*
D29*
X33337500Y-39370000D03*
X9525000Y-39370000D03*
D30*
X33337500Y-54610000D03*
X9525000Y-54610000D03*
D27*
X26511250Y-47625000D03*
X16351250Y-47625000D03*
D28*
X17621250Y-45085000D03*
D29*
X21431250Y-47625000D03*
D28*
X23971250Y-42545000D03*
D27*
X57467500Y-47625000D03*
X47307500Y-47625000D03*
D28*
X48577500Y-45085000D03*
D29*
X52387500Y-47625000D03*
D28*
X54927500Y-42545000D03*
D29*
X266700000Y-39370000D03*
X242887500Y-39370000D03*
D30*
X266700000Y-54610000D03*
X242887500Y-54610000D03*
D27*
X259873750Y-47625000D03*
X249713750Y-47625000D03*
D28*
X250983750Y-45085000D03*
D29*
X254793750Y-47625000D03*
D28*
X257333750Y-42545000D03*
D27*
X43180000Y-66675000D03*
X33020000Y-66675000D03*
D28*
X34290000Y-64135000D03*
D29*
X38100000Y-66675000D03*
D28*
X40640000Y-61595000D03*
D27*
X64611250Y-66675000D03*
X54451250Y-66675000D03*
D28*
X55721250Y-64135000D03*
D29*
X59531250Y-66675000D03*
D28*
X62071250Y-61595000D03*
D29*
X102393750Y-58420000D03*
X78581250Y-58420000D03*
D30*
X102393750Y-73660000D03*
X78581250Y-73660000D03*
D27*
X95567500Y-66675000D03*
X85407500Y-66675000D03*
D28*
X86677500Y-64135000D03*
D29*
X90487500Y-66675000D03*
D28*
X93027500Y-61595000D03*
D29*
X157162500Y-58420000D03*
X119062500Y-58420000D03*
D30*
X157162500Y-73660000D03*
X119062500Y-73660000D03*
D29*
X195262500Y-58420000D03*
X80962500Y-58420000D03*
D30*
X195262500Y-73660000D03*
X80962500Y-73660000D03*
D27*
X143192500Y-66675000D03*
X133032500Y-66675000D03*
D28*
X134302500Y-64135000D03*
D29*
X138112500Y-66675000D03*
D28*
X140652500Y-61595000D03*
D29*
X197643750Y-58420000D03*
X173831250Y-58420000D03*
D30*
X197643750Y-73660000D03*
X173831250Y-73660000D03*
D27*
X190817500Y-66675000D03*
X180657500Y-66675000D03*
D28*
X181927500Y-64135000D03*
D29*
X185737500Y-66675000D03*
D28*
X188277500Y-61595000D03*
D27*
X221773750Y-66675000D03*
X211613750Y-66675000D03*
D28*
X212883750Y-64135000D03*
D29*
X216693750Y-66675000D03*
D28*
X219233750Y-61595000D03*
D27*
X243205000Y-66675000D03*
X233045000Y-66675000D03*
D28*
X234315000Y-64135000D03*
D29*
X238125000Y-66675000D03*
D28*
X240665000Y-61595000D03*
D27*
X16986250Y-9525000D03*
X6826250Y-9525000D03*
D28*
X8096250Y-6985000D03*
D29*
X11906250Y-9525000D03*
D28*
X14446250Y-4445000D03*
D27*
X95567500Y-47625000D03*
X85407500Y-47625000D03*
D28*
X86677500Y-45085000D03*
D29*
X90487500Y-47625000D03*
D28*
X93027500Y-42545000D03*
D27*
X95567500Y-9525000D03*
X85407500Y-9525000D03*
D28*
X86677500Y-6985000D03*
D29*
X90487500Y-9525000D03*
D28*
X93027500Y-4445000D03*
D27*
X228917500Y-47625000D03*
X218757500Y-47625000D03*
D28*
X220027500Y-45085000D03*
D29*
X223837500Y-47625000D03*
D28*
X226377500Y-42545000D03*
D27*
X209867500Y-47625000D03*
X199707500Y-47625000D03*
D28*
X200977500Y-45085000D03*
D29*
X204787500Y-47625000D03*
D28*
X207327500Y-42545000D03*
D27*
X190817500Y-47625000D03*
X180657500Y-47625000D03*
D28*
X181927500Y-45085000D03*
D29*
X185737500Y-47625000D03*
D28*
X188277500Y-42545000D03*
D27*
X171767500Y-47625000D03*
X161607500Y-47625000D03*
D28*
X162877500Y-45085000D03*
D29*
X166687500Y-47625000D03*
D28*
X169227500Y-42545000D03*
D27*
X152717500Y-47625000D03*
X142557500Y-47625000D03*
D28*
X143827500Y-45085000D03*
D29*
X147637500Y-47625000D03*
D28*
X150177500Y-42545000D03*
D27*
X133667500Y-47625000D03*
X123507500Y-47625000D03*
D28*
X124777500Y-45085000D03*
D29*
X128587500Y-47625000D03*
D28*
X131127500Y-42545000D03*
D27*
X114617500Y-47625000D03*
X104457500Y-47625000D03*
D28*
X105727500Y-45085000D03*
D29*
X109537500Y-47625000D03*
D28*
X112077500Y-42545000D03*
D27*
X76517500Y-47625000D03*
X66357500Y-47625000D03*
D28*
X67627500Y-45085000D03*
D29*
X71437500Y-47625000D03*
D28*
X73977500Y-42545000D03*
D27*
X238442500Y-28575000D03*
X228282500Y-28575000D03*
D28*
X229552500Y-26035000D03*
D29*
X233362500Y-28575000D03*
D28*
X235902500Y-23495000D03*
D27*
X219392500Y-28575000D03*
X209232500Y-28575000D03*
D28*
X210502500Y-26035000D03*
D29*
X214312500Y-28575000D03*
D28*
X216852500Y-23495000D03*
D27*
X200342500Y-28575000D03*
X190182500Y-28575000D03*
D28*
X191452500Y-26035000D03*
D29*
X195262500Y-28575000D03*
D28*
X197802500Y-23495000D03*
D27*
X181292500Y-28575000D03*
X171132500Y-28575000D03*
D28*
X172402500Y-26035000D03*
D29*
X176212500Y-28575000D03*
D28*
X178752500Y-23495000D03*
D27*
X162242500Y-28575000D03*
X152082500Y-28575000D03*
D28*
X153352500Y-26035000D03*
D29*
X157162500Y-28575000D03*
D28*
X159702500Y-23495000D03*
D27*
X143192500Y-28575000D03*
X133032500Y-28575000D03*
D28*
X134302500Y-26035000D03*
D29*
X138112500Y-28575000D03*
D28*
X140652500Y-23495000D03*
D27*
X124142500Y-28575000D03*
X113982500Y-28575000D03*
D28*
X115252500Y-26035000D03*
D29*
X119062500Y-28575000D03*
D28*
X121602500Y-23495000D03*
D27*
X105092500Y-28575000D03*
X94932500Y-28575000D03*
D28*
X96202500Y-26035000D03*
D29*
X100012500Y-28575000D03*
D28*
X102552500Y-23495000D03*
D27*
X86042500Y-28575000D03*
X75882500Y-28575000D03*
D28*
X77152500Y-26035000D03*
D29*
X80962500Y-28575000D03*
D28*
X83502500Y-23495000D03*
D27*
X66992500Y-28575000D03*
X56832500Y-28575000D03*
D28*
X58102500Y-26035000D03*
D29*
X61912500Y-28575000D03*
D28*
X64452500Y-23495000D03*
D27*
X247967500Y-9525000D03*
X237807500Y-9525000D03*
D28*
X239077500Y-6985000D03*
D29*
X242887500Y-9525000D03*
D28*
X245427500Y-4445000D03*
D27*
X228917500Y-9525000D03*
X218757500Y-9525000D03*
D28*
X220027500Y-6985000D03*
D29*
X223837500Y-9525000D03*
D28*
X226377500Y-4445000D03*
D27*
X209867500Y-9525000D03*
X199707500Y-9525000D03*
D28*
X200977500Y-6985000D03*
D29*
X204787500Y-9525000D03*
D28*
X207327500Y-4445000D03*
D27*
X190817500Y-9525000D03*
X180657500Y-9525000D03*
D28*
X181927500Y-6985000D03*
D29*
X185737500Y-9525000D03*
D28*
X188277500Y-4445000D03*
D27*
X171767500Y-9525000D03*
X161607500Y-9525000D03*
D28*
X162877500Y-6985000D03*
D29*
X166687500Y-9525000D03*
D28*
X169227500Y-4445000D03*
D27*
X152717500Y-9525000D03*
X142557500Y-9525000D03*
D28*
X143827500Y-6985000D03*
D29*
X147637500Y-9525000D03*
D28*
X150177500Y-4445000D03*
D27*
X133667500Y-9525000D03*
X123507500Y-9525000D03*
D28*
X124777500Y-6985000D03*
D29*
X128587500Y-9525000D03*
D28*
X131127500Y-4445000D03*
D27*
X114617500Y-9525000D03*
X104457500Y-9525000D03*
D28*
X105727500Y-6985000D03*
D29*
X109537500Y-9525000D03*
D28*
X112077500Y-4445000D03*
D27*
X76517500Y-9525000D03*
X66357500Y-9525000D03*
D28*
X67627500Y-6985000D03*
D29*
X71437500Y-9525000D03*
D28*
X73977500Y-4445000D03*
D27*
X57467500Y-9525000D03*
X47307500Y-9525000D03*
D28*
X48577500Y-6985000D03*
D29*
X52387500Y-9525000D03*
D28*
X54927500Y-4445000D03*
D12*
X41862500Y-8756000D03*
X41862500Y-12056000D03*
X60912500Y-8756000D03*
X60912500Y-12056000D03*
X79962500Y-8756000D03*
X79962500Y-12056000D03*
X99012500Y-8756000D03*
X99012500Y-12056000D03*
X118062500Y-8756000D03*
X118062500Y-12056000D03*
X136906000Y-9399000D03*
X136906000Y-12699000D03*
X156162500Y-8756000D03*
X156162500Y-12056000D03*
X175212500Y-8756000D03*
X175212500Y-12056000D03*
X194262500Y-8756000D03*
X194262500Y-12056000D03*
X213312500Y-8756000D03*
X213312500Y-12056000D03*
X232362500Y-8756000D03*
X232362500Y-12056000D03*
X251412500Y-8756000D03*
X251412500Y-12056000D03*
X273050000Y-8756000D03*
X273050000Y-12056000D03*
X32337500Y-27806000D03*
X32337500Y-31106000D03*
X51387500Y-27806000D03*
X51387500Y-31106000D03*
X70437500Y-27806000D03*
X70437500Y-31106000D03*
X89487500Y-27806000D03*
X89487500Y-31106000D03*
X108537500Y-27806000D03*
X108537500Y-31106000D03*
X127587500Y-27806000D03*
X127587500Y-31106000D03*
X146637500Y-27806000D03*
X146637500Y-31106000D03*
X165687500Y-27806000D03*
X165687500Y-31106000D03*
X184737500Y-27806000D03*
X184737500Y-31106000D03*
X203787500Y-27806000D03*
X203787500Y-31106000D03*
X222837500Y-27806000D03*
X222837500Y-31106000D03*
X241887500Y-27806000D03*
X241887500Y-31106000D03*
X273050000Y-27806000D03*
X273050000Y-31106000D03*
X41862500Y-46856000D03*
X41862500Y-50156000D03*
X60912500Y-46856000D03*
X60912500Y-50156000D03*
X79962500Y-46856000D03*
X79962500Y-50156000D03*
X99012500Y-46856000D03*
X99012500Y-50156000D03*
X118062500Y-46856000D03*
X118062500Y-50156000D03*
X137112500Y-46856000D03*
X137112500Y-50156000D03*
X156162500Y-46856000D03*
X156162500Y-50156000D03*
X175212500Y-46856000D03*
X175212500Y-50156000D03*
X194262500Y-46856000D03*
X194262500Y-50156000D03*
X213312500Y-46856000D03*
X213312500Y-50156000D03*
X232362500Y-46856000D03*
X232362500Y-50156000D03*
X273050000Y-46864000D03*
X273050000Y-50164000D03*
X46625000Y-69333000D03*
X46625000Y-66033000D03*
X70437500Y-69333000D03*
X70437500Y-66033000D03*
X99060000Y-69341000D03*
X99060000Y-66041000D03*
X165354000Y-66041000D03*
X165354000Y-69341000D03*
X203660500Y-66033000D03*
X203660500Y-69333000D03*
X227473000Y-69333000D03*
X227473000Y-66033000D03*
X245745000Y-66033000D03*
X245745000Y-69333000D03*
M02*
