M48
; DRILL file {KiCad (5.1.4)-1} date 11/15/2020 13:42:58
; FORMAT={-:-/ absolute / inch / decimal}
; #@! TF.CreationDate,2020-11-15T13:42:58-06:00
; #@! TF.GenerationSoftware,Kicad,Pcbnew,(5.1.4)-1
; #@! TF.FileFunction,NonPlated,1,2,NPTH
FMAT,2
INCH
T1C0.0256
T2C0.0689
T3C0.1200
T4C0.1570
%
G90
G05
T1
X5.3262Y-0.0461
X5.5538Y-0.0461
T2
X10.0187Y-1.125
X10.4187Y-1.125
X1.8625Y-0.375
X2.2625Y-0.375
X8.2375Y-1.125
X8.6375Y-1.125
X3.7375Y-1.125
X4.1375Y-1.125
X0.2687Y-0.375
X0.6687Y-0.375
X1.4875Y-1.125
X1.8875Y-1.125
X9.3625Y-0.375
X9.7625Y-0.375
X4.4875Y-1.125
X4.8875Y-1.125
X5.2375Y-2.625
X5.6375Y-2.625
X4.1125Y-0.375
X4.5125Y-0.375
X1.3Y-2.625
X1.7Y-2.625
X10.2062Y-0.375
X10.6062Y-0.375
X7.1125Y-1.875
X7.5125Y-1.875
X7.8625Y-0.375
X8.2625Y-0.375
X5.6125Y-1.875
X6.0125Y-1.875
X1.8625Y-1.875
X2.2625Y-1.875
X8.9875Y-1.125
X9.3875Y-1.125
X3.3625Y-0.375
X3.7625Y-0.375
X8.3312Y-2.625
X8.7312Y-2.625
X6.7375Y-1.125
X7.1375Y-1.125
X2.2375Y-1.125
X2.6375Y-1.125
X0.4562Y-1.125
X0.8562Y-1.125
X9.175Y-2.625
X9.575Y-2.625
X2.6125Y-0.375
X3.0125Y-0.375
X7.1125Y-0.375
X7.5125Y-0.375
X3.3625Y-2.625
X3.7625Y-2.625
X4.1125Y-1.875
X4.5125Y-1.875
X9.8312Y-1.875
X10.2312Y-1.875
X7.8625Y-1.875
X8.2625Y-1.875
X3.3625Y-1.875
X3.7625Y-1.875
X4.8625Y-1.875
X5.2625Y-1.875
X1.1125Y-0.375
X1.5125Y-0.375
X0.6437Y-1.875
X1.0437Y-1.875
X8.6125Y-0.375
X9.0125Y-0.375
X7.4875Y-1.125
X7.8875Y-1.125
X5.2375Y-1.125
X5.6375Y-1.125
X6.3625Y-0.375
X6.7625Y-0.375
X2.9875Y-1.125
X3.3875Y-1.125
X4.8625Y-0.375
X5.2625Y-0.375
X5.9875Y-1.125
X6.3875Y-1.125
X7.1125Y-2.625
X7.5125Y-2.625
X5.6125Y-0.375
X6.0125Y-0.375
X2.1437Y-2.625
X2.5437Y-2.625
X8.6125Y-1.875
X9.0125Y-1.875
X6.3625Y-1.875
X6.7625Y-1.875
X2.6125Y-1.875
X3.0125Y-1.875
T3
X6.8438Y-2.9
X7.7812Y-2.9
X3.1875Y-2.9
X4.6875Y-2.9
X6.1875Y-2.9
X7.6875Y-2.9
X3.0938Y-2.9
X4.0312Y-2.9
X9.5625Y-2.15
X10.5Y-2.15
X0.375Y-2.15
X1.3125Y-2.15
T4
X2.4375Y-1.125
X0.6562Y-1.125
X9.375Y-2.625
X2.8125Y-0.375
X7.3125Y-0.375
X3.0938Y-2.3
X3.5625Y-2.625
X4.0312Y-2.3
X4.3125Y-1.875
X9.5625Y-1.55
X10.0312Y-1.875
X10.5Y-1.55
X8.0625Y-1.875
X3.5625Y-1.875
X5.0625Y-1.875
X1.3125Y-0.375
X0.375Y-1.55
X0.8438Y-1.875
X1.3125Y-1.55
X8.8125Y-0.375
X7.6875Y-1.125
X5.4375Y-1.125
X6.5625Y-0.375
X3.1875Y-1.125
X5.0625Y-0.375
X6.1875Y-1.125
X6.8438Y-2.3
X7.3125Y-2.625
X7.7812Y-2.3
X5.8125Y-0.375
X2.3438Y-2.625
X8.8125Y-1.875
X6.5625Y-1.875
X2.8125Y-1.875
X10.2188Y-1.125
X2.0625Y-0.375
X8.4375Y-1.125
X3.9375Y-1.125
X0.4688Y-0.375
X1.6875Y-1.125
X9.5625Y-0.375
X4.6875Y-1.125
X3.1875Y-2.3
X4.6875Y-2.3
X5.4375Y-2.625
X6.1875Y-2.3
X7.6875Y-2.3
X4.3125Y-0.375
X1.5Y-2.625
X10.4062Y-0.375
X7.3125Y-1.875
X8.0625Y-0.375
X5.8125Y-1.875
X2.0625Y-1.875
X9.1875Y-1.125
X3.5625Y-0.375
X8.5312Y-2.625
X6.9375Y-1.125
T0
M30
