G04 #@! TF.GenerationSoftware,KiCad,Pcbnew,(5.1.4)-1*
G04 #@! TF.CreationDate,2020-11-15T13:42:54-06:00*
G04 #@! TF.ProjectId,minim,6d696e69-6d2e-46b6-9963-61645f706362,rev?*
G04 #@! TF.SameCoordinates,Original*
G04 #@! TF.FileFunction,Legend,Top*
G04 #@! TF.FilePolarity,Positive*
%FSLAX46Y46*%
G04 Gerber Fmt 4.6, Leading zero omitted, Abs format (unit mm)*
G04 Created by KiCad (PCBNEW (5.1.4)-1) date 2020-11-15 13:42:54*
%MOMM*%
%LPD*%
G04 APERTURE LIST*
%ADD10C,0.076200*%
%ADD11C,0.150000*%
%ADD12C,0.010000*%
%ADD13C,0.650000*%
%ADD14O,1.000000X2.100000*%
%ADD15O,1.000000X1.600000*%
%ADD16C,1.750000*%
%ADD17C,3.987800*%
%ADD18C,3.048000*%
G04 APERTURE END LIST*
D10*
X108506380Y-67539809D02*
X108506380Y-67201142D01*
X108506380Y-67249523D02*
X108530571Y-67225333D01*
X108578952Y-67201142D01*
X108651523Y-67201142D01*
X108699904Y-67225333D01*
X108724095Y-67273714D01*
X108724095Y-67539809D01*
X108724095Y-67273714D02*
X108748285Y-67225333D01*
X108796666Y-67201142D01*
X108869238Y-67201142D01*
X108917619Y-67225333D01*
X108941809Y-67273714D01*
X108941809Y-67539809D01*
X109401428Y-67539809D02*
X109401428Y-67273714D01*
X109377238Y-67225333D01*
X109328857Y-67201142D01*
X109232095Y-67201142D01*
X109183714Y-67225333D01*
X109401428Y-67515619D02*
X109353047Y-67539809D01*
X109232095Y-67539809D01*
X109183714Y-67515619D01*
X109159523Y-67467238D01*
X109159523Y-67418857D01*
X109183714Y-67370476D01*
X109232095Y-67346285D01*
X109353047Y-67346285D01*
X109401428Y-67322095D01*
X109570761Y-67201142D02*
X109764285Y-67201142D01*
X109643333Y-67031809D02*
X109643333Y-67467238D01*
X109667523Y-67515619D01*
X109715904Y-67539809D01*
X109764285Y-67539809D01*
X109861047Y-67201142D02*
X110054571Y-67201142D01*
X109933619Y-67031809D02*
X109933619Y-67467238D01*
X109957809Y-67515619D01*
X110006190Y-67539809D01*
X110054571Y-67539809D01*
X110223904Y-67539809D02*
X110223904Y-67031809D01*
X110441619Y-67539809D02*
X110441619Y-67273714D01*
X110417428Y-67225333D01*
X110369047Y-67201142D01*
X110296476Y-67201142D01*
X110248095Y-67225333D01*
X110223904Y-67249523D01*
X110877047Y-67515619D02*
X110828666Y-67539809D01*
X110731904Y-67539809D01*
X110683523Y-67515619D01*
X110659333Y-67467238D01*
X110659333Y-67273714D01*
X110683523Y-67225333D01*
X110731904Y-67201142D01*
X110828666Y-67201142D01*
X110877047Y-67225333D01*
X110901238Y-67273714D01*
X110901238Y-67322095D01*
X110659333Y-67370476D01*
X111070571Y-67201142D02*
X111167333Y-67539809D01*
X111264095Y-67297904D01*
X111360857Y-67539809D01*
X111457619Y-67201142D01*
X111868857Y-67539809D02*
X111868857Y-67031809D01*
X111868857Y-67515619D02*
X111820476Y-67539809D01*
X111723714Y-67539809D01*
X111675333Y-67515619D01*
X111651142Y-67491428D01*
X111626952Y-67443047D01*
X111626952Y-67297904D01*
X111651142Y-67249523D01*
X111675333Y-67225333D01*
X111723714Y-67201142D01*
X111820476Y-67201142D01*
X111868857Y-67225333D01*
X112110761Y-67539809D02*
X112110761Y-67201142D01*
X112110761Y-67031809D02*
X112086571Y-67056000D01*
X112110761Y-67080190D01*
X112134952Y-67056000D01*
X112110761Y-67031809D01*
X112110761Y-67080190D01*
X112570380Y-67539809D02*
X112570380Y-67273714D01*
X112546190Y-67225333D01*
X112497809Y-67201142D01*
X112401047Y-67201142D01*
X112352666Y-67225333D01*
X112570380Y-67515619D02*
X112522000Y-67539809D01*
X112401047Y-67539809D01*
X112352666Y-67515619D01*
X112328476Y-67467238D01*
X112328476Y-67418857D01*
X112352666Y-67370476D01*
X112401047Y-67346285D01*
X112522000Y-67346285D01*
X112570380Y-67322095D01*
X112788095Y-67515619D02*
X112836476Y-67539809D01*
X112933238Y-67539809D01*
X112981619Y-67515619D01*
X113005809Y-67467238D01*
X113005809Y-67443047D01*
X112981619Y-67394666D01*
X112933238Y-67370476D01*
X112860666Y-67370476D01*
X112812285Y-67346285D01*
X112788095Y-67297904D01*
X112788095Y-67273714D01*
X112812285Y-67225333D01*
X112860666Y-67201142D01*
X112933238Y-67201142D01*
X112981619Y-67225333D01*
D11*
X107659714Y-66856428D02*
X107659714Y-65840428D01*
X107659714Y-65985571D02*
X107732285Y-65913000D01*
X107877428Y-65840428D01*
X108095142Y-65840428D01*
X108240285Y-65913000D01*
X108312857Y-66058142D01*
X108312857Y-66856428D01*
X108312857Y-66058142D02*
X108385428Y-65913000D01*
X108530571Y-65840428D01*
X108748285Y-65840428D01*
X108893428Y-65913000D01*
X108966000Y-66058142D01*
X108966000Y-66856428D01*
X109691714Y-66856428D02*
X109691714Y-65840428D01*
X109691714Y-65332428D02*
X109619142Y-65405000D01*
X109691714Y-65477571D01*
X109764285Y-65405000D01*
X109691714Y-65332428D01*
X109691714Y-65477571D01*
X110417428Y-65840428D02*
X110417428Y-66856428D01*
X110417428Y-65985571D02*
X110490000Y-65913000D01*
X110635142Y-65840428D01*
X110852857Y-65840428D01*
X110998000Y-65913000D01*
X111070571Y-66058142D01*
X111070571Y-66856428D01*
X111796285Y-66856428D02*
X111796285Y-65840428D01*
X111796285Y-65332428D02*
X111723714Y-65405000D01*
X111796285Y-65477571D01*
X111868857Y-65405000D01*
X111796285Y-65332428D01*
X111796285Y-65477571D01*
X112522000Y-66856428D02*
X112522000Y-65840428D01*
X112522000Y-65985571D02*
X112594571Y-65913000D01*
X112739714Y-65840428D01*
X112957428Y-65840428D01*
X113102571Y-65913000D01*
X113175142Y-66058142D01*
X113175142Y-66856428D01*
X113175142Y-66058142D02*
X113247714Y-65913000D01*
X113392857Y-65840428D01*
X113610571Y-65840428D01*
X113755714Y-65913000D01*
X113828285Y-66058142D01*
X113828285Y-66856428D01*
D12*
G36*
X167749479Y-65435320D02*
G01*
X167749459Y-65899187D01*
X167749399Y-66340418D01*
X167749299Y-66759281D01*
X167749158Y-67156043D01*
X167748976Y-67530972D01*
X167748751Y-67884336D01*
X167748483Y-68216402D01*
X167748171Y-68527438D01*
X167747816Y-68817712D01*
X167747416Y-69087490D01*
X167746970Y-69337042D01*
X167746479Y-69566633D01*
X167745941Y-69776533D01*
X167745356Y-69967009D01*
X167744723Y-70138327D01*
X167744042Y-70290757D01*
X167743312Y-70424565D01*
X167742532Y-70540020D01*
X167741702Y-70637388D01*
X167740821Y-70716937D01*
X167739889Y-70778935D01*
X167738905Y-70823650D01*
X167737868Y-70851350D01*
X167737134Y-70860590D01*
X167728918Y-70907075D01*
X167715954Y-70965357D01*
X167699736Y-71030054D01*
X167681759Y-71095784D01*
X167663516Y-71157162D01*
X167646500Y-71208808D01*
X167632205Y-71245337D01*
X167628073Y-71253642D01*
X167613575Y-71281699D01*
X167595708Y-71318722D01*
X167588731Y-71333804D01*
X167526106Y-71453810D01*
X167446354Y-71578629D01*
X167353147Y-71703475D01*
X167250155Y-71823566D01*
X167141047Y-71934117D01*
X167098408Y-71972928D01*
X167034181Y-72028371D01*
X166969960Y-72081732D01*
X166909859Y-72129734D01*
X166857992Y-72169096D01*
X166818473Y-72196540D01*
X166815505Y-72198412D01*
X166782361Y-72219558D01*
X166743998Y-72244702D01*
X166732331Y-72252492D01*
X166700122Y-72272912D01*
X166656025Y-72299306D01*
X166608296Y-72326759D01*
X166596442Y-72333390D01*
X166553339Y-72357367D01*
X166515669Y-72378369D01*
X166489581Y-72392965D01*
X166484059Y-72396075D01*
X166423460Y-72427305D01*
X166344417Y-72463133D01*
X166250534Y-72501961D01*
X166203491Y-72520338D01*
X166146048Y-72542406D01*
X166090388Y-72563804D01*
X166043326Y-72581913D01*
X166014537Y-72593007D01*
X165957468Y-72612360D01*
X165882597Y-72633737D01*
X165794808Y-72655998D01*
X165698981Y-72678004D01*
X165600001Y-72698614D01*
X165502749Y-72716688D01*
X165441949Y-72726665D01*
X165351161Y-72739548D01*
X165267657Y-72748702D01*
X165183213Y-72754768D01*
X165089601Y-72758388D01*
X165018234Y-72759758D01*
X164945331Y-72760482D01*
X164877826Y-72760653D01*
X164819995Y-72760300D01*
X164776111Y-72759451D01*
X164750448Y-72758134D01*
X164749118Y-72757987D01*
X164553948Y-72728572D01*
X164378183Y-72689951D01*
X164219945Y-72641383D01*
X164077358Y-72582127D01*
X163948544Y-72511443D01*
X163831625Y-72428589D01*
X163761444Y-72368157D01*
X163724095Y-72329981D01*
X163683595Y-72282920D01*
X163645462Y-72233910D01*
X163615213Y-72189887D01*
X163603663Y-72169782D01*
X163589792Y-72146578D01*
X163579739Y-72135008D01*
X163570011Y-72120060D01*
X163556145Y-72087911D01*
X163539768Y-72043525D01*
X163522508Y-71991864D01*
X163505993Y-71937895D01*
X163491848Y-71886580D01*
X163481703Y-71842885D01*
X163478959Y-71827571D01*
X163478832Y-71826230D01*
X163749088Y-71826230D01*
X163753535Y-71928947D01*
X163768857Y-72015586D01*
X163796700Y-72091029D01*
X163838710Y-72160160D01*
X163877671Y-72207681D01*
X163952931Y-72274233D01*
X164045399Y-72326821D01*
X164153981Y-72365257D01*
X164277585Y-72389350D01*
X164415118Y-72398909D01*
X164565489Y-72393743D01*
X164727603Y-72373664D01*
X164778899Y-72364603D01*
X165020328Y-72309837D01*
X165253902Y-72237404D01*
X165430498Y-72169324D01*
X165477962Y-72150002D01*
X165524714Y-72131751D01*
X165559916Y-72118779D01*
X165598230Y-72104046D01*
X165632791Y-72088492D01*
X165640078Y-72084695D01*
X165662166Y-72073239D01*
X165699728Y-72054451D01*
X165747584Y-72030900D01*
X165800554Y-72005152D01*
X165802680Y-72004125D01*
X165922670Y-71944757D01*
X166027211Y-71889745D01*
X166122429Y-71835761D01*
X166203491Y-71786390D01*
X166232832Y-71767950D01*
X166273483Y-71742393D01*
X166317366Y-71714799D01*
X166323735Y-71710793D01*
X166376422Y-71676430D01*
X166443691Y-71630602D01*
X166521966Y-71575802D01*
X166607667Y-71514522D01*
X166659424Y-71476951D01*
X166689996Y-71453712D01*
X166733167Y-71419652D01*
X166784016Y-71378697D01*
X166837619Y-71334778D01*
X166838797Y-71333804D01*
X166895291Y-71284206D01*
X166958454Y-71223918D01*
X167025054Y-71156485D01*
X167091861Y-71085451D01*
X167155642Y-71014362D01*
X167213167Y-70946762D01*
X167261203Y-70886196D01*
X167296519Y-70836210D01*
X167304941Y-70822451D01*
X167322154Y-70794396D01*
X167335346Y-70775786D01*
X167338374Y-70772668D01*
X167349859Y-70756778D01*
X167366610Y-70724314D01*
X167386512Y-70680381D01*
X167407450Y-70630087D01*
X167427309Y-70578539D01*
X167443975Y-70530844D01*
X167455332Y-70492107D01*
X167456368Y-70487735D01*
X167471399Y-70386653D01*
X167472651Y-70282125D01*
X167460753Y-70180332D01*
X167436334Y-70087450D01*
X167409314Y-70025742D01*
X167355081Y-69948691D01*
X167282487Y-69881394D01*
X167194812Y-69826108D01*
X167095336Y-69785089D01*
X167036561Y-69769378D01*
X166975327Y-69759886D01*
X166897530Y-69753633D01*
X166809280Y-69750625D01*
X166716688Y-69750872D01*
X166625864Y-69754381D01*
X166542919Y-69761159D01*
X166487929Y-69768669D01*
X166419254Y-69782441D01*
X166336004Y-69802374D01*
X166243704Y-69826850D01*
X166147880Y-69854253D01*
X166054059Y-69882962D01*
X165967764Y-69911361D01*
X165894523Y-69937831D01*
X165854213Y-69954244D01*
X165830610Y-69964355D01*
X165791212Y-69981024D01*
X165741363Y-70001996D01*
X165686410Y-70025017D01*
X165682436Y-70026678D01*
X165610820Y-70058164D01*
X165526018Y-70097956D01*
X165433133Y-70143438D01*
X165337266Y-70191999D01*
X165243520Y-70241025D01*
X165156998Y-70287904D01*
X165082799Y-70330021D01*
X165041138Y-70355139D01*
X165002696Y-70378583D01*
X164958600Y-70404678D01*
X164940699Y-70415028D01*
X164890001Y-70445887D01*
X164827274Y-70486838D01*
X164758451Y-70533757D01*
X164689465Y-70582523D01*
X164626248Y-70629014D01*
X164574732Y-70669110D01*
X164573231Y-70670332D01*
X164538491Y-70697313D01*
X164501207Y-70724388D01*
X164497179Y-70727170D01*
X164469277Y-70747341D01*
X164448953Y-70763871D01*
X164445646Y-70767107D01*
X164430821Y-70780692D01*
X164404442Y-70802819D01*
X164381015Y-70821694D01*
X164345827Y-70851915D01*
X164299324Y-70895206D01*
X164245457Y-70947565D01*
X164188177Y-71004987D01*
X164131432Y-71063470D01*
X164079175Y-71119008D01*
X164035354Y-71167600D01*
X164009383Y-71198338D01*
X163982547Y-71232956D01*
X163952323Y-71273942D01*
X163921755Y-71316901D01*
X163893884Y-71357438D01*
X163871755Y-71391157D01*
X163858409Y-71413663D01*
X163855881Y-71420065D01*
X163851325Y-71431775D01*
X163839220Y-71458923D01*
X163821909Y-71496291D01*
X163816386Y-71508006D01*
X163786809Y-71576316D01*
X163767009Y-71638542D01*
X163755286Y-71702733D01*
X163749936Y-71776938D01*
X163749088Y-71826230D01*
X163478832Y-71826230D01*
X163468373Y-71716313D01*
X163468427Y-71593015D01*
X163478503Y-71470925D01*
X163486468Y-71419844D01*
X163498489Y-71359159D01*
X163513262Y-71293982D01*
X163529484Y-71229427D01*
X163545853Y-71170605D01*
X163561065Y-71122630D01*
X163573818Y-71090615D01*
X163576817Y-71085131D01*
X163588830Y-71060717D01*
X163592490Y-71045930D01*
X163597558Y-71028643D01*
X163611286Y-70995740D01*
X163631464Y-70951763D01*
X163655880Y-70901252D01*
X163682323Y-70848750D01*
X163708582Y-70798799D01*
X163732445Y-70755941D01*
X163739471Y-70744038D01*
X163811568Y-70633263D01*
X163896657Y-70517520D01*
X163990800Y-70401312D01*
X164090062Y-70289139D01*
X164190507Y-70185504D01*
X164288199Y-70094907D01*
X164355300Y-70039755D01*
X164376724Y-70022954D01*
X164407645Y-69998368D01*
X164428802Y-69981415D01*
X164467626Y-69951522D01*
X164508336Y-69922144D01*
X164525809Y-69910313D01*
X164559619Y-69887840D01*
X164602359Y-69858930D01*
X164640326Y-69832904D01*
X164682411Y-69805043D01*
X164724499Y-69779131D01*
X164754844Y-69762184D01*
X164783831Y-69746474D01*
X164803071Y-69734197D01*
X164806377Y-69731202D01*
X164818370Y-69723509D01*
X164846850Y-69708218D01*
X164887601Y-69687518D01*
X164936404Y-69663601D01*
X164938072Y-69662797D01*
X164990168Y-69637590D01*
X165037464Y-69614498D01*
X165074574Y-69596165D01*
X165095409Y-69585604D01*
X165123742Y-69572719D01*
X165163529Y-69557008D01*
X165192749Y-69546522D01*
X165241241Y-69529465D01*
X165291906Y-69510930D01*
X165315980Y-69501800D01*
X165476207Y-69449678D01*
X165652469Y-69410662D01*
X165841675Y-69385258D01*
X166040735Y-69373971D01*
X166101858Y-69373413D01*
X166291488Y-69377762D01*
X166462781Y-69390488D01*
X166618914Y-69412116D01*
X166763065Y-69443170D01*
X166898411Y-69484176D01*
X166993663Y-69520773D01*
X167119001Y-69579955D01*
X167235469Y-69648001D01*
X167338369Y-69721877D01*
X167422102Y-69797607D01*
X167448012Y-69821939D01*
X167468294Y-69836357D01*
X167476497Y-69838199D01*
X167477153Y-69826463D01*
X167477797Y-69792569D01*
X167478428Y-69737261D01*
X167479045Y-69661284D01*
X167479645Y-69565383D01*
X167480229Y-69450304D01*
X167480793Y-69316791D01*
X167481338Y-69165589D01*
X167481860Y-68997444D01*
X167482359Y-68813099D01*
X167482834Y-68613301D01*
X167483282Y-68398793D01*
X167483703Y-68170322D01*
X167484095Y-67928631D01*
X167484456Y-67674467D01*
X167484785Y-67408573D01*
X167485080Y-67131695D01*
X167485341Y-66844578D01*
X167485565Y-66547966D01*
X167485751Y-66242605D01*
X167485898Y-65929240D01*
X167486004Y-65608615D01*
X167486068Y-65281476D01*
X167486088Y-64965950D01*
X167486088Y-60099629D01*
X167749479Y-60099629D01*
X167749479Y-65435320D01*
X167749479Y-65435320D01*
G37*
X167749479Y-65435320D02*
X167749459Y-65899187D01*
X167749399Y-66340418D01*
X167749299Y-66759281D01*
X167749158Y-67156043D01*
X167748976Y-67530972D01*
X167748751Y-67884336D01*
X167748483Y-68216402D01*
X167748171Y-68527438D01*
X167747816Y-68817712D01*
X167747416Y-69087490D01*
X167746970Y-69337042D01*
X167746479Y-69566633D01*
X167745941Y-69776533D01*
X167745356Y-69967009D01*
X167744723Y-70138327D01*
X167744042Y-70290757D01*
X167743312Y-70424565D01*
X167742532Y-70540020D01*
X167741702Y-70637388D01*
X167740821Y-70716937D01*
X167739889Y-70778935D01*
X167738905Y-70823650D01*
X167737868Y-70851350D01*
X167737134Y-70860590D01*
X167728918Y-70907075D01*
X167715954Y-70965357D01*
X167699736Y-71030054D01*
X167681759Y-71095784D01*
X167663516Y-71157162D01*
X167646500Y-71208808D01*
X167632205Y-71245337D01*
X167628073Y-71253642D01*
X167613575Y-71281699D01*
X167595708Y-71318722D01*
X167588731Y-71333804D01*
X167526106Y-71453810D01*
X167446354Y-71578629D01*
X167353147Y-71703475D01*
X167250155Y-71823566D01*
X167141047Y-71934117D01*
X167098408Y-71972928D01*
X167034181Y-72028371D01*
X166969960Y-72081732D01*
X166909859Y-72129734D01*
X166857992Y-72169096D01*
X166818473Y-72196540D01*
X166815505Y-72198412D01*
X166782361Y-72219558D01*
X166743998Y-72244702D01*
X166732331Y-72252492D01*
X166700122Y-72272912D01*
X166656025Y-72299306D01*
X166608296Y-72326759D01*
X166596442Y-72333390D01*
X166553339Y-72357367D01*
X166515669Y-72378369D01*
X166489581Y-72392965D01*
X166484059Y-72396075D01*
X166423460Y-72427305D01*
X166344417Y-72463133D01*
X166250534Y-72501961D01*
X166203491Y-72520338D01*
X166146048Y-72542406D01*
X166090388Y-72563804D01*
X166043326Y-72581913D01*
X166014537Y-72593007D01*
X165957468Y-72612360D01*
X165882597Y-72633737D01*
X165794808Y-72655998D01*
X165698981Y-72678004D01*
X165600001Y-72698614D01*
X165502749Y-72716688D01*
X165441949Y-72726665D01*
X165351161Y-72739548D01*
X165267657Y-72748702D01*
X165183213Y-72754768D01*
X165089601Y-72758388D01*
X165018234Y-72759758D01*
X164945331Y-72760482D01*
X164877826Y-72760653D01*
X164819995Y-72760300D01*
X164776111Y-72759451D01*
X164750448Y-72758134D01*
X164749118Y-72757987D01*
X164553948Y-72728572D01*
X164378183Y-72689951D01*
X164219945Y-72641383D01*
X164077358Y-72582127D01*
X163948544Y-72511443D01*
X163831625Y-72428589D01*
X163761444Y-72368157D01*
X163724095Y-72329981D01*
X163683595Y-72282920D01*
X163645462Y-72233910D01*
X163615213Y-72189887D01*
X163603663Y-72169782D01*
X163589792Y-72146578D01*
X163579739Y-72135008D01*
X163570011Y-72120060D01*
X163556145Y-72087911D01*
X163539768Y-72043525D01*
X163522508Y-71991864D01*
X163505993Y-71937895D01*
X163491848Y-71886580D01*
X163481703Y-71842885D01*
X163478959Y-71827571D01*
X163478832Y-71826230D01*
X163749088Y-71826230D01*
X163753535Y-71928947D01*
X163768857Y-72015586D01*
X163796700Y-72091029D01*
X163838710Y-72160160D01*
X163877671Y-72207681D01*
X163952931Y-72274233D01*
X164045399Y-72326821D01*
X164153981Y-72365257D01*
X164277585Y-72389350D01*
X164415118Y-72398909D01*
X164565489Y-72393743D01*
X164727603Y-72373664D01*
X164778899Y-72364603D01*
X165020328Y-72309837D01*
X165253902Y-72237404D01*
X165430498Y-72169324D01*
X165477962Y-72150002D01*
X165524714Y-72131751D01*
X165559916Y-72118779D01*
X165598230Y-72104046D01*
X165632791Y-72088492D01*
X165640078Y-72084695D01*
X165662166Y-72073239D01*
X165699728Y-72054451D01*
X165747584Y-72030900D01*
X165800554Y-72005152D01*
X165802680Y-72004125D01*
X165922670Y-71944757D01*
X166027211Y-71889745D01*
X166122429Y-71835761D01*
X166203491Y-71786390D01*
X166232832Y-71767950D01*
X166273483Y-71742393D01*
X166317366Y-71714799D01*
X166323735Y-71710793D01*
X166376422Y-71676430D01*
X166443691Y-71630602D01*
X166521966Y-71575802D01*
X166607667Y-71514522D01*
X166659424Y-71476951D01*
X166689996Y-71453712D01*
X166733167Y-71419652D01*
X166784016Y-71378697D01*
X166837619Y-71334778D01*
X166838797Y-71333804D01*
X166895291Y-71284206D01*
X166958454Y-71223918D01*
X167025054Y-71156485D01*
X167091861Y-71085451D01*
X167155642Y-71014362D01*
X167213167Y-70946762D01*
X167261203Y-70886196D01*
X167296519Y-70836210D01*
X167304941Y-70822451D01*
X167322154Y-70794396D01*
X167335346Y-70775786D01*
X167338374Y-70772668D01*
X167349859Y-70756778D01*
X167366610Y-70724314D01*
X167386512Y-70680381D01*
X167407450Y-70630087D01*
X167427309Y-70578539D01*
X167443975Y-70530844D01*
X167455332Y-70492107D01*
X167456368Y-70487735D01*
X167471399Y-70386653D01*
X167472651Y-70282125D01*
X167460753Y-70180332D01*
X167436334Y-70087450D01*
X167409314Y-70025742D01*
X167355081Y-69948691D01*
X167282487Y-69881394D01*
X167194812Y-69826108D01*
X167095336Y-69785089D01*
X167036561Y-69769378D01*
X166975327Y-69759886D01*
X166897530Y-69753633D01*
X166809280Y-69750625D01*
X166716688Y-69750872D01*
X166625864Y-69754381D01*
X166542919Y-69761159D01*
X166487929Y-69768669D01*
X166419254Y-69782441D01*
X166336004Y-69802374D01*
X166243704Y-69826850D01*
X166147880Y-69854253D01*
X166054059Y-69882962D01*
X165967764Y-69911361D01*
X165894523Y-69937831D01*
X165854213Y-69954244D01*
X165830610Y-69964355D01*
X165791212Y-69981024D01*
X165741363Y-70001996D01*
X165686410Y-70025017D01*
X165682436Y-70026678D01*
X165610820Y-70058164D01*
X165526018Y-70097956D01*
X165433133Y-70143438D01*
X165337266Y-70191999D01*
X165243520Y-70241025D01*
X165156998Y-70287904D01*
X165082799Y-70330021D01*
X165041138Y-70355139D01*
X165002696Y-70378583D01*
X164958600Y-70404678D01*
X164940699Y-70415028D01*
X164890001Y-70445887D01*
X164827274Y-70486838D01*
X164758451Y-70533757D01*
X164689465Y-70582523D01*
X164626248Y-70629014D01*
X164574732Y-70669110D01*
X164573231Y-70670332D01*
X164538491Y-70697313D01*
X164501207Y-70724388D01*
X164497179Y-70727170D01*
X164469277Y-70747341D01*
X164448953Y-70763871D01*
X164445646Y-70767107D01*
X164430821Y-70780692D01*
X164404442Y-70802819D01*
X164381015Y-70821694D01*
X164345827Y-70851915D01*
X164299324Y-70895206D01*
X164245457Y-70947565D01*
X164188177Y-71004987D01*
X164131432Y-71063470D01*
X164079175Y-71119008D01*
X164035354Y-71167600D01*
X164009383Y-71198338D01*
X163982547Y-71232956D01*
X163952323Y-71273942D01*
X163921755Y-71316901D01*
X163893884Y-71357438D01*
X163871755Y-71391157D01*
X163858409Y-71413663D01*
X163855881Y-71420065D01*
X163851325Y-71431775D01*
X163839220Y-71458923D01*
X163821909Y-71496291D01*
X163816386Y-71508006D01*
X163786809Y-71576316D01*
X163767009Y-71638542D01*
X163755286Y-71702733D01*
X163749936Y-71776938D01*
X163749088Y-71826230D01*
X163478832Y-71826230D01*
X163468373Y-71716313D01*
X163468427Y-71593015D01*
X163478503Y-71470925D01*
X163486468Y-71419844D01*
X163498489Y-71359159D01*
X163513262Y-71293982D01*
X163529484Y-71229427D01*
X163545853Y-71170605D01*
X163561065Y-71122630D01*
X163573818Y-71090615D01*
X163576817Y-71085131D01*
X163588830Y-71060717D01*
X163592490Y-71045930D01*
X163597558Y-71028643D01*
X163611286Y-70995740D01*
X163631464Y-70951763D01*
X163655880Y-70901252D01*
X163682323Y-70848750D01*
X163708582Y-70798799D01*
X163732445Y-70755941D01*
X163739471Y-70744038D01*
X163811568Y-70633263D01*
X163896657Y-70517520D01*
X163990800Y-70401312D01*
X164090062Y-70289139D01*
X164190507Y-70185504D01*
X164288199Y-70094907D01*
X164355300Y-70039755D01*
X164376724Y-70022954D01*
X164407645Y-69998368D01*
X164428802Y-69981415D01*
X164467626Y-69951522D01*
X164508336Y-69922144D01*
X164525809Y-69910313D01*
X164559619Y-69887840D01*
X164602359Y-69858930D01*
X164640326Y-69832904D01*
X164682411Y-69805043D01*
X164724499Y-69779131D01*
X164754844Y-69762184D01*
X164783831Y-69746474D01*
X164803071Y-69734197D01*
X164806377Y-69731202D01*
X164818370Y-69723509D01*
X164846850Y-69708218D01*
X164887601Y-69687518D01*
X164936404Y-69663601D01*
X164938072Y-69662797D01*
X164990168Y-69637590D01*
X165037464Y-69614498D01*
X165074574Y-69596165D01*
X165095409Y-69585604D01*
X165123742Y-69572719D01*
X165163529Y-69557008D01*
X165192749Y-69546522D01*
X165241241Y-69529465D01*
X165291906Y-69510930D01*
X165315980Y-69501800D01*
X165476207Y-69449678D01*
X165652469Y-69410662D01*
X165841675Y-69385258D01*
X166040735Y-69373971D01*
X166101858Y-69373413D01*
X166291488Y-69377762D01*
X166462781Y-69390488D01*
X166618914Y-69412116D01*
X166763065Y-69443170D01*
X166898411Y-69484176D01*
X166993663Y-69520773D01*
X167119001Y-69579955D01*
X167235469Y-69648001D01*
X167338369Y-69721877D01*
X167422102Y-69797607D01*
X167448012Y-69821939D01*
X167468294Y-69836357D01*
X167476497Y-69838199D01*
X167477153Y-69826463D01*
X167477797Y-69792569D01*
X167478428Y-69737261D01*
X167479045Y-69661284D01*
X167479645Y-69565383D01*
X167480229Y-69450304D01*
X167480793Y-69316791D01*
X167481338Y-69165589D01*
X167481860Y-68997444D01*
X167482359Y-68813099D01*
X167482834Y-68613301D01*
X167483282Y-68398793D01*
X167483703Y-68170322D01*
X167484095Y-67928631D01*
X167484456Y-67674467D01*
X167484785Y-67408573D01*
X167485080Y-67131695D01*
X167485341Y-66844578D01*
X167485565Y-66547966D01*
X167485751Y-66242605D01*
X167485898Y-65929240D01*
X167486004Y-65608615D01*
X167486068Y-65281476D01*
X167486088Y-64965950D01*
X167486088Y-60099629D01*
X167749479Y-60099629D01*
X167749479Y-65435320D01*
%LPC*%
D13*
X141066000Y-1170000D03*
X135286000Y-1170000D03*
D14*
X133856000Y-1700000D03*
X142496000Y-1700000D03*
D15*
X133856000Y2480000D03*
X142496000Y2480000D03*
D16*
X38417500Y-9525000D03*
X28257500Y-9525000D03*
D17*
X33337500Y-9525000D03*
D16*
X269398750Y-9525000D03*
X259238750Y-9525000D03*
D17*
X264318750Y-9525000D03*
D16*
X21748750Y-28575000D03*
X11588750Y-28575000D03*
D17*
X16668750Y-28575000D03*
D16*
X47942500Y-28575000D03*
X37782500Y-28575000D03*
D17*
X42862500Y-28575000D03*
D16*
X264636250Y-28575000D03*
X254476250Y-28575000D03*
D17*
X259556250Y-28575000D03*
X33337500Y-39370000D03*
X9525000Y-39370000D03*
D18*
X33337500Y-54610000D03*
X9525000Y-54610000D03*
D16*
X26511250Y-47625000D03*
X16351250Y-47625000D03*
D17*
X21431250Y-47625000D03*
D16*
X57467500Y-47625000D03*
X47307500Y-47625000D03*
D17*
X52387500Y-47625000D03*
X266700000Y-39370000D03*
X242887500Y-39370000D03*
D18*
X266700000Y-54610000D03*
X242887500Y-54610000D03*
D16*
X259873750Y-47625000D03*
X249713750Y-47625000D03*
D17*
X254793750Y-47625000D03*
D16*
X43180000Y-66675000D03*
X33020000Y-66675000D03*
D17*
X38100000Y-66675000D03*
D16*
X64611250Y-66675000D03*
X54451250Y-66675000D03*
D17*
X59531250Y-66675000D03*
X102393750Y-58420000D03*
X78581250Y-58420000D03*
D18*
X102393750Y-73660000D03*
X78581250Y-73660000D03*
D16*
X95567500Y-66675000D03*
X85407500Y-66675000D03*
D17*
X90487500Y-66675000D03*
X157162500Y-58420000D03*
X119062500Y-58420000D03*
D18*
X157162500Y-73660000D03*
X119062500Y-73660000D03*
D17*
X195262500Y-58420000D03*
X80962500Y-58420000D03*
D18*
X195262500Y-73660000D03*
X80962500Y-73660000D03*
D16*
X143192500Y-66675000D03*
X133032500Y-66675000D03*
D17*
X138112500Y-66675000D03*
X197643750Y-58420000D03*
X173831250Y-58420000D03*
D18*
X197643750Y-73660000D03*
X173831250Y-73660000D03*
D16*
X190817500Y-66675000D03*
X180657500Y-66675000D03*
D17*
X185737500Y-66675000D03*
D16*
X221773750Y-66675000D03*
X211613750Y-66675000D03*
D17*
X216693750Y-66675000D03*
D16*
X243205000Y-66675000D03*
X233045000Y-66675000D03*
D17*
X238125000Y-66675000D03*
D16*
X16986250Y-9525000D03*
X6826250Y-9525000D03*
D17*
X11906250Y-9525000D03*
D16*
X95567500Y-47625000D03*
X85407500Y-47625000D03*
D17*
X90487500Y-47625000D03*
D16*
X95567500Y-9525000D03*
X85407500Y-9525000D03*
D17*
X90487500Y-9525000D03*
D16*
X228917500Y-47625000D03*
X218757500Y-47625000D03*
D17*
X223837500Y-47625000D03*
D16*
X209867500Y-47625000D03*
X199707500Y-47625000D03*
D17*
X204787500Y-47625000D03*
D16*
X190817500Y-47625000D03*
X180657500Y-47625000D03*
D17*
X185737500Y-47625000D03*
D16*
X171767500Y-47625000D03*
X161607500Y-47625000D03*
D17*
X166687500Y-47625000D03*
D16*
X152717500Y-47625000D03*
X142557500Y-47625000D03*
D17*
X147637500Y-47625000D03*
D16*
X133667500Y-47625000D03*
X123507500Y-47625000D03*
D17*
X128587500Y-47625000D03*
D16*
X114617500Y-47625000D03*
X104457500Y-47625000D03*
D17*
X109537500Y-47625000D03*
D16*
X76517500Y-47625000D03*
X66357500Y-47625000D03*
D17*
X71437500Y-47625000D03*
D16*
X238442500Y-28575000D03*
X228282500Y-28575000D03*
D17*
X233362500Y-28575000D03*
D16*
X219392500Y-28575000D03*
X209232500Y-28575000D03*
D17*
X214312500Y-28575000D03*
D16*
X200342500Y-28575000D03*
X190182500Y-28575000D03*
D17*
X195262500Y-28575000D03*
D16*
X181292500Y-28575000D03*
X171132500Y-28575000D03*
D17*
X176212500Y-28575000D03*
D16*
X162242500Y-28575000D03*
X152082500Y-28575000D03*
D17*
X157162500Y-28575000D03*
D16*
X143192500Y-28575000D03*
X133032500Y-28575000D03*
D17*
X138112500Y-28575000D03*
D16*
X124142500Y-28575000D03*
X113982500Y-28575000D03*
D17*
X119062500Y-28575000D03*
D16*
X105092500Y-28575000D03*
X94932500Y-28575000D03*
D17*
X100012500Y-28575000D03*
D16*
X86042500Y-28575000D03*
X75882500Y-28575000D03*
D17*
X80962500Y-28575000D03*
D16*
X66992500Y-28575000D03*
X56832500Y-28575000D03*
D17*
X61912500Y-28575000D03*
D16*
X247967500Y-9525000D03*
X237807500Y-9525000D03*
D17*
X242887500Y-9525000D03*
D16*
X228917500Y-9525000D03*
X218757500Y-9525000D03*
D17*
X223837500Y-9525000D03*
D16*
X209867500Y-9525000D03*
X199707500Y-9525000D03*
D17*
X204787500Y-9525000D03*
D16*
X190817500Y-9525000D03*
X180657500Y-9525000D03*
D17*
X185737500Y-9525000D03*
D16*
X171767500Y-9525000D03*
X161607500Y-9525000D03*
D17*
X166687500Y-9525000D03*
D16*
X152717500Y-9525000D03*
X142557500Y-9525000D03*
D17*
X147637500Y-9525000D03*
D16*
X133667500Y-9525000D03*
X123507500Y-9525000D03*
D17*
X128587500Y-9525000D03*
D16*
X114617500Y-9525000D03*
X104457500Y-9525000D03*
D17*
X109537500Y-9525000D03*
D16*
X76517500Y-9525000D03*
X66357500Y-9525000D03*
D17*
X71437500Y-9525000D03*
D16*
X57467500Y-9525000D03*
X47307500Y-9525000D03*
D17*
X52387500Y-9525000D03*
M02*
