G04 #@! TF.GenerationSoftware,KiCad,Pcbnew,(5.1.4)-1*
G04 #@! TF.CreationDate,2020-11-15T13:42:54-06:00*
G04 #@! TF.ProjectId,minim,6d696e69-6d2e-46b6-9963-61645f706362,rev?*
G04 #@! TF.SameCoordinates,Original*
G04 #@! TF.FileFunction,Soldermask,Top*
G04 #@! TF.FilePolarity,Negative*
%FSLAX46Y46*%
G04 Gerber Fmt 4.6, Leading zero omitted, Abs format (unit mm)*
G04 Created by KiCad (PCBNEW (5.1.4)-1) date 2020-11-15 13:42:54*
%MOMM*%
%LPD*%
G04 APERTURE LIST*
%ADD10C,0.650000*%
%ADD11O,1.000000X2.100000*%
%ADD12O,1.000000X1.600000*%
%ADD13C,1.750000*%
%ADD14C,3.987800*%
%ADD15C,3.048000*%
G04 APERTURE END LIST*
D10*
X141066000Y-1170000D03*
X135286000Y-1170000D03*
D11*
X133856000Y-1700000D03*
X142496000Y-1700000D03*
D12*
X133856000Y2480000D03*
X142496000Y2480000D03*
D13*
X38417500Y-9525000D03*
X28257500Y-9525000D03*
D14*
X33337500Y-9525000D03*
D13*
X269398750Y-9525000D03*
X259238750Y-9525000D03*
D14*
X264318750Y-9525000D03*
D13*
X21748750Y-28575000D03*
X11588750Y-28575000D03*
D14*
X16668750Y-28575000D03*
D13*
X47942500Y-28575000D03*
X37782500Y-28575000D03*
D14*
X42862500Y-28575000D03*
D13*
X264636250Y-28575000D03*
X254476250Y-28575000D03*
D14*
X259556250Y-28575000D03*
X33337500Y-39370000D03*
X9525000Y-39370000D03*
D15*
X33337500Y-54610000D03*
X9525000Y-54610000D03*
D13*
X26511250Y-47625000D03*
X16351250Y-47625000D03*
D14*
X21431250Y-47625000D03*
D13*
X57467500Y-47625000D03*
X47307500Y-47625000D03*
D14*
X52387500Y-47625000D03*
X266700000Y-39370000D03*
X242887500Y-39370000D03*
D15*
X266700000Y-54610000D03*
X242887500Y-54610000D03*
D13*
X259873750Y-47625000D03*
X249713750Y-47625000D03*
D14*
X254793750Y-47625000D03*
D13*
X43180000Y-66675000D03*
X33020000Y-66675000D03*
D14*
X38100000Y-66675000D03*
D13*
X64611250Y-66675000D03*
X54451250Y-66675000D03*
D14*
X59531250Y-66675000D03*
X102393750Y-58420000D03*
X78581250Y-58420000D03*
D15*
X102393750Y-73660000D03*
X78581250Y-73660000D03*
D13*
X95567500Y-66675000D03*
X85407500Y-66675000D03*
D14*
X90487500Y-66675000D03*
X157162500Y-58420000D03*
X119062500Y-58420000D03*
D15*
X157162500Y-73660000D03*
X119062500Y-73660000D03*
D14*
X195262500Y-58420000D03*
X80962500Y-58420000D03*
D15*
X195262500Y-73660000D03*
X80962500Y-73660000D03*
D13*
X143192500Y-66675000D03*
X133032500Y-66675000D03*
D14*
X138112500Y-66675000D03*
X197643750Y-58420000D03*
X173831250Y-58420000D03*
D15*
X197643750Y-73660000D03*
X173831250Y-73660000D03*
D13*
X190817500Y-66675000D03*
X180657500Y-66675000D03*
D14*
X185737500Y-66675000D03*
D13*
X221773750Y-66675000D03*
X211613750Y-66675000D03*
D14*
X216693750Y-66675000D03*
D13*
X243205000Y-66675000D03*
X233045000Y-66675000D03*
D14*
X238125000Y-66675000D03*
D13*
X16986250Y-9525000D03*
X6826250Y-9525000D03*
D14*
X11906250Y-9525000D03*
D13*
X95567500Y-47625000D03*
X85407500Y-47625000D03*
D14*
X90487500Y-47625000D03*
D13*
X95567500Y-9525000D03*
X85407500Y-9525000D03*
D14*
X90487500Y-9525000D03*
D13*
X228917500Y-47625000D03*
X218757500Y-47625000D03*
D14*
X223837500Y-47625000D03*
D13*
X209867500Y-47625000D03*
X199707500Y-47625000D03*
D14*
X204787500Y-47625000D03*
D13*
X190817500Y-47625000D03*
X180657500Y-47625000D03*
D14*
X185737500Y-47625000D03*
D13*
X171767500Y-47625000D03*
X161607500Y-47625000D03*
D14*
X166687500Y-47625000D03*
D13*
X152717500Y-47625000D03*
X142557500Y-47625000D03*
D14*
X147637500Y-47625000D03*
D13*
X133667500Y-47625000D03*
X123507500Y-47625000D03*
D14*
X128587500Y-47625000D03*
D13*
X114617500Y-47625000D03*
X104457500Y-47625000D03*
D14*
X109537500Y-47625000D03*
D13*
X76517500Y-47625000D03*
X66357500Y-47625000D03*
D14*
X71437500Y-47625000D03*
D13*
X238442500Y-28575000D03*
X228282500Y-28575000D03*
D14*
X233362500Y-28575000D03*
D13*
X219392500Y-28575000D03*
X209232500Y-28575000D03*
D14*
X214312500Y-28575000D03*
D13*
X200342500Y-28575000D03*
X190182500Y-28575000D03*
D14*
X195262500Y-28575000D03*
D13*
X181292500Y-28575000D03*
X171132500Y-28575000D03*
D14*
X176212500Y-28575000D03*
D13*
X162242500Y-28575000D03*
X152082500Y-28575000D03*
D14*
X157162500Y-28575000D03*
D13*
X143192500Y-28575000D03*
X133032500Y-28575000D03*
D14*
X138112500Y-28575000D03*
D13*
X124142500Y-28575000D03*
X113982500Y-28575000D03*
D14*
X119062500Y-28575000D03*
D13*
X105092500Y-28575000D03*
X94932500Y-28575000D03*
D14*
X100012500Y-28575000D03*
D13*
X86042500Y-28575000D03*
X75882500Y-28575000D03*
D14*
X80962500Y-28575000D03*
D13*
X66992500Y-28575000D03*
X56832500Y-28575000D03*
D14*
X61912500Y-28575000D03*
D13*
X247967500Y-9525000D03*
X237807500Y-9525000D03*
D14*
X242887500Y-9525000D03*
D13*
X228917500Y-9525000D03*
X218757500Y-9525000D03*
D14*
X223837500Y-9525000D03*
D13*
X209867500Y-9525000D03*
X199707500Y-9525000D03*
D14*
X204787500Y-9525000D03*
D13*
X190817500Y-9525000D03*
X180657500Y-9525000D03*
D14*
X185737500Y-9525000D03*
D13*
X171767500Y-9525000D03*
X161607500Y-9525000D03*
D14*
X166687500Y-9525000D03*
D13*
X152717500Y-9525000D03*
X142557500Y-9525000D03*
D14*
X147637500Y-9525000D03*
D13*
X133667500Y-9525000D03*
X123507500Y-9525000D03*
D14*
X128587500Y-9525000D03*
D13*
X114617500Y-9525000D03*
X104457500Y-9525000D03*
D14*
X109537500Y-9525000D03*
D13*
X76517500Y-9525000D03*
X66357500Y-9525000D03*
D14*
X71437500Y-9525000D03*
D13*
X57467500Y-9525000D03*
X47307500Y-9525000D03*
D14*
X52387500Y-9525000D03*
M02*
