G04 #@! TF.GenerationSoftware,KiCad,Pcbnew,(5.1.4)-1*
G04 #@! TF.CreationDate,2020-11-15T13:42:54-06:00*
G04 #@! TF.ProjectId,minim,6d696e69-6d2e-46b6-9963-61645f706362,rev?*
G04 #@! TF.SameCoordinates,Original*
G04 #@! TF.FileFunction,Profile,NP*
%FSLAX46Y46*%
G04 Gerber Fmt 4.6, Leading zero omitted, Abs format (unit mm)*
G04 Created by KiCad (PCBNEW (5.1.4)-1) date 2020-11-15 13:42:54*
%MOMM*%
%LPD*%
G04 APERTURE LIST*
%ADD10C,0.100000*%
G04 APERTURE END LIST*
D10*
X144526000Y0D02*
X275431250Y0D01*
X793750Y0D02*
X131826000Y0D01*
X134366000Y3556000D02*
X141986000Y3556000D01*
X143256000Y1270000D02*
X143256000Y2286000D01*
X143256000Y2286000D02*
G75*
G03X141986000Y3556000I-1270000J0D01*
G01*
X143256000Y1270000D02*
G75*
G03X144526000Y0I1270000J0D01*
G01*
X133096000Y2286000D02*
X133096000Y1270000D01*
X133096000Y2286000D02*
G75*
G02X134366000Y3556000I1270000J0D01*
G01*
X133096000Y1270000D02*
G75*
G02X131826000Y0I-1270000J0D01*
G01*
X276225000Y-56356250D02*
X276225000Y-793750D01*
X248443750Y-57150000D02*
X275431250Y-57150000D01*
X247650000Y-75406250D02*
X247650000Y-57943750D01*
X29368750Y-76200000D02*
X246856250Y-76200000D01*
X28575000Y-57943750D02*
X28575000Y-75406250D01*
X793750Y-57150000D02*
X27781250Y-57150000D01*
X0Y-793750D02*
X0Y-56356250D01*
X275431250Y0D02*
G75*
G02X276225000Y-793750I0J-793750D01*
G01*
X276225000Y-56356250D02*
G75*
G02X275431250Y-57150000I-793750J0D01*
G01*
X247650000Y-57943750D02*
G75*
G02X248443750Y-57150000I793750J0D01*
G01*
X247650000Y-75406250D02*
G75*
G02X246856250Y-76200000I-793750J0D01*
G01*
X29368750Y-76200000D02*
G75*
G02X28575000Y-75406250I0J793750D01*
G01*
X27781250Y-57150000D02*
G75*
G02X28575000Y-57943750I0J-793750D01*
G01*
X793750Y-57150000D02*
G75*
G02X0Y-56356250I0J793750D01*
G01*
X0Y-793750D02*
G75*
G02X793750Y0I793750J0D01*
G01*
M02*
