0
SECTION
2
HEADER
9
$INSUNITS
70
4
9
$ACADVER
1
AC1014
9
$HANDSEED
5
FFFF
0
ENDSEC
0
SECTION
2
TABLES
0
TABLE
2
VPORT
5
8
100
AcDbSymbolTable
0
ENDTAB
0
TABLE
2
LTYPE
5
5
100
AcDbSymbolTable
0
LTYPE
5
14
100
AcDbSymbolTableRecord
100
AcDbLinetypeTableRecord
2
BYBLOCK
70
0
0
LTYPE
5
15
100
AcDbSymbolTableRecord
100
AcDbLinetypeTableRecord
2
BYLAYER
70
0
0
ENDTAB
0
TABLE
2
LAYER
5
2
100
AcDbSymbolTable
70
2
0
LAYER
5
50
100
AcDbSymbolTableRecord
100
AcDbLayerTableRecord
2
0
70
0
6
CONTINUOUS
0
ENDTAB
0
TABLE
2
STYLE
5
3
100
AcDbSymbolTable
70
1
0
STYLE
5
11
100
AcDbSymbolTableRecord
100
AcDbTextStyleTableRecord
2
STANDARD
70
0
0
ENDTAB
0
TABLE
2
VIEW
5
6
100
AcDbSymbolTable
70
0
0
ENDTAB
0
TABLE
2
UCS
5
7
100
AcDbSymbolTable
70
0
0
ENDTAB
0
TABLE
2
APPID
5
9
100
AcDbSymbolTable
70
2
0
APPID
5
12
100
AcDbSymbolTableRecord
100
AcDbRegAppTableRecord
2
ACAD
70
0
0
ENDTAB
0
TABLE
2
DIMSTYLE
5
A
100
AcDbSymbolTable
70
1
0
ENDTAB
0
TABLE
2
BLOCK_RECORD
5
1
100
AcDbSymbolTable
70
1
0
BLOCK_RECORD
5
1F
100
AcDbSymbolTableRecord
100
AcDbBlockTableRecord
2
*MODEL_SPACE
0
BLOCK_RECORD
5
1B
100
AcDbSymbolTableRecord
100
AcDbBlockTableRecord
2
*PAPER_SPACE
0
ENDTAB
0
ENDSEC
0
SECTION
2
BLOCKS
0
BLOCK
5
20
100
AcDbEntity
100
AcDbBlockBegin
2
*MODEL_SPACE
0
ENDBLK
5
21
100
AcDbEntity
100
AcDbBlockEnd
0
BLOCK
5
1C
100
AcDbEntity
100
AcDbBlockBegin
2
*PAPER_SPACE
0
ENDBLK
5
1D
100
AcDbEntity
100
AcDbBlockEnd
0
ENDSEC
0
SECTION
2
ENTITIES
0
LWPOLYLINE
5
100
100
AcDbEntity
8
0
100
AcDbPolyline
90
6
70
1
43
0.0
10
-188.86399287802016
20
82.175000000000011
10
-187.56495477234347
20
79.925000000000026
10
-184.96687856099015
20
79.92500000000004
10
-183.66784045531352
20
82.17500000000004
10
-184.96687856099021
20
84.425000000000026
10
-187.56495477234353
20
84.425000000000026
0
LWPOLYLINE
5
101
100
AcDbEntity
8
0
100
AcDbPolyline
90
6
70
1
43
0.0
10
-91.385121439010078
20
-3.7250000000000041
10
-92.684159544686707
20
-5.9750000000000085
10
-91.385121439010049
20
-8.2250000000000068
10
-88.787045227656733
20
-8.2249999999999996
10
-87.488007121980075
20
-5.9749999999999961
10
-88.787045227656748
20
-3.7250000000000005
0
LWPOLYLINE
5
102
100
AcDbEntity
8
0
100
AcDbPolyline
90
6
70
1
43
0.0
10
-188.8639928780201
20
-5.9750000000066432
10
-187.56495477234347
20
-8.2250000000066805
10
-184.96687856099015
20
-8.2250000000066841
10
-183.66784045531352
20
-5.9750000000067178
10
-184.96687856099015
20
-3.7250000000067511
10
-187.56495477234347
20
-3.7250000000067471
0
LWPOLYLINE
5
103
100
AcDbEntity
8
0
100
AcDbPolyline
90
6
70
1
43
0.0
10
-92.684159544686764
20
82.175000000000011
10
-91.385121439010106
20
79.924999999999983
10
-88.78704522765679
20
79.924999999999969
10
-87.488007121980104
20
82.174999999999983
10
-88.787045227656733
20
84.424999999999983
10
-91.385121439010049
20
84.425000000000011
0
LWPOLYLINE
5
104
100
AcDbEntity
8
0
100
AcDbPolyline
90
6
70
1
43
0.0
10
-285.04382621135358
20
82.174999999999997
10
-283.74478810567689
20
79.924999999999983
10
-281.14671189432357
20
79.925000000000011
10
-279.84767378864694
20
82.175000000000026
10
-281.14671189432363
20
84.425000000000011
10
-283.74478810567695
20
84.425000000000011
0
LWPOLYLINE
5
105
100
AcDbEntity
8
0
100
AcDbPolyline
90
6
70
1
43
0.0
10
3.4956737886466782
20
-5.9750000000000112
10
4.794711894323342
20
-8.225000000000005
10
7.392788105676658
20
-8.2249999999999961
10
8.6918262113533089
20
-5.9749999999999925
10
7.3927881056766429
20
-3.7249999999999979
10
4.7947118943233287
20
-3.7250000000000072
0
LWPOLYLINE
5
106
100
AcDbEntity
8
0
100
AcDbPolyline
90
6
70
1
43
0.0
10
-285.04382621135358
20
-5.9749999999999348
10
-283.74478810567683
20
-8.2250000000000085
10
-281.14671189432352
20
-8.2250000000000121
10
-279.84767378864683
20
-5.975000000000005
10
-281.14671189432352
20
-3.7249999999999943
10
-283.74478810567683
20
-3.7249999999999899
0
LWPOLYLINE
5
107
100
AcDbEntity
8
0
100
AcDbPolyline
90
6
70
1
43
0.0
10
4.794711894323326
20
84.424999999999983
10
3.495673788646676
20
82.174999999999983
10
4.7947118943233402
20
79.924999999999983
10
7.3927881056766553
20
79.924999999999997
10
8.6918262113533054
20
82.175000000000011
10
7.3927881056766411
20
84.424999999999983
0
LWPOLYLINE
5
108
100
AcDbEntity
8
0
100
AcDbPolyline
90
32
70
1
43
0.0
10
-130.11250000000001
20
-1.9750000000000019
42
-0.41421356237309426
10
-129.11250000000001
20
-0.9750000000000012
10
0.093749999999985734
20
-0.97500000000000042
42
0.41421356237310036
10
1.09375
20
0.025000000000003908
10
1.0937499999999991
20
57.125
42
0.41421356237310025
10
0.093749999999985789
20
58.125
10
-26.600000000000001
20
58.124999999999986
42
-0.41421356237309503
10
-27.600000000000016
20
59.125
10
-27.599999999999994
20
76.174999999999997
42
0.41421356237309503
10
-28.599999999999994
20
77.174999999999997
10
-247.62500000000003
20
77.174999999999997
42
0.41421356237312884
10
-248.62500000000006
20
76.174999999999997
10
-248.62500000000006
20
59.125000000000007
42
-0.41421356237309503
10
-249.62500000000006
20
58.125000000000007
10
-276.31875000000008
20
58.125000000000007
42
0.41421356237313145
10
-277.31875000000008
20
57.125000000000014
10
-277.31875000000008
20
0.024999999999995148
42
0.4142135623731058
10
-276.31875000000008
20
-0.97499999999998144
10
-147.11250000000004
20
-0.97499999999998088
42
-0.41421356237309687
10
-146.11250000000001
20
-1.9750000000000012
10
-146.11250000000001
20
-9.9750000000000014
42
-0.41421356237309404
10
-147.11250000000001
20
-10.975000000000001
10
-282.31875000000008
20
-10.975000000000001
42
-0.41421356237309503
10
-287.31875000000008
20
-5.9750000000000014
10
-287.31875000000008
20
82.174999999999997
42
-0.41421356237309293
10
-282.31875000000008
20
87.175000000000011
10
6.09375
20
87.175000000000011
42
-0.41421356237309348
10
11.09375
20
82.175000000000011
10
11.09375
20
-5.9750000000000005
42
-0.41421356237309509
10
6.09375
20
-10.975000000000001
10
-129.11249999999998
20
-10.975000000000023
42
-0.41421356237309731
10
-130.11250000000001
20
-9.9750000000000014
0
ENDSEC
0
SECTION
2
OBJECTS
0
DICTIONARY
5
C
100
AcDbDictionary
3
ACAD_GROUP
350
D
3
ACAD_MLINESTYLE
350
17
0
DICTIONARY
5
D
100
AcDbDictionary
0
DICTIONARY
5
1A
330
C
100
AcDbDictionary
0
DICTIONARY
5
17
100
AcDbDictionary
0
ENDSEC
0
EOF
