0
SECTION
2
HEADER
9
$INSUNITS
70
4
9
$ACADVER
1
AC1014
9
$HANDSEED
5
FFFF
0
ENDSEC
0
SECTION
2
TABLES
0
TABLE
2
VPORT
5
8
100
AcDbSymbolTable
0
ENDTAB
0
TABLE
2
LTYPE
5
5
100
AcDbSymbolTable
0
LTYPE
5
14
100
AcDbSymbolTableRecord
100
AcDbLinetypeTableRecord
2
BYBLOCK
70
0
0
LTYPE
5
15
100
AcDbSymbolTableRecord
100
AcDbLinetypeTableRecord
2
BYLAYER
70
0
0
ENDTAB
0
TABLE
2
LAYER
5
2
100
AcDbSymbolTable
70
2
0
LAYER
5
50
100
AcDbSymbolTableRecord
100
AcDbLayerTableRecord
2
0
70
0
6
CONTINUOUS
0
ENDTAB
0
TABLE
2
STYLE
5
3
100
AcDbSymbolTable
70
1
0
STYLE
5
11
100
AcDbSymbolTableRecord
100
AcDbTextStyleTableRecord
2
STANDARD
70
0
0
ENDTAB
0
TABLE
2
VIEW
5
6
100
AcDbSymbolTable
70
0
0
ENDTAB
0
TABLE
2
UCS
5
7
100
AcDbSymbolTable
70
0
0
ENDTAB
0
TABLE
2
APPID
5
9
100
AcDbSymbolTable
70
2
0
APPID
5
12
100
AcDbSymbolTableRecord
100
AcDbRegAppTableRecord
2
ACAD
70
0
0
ENDTAB
0
TABLE
2
DIMSTYLE
5
A
100
AcDbSymbolTable
70
1
0
ENDTAB
0
TABLE
2
BLOCK_RECORD
5
1
100
AcDbSymbolTable
70
1
0
BLOCK_RECORD
5
1F
100
AcDbSymbolTableRecord
100
AcDbBlockTableRecord
2
*MODEL_SPACE
0
BLOCK_RECORD
5
1B
100
AcDbSymbolTableRecord
100
AcDbBlockTableRecord
2
*PAPER_SPACE
0
ENDTAB
0
ENDSEC
0
SECTION
2
BLOCKS
0
BLOCK
5
20
100
AcDbEntity
100
AcDbBlockBegin
2
*MODEL_SPACE
0
ENDBLK
5
21
100
AcDbEntity
100
AcDbBlockEnd
0
BLOCK
5
1C
100
AcDbEntity
100
AcDbBlockBegin
2
*PAPER_SPACE
0
ENDBLK
5
1D
100
AcDbEntity
100
AcDbBlockEnd
0
ENDSEC
0
SECTION
2
ENTITIES
0
LWPOLYLINE
5
100
100
AcDbEntity
8
0
100
AcDbPolyline
90
6
70
1
43
0.0
10
-188.86399287802016
20
82.175000000000011
10
-187.56495477234347
20
79.925000000000026
10
-184.96687856099015
20
79.92500000000004
10
-183.66784045531352
20
82.17500000000004
10
-184.96687856099021
20
84.425000000000026
10
-187.56495477234353
20
84.425000000000026
0
LWPOLYLINE
5
101
100
AcDbEntity
8
0
100
AcDbPolyline
90
6
70
1
43
0.0
10
-91.385121439010078
20
-3.7250000000000041
10
-92.684159544686707
20
-5.9750000000000085
10
-91.385121439010049
20
-8.2250000000000068
10
-88.787045227656733
20
-8.2249999999999996
10
-87.488007121980075
20
-5.9749999999999961
10
-88.787045227656748
20
-3.7250000000000005
0
LWPOLYLINE
5
102
100
AcDbEntity
8
0
100
AcDbPolyline
90
6
70
1
43
0.0
10
-188.8639928780201
20
-5.9750000000066432
10
-187.56495477234347
20
-8.2250000000066805
10
-184.96687856099015
20
-8.2250000000066841
10
-183.66784045531352
20
-5.9750000000067178
10
-184.96687856099015
20
-3.7250000000067511
10
-187.56495477234347
20
-3.7250000000067471
0
LWPOLYLINE
5
103
100
AcDbEntity
8
0
100
AcDbPolyline
90
6
70
1
43
0.0
10
-92.684159544686764
20
82.175000000000011
10
-91.385121439010106
20
79.924999999999983
10
-88.78704522765679
20
79.924999999999969
10
-87.488007121980104
20
82.174999999999983
10
-88.787045227656733
20
84.424999999999983
10
-91.385121439010049
20
84.425000000000011
0
LWPOLYLINE
5
104
100
AcDbEntity
8
0
100
AcDbPolyline
90
6
70
1
43
0.0
10
-285.04382621135358
20
82.174999999999997
10
-283.74478810567689
20
79.924999999999983
10
-281.14671189432357
20
79.925000000000011
10
-279.84767378864694
20
82.175000000000026
10
-281.14671189432363
20
84.425000000000011
10
-283.74478810567695
20
84.425000000000011
0
LWPOLYLINE
5
105
100
AcDbEntity
8
0
100
AcDbPolyline
90
6
70
1
43
0.0
10
3.4956737886466782
20
-5.9750000000000112
10
4.794711894323342
20
-8.225000000000005
10
7.392788105676658
20
-8.2249999999999961
10
8.6918262113533089
20
-5.9749999999999925
10
7.3927881056766429
20
-3.7249999999999979
10
4.7947118943233287
20
-3.7250000000000072
0
LWPOLYLINE
5
106
100
AcDbEntity
8
0
100
AcDbPolyline
90
6
70
1
43
0.0
10
-285.04382621135358
20
-5.9749999999999348
10
-283.74478810567683
20
-8.2250000000000085
10
-281.14671189432352
20
-8.2250000000000121
10
-279.84767378864683
20
-5.975000000000005
10
-281.14671189432352
20
-3.7249999999999943
10
-283.74478810567683
20
-3.7249999999999899
0
LWPOLYLINE
5
107
100
AcDbEntity
8
0
100
AcDbPolyline
90
6
70
1
43
0.0
10
4.794711894323326
20
84.424999999999983
10
3.495673788646676
20
82.174999999999983
10
4.7947118943233402
20
79.924999999999983
10
7.3927881056766553
20
79.924999999999997
10
8.6918262113533054
20
82.175000000000011
10
7.3927881056766411
20
84.424999999999983
0
LWPOLYLINE
5
108
100
AcDbEntity
8
0
100
AcDbPolyline
90
8
70
1
43
0.0
10
-64.4375
20
3.0249999999999999
42
-0.41421356237309664
10
-64.9375
20
2.5249999999999999
10
-77.9375
20
2.525000000000003
42
-0.41421356237309437
10
-78.4375
20
3.0249999999999999
10
-78.4375
20
16.024999999999999
42
-0.4142135623730937
10
-77.9375
20
16.525000000000002
10
-64.9375
20
16.525000000000002
42
-0.41421356237309764
10
-64.4375
20
16.024999999999999
0
LWPOLYLINE
5
109
100
AcDbEntity
8
0
100
AcDbPolyline
90
8
70
1
43
0.0
10
-159.6875
20
3.0249999999999999
42
-0.41421356237309503
10
-160.1875
20
2.5249999999999999
10
-173.1875
20
2.5249999999999817
42
-0.41421356237310153
10
-173.68750000000003
20
3.0249999999999999
10
-173.68750000000003
20
16.024999999999999
42
-0.41421356237304691
10
-173.1875
20
16.525000000000002
10
-160.1875
20
16.525000000000009
42
-0.41421356237309631
10
-159.6875
20
16.024999999999999
0
LWPOLYLINE
5
110
100
AcDbEntity
8
0
100
AcDbPolyline
90
8
70
1
43
0.0
10
-45.387500000000003
20
3.0249999999999999
42
-0.41421356237309404
10
-45.887500000000003
20
2.5249999999999999
10
-58.88750000000001
20
2.525000000000003
42
-0.41421356237309437
10
-59.387500000000003
20
3.0249999999999999
10
-59.387500000000003
20
16.024999999999999
42
-0.4142135623730937
10
-58.88750000000001
20
16.525000000000002
10
-45.887500000000003
20
16.524999999999999
42
-0.41421356237309503
10
-45.387500000000003
20
16.024999999999999
0
LWPOLYLINE
5
111
100
AcDbEntity
8
0
100
AcDbPolyline
90
8
70
1
43
0.0
10
-121.58749999999999
20
3.0249999999999999
42
-0.41421356237310542
10
-122.08750000000002
20
2.5249999999999999
10
-135.08750000000001
20
2.5249999999999941
42
-0.41421356237307355
10
-135.58750000000001
20
3.0249999999999999
10
-135.58750000000001
20
16.024999999999999
42
-0.41421356237307555
10
-135.08750000000001
20
16.525000000000002
10
-122.08750000000002
20
16.525000000000009
42
-0.41421356237309631
10
-121.58750000000001
20
16.024999999999999
0
LWPOLYLINE
5
112
100
AcDbEntity
8
0
100
AcDbPolyline
90
8
70
1
43
0.0
10
-257.31874999999997
20
3.0249999999999999
42
-0.41421356237307749
10
-257.81875000000002
20
2.5249999999999999
10
-270.81875000000002
20
2.5249999999999817
42
-0.41421356237310153
10
-271.31875000000002
20
3.0249999999999999
10
-271.31875000000002
20
16.024999999999999
42
-0.41421356237304691
10
-270.81875000000002
20
16.525000000000002
10
-257.81875000000002
20
16.525000000000002
42
-0.41421356237313406
10
-257.31875000000002
20
16.024999999999999
0
LWPOLYLINE
5
113
100
AcDbEntity
8
0
100
AcDbPolyline
90
8
70
1
43
0.0
10
-235.88750000000002
20
3.0249999999999999
42
-0.41421356237304624
10
-236.38750000000002
20
2.5249999999999999
10
-249.38749999999999
20
2.5249999999999817
42
-0.41421356237310153
10
-249.88749999999999
20
3.0249999999999999
10
-249.88749999999999
20
16.024999999999999
42
-0.41421356237304691
10
-249.38749999999999
20
16.525000000000002
10
-236.38750000000002
20
16.524999999999984
42
-0.41421356237312362
10
-235.88750000000002
20
16.024999999999999
0
LWPOLYLINE
5
114
100
AcDbEntity
8
0
100
AcDbPolyline
90
8
70
1
43
0.0
10
-216.83750000000001
20
3.0249999999999999
42
-0.41421356237304624
10
-217.33750000000001
20
2.5249999999999999
10
-230.33750000000001
20
2.5249999999999995
42
-0.41421356237313273
10
-230.83750000000003
20
3.0249999999999999
10
-230.83750000000006
20
16.024999999999999
42
-0.4142135623730781
10
-230.33750000000001
20
16.525000000000002
10
-217.33750000000001
20
16.524999999999984
42
-0.41421356237312362
10
-216.83750000000001
20
16.024999999999999
0
LWPOLYLINE
5
115
100
AcDbEntity
8
0
100
AcDbPolyline
90
8
70
1
43
0.0
10
-226.36250000000001
20
22.074999999999999
42
-0.41421356237305079
10
-226.86250000000001
20
21.575000000000003
10
-239.86250000000001
20
21.574999999999996
42
-0.41421356237313406
10
-240.36250000000001
20
22.074999999999999
10
-240.36250000000007
20
35.075000000000003
42
-0.41421356237307683
10
-239.86250000000001
20
35.575000000000003
10
-226.86250000000001
20
35.575000000000017
42
-0.41421356237310025
10
-226.36250000000001
20
35.075000000000003
0
LWPOLYLINE
5
116
100
AcDbEntity
8
0
100
AcDbPolyline
90
8
70
1
43
0.0
10
-207.3125
20
22.074999999999999
42
-0.41421356237305079
10
-207.8125
20
21.575000000000003
10
-220.8125
20
21.574999999999996
42
-0.41421356237313406
10
-221.3125
20
22.074999999999999
10
-221.31250000000006
20
35.075000000000003
42
-0.41421356237307683
10
-220.8125
20
35.575000000000003
10
-207.8125
20
35.575000000000017
42
-0.41421356237310025
10
-207.3125
20
35.075000000000003
0
LWPOLYLINE
5
117
100
AcDbEntity
8
0
100
AcDbPolyline
90
8
70
1
43
0.0
10
-197.78749999999999
20
3.0249999999999999
42
-0.41421356237304624
10
-198.28749999999999
20
2.5249999999999999
10
-211.28749999999999
20
2.5249999999999995
42
-0.41421356237313273
10
-211.78750000000002
20
3.0249999999999999
10
-211.78750000000005
20
16.024999999999999
42
-0.4142135623730781
10
-211.28749999999999
20
16.525000000000002
10
-198.28749999999999
20
16.524999999999984
42
-0.41421356237312362
10
-197.78749999999999
20
16.024999999999999
0
LWPOLYLINE
5
118
100
AcDbEntity
8
0
100
AcDbPolyline
90
8
70
1
43
0.0
10
-140.63749999999996
20
3.0249999999999999
42
-0.41421356237310542
10
-141.13749999999999
20
2.5249999999999999
10
-154.13749999999999
20
2.5249999999999941
42
-0.41421356237309437
10
-154.63750000000002
20
3.0249999999999999
10
-154.63750000000002
20
16.024999999999999
42
-0.41421356237310675
10
-154.13749999999999
20
16.525000000000002
10
-141.13749999999999
20
16.525000000000009
42
-0.41421356237309631
10
-140.63749999999999
20
16.024999999999999
0
LWPOLYLINE
5
119
100
AcDbEntity
8
0
100
AcDbPolyline
90
8
70
1
43
0.0
10
-252.55625000000003
20
22.074999999999999
42
-0.41421356237308204
10
-253.05625000000003
20
21.575000000000003
10
-266.05624999999998
20
21.574999999999996
42
-0.41421356237313406
10
-266.55624999999998
20
22.074999999999999
10
-266.55625000000003
20
35.075000000000003
42
-0.41421356237307683
10
-266.05624999999998
20
35.575000000000003
10
-253.05625000000003
20
35.575000000000003
42
-0.41421356237313145
10
-252.55625000000003
20
35.075000000000003
0
LWPOLYLINE
5
120
100
AcDbEntity
8
0
100
AcDbPolyline
90
8
70
1
43
0.0
10
-4.90625
20
3.0249999999999999
42
-0.41421356237309598
10
-5.4062499999999991
20
2.5249999999999999
10
-18.40625
20
2.5249999999999986
42
-0.41421356237309309
10
-18.906250000000004
20
3.0249999999999999
10
-18.906250000000004
20
16.024999999999999
42
-0.41421356237309243
10
-18.40625
20
16.525000000000002
10
-5.4062499999999991
20
16.525000000000002
42
-0.41421356237309437
10
-4.90625
20
16.024999999999999
0
LWPOLYLINE
5
121
100
AcDbEntity
8
0
100
AcDbPolyline
90
8
70
1
43
0.0
10
-178.73749999999998
20
3.0249999999999999
42
-0.41421356237307749
10
-179.23750000000001
20
2.5249999999999999
10
-192.23750000000001
20
2.5249999999999817
42
-0.41421356237310153
10
-192.73750000000004
20
3.0249999999999999
10
-192.73750000000004
20
16.024999999999999
42
-0.41421356237304691
10
-192.23750000000001
20
16.525000000000002
10
-179.23750000000001
20
16.525000000000002
42
-0.41421356237313406
10
-178.73750000000001
20
16.024999999999999
0
LWPOLYLINE
5
122
100
AcDbEntity
8
0
100
AcDbPolyline
90
8
70
1
43
0.0
10
-201.76249999999999
20
21.574999999999996
42
-0.41421356237313406
10
-202.26249999999999
20
22.074999999999999
10
-202.26250000000005
20
35.075000000000003
42
-0.41421356237307683
10
-201.76249999999999
20
35.575000000000003
10
-188.76249999999999
20
35.575000000000017
42
-0.41421356237310025
10
-188.26249999999999
20
35.075000000000003
10
-188.26249999999999
20
22.074999999999999
42
-0.41421356237305079
10
-188.76249999999999
20
21.575000000000003
0
LWPOLYLINE
5
123
100
AcDbEntity
8
0
100
AcDbPolyline
90
8
70
1
43
0.0
10
-39.837500000000006
20
2.5249999999999995
42
-0.41421356237310153
10
-40.337500000000006
20
3.0249999999999999
10
-40.337500000000006
20
16.024999999999999
42
-0.41421356237310414
10
-39.837499999999999
20
16.525000000000002
10
-26.837499999999999
20
16.525000000000002
42
-0.41421356237309631
10
-26.337499999999999
20
16.024999999999999
10
-26.337499999999999
20
3.0249999999999999
42
-0.41421356237309537
10
-26.837499999999999
20
2.5249999999999999
0
LWPOLYLINE
5
124
100
AcDbEntity
8
0
100
AcDbPolyline
90
8
70
1
43
0.0
10
-96.987500000000011
20
2.5249999999999941
42
-0.41421356237309437
10
-97.487500000000011
20
3.0249999999999999
10
-97.487500000000011
20
16.024999999999999
42
-0.41421356237310675
10
-96.987500000000011
20
16.525000000000002
10
-83.987499999999997
20
16.525000000000009
42
-0.41421356237309631
10
-83.487499999999983
20
16.024999999999999
10
-83.487499999999969
20
3.0249999999999999
42
-0.41421356237310542
10
-83.987499999999997
20
2.5249999999999999
0
LWPOLYLINE
5
125
100
AcDbEntity
8
0
100
AcDbPolyline
90
8
70
1
43
0.0
10
-102.53749999999998
20
3.0249999999999999
42
-0.41421356237310542
10
-103.03750000000001
20
2.5249999999999999
10
-116.03749999999999
20
2.5249999999999941
42
-0.41421356237307355
10
-116.53750000000001
20
3.0249999999999999
10
-116.53749999999999
20
16.024999999999999
42
-0.41421356237307555
10
-116.03749999999999
20
16.525000000000002
10
-103.03750000000001
20
16.525000000000009
42
-0.41421356237309631
10
-102.53749999999999
20
16.024999999999999
0
LWPOLYLINE
5
126
100
AcDbEntity
8
0
100
AcDbPolyline
90
8
70
1
43
0.0
10
-73.96250000000002
20
22.074999999999999
42
-0.41421356237309764
10
-74.462500000000006
20
21.575000000000003
10
-87.46250000000002
20
21.574999999999992
42
-0.41421356237307422
10
-87.96250000000002
20
22.074999999999999
10
-87.962500000000006
20
35.075000000000003
42
-0.41421356237310025
10
-87.46250000000002
20
35.575000000000003
10
-74.462500000000006
20
35.575000000000003
42
-0.41421356237309764
10
-73.962500000000006
20
35.075000000000003
0
LWPOLYLINE
5
127
100
AcDbEntity
8
0
100
AcDbPolyline
90
8
70
1
43
0.0
10
-54.912500000000009
20
22.074999999999999
42
-0.41421356237309503
10
-55.412500000000009
20
21.575000000000003
10
-68.412499999999994
20
21.575000000000003
42
-0.41421356237309503
10
-68.912499999999994
20
22.074999999999999
10
-68.912499999999994
20
35.075000000000003
42
-0.41421356237309503
10
-68.412499999999994
20
35.575000000000003
10
-55.412500000000009
20
35.575000000000003
42
-0.41421356237309503
10
-54.912500000000009
20
35.075000000000003
0
LWPOLYLINE
5
128
100
AcDbEntity
8
0
100
AcDbPolyline
90
8
70
1
43
0.0
10
-131.11250000000001
20
22.074999999999999
42
-0.41421356237310802
10
-131.61250000000001
20
21.575000000000003
10
-144.61250000000001
20
21.574999999999992
42
-0.41421356237307422
10
-145.11250000000001
20
22.074999999999999
10
-145.11250000000001
20
35.075000000000003
42
-0.41421356237310025
10
-144.61250000000001
20
35.575000000000003
10
-131.61250000000001
20
35.575000000000003
42
-0.41421356237309243
10
-131.11250000000001
20
35.075000000000003
0
LWPOLYLINE
5
129
100
AcDbEntity
8
0
100
AcDbPolyline
90
8
70
1
43
0.0
10
-150.16249999999999
20
22.074999999999999
42
-0.41421356237310802
10
-150.66249999999999
20
21.575000000000003
10
-163.66250000000002
20
21.574999999999982
42
-0.41421356237310281
10
-164.16250000000002
20
22.074999999999999
10
-164.16250000000002
20
35.075000000000003
42
-0.41421356237304563
10
-163.66250000000002
20
35.575000000000003
10
-150.66249999999999
20
35.575000000000003
42
-0.41421356237309243
10
-150.16249999999999
20
35.075000000000003
0
LWPOLYLINE
5
130
100
AcDbEntity
8
0
100
AcDbPolyline
90
8
70
1
43
0.0
10
-169.21250000000001
20
22.074999999999999
42
-0.41421356237308204
10
-169.71250000000001
20
21.575000000000003
10
-182.71250000000003
20
21.574999999999982
42
-0.41421356237310281
10
-183.21250000000003
20
22.074999999999999
10
-183.21250000000003
20
35.075000000000003
42
-0.41421356237304563
10
-182.71250000000003
20
35.575000000000003
10
-169.71250000000001
20
35.575000000000003
42
-0.41421356237313145
10
-169.21250000000001
20
35.075000000000003
0
LWPOLYLINE
5
131
100
AcDbEntity
8
0
100
AcDbPolyline
90
8
70
1
43
0.0
10
-106.51250000000002
20
21.574999999999992
42
-0.41421356237309503
10
-107.01250000000002
20
22.074999999999999
10
-107.01250000000002
20
35.075000000000003
42
-0.41421356237310542
10
-106.51250000000002
20
35.575000000000003
10
-93.512500000000003
20
35.575000000000003
42
-0.41421356237309243
10
-93.012499999999989
20
35.075000000000003
10
-93.012499999999989
20
22.074999999999999
42
-0.41421356237310802
10
-93.512500000000003
20
21.575000000000003
0
LWPOLYLINE
5
132
100
AcDbEntity
8
0
100
AcDbPolyline
90
8
70
1
43
0.0
10
-125.5625
20
21.574999999999992
42
-0.41421356237307422
10
-126.06250000000001
20
22.074999999999999
10
-126.0625
20
35.075000000000003
42
-0.41421356237310025
10
-125.5625
20
35.575000000000003
10
-112.56250000000001
20
35.575000000000003
42
-0.41421356237309243
10
-112.0625
20
35.075000000000003
10
-112.0625
20
22.074999999999999
42
-0.41421356237310802
10
-112.56250000000001
20
21.575000000000003
0
LWPOLYLINE
5
133
100
AcDbEntity
8
0
100
AcDbPolyline
90
8
70
1
43
0.0
10
-35.862500000000004
20
22.074999999999999
42
-0.41421356237309503
10
-36.362499999999997
20
21.575000000000003
10
-49.362500000000004
20
21.575000000000003
42
-0.41421356237309503
10
-49.862499999999997
20
22.074999999999999
10
-49.862499999999997
20
35.075000000000003
42
-0.41421356237309503
10
-49.362500000000004
20
35.575000000000003
10
-36.362499999999997
20
35.575000000000003
42
-0.41421356237309503
10
-35.862500000000004
20
35.075000000000003
0
LWPOLYLINE
5
134
100
AcDbEntity
8
0
100
AcDbPolyline
90
8
70
1
43
0.0
10
-9.6687499999999993
20
22.074999999999996
42
-0.4142135623730937
10
-10.168749999999999
20
21.575000000000003
10
-23.168749999999999
20
21.575000000000003
42
-0.41421356237309503
10
-23.668749999999999
20
22.074999999999999
10
-23.668749999999999
20
35.075000000000003
42
-0.41421356237309503
10
-23.168749999999999
20
35.575000000000003
10
-10.168749999999999
20
35.575000000000003
42
-0.41421356237309503
10
-9.6687499999999993
20
35.075000000000003
0
LWPOLYLINE
5
135
100
AcDbEntity
8
0
100
AcDbPolyline
90
8
70
1
43
0.0
10
-31.099999999999998
20
60.174999999999997
42
-0.41421356237309764
10
-31.600000000000001
20
59.675000000000004
10
-44.600000000000001
20
59.675000000000004
42
-0.41421356237309503
10
-45.099999999999994
20
60.174999999999997
10
-45.099999999999994
20
73.174999999999997
42
-0.41421356237309503
10
-44.600000000000001
20
73.674999999999997
10
-31.600000000000001
20
73.674999999999997
42
-0.41421356237309503
10
-31.100000000000001
20
73.174999999999997
0
LWPOLYLINE
5
136
100
AcDbEntity
8
0
100
AcDbPolyline
90
8
70
1
43
0.0
10
-52.531250000000007
20
60.174999999999997
42
-0.41421356237309503
10
-53.031250000000007
20
59.675000000000004
10
-66.03125
20
59.675000000000004
42
-0.41421356237310542
10
-66.53125
20
60.174999999999997
10
-66.53125
20
73.174999999999997
42
-0.41421356237309503
10
-66.03125
20
73.674999999999997
10
-53.031250000000007
20
73.674999999999997
42
-0.41421356237309503
10
-52.531250000000007
20
73.174999999999997
0
LWPOLYLINE
5
137
100
AcDbEntity
8
0
100
AcDbPolyline
90
8
70
1
43
0.0
10
-45.387500000000003
20
41.125
42
-0.41421356237309503
10
-45.887500000000003
20
40.625
10
-58.88750000000001
20
40.625
42
-0.41421356237309503
10
-59.387500000000003
20
41.125
10
-59.387500000000003
20
54.125000000000007
42
-0.41421356237309503
10
-58.88750000000001
20
54.625
10
-45.887500000000003
20
54.625
42
-0.41421356237309503
10
-45.387500000000003
20
54.125000000000007
0
LWPOLYLINE
5
138
100
AcDbEntity
8
0
100
AcDbPolyline
90
8
70
1
43
0.0
10
-64.4375
20
41.125
42
-0.41421356237309503
10
-64.9375
20
40.625
10
-77.9375
20
40.625
42
-0.41421356237309503
10
-78.4375
20
41.125
10
-78.4375
20
54.125000000000007
42
-0.41421356237309503
10
-77.9375
20
54.625
10
-64.9375
20
54.625
42
-0.41421356237309503
10
-64.4375
20
54.125000000000007
0
LWPOLYLINE
5
139
100
AcDbEntity
8
0
100
AcDbPolyline
90
8
70
1
43
0.0
10
-178.73749999999998
20
41.125
42
-0.41421356237307422
10
-179.23750000000001
20
40.625
10
-192.23750000000001
20
40.625000000000014
42
-0.41421356237312101
10
-192.73750000000004
20
41.125
10
-192.73750000000001
20
54.125000000000007
42
-0.4142135623730222
10
-192.23750000000001
20
54.625
10
-179.23750000000001
20
54.625
42
-0.41421356237313145
10
-178.73750000000001
20
54.125000000000007
0
LWPOLYLINE
5
140
100
AcDbEntity
8
0
100
AcDbPolyline
90
8
70
1
43
0.0
10
-102.53749999999999
20
41.125
42
-0.41421356237308982
10
-103.03750000000001
20
40.625
10
-116.03749999999999
20
40.624999999999993
42
-0.41421356237307422
10
-116.53750000000001
20
41.125
10
-116.53749999999999
20
54.125000000000007
42
-0.41421356237310025
10
-116.03749999999999
20
54.625
10
-103.03750000000001
20
54.625000000000014
42
-0.41421356237309503
10
-102.53749999999999
20
54.125000000000007
0
LWPOLYLINE
5
141
100
AcDbEntity
8
0
100
AcDbPolyline
90
8
70
1
43
0.0
10
-83.487499999999983
20
41.125
42
-0.41421356237308982
10
-83.987499999999997
20
40.625
10
-96.987500000000011
20
40.624999999999993
42
-0.41421356237309503
10
-97.487500000000011
20
41.125
10
-97.487500000000011
20
54.125000000000007
42
-0.41421356237308982
10
-96.987500000000011
20
54.625
10
-83.987499999999997
20
54.625000000000014
42
-0.41421356237309503
10
-83.487499999999983
20
54.125000000000007
0
LWPOLYLINE
5
142
100
AcDbEntity
8
0
100
AcDbPolyline
90
8
70
1
43
0.0
10
-121.58750000000001
20
41.125
42
-0.41421356237308982
10
-122.08750000000002
20
40.625
10
-135.08750000000001
20
40.624999999999993
42
-0.41421356237307422
10
-135.58750000000001
20
41.125
10
-135.58750000000001
20
54.125000000000007
42
-0.41421356237310025
10
-135.08750000000001
20
54.625
10
-122.08750000000002
20
54.625000000000014
42
-0.41421356237309503
10
-121.58750000000001
20
54.125000000000007
0
LWPOLYLINE
5
143
100
AcDbEntity
8
0
100
AcDbPolyline
90
8
70
1
43
0.0
10
-140.63749999999999
20
41.125
42
-0.41421356237308982
10
-141.13749999999999
20
40.625
10
-154.13749999999999
20
40.624999999999993
42
-0.41421356237309503
10
-154.63750000000002
20
41.125
10
-154.63750000000002
20
54.125000000000007
42
-0.41421356237308982
10
-154.13749999999999
20
54.625
10
-141.13749999999999
20
54.625000000000014
42
-0.41421356237309503
10
-140.63749999999999
20
54.125000000000007
0
LWPOLYLINE
5
144
100
AcDbEntity
8
0
100
AcDbPolyline
90
8
70
1
43
0.0
10
-159.6875
20
41.125
42
-0.41421356237308982
10
-160.1875
20
40.625
10
-173.1875
20
40.625000000000014
42
-0.41421356237312101
10
-173.68750000000003
20
41.125
10
-173.6875
20
54.125000000000007
42
-0.4142135623730222
10
-173.1875
20
54.625
10
-160.1875
20
54.625000000000014
42
-0.41421356237309503
10
-159.6875
20
54.125000000000007
0
LWPOLYLINE
5
145
100
AcDbEntity
8
0
100
AcDbPolyline
90
8
70
1
43
0.0
10
-197.78750000000002
20
41.125
42
-0.4142135623730222
10
-198.28749999999999
20
40.625
10
-211.28749999999999
20
40.625
42
-0.41421356237313145
10
-211.78750000000002
20
41.125
10
-211.78750000000005
20
54.125000000000007
42
-0.41421356237307422
10
-211.28749999999999
20
54.625
10
-198.28749999999999
20
54.624999999999986
42
-0.41421356237312101
10
-197.78749999999999
20
54.125000000000007
0
LWPOLYLINE
5
146
100
AcDbEntity
8
0
100
AcDbPolyline
90
8
70
1
43
0.0
10
-216.83750000000003
20
41.125
42
-0.4142135623730222
10
-217.33750000000001
20
40.625
10
-230.33750000000001
20
40.625
42
-0.41421356237313145
10
-230.83750000000003
20
41.125
10
-230.83750000000006
20
54.125000000000007
42
-0.41421356237307422
10
-230.33750000000001
20
54.625
10
-217.33750000000001
20
54.624999999999986
42
-0.41421356237312101
10
-216.83750000000001
20
54.125000000000007
0
LWPOLYLINE
5
147
100
AcDbEntity
8
0
100
AcDbPolyline
90
8
70
1
43
0.0
10
-231.12500000000006
20
60.174999999999997
42
-0.4142135623730222
10
-231.625
20
59.675000000000004
10
-244.62500000000003
20
59.674999999999997
42
-0.41421356237313667
10
-245.12500000000003
20
60.174999999999997
10
-245.12500000000006
20
73.174999999999997
42
-0.41421356237307422
10
-244.62500000000003
20
73.674999999999997
10
-231.625
20
73.674999999999983
42
-0.41421356237312101
10
-231.125
20
73.174999999999997
0
LWPOLYLINE
5
148
100
AcDbEntity
8
0
100
AcDbPolyline
90
16
70
1
43
0.0
10
-153.16249999999999
20
73.675000000000011
42
-0.41421356237310542
10
-153.66250000000002
20
74.175000000000011
10
-153.66250000000002
20
75.174999999999997
42
0.41421356237308982
10
-154.16250000000002
20
75.674999999999983
10
-160.16249999999999
20
75.674999999999969
42
0.41421356237314705
10
-160.66249999999999
20
75.174999999999997
10
-160.66250000000002
20
56.625000000000021
42
0.41421356237315227
10
-160.16249999999999
20
56.124999999999964
10
-116.06250000000001
20
56.125000000000007
42
0.41421356237310025
10
-115.56250000000003
20
56.625000000000007
10
-115.5625
20
75.174999999999997
42
0.41421356237305862
10
-116.0625
20
75.674999999999983
10
-122.0625
20
75.674999999999983
42
0.41421356237308982
10
-122.56250000000001
20
75.174999999999997
10
-122.56250000000001
20
74.174999999999997
42
-0.41421356237308982
10
-123.06250000000003
20
73.674999999999997
0
LWPOLYLINE
5
149
100
AcDbEntity
8
0
100
AcDbPolyline
90
8
70
1
43
0.0
10
-209.69374999999997
20
60.174999999999997
42
-0.41421356237307422
10
-210.19374999999999
20
59.675000000000004
10
-223.19375000000002
20
59.675000000000011
42
-0.41421356237312623
10
-223.69375000000002
20
60.174999999999997
10
-223.69374999999997
20
73.174999999999997
42
-0.4142135623730222
10
-223.19375000000002
20
73.674999999999997
10
-210.19374999999999
20
73.674999999999997
42
-0.41421356237313145
10
-209.69374999999999
20
73.174999999999997
0
LWPOLYLINE
5
150
100
AcDbEntity
8
0
100
AcDbPolyline
90
16
70
1
43
0.0
10
-98.4255
20
73.675000000000011
42
-0.41421356237310542
10
-98.9255
20
74.175000000000011
10
-98.9255
20
75.174999999999997
42
0.41421356237308982
10
-99.4255
20
75.674999999999983
10
-105.4255
20
75.674999999999983
42
0.4142135623730534
10
-105.92550000000001
20
75.174999999999997
10
-105.92550000000001
20
56.625000000000007
42
0.41421356237307422
10
-105.4255
20
56.125
10
-75.549499999999995
20
56.125000000000007
42
0.4142135623730846
10
-75.049499999999995
20
56.625
10
-75.049499999999995
20
75.174999999999997
42
0.41421356237309503
10
-75.549499999999995
20
75.674999999999983
10
-83.96250000000002
20
75.674999999999983
42
0.41421356237305862
10
-84.462500000000006
20
75.174999999999997
10
-84.462500000000006
20
74.174999999999997
42
-0.414213562373069
10
-84.96250000000002
20
73.674999999999997
0
LWPOLYLINE
5
151
100
AcDbEntity
8
0
100
AcDbPolyline
90
16
70
1
43
0.0
10
-12.993250000000003
20
55.125
42
-0.4142135623730937
10
-13.49325
20
54.625
10
-29.369250000000015
20
54.625000000000021
42
-0.41421356237309764
10
-29.869250000000008
20
55.125000000000014
10
-29.869250000000012
20
56.125000000000007
42
0.41421356237310542
10
-30.369250000000005
20
56.625
10
-36.369250000000008
20
56.625
42
0.41421356237308721
10
-36.869250000000001
20
56.125000000000007
10
-36.869250000000001
20
37.574999999999996
42
0.41421356237309503
10
-36.369250000000001
20
37.075000000000003
10
-6.4932500000000006
20
37.075000000000003
42
0.41421356237309892
10
-5.9932500000000024
20
37.57500000000001
10
-5.993249999999998
20
56.125000000000007
42
0.41421356237309631
10
-6.493249999999998
20
56.625000000000007
10
-12.49325
20
56.625000000000007
42
0.41421356237309764
10
-12.993249999999998
20
56.125000000000007
0
LWPOLYLINE
5
152
100
AcDbEntity
8
0
100
AcDbPolyline
90
16
70
1
43
0.0
10
-262.73174999999998
20
54.625000000000014
42
-0.41421356237307944
10
-263.23174999999998
20
55.124999999999993
10
-263.23175000000003
20
56.125000000000036
42
0.41421356237305862
10
-263.73174999999998
20
56.624999999999986
10
-269.73174999999998
20
56.625
42
0.41421356237314705
10
-270.23174999999998
20
56.125000000000014
10
-270.23175000000003
20
37.574999999999996
42
0.41421356237305862
10
-269.73174999999998
20
37.074999999999953
10
-239.85575
20
37.075000000000003
42
0.41421356237307683
10
-239.35575
20
37.575000000000003
10
-239.35574999999997
20
56.125000000000014
42
0.41421356237305862
10
-239.85575
20
56.625000000000057
10
-245.85575000000003
20
56.625000000000014
42
0.41421356237307422
10
-246.35575000000003
20
56.125000000000014
10
-246.35575000000003
20
55.125
42
-0.4142135623730222
10
-246.85575
20
54.625
0
LWPOLYLINE
5
153
100
AcDbEntity
8
0
100
AcDbPolyline
90
16
70
1
43
0.0
10
-191.26249999999999
20
73.675000000000011
42
-0.41421356237312623
10
-191.76249999999999
20
74.175000000000011
10
-191.76249999999996
20
75.174999999999997
42
0.41421356237311063
10
-192.26249999999999
20
75.675000000000011
10
-200.6755
20
75.674999999999983
42
0.41421356237313667
10
-201.1755
20
75.174999999999997
10
-201.1755
20
56.625000000000028
42
0.41421356237313667
10
-200.6755
20
56.125000000000028
10
-170.79949999999999
20
56.12500000000005
42
0.41421356237309503
10
-170.29950000000002
20
56.625000000000028
10
-170.29949999999999
20
75.174999999999997
42
0.41421356237313667
10
-170.79949999999999
20
75.674999999999983
10
-176.79949999999997
20
75.674999999999969
42
0.41421356237314705
10
-177.29949999999999
20
75.174999999999997
10
-177.29950000000002
20
74.174999999999997
42
-0.4142135623730222
10
-177.79949999999999
20
73.674999999999997
0
LWPOLYLINE
5
154
100
AcDbEntity
8
0
100
AcDbPolyline
90
8
70
1
43
0.0
10
11.09375
20
-5.9750000000000005
42
-0.41421356237309515
10
6.09375
20
-10.975000000000001
10
-282.31875000000008
20
-10.975000000000001
42
-0.41421356237309503
10
-287.31875000000008
20
-5.9750000000000014
10
-287.31875000000008
20
82.174999999999997
42
-0.41421356237309293
10
-282.31875000000008
20
87.175000000000011
10
6.09375
20
87.174999999999997
42
-0.41421356237309348
10
11.093749999999991
20
82.175000000000011
0
ENDSEC
0
SECTION
2
OBJECTS
0
DICTIONARY
5
C
100
AcDbDictionary
3
ACAD_GROUP
350
D
3
ACAD_MLINESTYLE
350
17
0
DICTIONARY
5
D
100
AcDbDictionary
0
DICTIONARY
5
1A
330
C
100
AcDbDictionary
0
DICTIONARY
5
17
100
AcDbDictionary
0
ENDSEC
0
EOF
